<?xml version="1.0" standalone="no"?>
<!DOCTYPE svg PUBLIC "-//W3C//DTD SVG 20010904//EN"
 "http://www.w3.org/TR/2001/REC-SVG-20010904/DTD/svg10.dtd">
<svg version="1.0" xmlns="http://www.w3.org/2000/svg"
 width="270.000000pt" height="97.000000pt" viewBox="0 0 270.000000 97.000000"
 preserveAspectRatio="xMidYMid meet">
<metadata>
Created by potrace 1.16, written by Peter Selinger 2001-2019
</metadata>
<g transform="translate(0.000000,97.000000) scale(0.100000,-0.100000)"
fill="#000000" stroke="none">
<path d="M613 458 c-9 -12 -164 -283 -192 -336 -11 -21 -10 -22 28 -22 36 0
43 4 57 33 9 17 22 35 28 39 20 13 146 9 150 -4 3 -7 7 -25 10 -40 6 -24 11
-28 41 -28 27 0 35 4 35 18 0 9 -17 91 -38 182 l-38 165 -35 3 c-21 2 -40 -2
-46 -10z"/>
<path d="M1349 410 c-6 -33 -14 -60 -18 -60 -3 0 -15 7 -25 15 -29 22 -105 19
-144 -5 -21 -13 -41 -38 -54 -66 -48 -109 22 -218 129 -200 21 3 57 6 81 6 23
-1 42 3 42 7 0 4 14 80 30 168 37 200 37 195 1 195 -29 0 -31 -3 -42 -60z
m-55 -105 c38 -39 25 -115 -25 -141 -82 -42 -151 65 -84 131 28 29 85 34 109
10z"/>
<path d="M1867 379 c-16 -4 -35 -13 -43 -20 -11 -9 -14 -8 -14 5 0 13 -7 17
-27 14 -27 -3 -29 -7 -50 -108 -39 -188 -39 -170 0 -170 l34 0 17 82 c19 96
36 127 77 135 33 6 43 20 37 51 -2 15 -8 17 -31 11z"/>
<path d="M846 371 c-6 -9 -56 -240 -56 -258 0 -8 13 -13 30 -13 23 0 31 5 35
23 2 12 12 53 20 92 19 82 36 105 81 105 45 0 51 -25 30 -125 -21 -99 -21 -95
17 -95 l34 0 18 98 c20 111 14 149 -26 169 -29 15 -84 17 -110 3 -13 -7 -19
-7 -19 0 0 12 -47 14 -54 1z"/>
<path d="M1482 360 c-47 -29 -72 -76 -72 -136 0 -128 145 -180 243 -86 15 14
27 32 27 39 0 19 -60 16 -82 -4 -35 -32 -118 -15 -118 23 0 11 23 14 105 14
118 0 122 3 110 67 -4 22 -20 50 -40 70 -29 29 -39 33 -86 33 -36 0 -65 -7
-87 -20z"/>
<path d="M1936 359 c-23 -18 -27 -28 -24 -62 3 -35 9 -46 45 -72 44 -31 55
-61 26 -72 -11 -4 -22 1 -31 15 -19 29 -72 31 -72 3 0 -33 11 -51 41 -66 42
-22 83 -18 118 11 25 20 31 34 31 64 0 34 -6 43 -51 81 -46 39 -49 43 -34 58
15 15 17 14 34 -7 12 -16 25 -23 42 -20 33 4 35 33 5 63 -32 32 -92 34 -130 4z"/>
<path d="M2172 360 c-47 -29 -72 -76 -72 -136 0 -128 145 -180 243 -86 15 14
27 32 27 39 0 19 -60 16 -82 -4 -29 -26 -86 -22 -110 8 l-20 24 113 5 c109 5
114 6 117 28 5 36 -17 89 -49 117 -39 32 -118 35 -167 5z"/>
<path d="M2411 278 c-12 -57 -24 -120 -28 -141 l-6 -38 34 3 33 3 18 89 c20
102 37 126 84 126 44 0 49 -22 29 -125 -8 -44 -15 -83 -15 -87 0 -5 15 -8 34
-8 l34 0 16 88 c20 111 20 135 -2 162 -21 26 -98 38 -131 21 -14 -8 -21 -8
-21 -1 0 5 -13 10 -29 10 -28 0 -29 -1 -50 -102z"/>
</g>
</svg>
