<?xml version="1.0" standalone="no"?>
<!DOCTYPE svg PUBLIC "-//W3C//DTD SVG 20010904//EN"
 "http://www.w3.org/TR/2001/REC-SVG-20010904/DTD/svg10.dtd">
<svg version="1.0" xmlns="http://www.w3.org/2000/svg"
 width="200.000000pt" height="200.000000pt" viewBox="0 0 798.000000 798.000000"
 preserveAspectRatio="xMidYMid meet">
<metadata>
Created by potrace 1.16, written by Peter Selinger 2001-2019
</metadata>
<g transform="translate(0.000000,798.000000) scale(0.100000,-0.100000)"
fill="#000000" stroke="none">
<path d="M3315 6830 c-368 -16 -681 -59 -978 -135 -189 -48 -547 -161 -547
-174 0 -4 6 -14 13 -23 18 -22 2168 -1551 2181 -1551 10 0 2131 1497 2169
1530 42 38 26 49 -155 108 -414 135 -700 193 -1133 231 -215 18 -1236 27
-1550 14z m433 -395 c53 -8 127 -21 165 -28 58 -13 76 -13 134 0 242 50 405
56 511 18 38 -14 87 -25 109 -25 l40 0 67 -261 c45 -171 64 -264 58 -268 -6
-4 -201 -19 -434 -35 l-423 -28 -400 26 c-220 15 -414 29 -431 31 l-31 5 53
203 c29 111 60 230 69 264 l17 61 51 5 c29 2 77 13 107 25 68 26 194 29 338 7z"/>
<path d="M2875 5196 c-27 -7 -70 -25 -94 -39 -42 -24 -49 -25 -152 -20 -124 7
-209 -6 -286 -43 -59 -28 -88 -68 -96 -130 -2 -22 -19 -72 -36 -111 -53 -120
-64 -184 -57 -303 8 -123 28 -175 89 -238 57 -59 85 -72 157 -72 59 0 61 -1
121 -56 l62 -56 51 6 c28 3 74 13 101 22 l49 17 38 -42 c21 -24 50 -68 65 -99
47 -96 44 -273 -8 -500 -10 -45 -19 -89 -19 -97 0 -13 26 -15 155 -15 85 0
155 4 155 8 0 5 -11 42 -25 83 -84 244 -90 378 -24 516 17 35 34 63 38 63 5 0
22 -27 40 -59 17 -33 45 -71 62 -85 31 -26 82 -35 94 -16 10 16 22 12 57 -19
55 -47 71 -52 127 -40 107 23 164 102 183 257 10 83 9 96 -7 133 -15 33 -16
44 -7 57 56 77 66 171 31 299 -24 90 -53 147 -85 168 -15 9 -25 29 -29 52 -18
114 -40 142 -153 194 -57 25 -76 29 -157 29 -90 0 -93 1 -136 35 -24 19 -48
35 -54 35 -5 0 -36 16 -68 35 -68 41 -114 49 -182 31z"/>
<path d="M5062 5043 c3 -77 3 -78 31 -81 26 -3 27 -2 27 47 l0 51 120 0 120 0
0 -160 0 -160 -39 0 c-55 0 -71 -8 -71 -36 0 -22 4 -24 55 -24 48 0 55 -2 55
-20 0 -18 -7 -20 -55 -20 -51 0 -55 -2 -55 -24 0 -28 16 -36 71 -36 l39 0 0
-295 0 -295 -45 0 c-43 0 -45 -1 -45 -30 0 -29 2 -30 45 -30 l45 0 0 -85 0
-85 -45 0 c-43 0 -45 -1 -45 -30 l0 -30 65 0 c53 0 72 5 96 23 43 31 135 31
178 -1 20 -14 45 -22 71 -22 l40 0 0 145 0 145 -150 0 -150 0 0 565 0 565
-180 0 -181 0 3 -77z"/>
<path d="M4360 4470 l0 -480 -50 0 -50 0 0 -145 0 -145 50 0 50 0 0 -150 0
-150 595 0 c522 0 595 2 595 15 0 10 -10 15 -30 15 -17 0 -47 7 -67 15 -20 9
-66 15 -109 15 -59 0 -74 -3 -74 -15 0 -13 -27 -15 -185 -15 -158 0 -185 2
-185 15 0 12 -14 15 -70 15 -56 0 -70 -3 -70 -15 0 -12 -18 -15 -100 -15 -82
0 -100 3 -100 15 0 12 -15 15 -75 15 l-75 0 0 120 0 120 75 0 75 0 0 30 0 30
-75 0 -75 0 0 85 0 85 75 0 75 0 0 30 0 30 -75 0 -75 0 0 455 0 455 110 0 110
0 0 -108 0 -109 30 5 30 4 0 129 0 129 -165 0 -165 0 0 -480z"/>
<path d="M923 2974 c-17 -107 -34 -198 -37 -201 -3 -3 -51 2 -108 10 -56 9
-104 14 -107 11 -8 -7 66 -216 117 -329 138 -311 288 -522 559 -785 338 -330
493 -445 656 -487 85 -21 197 -13 427 32 106 21 198 34 216 30 38 -7 66 -36
93 -95 18 -39 20 -57 14 -136 l-6 -90 52 -23 c136 -58 263 -83 556 -111 397
-36 623 -45 852 -31 566 33 808 68 976 140 l47 20 0 103 c0 96 2 107 30 155
48 84 67 86 350 28 284 -59 407 -42 588 79 198 132 596 521 758 741 69 93 170
270 234 410 42 91 133 345 127 352 -3 2 -46 -3 -98 -12 -52 -8 -101 -15 -109
-15 -12 0 -21 39 -44 188 -16 103 -32 192 -35 199 -3 7 -34 -32 -70 -90 -352
-558 -687 -1002 -868 -1149 -224 -182 -295 -199 -537 -131 -118 34 -143 38
-251 38 -132 0 -166 -11 -209 -68 -32 -43 -26 -90 25 -195 25 -51 43 -95 39
-97 -19 -12 -225 -58 -354 -79 -319 -53 -426 -61 -816 -61 -320 0 -388 3 -550
23 -262 33 -512 79 -592 111 l-28 10 45 92 c50 103 56 146 25 196 -34 57 -69
68 -210 68 -116 0 -134 -3 -254 -39 -207 -62 -297 -48 -456 71 -41 31 -108 88
-149 127 -171 165 -456 548 -736 991 -59 94 -113 176 -119 183 -9 9 -19 -32
-43 -184z m6087 -370 c112 -71 119 -77 109 -97 -7 -12 -13 -24 -15 -25 -1 -2
-35 17 -74 42 -39 25 -73 46 -75 46 -3 0 15 -41 41 -92 41 -81 44 -94 33 -115
-7 -12 -16 -23 -21 -23 -12 0 -238 142 -238 150 0 3 6 15 14 25 13 18 16 17
67 -15 30 -18 65 -40 78 -48 20 -14 17 -4 -24 77 -42 85 -45 96 -34 122 6 16
13 29 15 29 3 0 58 -34 124 -76z m-5754 -112 l53 -92 -22 -14 c-55 -35 -219
-126 -226 -126 -4 0 -13 11 -19 25 -11 23 -8 26 88 81 55 31 100 58 100 61 0
6 -31 67 -42 80 -7 8 -35 -3 -103 -43 -52 -30 -99 -54 -104 -54 -12 0 -35 39
-27 47 17 18 223 131 235 130 7 -1 37 -44 67 -95z m138 -224 c37 -56 46 -77
41 -97 -9 -35 -24 -52 -62 -67 -42 -18 -71 -6 -112 45 l-33 41 -40 -31 -40
-32 -21 21 c-13 14 -18 25 -12 31 24 21 217 161 224 161 4 0 28 -32 55 -72z
m5412 16 c168 -33 158 -28 138 -59 -15 -23 -22 -25 -53 -20 -34 5 -37 3 -65
-40 -27 -44 -28 -46 -11 -71 14 -21 15 -31 6 -51 -6 -14 -16 -23 -21 -21 -5 2
-48 57 -94 122 -81 115 -84 120 -69 143 8 12 21 23 28 23 6 0 70 -11 141 -26z
m-230 -170 c-4 -13 -1 -44 6 -69 11 -40 15 -45 40 -45 15 0 53 -10 84 -21 l56
-21 -25 -25 -25 -25 -57 21 c-85 32 -99 21 -45 -34 l44 -45 -20 -21 -21 -21
-101 104 c-100 102 -101 103 -82 123 20 19 20 19 64 -24 50 -49 63 -43 41 19
-19 54 -19 80 1 108 13 19 19 21 31 11 9 -8 12 -21 9 -35z m-4994 -51 c10 -9
18 -20 18 -25 0 -10 -82 -202 -107 -252 l-15 -28 -23 22 c-23 22 -23 24 -9 53
16 29 15 30 -23 69 -37 36 -40 38 -71 27 -28 -10 -36 -9 -53 7 -11 9 -16 21
-12 25 7 7 262 118 272 119 3 0 13 -7 23 -17z m4813 -224 c39 -140 42 -174 18
-201 -19 -21 -36 -23 -52 -4 -9 10 -8 16 4 26 8 7 15 23 15 35 0 19 -16 29
-105 66 -58 24 -105 47 -105 50 0 4 11 14 25 23 24 16 28 15 94 -19 l70 -35
-25 72 -24 72 22 23 c12 13 23 21 25 19 2 -2 20 -59 38 -127z m-4654 61 c10
-6 19 -16 19 -22 0 -6 -34 -46 -75 -89 -41 -42 -75 -81 -75 -87 0 -6 17 -25
38 -42 l37 -31 80 87 c78 84 80 86 98 67 9 -11 17 -24 17 -29 0 -5 -34 -43
-75 -84 -47 -47 -73 -80 -70 -89 3 -8 -10 -31 -32 -53 -35 -35 -38 -37 -55
-21 -18 16 -18 17 3 39 l21 22 -73 70 -73 69 94 102 c52 55 96 101 98 101 2 0
12 -5 23 -10z m4403 -192 c9 -12 16 -35 16 -50 0 -23 4 -28 25 -28 36 0 65
-33 65 -74 0 -26 -8 -41 -34 -64 -58 -50 -127 -95 -135 -86 -24 28 -151 216
-151 224 0 5 30 30 67 55 78 52 122 59 147 23z m-4114 -66 l23 -19 -37 -139
c-21 -76 -41 -142 -44 -146 -4 -4 -18 1 -31 11 -21 16 -23 22 -13 50 11 30 9
32 -35 66 l-45 35 -28 -20 c-25 -17 -29 -18 -49 -4 -12 9 -21 20 -19 25 3 8
238 158 249 159 4 0 17 -8 29 -18z m3480 -34 c-1 -7 -5 -32 -9 -56 -5 -23 -6
-44 -2 -46 3 -2 27 -7 53 -11 l47 -7 6 38 c12 72 14 75 43 68 15 -4 28 -7 29
-8 1 -1 -26 -162 -42 -252 -5 -27 -8 -30 -36 -26 -26 4 -29 8 -25 31 20 102
21 98 -21 104 -70 12 -70 12 -80 -50 -8 -53 -10 -58 -33 -55 -13 1 -26 5 -29
7 -4 5 25 219 36 258 5 20 63 25 63 5z m421 -148 l78 -125 -32 -8 c-20 -6 -33
-5 -35 2 -2 6 -11 20 -20 31 -16 19 -21 20 -69 10 -47 -10 -52 -14 -57 -44 -5
-27 -12 -35 -34 -39 -15 -3 -29 -3 -31 -1 -4 3 45 263 54 292 3 8 17 12 37 10
28 -3 39 -15 109 -128z m-3829 25 l-3 -90 51 70 c28 39 56 78 63 88 9 14 19
17 41 11 l28 -7 -6 -101 c-11 -165 -14 -176 -43 -176 l-26 0 5 90 6 91 -42
-58 c-24 -32 -50 -70 -60 -85 -14 -22 -26 -28 -53 -28 -34 0 -35 0 -29 38 3
20 8 86 12 145 l6 108 27 -3 26 -3 -3 -90z m1087 -229 c68 -22 87 -81 40 -125
-17 -16 -18 -19 -4 -31 17 -14 20 -62 4 -91 -19 -36 -54 -41 -151 -23 -83 15
-89 18 -84 38 3 11 15 74 27 139 l22 119 56 -7 c31 -4 71 -12 90 -19z m1723
-121 c15 -71 27 -133 28 -136 0 -9 -51 -22 -57 -15 -3 3 -18 66 -33 140 -28
139 -27 147 14 143 17 -2 24 -22 48 -132z m-191 -40 c11 -75 19 -138 17 -140
-2 -2 -14 -5 -28 -7 -24 -3 -25 0 -40 97 l-16 100 -7 -80 c-12 -129 -14 -135
-47 -135 -26 0 -31 7 -64 88 l-37 87 6 -55 c3 -30 8 -71 12 -91 4 -31 2 -37
-18 -42 -12 -3 -26 -4 -29 -2 -9 5 -46 273 -39 279 3 3 23 8 44 11 l40 7 35
-88 35 -88 7 40 c4 21 11 64 15 94 8 55 8 55 48 60 22 3 41 5 43 4 2 -1 12
-64 23 -139z m-1199 114 c84 -11 88 -13 88 -36 l0 -25 -80 7 -80 7 0 -31 c0
-27 3 -31 28 -31 15 0 44 -3 65 -6 31 -6 37 -11 37 -31 0 -25 0 -25 -66 -18
-71 7 -84 1 -84 -42 0 -18 7 -22 53 -28 102 -12 105 -13 99 -41 -4 -23 -8 -25
-36 -20 -17 3 -61 8 -97 12 -37 4 -72 9 -77 13 -9 5 10 226 23 269 5 15 16 15
127 1z m421 -148 c-1 -82 2 -118 11 -125 8 -7 11 -29 8 -64 -4 -48 -6 -53 -26
-50 -16 2 -22 11 -24 35 l-3 32 -85 3 c-78 3 -84 2 -84 -17 0 -33 -15 -48 -40
-40 -20 6 -22 11 -16 56 4 28 15 58 25 68 19 19 41 118 41 185 l0 37 98 -3 97
-3 -2 -114z m319 32 c22 -49 51 -112 64 -140 l23 -53 -35 0 c-30 0 -37 4 -45
30 -10 28 -15 30 -57 30 -57 0 -68 -7 -77 -43 -6 -23 -13 -27 -40 -27 l-34 0
45 133 c24 72 46 138 49 145 2 6 18 12 35 12 30 0 34 -5 72 -87z"/>
<path d="M3805 1083 c-3 -27 -10 -66 -15 -87 -5 -22 -7 -43 -4 -48 3 -4 25 -8
50 -8 l44 0 0 43 c0 23 3 66 6 95 l7 52 -41 0 -41 0 -6 -47z"/>
</g>
</svg>
