<?xml version="1.0" encoding="UTF-8"?>
<!DOCTYPE svg PUBLIC "-//W3C//DTD SVG 1.1//EN" "http://www.w3.org/Graphics/SVG/1.1/DTD/svg11.dtd">
<svg xmlns="http://www.w3.org/2000/svg" version="1.1" width="76px" height="70px" style="shape-rendering:geometricPrecision; text-rendering:geometricPrecision; image-rendering:optimizeQuality; fill-rule:evenodd; clip-rule:evenodd" xmlns:xlink="http://www.w3.org/1999/xlink">
<g><path style="opacity:0.948" fill="#ccd0d3" d="M 113.5,-0.5 C 114.5,-0.5 115.5,-0.5 116.5,-0.5C 119.404,0.285203 122.07,1.61854 124.5,3.5C 119.673,5.49703 114.673,6.99703 109.5,8C 107.273,8.94102 105.273,10.1077 103.5,11.5C 95.9578,13.7936 88.9578,17.127 82.5,21.5C 74.5445,27.105 66.5445,32.7717 58.5,38.5C 59.412,36.4048 60.5787,34.4048 62,32.5C 67.8122,26.7028 73.6455,21.0362 79.5,15.5C 83.4434,12.5217 87.7768,10.0217 92.5,8C 99.789,5.63207 106.789,2.79874 113.5,-0.5 Z"/></g>
<g><path style="opacity:0.963" fill="#d2d9e0" d="M 213.5,-0.5 C 214.5,-0.5 215.5,-0.5 216.5,-0.5C 223.486,2.99957 230.82,5.83291 238.5,8C 242.732,10.2746 246.732,12.7746 250.5,15.5C 250.062,15.4346 249.728,15.6012 249.5,16C 252.622,20.9544 256.289,25.4544 260.5,29.5C 256.828,26.0247 252.494,23.5247 247.5,22C 239.91,21.079 232.577,19.2456 225.5,16.5C 220.256,15.4188 215.256,13.7522 210.5,11.5C 210.5,10.8333 210.833,10.5 211.5,10.5C 220.283,12.9261 229.117,15.2594 238,17.5C 239.722,17.3893 239.888,16.8893 238.5,16C 234.379,14.7708 230.379,13.2708 226.5,11.5C 225.571,10.6851 224.571,9.85175 223.5,9C 217.325,7.66342 211.325,5.83009 205.5,3.5C 207.93,1.61854 210.596,0.285203 213.5,-0.5 Z"/></g>
<g><path style="opacity:0.965" fill="#7794b2" d="M 124.5,3.5 C 128.185,3.83613 129.852,5.5028 129.5,8.5C 126.037,9.0991 122.704,10.0991 119.5,11.5C 119.5,10.8333 119.167,10.5 118.5,10.5C 117.903,9.86137 117.07,9.52804 116,9.5C 111.828,10.2148 107.662,10.8815 103.5,11.5C 105.273,10.1077 107.273,8.94102 109.5,8C 114.673,6.99703 119.673,5.49703 124.5,3.5 Z"/></g>
<g><path style="opacity:0.961" fill="#829fc0" d="M 205.5,3.5 C 211.325,5.83009 217.325,7.66342 223.5,9C 224.571,9.85175 225.571,10.6851 226.5,11.5C 222.338,10.8815 218.172,10.2148 214,9.5C 212.93,9.52804 212.097,9.86137 211.5,10.5C 210.833,10.5 210.5,10.8333 210.5,11.5C 207.167,10.1667 203.833,8.83333 200.5,7.5C 201.539,5.46888 203.205,4.13554 205.5,3.5 Z"/></g>
<g><path style="opacity:1" fill="#424f54" d="M 211.5,10.5 C 212.097,9.86137 212.93,9.52804 214,9.5C 218.172,10.2148 222.338,10.8815 226.5,11.5C 230.379,13.2708 234.379,14.7708 238.5,16C 239.888,16.8893 239.722,17.3893 238,17.5C 229.117,15.2594 220.283,12.9261 211.5,10.5 Z"/></g>
<g><path style="opacity:1" fill="#485861" d="M 118.5,10.5 C 113.672,11.22 109.005,12.5533 104.5,14.5C 102.197,14.1237 101.863,13.1237 103.5,11.5C 107.662,10.8815 111.828,10.2148 116,9.5C 117.07,9.52804 117.903,9.86137 118.5,10.5 Z"/></g>
<g><path style="opacity:0.876" fill="#4e636e" d="M 200.5,7.5 C 203.833,8.83333 207.167,10.1667 210.5,11.5C 215.256,13.7522 220.256,15.4188 225.5,16.5C 239.194,23.342 251.861,31.6753 263.5,41.5C 266.787,44.6276 269.787,47.961 272.5,51.5C 273.508,53.3386 275.008,54.6719 277,55.5C 282.426,63.3582 287.593,71.3582 292.5,79.5C 292.604,81.7028 293.27,83.7028 294.5,85.5C 296.757,92.4403 298.924,99.4403 301,106.5C 302.257,112.769 302.757,119.102 302.5,125.5C 301.833,125.5 301.167,125.5 300.5,125.5C 298.589,106.24 292.923,88.2405 283.5,71.5C 262.959,41.3145 235.292,20.4811 200.5,9C 199.262,8.31001 199.262,7.81001 200.5,7.5 Z"/></g>
<g><path style="opacity:1" fill="#9eb2c7" d="M 118.5,10.5 C 119.167,10.5 119.5,10.8333 119.5,11.5C 111.949,13.8919 104.616,16.8919 97.5,20.5C 97.0831,19.8761 96.4164,19.5427 95.5,19.5C 91.2765,20.9128 86.9432,21.5795 82.5,21.5C 88.9578,17.127 95.9578,13.7936 103.5,11.5C 101.863,13.1237 102.197,14.1237 104.5,14.5C 109.005,12.5533 113.672,11.22 118.5,10.5 Z"/></g>
<g><path style="opacity:1" fill="#7996b4" d="M 97.5,20.5 C 90.0635,24.7237 82.7301,29.2237 75.5,34C 71.9428,36.9427 68.6094,40.1093 65.5,43.5C 65.44,42.9569 65.1067,42.6236 64.5,42.5C 59.0909,44.8642 54.4243,48.1975 50.5,52.5C 49.0878,53.8064 47.4211,54.6397 45.5,55C 44.1772,55.8159 43.5106,56.9826 43.5,58.5C 41.3544,58.3036 41.1878,57.3036 43,55.5C 48.0042,49.6635 53.1708,43.9969 58.5,38.5C 66.5445,32.7717 74.5445,27.105 82.5,21.5C 86.9432,21.5795 91.2765,20.9128 95.5,19.5C 96.4164,19.5427 97.0831,19.8761 97.5,20.5 Z"/></g>
<g><path style="opacity:0.891" fill="#546975" d="M 129.5,8.5 C 122.606,12.4411 115.273,15.6078 107.5,18C 99.3664,22.5688 91.3664,27.4021 83.5,32.5C 72.1643,40.8365 62.1643,50.5032 53.5,61.5C 52.5,61.5 51.5,61.5 50.5,61.5C 52.0249,57.635 54.3583,54.3017 57.5,51.5C 59.1801,47.9652 61.8467,45.2985 65.5,43.5C 68.6094,40.1093 71.9428,36.9427 75.5,34C 82.7301,29.2237 90.0635,24.7237 97.5,20.5C 104.616,16.8919 111.949,13.8919 119.5,11.5C 122.704,10.0991 126.037,9.0991 129.5,8.5 Z"/></g>
<g><path style="opacity:1" fill="#4e5e67" d="M 250.5,15.5 C 250.833,15.5 251.167,15.5 251.5,15.5C 258.468,21.6357 264.968,28.3024 271,35.5C 271.692,36.4368 271.525,37.1034 270.5,37.5C 267.571,34.3637 264.238,31.697 260.5,29.5C 256.289,25.4544 252.622,20.9544 249.5,16C 249.728,15.6012 250.062,15.4346 250.5,15.5 Z"/></g>
<g><path style="opacity:0.985" fill="#d3dce4" d="M 251.5,15.5 C 261.025,20.2426 270.025,25.9093 278.5,32.5C 280.549,35.5497 283.216,37.883 286.5,39.5C 289.594,42.5828 292.261,45.9161 294.5,49.5C 293.542,49.0472 292.708,48.3805 292,47.5C 293.033,55.3016 294.866,62.9682 297.5,70.5C 294.635,64.96 290.968,59.96 286.5,55.5C 285.246,52.9066 283.58,50.5732 281.5,48.5C 278.167,44.5 274.5,40.8333 270.5,37.5C 271.525,37.1034 271.692,36.4368 271,35.5C 264.968,28.3024 258.468,21.6357 251.5,15.5 Z"/></g>
<g><path style="opacity:1" fill="#6b7984" d="M 79.5,15.5 C 73.6455,21.0362 67.8122,26.7028 62,32.5C 60.5787,34.4048 59.412,36.4048 58.5,38.5C 57.629,36.2233 57.9623,33.89 59.5,31.5C 61.8558,28.8136 64.1891,26.147 66.5,23.5C 68.9883,20.5608 71.9883,18.0608 75.5,16C 76.7932,15.51 78.1266,15.3433 79.5,15.5 Z"/></g>
<g><path style="opacity:1" fill="#8faaca" d="M 225.5,16.5 C 232.577,19.2456 239.91,21.079 247.5,22C 252.494,23.5247 256.828,26.0247 260.5,29.5C 264.238,31.697 267.571,34.3637 270.5,37.5C 274.5,40.8333 278.167,44.5 281.5,48.5C 279.901,48.2322 278.568,48.5655 277.5,49.5C 272.903,46.7523 268.403,43.7523 264,40.5C 263.601,40.7284 263.435,41.0618 263.5,41.5C 251.861,31.6753 239.194,23.342 225.5,16.5 Z"/></g>
<g><path style="opacity:1" fill="#dbe3ed" d="M 277.5,49.5 C 279.55,51.5475 281.883,53.2141 284.5,54.5C 284.38,55.5862 283.713,56.2528 282.5,56.5C 279.15,54.8249 275.816,53.1582 272.5,51.5C 269.787,47.961 266.787,44.6276 263.5,41.5C 263.435,41.0618 263.601,40.7284 264,40.5C 268.403,43.7523 272.903,46.7523 277.5,49.5 Z"/></g>
<g><path style="opacity:1" fill="#b6c7db" d="M 65.5,43.5 C 61.8467,45.2985 59.1801,47.9652 57.5,51.5C 53.1434,54.345 48.4768,56.6783 43.5,58.5C 43.5106,56.9826 44.1772,55.8159 45.5,55C 47.4211,54.6397 49.0878,53.8064 50.5,52.5C 54.4243,48.1975 59.0909,44.8642 64.5,42.5C 65.1067,42.6236 65.44,42.9569 65.5,43.5 Z"/></g>
<g><path style="opacity:1" fill="#6f7f8d" d="M 294.5,49.5 C 294.34,51.1992 294.506,52.8659 295,54.5C 299.651,62.6205 302.818,71.2872 304.5,80.5C 304.565,80.9382 304.399,81.2716 304,81.5C 303.722,80.5842 303.222,79.9175 302.5,79.5C 301.61,76.0516 299.943,73.0516 297.5,70.5C 294.866,62.9682 293.033,55.3016 292,47.5C 292.708,48.3805 293.542,49.0472 294.5,49.5 Z"/></g>
<g><path style="opacity:1" fill="#606f7a" d="M 277.5,49.5 C 278.568,48.5655 279.901,48.2322 281.5,48.5C 283.58,50.5732 285.246,52.9066 286.5,55.5C 285.833,55.1667 285.167,54.8333 284.5,54.5C 281.883,53.2141 279.55,51.5475 277.5,49.5 Z"/></g>
<g><path style="opacity:0.917" fill="#cdd1d5" d="M 66.5,23.5 C 64.1891,26.147 61.8558,28.8136 59.5,31.5C 57.9623,33.89 57.629,36.2233 58.5,38.5C 53.1708,43.9969 48.0042,49.6635 43,55.5C 41.1878,57.3036 41.3544,58.3036 43.5,58.5C 41.4099,60.3902 39.0765,62.0569 36.5,63.5C 35.9003,66.349 34.5669,68.6823 32.5,70.5C 35.0387,63.2952 36.8721,55.9619 38,48.5C 35.2203,56.0612 31.887,63.3945 28,70.5C 27.6049,73.2066 27.1049,75.8733 26.5,78.5C 25.596,79.209 25.2627,80.209 25.5,81.5C 24.71,80.3915 24.21,79.0581 24,77.5C 22.744,79.7543 21.5773,82.0877 20.5,84.5C 18.1851,85.2343 16.3518,86.5676 15,88.5C 12.756,92.9825 11.0893,97.6491 10,102.5C 9.18492,107.352 9.35159,112.019 10.5,116.5C 10.7817,125.271 11.7817,133.938 13.5,142.5C 11.738,140.236 10.0714,137.236 8.5,133.5C 6.52728,125.461 5.86061,117.461 6.5,109.5C 8.95998,101.614 11.1266,93.614 13,85.5C 17.1185,75.681 22.1185,66.3477 28,57.5C 32.9502,51.2329 38.1168,45.2329 43.5,39.5C 49.3735,34.4546 55.3735,29.6212 61.5,25C 63.0249,23.9914 64.6916,23.4914 66.5,23.5 Z"/></g>
<g><path style="opacity:0.942" fill="#d5dde5" d="M 294.5,49.5 C 304.213,59.8845 311.713,71.8845 317,85.5C 320.154,96.454 322.987,107.454 325.5,118.5C 324.953,125.486 322.953,132.153 319.5,138.5C 318.844,137.378 318.511,136.045 318.5,134.5C 319.604,128.542 320.271,122.542 320.5,116.5C 321.809,112.649 321.809,108.649 320.5,104.5C 319.914,104.709 319.414,105.043 319,105.5C 316.624,97.1162 313.29,89.1162 309,81.5C 307.532,79.9638 306.032,79.6304 304.5,80.5C 302.818,71.2872 299.651,62.6205 295,54.5C 294.506,52.8659 294.34,51.1992 294.5,49.5 Z"/></g>
<g><path style="opacity:1" fill="#404e55" d="M 32.5,70.5 C 30.3456,73.6782 28.3456,76.3448 26.5,78.5C 27.1049,75.8733 27.6049,73.2066 28,70.5C 31.887,63.3945 35.2203,56.0612 38,48.5C 36.8721,55.9619 35.0387,63.2952 32.5,70.5 Z"/></g>
<g><path style="opacity:1" fill="#7c98b7" d="M 57.5,51.5 C 54.3583,54.3017 52.0249,57.635 50.5,61.5C 49.2058,62.2899 48.0391,63.2899 47,64.5C 44.807,68.2299 42.6404,71.8965 40.5,75.5C 38.6115,76.604 36.9448,77.9373 35.5,79.5C 35.5654,79.0618 35.3988,78.7284 35,78.5C 32.6667,80.8333 30.3333,83.1667 28,85.5C 27.4153,86.9976 27.9153,87.9976 29.5,88.5C 27.2264,92.4627 24.8931,96.4627 22.5,100.5C 22.0431,101.298 21.3764,101.631 20.5,101.5C 21.9429,94.6706 24.2763,88.1706 27.5,82C 27.3166,80.3164 26.6499,80.1498 25.5,81.5C 25.2627,80.209 25.596,79.209 26.5,78.5C 28.3456,76.3448 30.3456,73.6782 32.5,70.5C 34.5669,68.6823 35.9003,66.349 36.5,63.5C 39.0765,62.0569 41.4099,60.3902 43.5,58.5C 48.4768,56.6783 53.1434,54.345 57.5,51.5 Z"/></g>
<g><path style="opacity:1" fill="#9cb5d2" d="M 272.5,51.5 C 275.816,53.1582 279.15,54.8249 282.5,56.5C 283.713,56.2528 284.38,55.5862 284.5,54.5C 285.167,54.8333 285.833,55.1667 286.5,55.5C 290.968,59.96 294.635,64.96 297.5,70.5C 299.943,73.0516 301.61,76.0516 302.5,79.5C 303.833,83.5 305.167,87.5 306.5,91.5C 305.833,90.8333 305.167,90.1667 304.5,89.5C 301.877,85.2092 298.544,81.5425 294.5,78.5C 293.075,76.9689 292.409,77.3023 292.5,79.5C 287.593,71.3582 282.426,63.3582 277,55.5C 275.008,54.6719 273.508,53.3386 272.5,51.5 Z"/></g>
<g><path style="opacity:1" fill="#e2eaf6" d="M 165.5,73.5 C 165.5,78.8333 165.5,84.1667 165.5,89.5C 150.833,89.5 136.167,89.5 121.5,89.5C 121.665,85.8183 121.499,82.1516 121,78.5C 118.263,79.6105 115.429,79.7772 112.5,79C 130.208,77.5781 147.875,75.7448 165.5,73.5 Z"/></g>
<g><path style="opacity:1" fill="#96b7df" d="M 165.5,69.5 C 192.421,72.5724 219.421,75.4058 246.5,78C 256.078,78.8589 265.411,80.3589 274.5,82.5C 271.978,83.0115 269.645,84.0115 267.5,85.5C 248.962,82.3495 230.295,80.1829 211.5,79C 216.424,79.5594 221.258,80.3927 226,81.5C 225.641,84.1123 225.141,86.779 224.5,89.5C 204.833,89.5 185.167,89.5 165.5,89.5C 165.5,84.1667 165.5,78.8333 165.5,73.5C 165.5,72.1667 165.5,70.8333 165.5,69.5 Z"/></g>
<g><path style="opacity:1" fill="#c8d9ee" d="M 165.5,69.5 C 165.5,70.8333 165.5,72.1667 165.5,73.5C 147.875,75.7448 130.208,77.5781 112.5,79C 115.429,79.7772 118.263,79.6105 121,78.5C 121.499,82.1516 121.665,85.8183 121.5,89.5C 111.167,89.5 100.833,89.5 90.5,89.5C 90.8076,87.076 90.4742,84.7427 89.5,82.5C 86.227,83.5851 82.8936,83.7517 79.5,83C 87.4707,82.5488 95.1374,80.8821 102.5,78C 101.552,77.5172 100.552,77.3505 99.5,77.5C 121.288,74.0269 143.288,71.3603 165.5,69.5 Z"/></g>
<g><path style="opacity:1" fill="#d6dfea" d="M 294.5,78.5 C 296.749,82.7542 299.415,86.7542 302.5,90.5C 303.5,92.5 304.5,94.5 305.5,96.5C 304.279,97.4646 302.946,97.298 301.5,96C 298.771,92.6925 296.438,89.1925 294.5,85.5C 293.27,83.7028 292.604,81.7028 292.5,79.5C 292.409,77.3023 293.075,76.9689 294.5,78.5 Z"/></g>
<g><path style="opacity:1" fill="#344247" d="M 294.5,78.5 C 298.544,81.5425 301.877,85.2092 304.5,89.5C 304.158,90.3382 303.492,90.6716 302.5,90.5C 299.415,86.7542 296.749,82.7542 294.5,78.5 Z"/></g>
<g><path style="opacity:1" fill="#34434a" d="M 35.5,79.5 C 34.2546,82.9873 32.2546,85.9873 29.5,88.5C 27.9153,87.9976 27.4153,86.9976 28,85.5C 30.3333,83.1667 32.6667,80.8333 35,78.5C 35.3988,78.7284 35.5654,79.0618 35.5,79.5 Z"/></g>
<g><path style="opacity:1" fill="#b9cee7" d="M 99.5,77.5 C 100.552,77.3505 101.552,77.5172 102.5,78C 95.1374,80.8821 87.4707,82.5488 79.5,83C 82.8936,83.7517 86.227,83.5851 89.5,82.5C 90.4742,84.7427 90.8076,87.076 90.5,89.5C 84.9738,89.1786 79.6405,89.5119 74.5,90.5C 75.3405,93.6757 77.0071,96.3424 79.5,98.5C 81.2503,99.6594 82.2503,101.326 82.5,103.5C 84.5629,107.668 85.8962,112.001 86.5,116.5C 86.3334,134.836 86.5001,153.17 87,171.5C 87.0265,175.179 87.8598,178.512 89.5,181.5C 89.6457,185.636 91.6457,188.303 95.5,189.5C 96.9649,190.737 98.6316,191.737 100.5,192.5C 100.5,194.167 100.5,195.833 100.5,197.5C 97.5136,195.515 94.1803,194.348 90.5,194C 87.8138,191.221 85.6471,188.055 84,184.5C 81.4522,160.547 79.2855,136.547 77.5,112.5C 72.432,104.037 67.5987,95.3705 63,86.5C 60.9307,84.9146 58.764,83.5813 56.5,82.5C 64.6997,80.4868 73.6997,78.9868 83.5,78C 88.8229,77.5006 94.1563,77.334 99.5,77.5 Z"/></g>
<g><path style="opacity:0.942" fill="#525f63" d="M 274.5,82.5 C 268.279,92.5945 262.279,102.928 256.5,113.5C 255.609,112.89 254.609,112.557 253.5,112.5C 258.104,103.537 262.77,94.5366 267.5,85.5C 269.645,84.0115 271.978,83.0115 274.5,82.5 Z"/></g>
<g><path style="opacity:1" fill="#a8bcd3" d="M 40.5,75.5 C 36.8891,82.6418 33.8891,89.9752 31.5,97.5C 31.6567,96.1266 31.49,94.7932 31,93.5C 27.3726,98.9597 23.206,103.96 18.5,108.5C 18.4003,105.892 19.0669,103.558 20.5,101.5C 21.3764,101.631 22.0431,101.298 22.5,100.5C 24.8931,96.4627 27.2264,92.4627 29.5,88.5C 32.2546,85.9873 34.2546,82.9873 35.5,79.5C 36.9448,77.9373 38.6115,76.604 40.5,75.5 Z"/></g>
<g><path style="opacity:1" fill="#7e8d9d" d="M 74.5,90.5 C 79.6405,89.5119 84.9738,89.1786 90.5,89.5C 100.833,89.5 111.167,89.5 121.5,89.5C 136.167,89.5 150.833,89.5 165.5,89.5C 185.167,89.5 204.833,89.5 224.5,89.5C 235.187,89.168 245.854,89.5013 256.5,90.5C 256.376,91.1067 256.043,91.44 255.5,91.5C 238.675,90.5034 221.675,90.1701 204.5,90.5C 191.5,90.5 178.5,90.5 165.5,90.5C 165.167,90.5 164.833,90.5 164.5,90.5C 134.5,90.5 104.5,90.5 74.5,90.5 Z"/></g>
<g><path style="opacity:1" fill="#8f8569" d="M 74.5,90.5 C 104.5,90.5 134.5,90.5 164.5,90.5C 164.5,90.8333 164.5,91.1667 164.5,91.5C 152.833,91.5 141.167,91.5 129.5,91.5C 111.497,91.3334 93.4969,91.5001 75.5,92C 77.7337,93.6379 79.067,95.8045 79.5,98.5C 77.0071,96.3424 75.3405,93.6757 74.5,90.5 Z"/></g>
<g><path style="opacity:1" fill="#dabb7c" d="M 129.5,91.5 C 129.5,97.5 129.5,103.5 129.5,109.5C 115.163,109.667 100.829,109.5 86.5,109C 85.3034,106.985 83.9701,105.151 82.5,103.5C 82.2503,101.326 81.2503,99.6594 79.5,98.5C 79.067,95.8045 77.7337,93.6379 75.5,92C 93.4969,91.5001 111.497,91.3334 129.5,91.5 Z"/></g>
<g><path style="opacity:1" fill="#e2c58a" d="M 129.5,91.5 C 141.167,91.5 152.833,91.5 164.5,91.5C 164.5,97.5 164.5,103.5 164.5,109.5C 152.833,109.5 141.167,109.5 129.5,109.5C 129.5,103.5 129.5,97.5 129.5,91.5 Z"/></g>
<g><path style="opacity:1" fill="#a35459" d="M 165.5,90.5 C 178.5,90.5 191.5,90.5 204.5,90.5C 204.5,90.8333 204.5,91.1667 204.5,91.5C 191.833,91.5 179.167,91.5 166.5,91.5C 166.5,99.8333 166.5,108.167 166.5,116.5C 165.507,108.016 165.174,99.3494 165.5,90.5 Z"/></g>
<g><path style="opacity:1" fill="#eb2030" d="M 204.5,91.5 C 204.5,99.8333 204.5,108.167 204.5,116.5C 191.833,116.5 179.167,116.5 166.5,116.5C 166.5,108.167 166.5,99.8333 166.5,91.5C 179.167,91.5 191.833,91.5 204.5,91.5 Z"/></g>
<g><path style="opacity:1" fill="#b3bbc2" d="M 302.5,79.5 C 303.222,79.9175 303.722,80.5842 304,81.5C 304.399,81.2716 304.565,80.9382 304.5,80.5C 306.032,79.6304 307.532,79.9638 309,81.5C 313.29,89.1162 316.624,97.1162 319,105.5C 319.414,105.043 319.914,104.709 320.5,104.5C 321.809,108.649 321.809,112.649 320.5,116.5C 320.665,113.15 320.498,109.817 320,106.5C 319.229,109.19 318.396,111.856 317.5,114.5C 315.06,109.285 312.893,103.952 311,98.5C 310.667,99.1667 310.333,99.8333 310,100.5C 309.111,97.3244 307.945,94.3244 306.5,91.5C 305.167,87.5 303.833,83.5 302.5,79.5 Z"/></g>
<g><path style="opacity:0.875" fill="#667d90" d="M 50.5,61.5 C 51.5,61.5 52.5,61.5 53.5,61.5C 51.6421,65.5387 49.1421,69.2053 46,72.5C 43.3333,77.8333 40.6667,83.1667 38,88.5C 34.9179,97.7744 32.4179,107.108 30.5,116.5C 29.5,116.5 28.5,116.5 27.5,116.5C 28.5784,110.108 29.9118,103.774 31.5,97.5C 33.8891,89.9752 36.8891,82.6418 40.5,75.5C 42.6404,71.8965 44.807,68.2299 47,64.5C 48.0391,63.2899 49.2058,62.2899 50.5,61.5 Z"/></g>
<g><path style="opacity:1" fill="#4f667f" d="M 249.5,100.5 C 235.167,100.5 220.833,100.5 206.5,100.5C 206.5,103.167 206.5,105.833 206.5,108.5C 205.523,105.713 205.19,102.713 205.5,99.5C 220.343,99.1707 235.01,99.504 249.5,100.5 Z"/></g>
<g><path style="opacity:1" fill="#184b88" d="M 249.5,100.5 C 249.5,100.833 249.5,101.167 249.5,101.5C 247.824,102.183 247.157,103.517 247.5,105.5C 246.272,106.306 245.272,107.306 244.5,108.5C 231.833,108.5 219.167,108.5 206.5,108.5C 206.5,105.833 206.5,103.167 206.5,100.5C 220.833,100.5 235.167,100.5 249.5,100.5 Z"/></g>
<g><path style="opacity:1" fill="#82a1c6" d="M 31.5,97.5 C 29.9118,103.774 28.5784,110.108 27.5,116.5C 27.5,117.5 27.5,118.5 27.5,119.5C 26.8333,125.167 26.1667,130.833 25.5,136.5C 20.2773,144.857 19.2773,153.523 22.5,162.5C 21.8969,166.273 21.2302,169.939 20.5,173.5C 18.0878,165.101 16.4212,156.435 15.5,147.5C 15.3336,138.494 15.5002,129.494 16,120.5C 17.5774,116.717 18.4107,112.717 18.5,108.5C 23.206,103.96 27.3726,98.9597 31,93.5C 31.49,94.7932 31.6567,96.1266 31.5,97.5 Z"/></g>
<g><path style="opacity:1" fill="#99a7b4" d="M 82.5,103.5 C 83.9701,105.151 85.3034,106.985 86.5,109C 100.829,109.5 115.163,109.667 129.5,109.5C 141.167,109.5 152.833,109.5 164.5,109.5C 164.5,109.833 164.5,110.167 164.5,110.5C 138.833,110.5 113.167,110.5 87.5,110.5C 86.5386,112.265 86.2053,114.265 86.5,116.5C 85.8962,112.001 84.5629,107.668 82.5,103.5 Z"/></g>
<g><path style="opacity:1" fill="#a2bde1" d="M 204.5,90.5 C 221.675,90.1701 238.675,90.5034 255.5,91.5C 254,95.173 252,98.5063 249.5,101.5C 249.5,101.167 249.5,100.833 249.5,100.5C 235.01,99.504 220.343,99.1707 205.5,99.5C 205.19,102.713 205.523,105.713 206.5,108.5C 219.167,108.5 231.833,108.5 244.5,108.5C 243.612,111.054 243.279,113.721 243.5,116.5C 230.5,116.5 217.5,116.5 204.5,116.5C 204.5,108.167 204.5,99.8333 204.5,91.5C 204.5,91.1667 204.5,90.8333 204.5,90.5 Z"/></g>
<g><path style="opacity:1" fill="#000101" d="M 87.5,110.5 C 113.167,110.5 138.833,110.5 164.5,110.5C 164.5,115.167 164.5,119.833 164.5,124.5C 138.833,124.5 113.167,124.5 87.5,124.5C 87.5,119.833 87.5,115.167 87.5,110.5 Z"/></g>
<g><path style="opacity:1" fill="#bbcee7" d="M 267.5,85.5 C 262.77,94.5366 258.104,103.537 253.5,112.5C 252.191,114.571 251.525,117.071 251.5,120C 250.261,140.186 248.761,160.353 247,180.5C 246.208,184.079 244.875,187.412 243,190.5C 241.833,191.667 240.667,192.833 239.5,194C 226.116,199.95 212.449,205.284 198.5,210C 196.527,210.495 194.527,210.662 192.5,210.5C 191.742,208.019 191.742,205.352 192.5,202.5C 194.898,202.741 196.898,202.074 198.5,200.5C 209.26,196.889 220.26,193.723 231.5,191C 236.501,189.376 239.834,186.209 241.5,181.5C 242.222,181.082 242.722,180.416 243,179.5C 243.497,176.854 243.664,174.187 243.5,171.5C 244.332,152.338 244.832,133.004 245,113.5C 245.561,110.721 246.394,108.054 247.5,105.5C 247.157,103.517 247.824,102.183 249.5,101.5C 252,98.5063 254,95.173 255.5,91.5C 256.043,91.44 256.376,91.1067 256.5,90.5C 245.854,89.5013 235.187,89.168 224.5,89.5C 225.141,86.779 225.641,84.1123 226,81.5C 221.258,80.3927 216.424,79.5594 211.5,79C 230.295,80.1829 248.962,82.3495 267.5,85.5 Z"/></g>
<g><path style="opacity:1" fill="#97b4d8" d="M 247.5,105.5 C 246.394,108.054 245.561,110.721 245,113.5C 244.832,133.004 244.332,152.338 243.5,171.5C 243.5,169.167 243.5,166.833 243.5,164.5C 243.5,164.167 243.5,163.833 243.5,163.5C 243.5,157.5 243.5,151.5 243.5,145.5C 220.673,144.502 197.673,144.169 174.5,144.5C 176.85,142.393 176.85,140.059 174.5,137.5C 184.659,136.833 194.659,136.167 204.5,135.5C 204.5,132.5 204.5,129.5 204.5,126.5C 191.5,126.5 178.5,126.5 165.5,126.5C 167.631,125.686 169.964,125.186 172.5,125C 171.167,122.667 169.833,120.333 168.5,118C 180.674,117.831 192.674,117.331 204.5,116.5C 217.5,116.5 230.5,116.5 243.5,116.5C 243.279,113.721 243.612,111.054 244.5,108.5C 245.272,107.306 246.272,106.306 247.5,105.5 Z"/></g>
<g><path style="opacity:1" fill="#b5575b" d="M 243.5,118.5 C 231.167,118.5 218.833,118.5 206.5,118.5C 206.5,126.5 206.5,134.5 206.5,142.5C 218.833,142.5 231.167,142.5 243.5,142.5C 231.011,143.495 218.344,143.829 205.5,143.5C 205.5,134.833 205.5,126.167 205.5,117.5C 218.344,117.171 231.011,117.505 243.5,118.5 Z"/></g>
<g><path style="opacity:1" fill="#e8303b" d="M 243.5,118.5 C 243.5,126.5 243.5,134.5 243.5,142.5C 231.167,142.5 218.833,142.5 206.5,142.5C 206.5,134.5 206.5,126.5 206.5,118.5C 218.833,118.5 231.167,118.5 243.5,118.5 Z"/></g>
<g><path style="opacity:1" fill="#949ea7" d="M 304.5,89.5 C 305.167,90.1667 305.833,90.8333 306.5,91.5C 307.945,94.3244 309.111,97.3244 310,100.5C 310.333,99.8333 310.667,99.1667 311,98.5C 312.893,103.952 315.06,109.285 317.5,114.5C 318.396,111.856 319.229,109.19 320,106.5C 320.498,109.817 320.665,113.15 320.5,116.5C 320.271,122.542 319.604,128.542 318.5,134.5C 318.511,136.045 318.844,137.378 319.5,138.5C 320.954,149.9 320.621,161.4 318.5,173C 318.499,176.043 319.332,176.21 321,173.5C 321.464,174.094 321.631,174.761 321.5,175.5C 320.728,176.694 319.728,177.694 318.5,178.5C 317.292,179.234 315.959,179.567 314.5,179.5C 315.858,168.542 316.358,157.542 316,146.5C 314.833,151.219 313.666,155.886 312.5,160.5C 315.657,141.326 314.824,122.326 310,103.5C 308.476,101.102 306.976,98.7686 305.5,96.5C 304.5,94.5 303.5,92.5 302.5,90.5C 303.492,90.6716 304.158,90.3382 304.5,89.5 Z"/></g>
<g><path style="opacity:1" fill="#b19b6d" d="M 164.5,125.5 C 164.5,125.833 164.5,126.167 164.5,126.5C 139.167,126.5 113.833,126.5 88.5,126.5C 88.5,132.167 88.5,137.833 88.5,143.5C 88.1667,143.5 87.8333,143.5 87.5,143.5C 87.5,137.5 87.5,131.5 87.5,125.5C 113.167,125.5 138.833,125.5 164.5,125.5 Z"/></g>
<g><path style="opacity:1" fill="#debf82" d="M 164.5,126.5 C 164.5,132.167 164.5,137.833 164.5,143.5C 162.833,143.5 161.167,143.5 159.5,143.5C 135.833,143.5 112.167,143.5 88.5,143.5C 88.5,137.833 88.5,132.167 88.5,126.5C 113.833,126.5 139.167,126.5 164.5,126.5 Z"/></g>
<g><path style="opacity:1" fill="#2c4c70" d="M 165.5,126.5 C 178.5,126.5 191.5,126.5 204.5,126.5C 204.5,129.5 204.5,132.5 204.5,135.5C 204.167,135.5 203.833,135.5 203.5,135.5C 203.5,132.833 203.5,130.167 203.5,127.5C 191.167,127.5 178.833,127.5 166.5,127.5C 166.5,130.167 166.5,132.833 166.5,135.5C 165.523,132.713 165.19,129.713 165.5,126.5 Z"/></g>
<g><path style="opacity:1" fill="#404f57" d="M 13.5,142.5 C 11.7817,133.938 10.7817,125.271 10.5,116.5C 10.3367,114.143 10.5034,111.81 11,109.5C 14.3368,120.462 15.1701,131.462 13.5,142.5 Z"/></g>
<g><path style="opacity:1" fill="#013876" d="M 203.5,135.5 C 191.167,135.5 178.833,135.5 166.5,135.5C 166.5,132.833 166.5,130.167 166.5,127.5C 178.833,127.5 191.167,127.5 203.5,127.5C 203.5,130.167 203.5,132.833 203.5,135.5 Z"/></g>
<g><path style="opacity:1" fill="#808385" d="M 87.5,110.5 C 87.5,115.167 87.5,119.833 87.5,124.5C 113.167,124.5 138.833,124.5 164.5,124.5C 164.5,124.833 164.5,125.167 164.5,125.5C 138.833,125.5 113.167,125.5 87.5,125.5C 87.5,131.5 87.5,137.5 87.5,143.5C 87.5,143.833 87.5,144.167 87.5,144.5C 87.1736,153.349 87.507,162.016 88.5,170.5C 88.3677,173.57 88.701,176.57 89.5,179.5C 89.5,180.167 89.5,180.833 89.5,181.5C 87.8598,178.512 87.0265,175.179 87,171.5C 86.5001,153.17 86.3334,134.836 86.5,116.5C 86.2053,114.265 86.5386,112.265 87.5,110.5 Z"/></g>
<g><path style="opacity:1" fill="#9ca3a8" d="M 25.5,81.5 C 26.6499,80.1498 27.3166,80.3164 27.5,82C 24.2763,88.1706 21.9429,94.6706 20.5,101.5C 19.0669,103.558 18.4003,105.892 18.5,108.5C 18.4107,112.717 17.5774,116.717 16,120.5C 15.5002,129.494 15.3336,138.494 15.5,147.5C 14.6851,146.571 13.8518,145.571 13,144.5C 12.8438,154.505 12.8438,164.505 13,174.5C 12.6667,175.5 12.3333,176.5 12,177.5C 11.5814,176.328 10.9147,175.328 10,174.5C 9.65219,176.14 10.1522,177.473 11.5,178.5C 11.5,178.833 11.5,179.167 11.5,179.5C 10.8333,179.5 10.1667,179.5 9.5,179.5C 8.76589,178.292 8.43255,176.959 8.5,175.5C 9.34684,173.971 10.0135,172.304 10.5,170.5C 7.62048,158.122 6.95381,145.789 8.5,133.5C 10.0714,137.236 11.738,140.236 13.5,142.5C 15.1701,131.462 14.3368,120.462 11,109.5C 10.5034,111.81 10.3367,114.143 10.5,116.5C 9.35159,112.019 9.18492,107.352 10,102.5C 11.0893,97.6491 12.756,92.9825 15,88.5C 16.3518,86.5676 18.1851,85.2343 20.5,84.5C 21.5773,82.0877 22.744,79.7543 24,77.5C 24.21,79.0581 24.71,80.3915 25.5,81.5 Z"/></g>
<g><path style="opacity:1" fill="#cadbef" d="M 87.5,144.5 C 87.5,144.167 87.5,143.833 87.5,143.5C 87.8333,143.5 88.1667,143.5 88.5,143.5C 112.167,143.5 135.833,143.5 159.5,143.5C 158.737,144.268 157.737,144.768 156.5,145C 158.032,147.034 159.365,149.201 160.5,151.5C 149.007,152.167 137.674,152.833 126.5,153.5C 125.833,150.5 125.167,147.5 124.5,144.5C 112.167,144.5 99.8333,144.5 87.5,144.5 Z"/></g>
<g><path style="opacity:1" fill="#b3c9e4" d="M 164.5,90.5 C 164.833,90.5 165.167,90.5 165.5,90.5C 165.174,99.3494 165.507,108.016 166.5,116.5C 179.167,116.5 191.833,116.5 204.5,116.5C 192.674,117.331 180.674,117.831 168.5,118C 169.833,120.333 171.167,122.667 172.5,125C 169.964,125.186 167.631,125.686 165.5,126.5C 165.19,129.713 165.523,132.713 166.5,135.5C 178.833,135.5 191.167,135.5 203.5,135.5C 203.833,135.5 204.167,135.5 204.5,135.5C 194.659,136.167 184.659,136.833 174.5,137.5C 176.85,140.059 176.85,142.393 174.5,144.5C 171.5,144.5 168.5,144.5 165.5,144.5C 165.5,147.5 165.5,150.5 165.5,153.5C 165.167,153.5 164.833,153.5 164.5,153.5C 151.833,153.5 139.167,153.5 126.5,153.5C 137.674,152.833 149.007,152.167 160.5,151.5C 159.365,149.201 158.032,147.034 156.5,145C 157.737,144.768 158.737,144.268 159.5,143.5C 161.167,143.5 162.833,143.5 164.5,143.5C 164.5,137.833 164.5,132.167 164.5,126.5C 164.5,126.167 164.5,125.833 164.5,125.5C 164.5,125.167 164.5,124.833 164.5,124.5C 164.5,119.833 164.5,115.167 164.5,110.5C 164.5,110.167 164.5,109.833 164.5,109.5C 164.5,103.5 164.5,97.5 164.5,91.5C 164.5,91.1667 164.5,90.8333 164.5,90.5 Z"/></g>
<g><path style="opacity:1" fill="#a75254" d="M 87.5,144.5 C 99.8333,144.5 112.167,144.5 124.5,144.5C 124.5,144.833 124.5,145.167 124.5,145.5C 118.5,145.5 112.5,145.5 106.5,145.5C 100.5,145.5 94.5,145.5 88.5,145.5C 88.5,153.833 88.5,162.167 88.5,170.5C 87.507,162.016 87.1736,153.349 87.5,144.5 Z"/></g>
<g><path style="opacity:1" fill="#8f8468" d="M 174.5,144.5 C 197.673,144.169 220.673,144.502 243.5,145.5C 217.833,145.5 192.167,145.5 166.5,145.5C 166.5,151.5 166.5,157.5 166.5,163.5C 166.167,163.5 165.833,163.5 165.5,163.5C 165.5,160.167 165.5,156.833 165.5,153.5C 165.5,150.5 165.5,147.5 165.5,144.5C 168.5,144.5 171.5,144.5 174.5,144.5 Z"/></g>
<g><path style="opacity:1" fill="#e8313b" d="M 106.5,145.5 C 108.948,146.473 111.615,146.806 114.5,146.5C 114.5,154.5 114.5,162.5 114.5,170.5C 105.833,170.5 97.1667,170.5 88.5,170.5C 88.5,162.167 88.5,153.833 88.5,145.5C 94.5,145.5 100.5,145.5 106.5,145.5 Z"/></g>
<g><path style="opacity:1" fill="#e54448" d="M 106.5,145.5 C 112.5,145.5 118.5,145.5 124.5,145.5C 124.5,153.833 124.5,162.167 124.5,170.5C 121.167,170.5 117.833,170.5 114.5,170.5C 114.5,162.5 114.5,154.5 114.5,146.5C 111.615,146.806 108.948,146.473 106.5,145.5 Z"/></g>
<g><path style="opacity:1" fill="#d4b273" d="M 243.5,145.5 C 243.5,151.5 243.5,157.5 243.5,163.5C 217.833,163.5 192.167,163.5 166.5,163.5C 166.5,157.5 166.5,151.5 166.5,145.5C 192.167,145.5 217.833,145.5 243.5,145.5 Z"/></g>
<g><path style="opacity:0.937" fill="#7990a7" d="M 27.5,116.5 C 28.5,116.5 29.5,116.5 30.5,116.5C 28.3254,140.621 32.3254,163.621 42.5,185.5C 38.8561,185.292 36.6895,183.292 36,179.5C 33.1891,171.569 30.6891,163.569 28.5,155.5C 27.5843,143.531 27.251,131.531 27.5,119.5C 27.5,118.5 27.5,117.5 27.5,116.5 Z"/></g>
<g><path style="opacity:1" fill="#7b858d" d="M 318.5,178.5 C 318.392,180.783 317.559,182.783 316,184.5C 310.516,191.982 304.349,198.815 297.5,205C 297.728,205.399 298.062,205.565 298.5,205.5C 297.486,206.674 296.153,207.34 294.5,207.5C 298.714,199.739 302.381,191.739 305.5,183.5C 308.184,181.129 309.518,178.129 309.5,174.5C 310.167,169.833 310.833,165.167 311.5,160.5C 311.833,160.5 312.167,160.5 312.5,160.5C 313.666,155.886 314.833,151.219 316,146.5C 316.358,157.542 315.858,168.542 314.5,179.5C 315.959,179.567 317.292,179.234 318.5,178.5 Z"/></g>
<g><path style="opacity:1" fill="#b5b9bc" d="M 6.5,109.5 C 5.86061,117.461 6.52728,125.461 8.5,133.5C 6.95381,145.789 7.62048,158.122 10.5,170.5C 10.0135,172.304 9.34684,173.971 8.5,175.5C 2.65104,153.8 1.98437,131.8 6.5,109.5 Z"/></g>
<g><path style="opacity:1" fill="#aec0d5" d="M 27.5,119.5 C 27.251,131.531 27.5843,143.531 28.5,155.5C 26.3259,163.375 24.3259,171.375 22.5,179.5C 20.9261,177.898 20.2594,175.898 20.5,173.5C 21.2302,169.939 21.8969,166.273 22.5,162.5C 23.3129,153.81 24.3129,145.143 25.5,136.5C 26.1667,130.833 26.8333,125.167 27.5,119.5 Z"/></g>
<g><path style="opacity:1" fill="#3e70ae" d="M 126.5,153.5 C 139.167,153.5 151.833,153.5 164.5,153.5C 164.5,156.5 164.5,159.5 164.5,162.5C 151.833,162.5 139.167,162.5 126.5,162.5C 126.5,159.5 126.5,156.5 126.5,153.5 Z"/></g>
<g><path style="opacity:0.882" fill="#94a7b7" d="M 300.5,125.5 C 301.167,125.5 301.833,125.5 302.5,125.5C 303.224,138.349 302.224,151.016 299.5,163.5C 298.167,163.5 296.833,163.5 295.5,163.5C 298.968,151.089 300.635,138.422 300.5,125.5 Z"/></g>
<g><path style="opacity:1" fill="#b1c8e3" d="M 294.5,85.5 C 296.438,89.1925 298.771,92.6925 301.5,96C 302.946,97.298 304.279,97.4646 305.5,96.5C 306.976,98.7686 308.476,101.102 310,103.5C 314.824,122.326 315.657,141.326 312.5,160.5C 312.167,160.5 311.833,160.5 311.5,160.5C 311.684,152.91 309.851,145.91 306,139.5C 305.833,140 305.667,140.5 305.5,141C 307.651,152.211 308.984,163.378 309.5,174.5C 309.518,178.129 308.184,181.129 305.5,183.5C 301.876,185.951 298.376,188.617 295,191.5C 294.788,188.242 294.288,185.076 293.5,182C 296.003,175.991 298.003,169.824 299.5,163.5C 302.224,151.016 303.224,138.349 302.5,125.5C 302.757,119.102 302.257,112.769 301,106.5C 298.924,99.4403 296.757,92.4403 294.5,85.5 Z"/></g>
<g><path style="opacity:1" fill="#6a7a88" d="M 25.5,136.5 C 24.3129,145.143 23.3129,153.81 22.5,162.5C 19.2773,153.523 20.2773,144.857 25.5,136.5 Z"/></g>
<g><path style="opacity:1" fill="#586873" d="M 311.5,160.5 C 310.833,165.167 310.167,169.833 309.5,174.5C 308.984,163.378 307.651,152.211 305.5,141C 305.667,140.5 305.833,140 306,139.5C 309.851,145.91 311.684,152.91 311.5,160.5 Z"/></g>
<g><path style="opacity:1" fill="#b5bdc3" d="M 325.5,118.5 C 325.667,132.837 325.5,147.171 325,161.5C 324.432,166.44 323.265,171.107 321.5,175.5C 321.631,174.761 321.464,174.094 321,173.5C 319.332,176.21 318.499,176.043 318.5,173C 320.621,161.4 320.954,149.9 319.5,138.5C 322.953,132.153 324.953,125.486 325.5,118.5 Z"/></g>
<g><path style="opacity:1" fill="#cbdcef" d="M 164.5,153.5 C 164.833,153.5 165.167,153.5 165.5,153.5C 165.5,156.833 165.5,160.167 165.5,163.5C 165.5,168.5 165.5,173.5 165.5,178.5C 165.5,178.833 165.5,179.167 165.5,179.5C 165.5,188.5 165.5,197.5 165.5,206.5C 165.167,206.5 164.833,206.5 164.5,206.5C 164.828,194.655 164.495,182.988 163.5,171.5C 158.5,171.5 153.5,171.5 148.5,171.5C 142.167,171.5 135.833,171.5 129.5,171.5C 128.213,168.594 127.213,165.594 126.5,162.5C 139.167,162.5 151.833,162.5 164.5,162.5C 164.5,159.5 164.5,156.5 164.5,153.5 Z"/></g>
<g><path style="opacity:1" fill="#4b5157" d="M 165.5,163.5 C 165.833,163.5 166.167,163.5 166.5,163.5C 192.167,163.5 217.833,163.5 243.5,163.5C 243.5,163.833 243.5,164.167 243.5,164.5C 217.833,164.5 192.167,164.5 166.5,164.5C 166.5,168.833 166.5,173.167 166.5,177.5C 191.833,177.5 217.167,177.5 242.5,177.5C 217.005,178.498 191.339,178.831 165.5,178.5C 165.5,173.5 165.5,168.5 165.5,163.5 Z"/></g>
<g><path style="opacity:1" fill="#000000" d="M 243.5,164.5 C 243.5,166.833 243.5,169.167 243.5,171.5C 242.539,173.265 242.205,175.265 242.5,177.5C 217.167,177.5 191.833,177.5 166.5,177.5C 166.5,173.167 166.5,168.833 166.5,164.5C 192.167,164.5 217.833,164.5 243.5,164.5 Z"/></g>
<g><path style="opacity:0.879" fill="#c2d1e3" d="M 295.5,163.5 C 296.833,163.5 298.167,163.5 299.5,163.5C 298.003,169.824 296.003,175.991 293.5,182C 294.288,185.076 294.788,188.242 295,191.5C 298.376,188.617 301.876,185.951 305.5,183.5C 302.381,191.739 298.714,199.739 294.5,207.5C 290.822,212.206 287.156,216.872 283.5,221.5C 286.829,209.846 290.162,198.179 293.5,186.5C 293.154,185.304 292.654,185.304 292,186.5C 287.478,194.019 284.645,202.019 283.5,210.5C 283.657,209.127 283.49,207.793 283,206.5C 281.757,208.833 280.091,209.5 278,208.5C 273.832,213.115 269.665,217.615 265.5,222C 266.167,223.857 265.5,225.357 263.5,226.5C 263.565,226.062 263.399,225.728 263,225.5C 257.204,231.448 252.038,237.781 247.5,244.5C 247.631,243.761 247.464,243.094 247,242.5C 245.184,243.329 243.351,244.163 241.5,245C 232.606,251.42 223.939,257.92 215.5,264.5C 218.191,260.815 220.858,257.148 223.5,253.5C 224.463,252.637 224.463,251.97 223.5,251.5C 220.166,252.831 217.166,254.665 214.5,257C 213.207,257.49 211.873,257.657 210.5,257.5C 211.091,256.849 211.757,256.182 212.5,255.5C 211.398,254.824 210.398,254.158 209.5,253.5C 250.269,239.232 278.436,211.898 294,171.5C 294.272,168.746 294.772,166.079 295.5,163.5 Z"/></g>
<g><path style="opacity:1" fill="#828a90" d="M 15.5,147.5 C 16.4212,156.435 18.0878,165.101 20.5,173.5C 20.2594,175.898 20.9261,177.898 22.5,179.5C 24.4462,184.396 26.1128,189.396 27.5,194.5C 25.2043,192.599 23.371,190.266 22,187.5C 18.9472,183.945 15.4472,180.945 11.5,178.5C 10.1522,177.473 9.65219,176.14 10,174.5C 10.9147,175.328 11.5814,176.328 12,177.5C 12.3333,176.5 12.6667,175.5 13,174.5C 12.8438,164.505 12.8438,154.505 13,144.5C 13.8518,145.571 14.6851,146.571 15.5,147.5 Z"/></g>
<g><path style="opacity:1" fill="#b9c8e1" d="M 124.5,144.5 C 125.167,147.5 125.833,150.5 126.5,153.5C 126.5,156.5 126.5,159.5 126.5,162.5C 127.213,165.594 128.213,168.594 129.5,171.5C 128.833,171.5 128.167,171.5 127.5,171.5C 126.506,180.652 126.173,189.985 126.5,199.5C 117.942,196.759 109.276,194.425 100.5,192.5C 98.6316,191.737 96.9649,190.737 95.5,189.5C 104.986,188.506 114.652,188.173 124.5,188.5C 124.5,185.5 124.5,182.5 124.5,179.5C 112.833,179.5 101.167,179.5 89.5,179.5C 88.701,176.57 88.3677,173.57 88.5,170.5C 97.1667,170.5 105.833,170.5 114.5,170.5C 117.833,170.5 121.167,170.5 124.5,170.5C 124.5,162.167 124.5,153.833 124.5,145.5C 124.5,145.167 124.5,144.833 124.5,144.5 Z"/></g>
<g><path style="opacity:1" fill="#ac4e51" d="M 127.5,171.5 C 127.5,171.833 127.5,172.167 127.5,172.5C 126.905,181.765 127.572,190.765 129.5,199.5C 128.5,199.5 127.5,199.5 126.5,199.5C 126.173,189.985 126.506,180.652 127.5,171.5 Z"/></g>
<g><path style="opacity:1" fill="#ea2a36" d="M 127.5,172.5 C 130.833,172.5 134.167,172.5 137.5,172.5C 137.827,182.015 137.494,191.348 136.5,200.5C 134.139,200.326 131.806,199.993 129.5,199.5C 127.572,190.765 126.905,181.765 127.5,172.5 Z"/></g>
<g><path style="opacity:1" fill="#e63f45" d="M 137.5,172.5 C 140.167,172.5 142.833,172.5 145.5,172.5C 145.5,182.5 145.5,192.5 145.5,202.5C 142.123,202.932 139.123,202.265 136.5,200.5C 137.494,191.348 137.827,182.015 137.5,172.5 Z"/></g>
<g><path style="opacity:1" fill="#e15351" d="M 127.5,172.5 C 127.5,172.167 127.5,171.833 127.5,171.5C 128.167,171.5 128.833,171.5 129.5,171.5C 135.833,171.5 142.167,171.5 148.5,171.5C 149.919,172.451 151.585,172.784 153.5,172.5C 154.142,183.221 153.475,193.554 151.5,203.5C 149.435,203.483 147.435,203.15 145.5,202.5C 145.5,192.5 145.5,182.5 145.5,172.5C 142.833,172.5 140.167,172.5 137.5,172.5C 134.167,172.5 130.833,172.5 127.5,172.5 Z"/></g>
<g><path style="opacity:1" fill="#de6860" d="M 148.5,171.5 C 153.5,171.5 158.5,171.5 163.5,171.5C 161.556,182.58 160.889,193.913 161.5,205.5C 157.878,205.678 154.544,205.011 151.5,203.5C 153.475,193.554 154.142,183.221 153.5,172.5C 151.585,172.784 149.919,172.451 148.5,171.5 Z"/></g>
<g><path style="opacity:1" fill="#dc7d70" d="M 163.5,171.5 C 164.495,182.988 164.828,194.655 164.5,206.5C 163.5,206.5 162.5,206.5 161.5,206.5C 161.5,206.167 161.5,205.833 161.5,205.5C 160.889,193.913 161.556,182.58 163.5,171.5 Z"/></g>
<g><path style="opacity:1" fill="#98acc5" d="M 243.5,171.5 C 243.664,174.187 243.497,176.854 243,179.5C 242.722,180.416 242.222,181.082 241.5,181.5C 217.189,179.51 192.523,178.843 167.5,179.5C 166.833,179.5 166.167,179.5 165.5,179.5C 165.5,179.167 165.5,178.833 165.5,178.5C 191.339,178.831 217.005,178.498 242.5,177.5C 242.205,175.265 242.539,173.265 243.5,171.5 Z"/></g>
<g><path style="opacity:1" fill="#a8946a" d="M 165.5,179.5 C 166.167,179.5 166.833,179.5 167.5,179.5C 167.5,188.5 167.5,197.5 167.5,206.5C 166.833,206.5 166.167,206.5 165.5,206.5C 165.5,197.5 165.5,188.5 165.5,179.5 Z"/></g>
<g><path style="opacity:1" fill="#d4b271" d="M 167.5,179.5 C 192.523,178.843 217.189,179.51 241.5,181.5C 239.834,186.209 236.501,189.376 231.5,191C 220.26,193.723 209.26,196.889 198.5,200.5C 188.05,201.99 177.716,203.99 167.5,206.5C 167.5,197.5 167.5,188.5 167.5,179.5 Z"/></g>
<g><path style="opacity:1" fill="#20508b" d="M 89.5,179.5 C 101.167,179.5 112.833,179.5 124.5,179.5C 124.5,182.5 124.5,185.5 124.5,188.5C 114.652,188.173 104.986,188.506 95.5,189.5C 91.6457,188.303 89.6457,185.636 89.5,181.5C 89.5,180.833 89.5,180.167 89.5,179.5 Z"/></g>
<g><path style="opacity:1" fill="#8696a6" d="M 283.5,221.5 C 282.596,220.791 282.263,219.791 282.5,218.5C 283.473,216.052 283.806,213.385 283.5,210.5C 284.645,202.019 287.478,194.019 292,186.5C 292.654,185.304 293.154,185.304 293.5,186.5C 290.162,198.179 286.829,209.846 283.5,221.5 Z"/></g>
<g><path style="opacity:1" fill="#717a81" d="M 253.5,112.5 C 254.609,112.557 255.609,112.89 256.5,113.5C 255.859,132.501 254.693,151.501 253,170.5C 252.535,178.7 250.368,186.367 246.5,193.5C 242.668,196.25 238.668,198.75 234.5,201C 212.295,209.601 189.628,216.768 166.5,222.5C 167.167,221.167 167.833,219.833 168.5,218.5C 176.684,216.439 184.684,213.772 192.5,210.5C 194.527,210.662 196.527,210.495 198.5,210C 212.449,205.284 226.116,199.95 239.5,194C 240.667,192.833 241.833,191.667 243,190.5C 244.875,187.412 246.208,184.079 247,180.5C 248.761,160.353 250.261,140.186 251.5,120C 251.525,117.071 252.191,114.571 253.5,112.5 Z"/></g>
<g><path style="opacity:1" fill="#ced9e7" d="M 9.5,179.5 C 10.1667,179.5 10.8333,179.5 11.5,179.5C 14.115,183.954 16.9484,188.287 20,192.5C 24.6343,196.482 28.801,200.816 32.5,205.5C 29.605,204.601 26.9384,203.267 24.5,201.5C 19.4781,197.141 15.1448,192.141 11.5,186.5C 10.8333,184.167 10.1667,181.833 9.5,179.5 Z"/></g>
<g><path style="opacity:1" fill="#54646f" d="M 11.5,178.5 C 15.4472,180.945 18.9472,183.945 22,187.5C 23.371,190.266 25.2043,192.599 27.5,194.5C 29.3409,198.183 31.6742,201.516 34.5,204.5C 34.1583,205.338 33.4916,205.672 32.5,205.5C 28.801,200.816 24.6343,196.482 20,192.5C 16.9484,188.287 14.115,183.954 11.5,179.5C 11.5,179.167 11.5,178.833 11.5,178.5 Z"/></g>
<g><path style="opacity:1" fill="#6e7980" d="M 56.5,82.5 C 58.764,83.5813 60.9307,84.9146 63,86.5C 67.5987,95.3705 72.432,104.037 77.5,112.5C 79.2855,136.547 81.4522,160.547 84,184.5C 85.6471,188.055 87.8138,191.221 90.5,194C 94.1803,194.348 97.5136,195.515 100.5,197.5C 107.337,200.765 114.337,203.599 121.5,206C 135.07,209.361 148.403,213.194 161.5,217.5C 163.607,218.468 165.941,218.802 168.5,218.5C 167.833,219.833 167.167,221.167 166.5,222.5C 140.572,216.709 115.239,208.876 90.5,199C 88.0888,197.045 85.5888,195.211 83,193.5C 79.6054,186.258 77.6054,178.591 77,170.5C 75.2236,152.21 74.2236,133.877 74,115.5C 68.1414,104.446 62.308,93.4462 56.5,82.5 Z"/></g>
<g><path style="opacity:1" fill="#d9e1ee" d="M 100.5,192.5 C 109.276,194.425 117.942,196.759 126.5,199.5C 127.5,199.5 128.5,199.5 129.5,199.5C 131.806,199.993 134.139,200.326 136.5,200.5C 139.123,202.265 142.123,202.932 145.5,202.5C 147.435,203.15 149.435,203.483 151.5,203.5C 154.544,205.011 157.878,205.678 161.5,205.5C 161.5,205.833 161.5,206.167 161.5,206.5C 162.209,207.404 163.209,207.737 164.5,207.5C 164.5,210.833 164.5,214.167 164.5,217.5C 163.5,217.5 162.5,217.5 161.5,217.5C 148.403,213.194 135.07,209.361 121.5,206C 114.337,203.599 107.337,200.765 100.5,197.5C 100.5,195.833 100.5,194.167 100.5,192.5 Z"/></g>
<g><path style="opacity:1" fill="#7b858b" d="M 24.5,201.5 C 26.9384,203.267 29.605,204.601 32.5,205.5C 33.4916,205.672 34.1583,205.338 34.5,204.5C 36.4546,209.719 39.4546,214.386 43.5,218.5C 46.8238,223.261 50.3238,227.927 54,232.5C 56.9985,234.333 59.4985,236.666 61.5,239.5C 56.7774,237.056 51.7774,235.056 46.5,233.5C 45.8933,233.624 45.56,233.957 45.5,234.5C 42.1695,232.838 38.8362,231.172 35.5,229.5C 35.5394,228.417 35.8728,227.417 36.5,226.5C 33.4209,222.676 30.5876,218.676 28,214.5C 26.922,210.509 25.422,206.676 23.5,203C 23.5699,202.235 23.9033,201.735 24.5,201.5 Z"/></g>
<g><path style="opacity:1" fill="#8da0b3" d="M 198.5,200.5 C 196.898,202.074 194.898,202.741 192.5,202.5C 191.742,205.352 191.742,208.019 192.5,210.5C 184.684,213.772 176.684,216.439 168.5,218.5C 165.941,218.802 163.607,218.468 161.5,217.5C 162.5,217.5 163.5,217.5 164.5,217.5C 164.5,214.167 164.5,210.833 164.5,207.5C 163.209,207.737 162.209,207.404 161.5,206.5C 162.5,206.5 163.5,206.5 164.5,206.5C 164.833,206.5 165.167,206.5 165.5,206.5C 166.167,206.5 166.833,206.5 167.5,206.5C 177.716,203.99 188.05,201.99 198.5,200.5 Z"/></g>
<g><path style="opacity:1" fill="#c6ced7" d="M 321.5,175.5 C 316.258,200.712 304.591,222.379 286.5,240.5C 286.565,240.062 286.399,239.728 286,239.5C 283.834,240.731 281.667,241.731 279.5,242.5C 276.242,244.222 274.909,243.555 275.5,240.5C 282.376,237.236 288.71,233.236 294.5,228.5C 295.458,228.047 296.292,227.381 297,226.5C 301.746,217.409 306.579,208.409 311.5,199.5C 311.333,198.5 311.167,197.5 311,196.5C 308.225,199.78 305.058,202.446 301.5,204.5C 300.391,204.557 299.391,204.89 298.5,205.5C 298.062,205.565 297.728,205.399 297.5,205C 304.349,198.815 310.516,191.982 316,184.5C 317.559,182.783 318.392,180.783 318.5,178.5C 319.728,177.694 320.728,176.694 321.5,175.5 Z"/></g>
<g><path style="opacity:1" fill="#8d959b" d="M 294.5,228.5 C 291.994,229.75 289.327,230.416 286.5,230.5C 286.351,229.448 286.517,228.448 287,227.5C 289.687,223.817 292.687,220.483 296,217.5C 297.966,213.374 300.132,209.374 302.5,205.5C 302.376,204.893 302.043,204.56 301.5,204.5C 305.058,202.446 308.225,199.78 311,196.5C 311.167,197.5 311.333,198.5 311.5,199.5C 306.579,208.409 301.746,217.409 297,226.5C 296.292,227.381 295.458,228.047 294.5,228.5 Z"/></g>
<g><path style="opacity:1" fill="#a6abaf" d="M 11.5,186.5 C 15.1448,192.141 19.4781,197.141 24.5,201.5C 23.9033,201.735 23.5699,202.235 23.5,203C 25.422,206.676 26.922,210.509 28,214.5C 30.5876,218.676 33.4209,222.676 36.5,226.5C 35.8728,227.417 35.5394,228.417 35.5,229.5C 35.5,229.833 35.5,230.167 35.5,230.5C 33.205,227.703 30.705,225.036 28,222.5C 22.0765,212.184 16.7432,201.517 12,190.5C 11.51,189.207 11.3433,187.873 11.5,186.5 Z"/></g>
<g><path style="opacity:1" fill="#a6bfdd" d="M 37.5,186.5 C 40.8335,192.64 45.0002,198.307 50,203.5C 54.0423,210.218 58.8756,216.385 64.5,222C 63.2004,223.579 63.5337,224.745 65.5,225.5C 66.7996,237.425 72.4662,246.425 82.5,252.5C 82.6309,253.376 82.2975,254.043 81.5,254.5C 78.3603,252.527 75.3603,250.36 72.5,248C 69.6353,247.817 66.9686,247.317 64.5,246.5C 66.9935,246.869 67.6602,246.203 66.5,244.5C 66.631,243.761 66.4643,243.094 66,242.5C 64.1222,241.947 62.6222,240.947 61.5,239.5C 59.4985,236.666 56.9985,234.333 54,232.5C 50.3238,227.927 46.8238,223.261 43.5,218.5C 44.0967,218.265 44.4301,217.765 44.5,217C 42.0072,206.88 39.6738,196.713 37.5,186.5 Z"/></g>
<g><path style="opacity:1" fill="#fafbfc" d="M 282.5,218.5 C 282.263,219.791 282.596,220.791 283.5,221.5C 279.476,226.519 275.476,231.519 271.5,236.5C 266.601,239.456 262.268,243.123 258.5,247.5C 256.833,248.167 255.167,248.833 253.5,249.5C 255.075,246.418 257.242,243.751 260,241.5C 261.893,238.382 263.226,235.049 264,231.5C 270.046,226.75 276.212,222.417 282.5,218.5 Z"/></g>
<g><path style="opacity:1" fill="#5c656b" d="M 301.5,204.5 C 302.043,204.56 302.376,204.893 302.5,205.5C 300.132,209.374 297.966,213.374 296,217.5C 292.687,220.483 289.687,223.817 287,227.5C 286.517,228.448 286.351,229.448 286.5,230.5C 289.327,230.416 291.994,229.75 294.5,228.5C 288.71,233.236 282.376,237.236 275.5,240.5C 272.594,241.751 269.594,242.251 266.5,242C 268.345,240.322 270.012,238.489 271.5,236.5C 275.476,231.519 279.476,226.519 283.5,221.5C 287.156,216.872 290.822,212.206 294.5,207.5C 296.153,207.34 297.486,206.674 298.5,205.5C 299.391,204.89 300.391,204.557 301.5,204.5 Z"/></g>
<g><path style="opacity:1" fill="#3e4c53" d="M 263.5,226.5 C 258.613,236.588 252.446,245.922 245,254.5C 244.785,252.58 245.452,250.914 247,249.5C 247.494,247.866 247.66,246.199 247.5,244.5C 252.038,237.781 257.204,231.448 263,225.5C 263.399,225.728 263.565,226.062 263.5,226.5 Z"/></g>
<g><path style="opacity:1" fill="#51606a" d="M 45.5,234.5 C 45.56,233.957 45.8933,233.624 46.5,233.5C 51.7774,235.056 56.7774,237.056 61.5,239.5C 62.6222,240.947 64.1222,241.947 66,242.5C 66.4643,243.094 66.631,243.761 66.5,244.5C 59.1051,241.969 52.1051,238.636 45.5,234.5 Z"/></g>
<g><path style="opacity:0.895" fill="#8faacc" d="M 28.5,155.5 C 30.6891,163.569 33.1891,171.569 36,179.5C 36.6895,183.292 38.8561,185.292 42.5,185.5C 61.9243,222.402 91.9243,246.235 132.5,257C 143.313,258.963 154.146,260.796 165,262.5C 180.032,260.327 194.865,257.327 209.5,253.5C 210.398,254.158 211.398,254.824 212.5,255.5C 211.757,256.182 211.091,256.849 210.5,257.5C 210.5,258.167 210.167,258.5 209.5,258.5C 209.083,257.876 208.416,257.543 207.5,257.5C 192.675,263.039 177.342,265.706 161.5,265.5C 142.555,263.985 124.555,259.318 107.5,251.5C 106.702,251.957 106.369,252.624 106.5,253.5C 104.534,252.745 104.2,251.579 105.5,250C 103.833,249.667 102.167,249.333 100.5,249C 95.6332,245.735 90.6332,242.735 85.5,240C 79.0416,235.252 72.7083,230.419 66.5,225.5C 66.1667,225.5 65.8333,225.5 65.5,225.5C 63.5337,224.745 63.2004,223.579 64.5,222C 58.8756,216.385 54.0423,210.218 50,203.5C 45.0002,198.307 40.8335,192.64 37.5,186.5C 36.7321,185.737 36.2321,184.737 36,183.5C 35.3333,189.833 35.3333,196.167 36,202.5C 37.8805,208.187 40.3805,213.52 43.5,218.5C 39.4546,214.386 36.4546,209.719 34.5,204.5C 31.6742,201.516 29.3409,198.183 27.5,194.5C 26.1128,189.396 24.4462,184.396 22.5,179.5C 24.3259,171.375 26.3259,163.375 28.5,155.5 Z"/></g>
<g><path style="opacity:1" fill="#637381" d="M 37.5,186.5 C 39.6738,196.713 42.0072,206.88 44.5,217C 44.4301,217.765 44.0967,218.265 43.5,218.5C 40.3805,213.52 37.8805,208.187 36,202.5C 35.3333,196.167 35.3333,189.833 36,183.5C 36.2321,184.737 36.7321,185.737 37.5,186.5 Z"/></g>
<g><path style="opacity:1" fill="#a9b1b7" d="M 286.5,240.5 C 284.107,244.402 281.107,247.902 277.5,251C 268.843,257.664 260.177,264.33 251.5,271C 248.264,272.786 244.93,274.286 241.5,275.5C 242.306,274.272 243.306,273.272 244.5,272.5C 247.301,271.265 249.968,269.765 252.5,268C 251.906,267.536 251.239,267.369 250.5,267.5C 251.568,266.566 252.901,266.232 254.5,266.5C 256.033,264.645 257.7,262.812 259.5,261C 263.888,258.525 268.221,255.858 272.5,253C 274.319,249.565 276.986,246.231 280.5,243C 280.272,242.601 279.938,242.435 279.5,242.5C 281.667,241.731 283.834,240.731 286,239.5C 286.399,239.728 286.565,240.062 286.5,240.5 Z"/></g>
<g><path style="opacity:1" fill="#d1dbe8" d="M 35.5,229.5 C 38.8362,231.172 42.1695,232.838 45.5,234.5C 52.1051,238.636 59.1051,241.969 66.5,244.5C 67.6602,246.203 66.9935,246.869 64.5,246.5C 63.5,246.5 62.5,246.5 61.5,246.5C 56.5268,244.785 51.5268,242.951 46.5,241C 43.8991,237.888 40.8991,235.388 37.5,233.5C 35.9519,233.179 35.2852,232.179 35.5,230.5C 35.5,230.167 35.5,229.833 35.5,229.5 Z"/></g>
<g><path style="opacity:1" fill="#4e5e68" d="M 65.5,225.5 C 65.8333,225.5 66.1667,225.5 66.5,225.5C 66.4914,227.308 66.9914,228.975 68,230.5C 72.6779,237.997 77.5112,245.33 82.5,252.5C 72.4662,246.425 66.7996,237.425 65.5,225.5 Z"/></g>
<g><path style="opacity:1" fill="#778289" d="M 61.5,246.5 C 62.5,246.5 63.5,246.5 64.5,246.5C 66.9686,247.317 69.6353,247.817 72.5,248C 75.3603,250.36 78.3603,252.527 81.5,254.5C 82.2975,254.043 82.6309,253.376 82.5,252.5C 85.2791,253.617 85.6124,254.783 83.5,256C 93.2231,261.842 103.223,267.008 113.5,271.5C 100.69,270.712 88.0235,269.045 75.5,266.5C 73.9299,264.347 72.2633,262.181 70.5,260C 66.0026,257.49 62.1693,254.324 59,250.5C 58.51,249.207 58.3433,247.873 58.5,246.5C 59.5,246.5 60.5,246.5 61.5,246.5 Z"/></g>
<g><path style="opacity:1" fill="#5c6266" d="M 249.5,265.5 C 243.409,265.789 237.409,265.455 231.5,264.5C 234.433,262.355 237.433,260.188 240.5,258C 245.501,256.162 249.834,253.328 253.5,249.5C 255.167,248.833 256.833,248.167 258.5,247.5C 262.81,246.92 267.143,246.586 271.5,246.5C 271.5,247.5 271.5,248.5 271.5,249.5C 270.127,249.343 268.793,249.51 267.5,250C 261.456,255.29 255.456,260.457 249.5,265.5 Z"/></g>
<g><path style="opacity:1" fill="#87919b" d="M 271.5,236.5 C 270.012,238.489 268.345,240.322 266.5,242C 269.594,242.251 272.594,241.751 275.5,240.5C 274.909,243.555 276.242,244.222 279.5,242.5C 279.938,242.435 280.272,242.601 280.5,243C 276.986,246.231 274.319,249.565 272.5,253C 268.221,255.858 263.888,258.525 259.5,261C 257.7,262.812 256.033,264.645 254.5,266.5C 253.081,265.549 251.415,265.216 249.5,265.5C 255.456,260.457 261.456,255.29 267.5,250C 268.793,249.51 270.127,249.343 271.5,249.5C 271.5,248.5 271.5,247.5 271.5,246.5C 267.143,246.586 262.81,246.92 258.5,247.5C 262.268,243.123 266.601,239.456 271.5,236.5 Z"/></g>
<g><path style="opacity:1" fill="#bbd0e7" d="M 66.5,225.5 C 72.7083,230.419 79.0416,235.252 85.5,240C 90.6332,242.735 95.6332,245.735 100.5,249C 102.167,249.333 103.833,249.667 105.5,250C 104.2,251.579 104.534,252.745 106.5,253.5C 113.095,263.76 122.095,271.093 133.5,275.5C 134.416,275.457 135.083,275.124 135.5,274.5C 138.098,275.528 138.098,276.528 135.5,277.5C 128.201,275.288 120.868,273.288 113.5,271.5C 103.223,267.008 93.2231,261.842 83.5,256C 85.6124,254.783 85.2791,253.617 82.5,252.5C 77.5112,245.33 72.6779,237.997 68,230.5C 66.9914,228.975 66.4914,227.308 66.5,225.5 Z"/></g>
<g><path style="opacity:1" fill="#a0a5a9" d="M 37.5,233.5 C 40.8991,235.388 43.8991,237.888 46.5,241C 51.5268,242.951 56.5268,244.785 61.5,246.5C 60.5,246.5 59.5,246.5 58.5,246.5C 58.3433,247.873 58.51,249.207 59,250.5C 62.1693,254.324 66.0026,257.49 70.5,260C 72.2633,262.181 73.9299,264.347 75.5,266.5C 78.1019,268.81 81.1019,270.643 84.5,272C 90.4547,273.072 96.4547,273.572 102.5,273.5C 110.582,276.831 118.582,279.831 126.5,282.5C 123.669,283.079 121.336,284.412 119.5,286.5C 116.075,286.367 115.742,287.033 118.5,288.5C 92.8384,280.45 70.1717,267.284 50.5,249C 45.9556,243.96 41.6223,238.794 37.5,233.5 Z"/></g>
<g><path style="opacity:1" fill="#e9eff7" d="M 283.5,210.5 C 283.806,213.385 283.473,216.052 282.5,218.5C 276.212,222.417 270.046,226.75 264,231.5C 263.226,235.049 261.893,238.382 260,241.5C 257.242,243.751 255.075,246.418 253.5,249.5C 249.834,253.328 245.501,256.162 240.5,258C 237.433,260.188 234.433,262.355 231.5,264.5C 227.677,264.411 224.677,265.911 222.5,269C 221.552,269.483 220.552,269.649 219.5,269.5C 216.759,269.707 214.426,270.707 212.5,272.5C 211.5,272.5 210.5,272.5 209.5,272.5C 208.448,272.649 207.448,272.483 206.5,272C 209.101,268.888 212.101,266.388 215.5,264.5C 223.939,257.92 232.606,251.42 241.5,245C 243.351,244.163 245.184,243.329 247,242.5C 247.464,243.094 247.631,243.761 247.5,244.5C 247.66,246.199 247.494,247.866 247,249.5C 245.452,250.914 244.785,252.58 245,254.5C 252.446,245.922 258.613,236.588 263.5,226.5C 265.5,225.357 266.167,223.857 265.5,222C 269.665,217.615 273.832,213.115 278,208.5C 280.091,209.5 281.757,208.833 283,206.5C 283.49,207.793 283.657,209.127 283.5,210.5 Z"/></g>
<g><path style="opacity:0.994" fill="#ccddef" d="M 161.5,265.5 C 162.568,266.434 163.901,266.768 165.5,266.5C 165.5,271.167 165.5,275.833 165.5,280.5C 164.167,280.5 162.833,280.5 161.5,280.5C 156.5,280.5 151.5,280.5 146.5,280.5C 142.981,279.368 139.314,278.368 135.5,277.5C 138.098,276.528 138.098,275.528 135.5,274.5C 125.627,267.735 115.96,260.735 106.5,253.5C 106.369,252.624 106.702,251.957 107.5,251.5C 124.555,259.318 142.555,263.985 161.5,265.5 Z"/></g>
<g><path style="opacity:1" fill="#bacee6" d="M 223.5,253.5 C 220.858,257.148 218.191,260.815 215.5,264.5C 212.101,266.388 209.101,268.888 206.5,272C 207.448,272.483 208.448,272.649 209.5,272.5C 203.96,274.543 198.293,276.376 192.5,278C 187.294,278.437 182.294,279.27 177.5,280.5C 174.5,280.5 171.5,280.5 168.5,280.5C 167.5,280.5 166.5,280.5 165.5,280.5C 165.5,275.833 165.5,271.167 165.5,266.5C 163.901,266.768 162.568,266.434 161.5,265.5C 177.342,265.706 192.675,263.039 207.5,257.5C 208.416,257.543 209.083,257.876 209.5,258.5C 205.081,261.955 201.248,265.955 198,270.5C 196.075,271.88 194.241,273.38 192.5,275C 192.833,275.167 193.167,275.333 193.5,275.5C 203.793,268.537 213.793,261.203 223.5,253.5 Z"/></g>
<g><path style="opacity:1" fill="#3a474c" d="M 231.5,264.5 C 237.409,265.455 243.409,265.789 249.5,265.5C 251.415,265.216 253.081,265.549 254.5,266.5C 252.901,266.232 251.568,266.566 250.5,267.5C 240.047,269.32 229.714,269.986 219.5,269.5C 220.552,269.649 221.552,269.483 222.5,269C 224.677,265.911 227.677,264.411 231.5,264.5 Z"/></g>
<g><path style="opacity:1" fill="#495860" d="M 223.5,253.5 C 213.793,261.203 203.793,268.537 193.5,275.5C 193.167,275.333 192.833,275.167 192.5,275C 194.241,273.38 196.075,271.88 198,270.5C 201.248,265.955 205.081,261.955 209.5,258.5C 210.167,258.5 210.5,258.167 210.5,257.5C 211.873,257.657 213.207,257.49 214.5,257C 217.166,254.665 220.166,252.831 223.5,251.5C 224.463,251.97 224.463,252.637 223.5,253.5 Z"/></g>
<g><path style="opacity:1" fill="#4a5962" d="M 106.5,253.5 C 115.96,260.735 125.627,267.735 135.5,274.5C 135.083,275.124 134.416,275.457 133.5,275.5C 122.095,271.093 113.095,263.76 106.5,253.5 Z"/></g>
<g><path style="opacity:1" fill="#c2cedc" d="M 250.5,267.5 C 251.239,267.369 251.906,267.536 252.5,268C 249.968,269.765 247.301,271.265 244.5,272.5C 240.158,272.739 235.824,273.073 231.5,273.5C 225.149,273.443 218.815,273.11 212.5,272.5C 214.426,270.707 216.759,269.707 219.5,269.5C 229.714,269.986 240.047,269.32 250.5,267.5 Z"/></g>
<g><path style="opacity:1" fill="#c3d0e0" d="M 75.5,266.5 C 88.0235,269.045 100.69,270.712 113.5,271.5C 110.124,273.082 106.458,273.749 102.5,273.5C 96.4547,273.572 90.4547,273.072 84.5,272C 81.1019,270.643 78.1019,268.81 75.5,266.5 Z"/></g>
<g><path style="opacity:1" fill="#7b8489" d="M 113.5,271.5 C 120.868,273.288 128.201,275.288 135.5,277.5C 139.314,278.368 142.981,279.368 146.5,280.5C 139.666,280.065 132.999,280.732 126.5,282.5C 118.582,279.831 110.582,276.831 102.5,273.5C 106.458,273.749 110.124,273.082 113.5,271.5 Z"/></g>
<g><path style="opacity:1" fill="#5a6165" d="M 209.5,272.5 C 210.5,272.5 211.5,272.5 212.5,272.5C 218.815,273.11 225.149,273.443 231.5,273.5C 224.391,277.557 217.057,281.39 209.5,285C 210.056,285.383 210.389,285.883 210.5,286.5C 206.958,286.813 203.625,286.479 200.5,285.5C 203.187,285.664 205.854,285.497 208.5,285C 205.36,283.284 202.027,281.951 198.5,281C 191.508,280.5 184.508,280.334 177.5,280.5C 182.294,279.27 187.294,278.437 192.5,278C 198.293,276.376 203.96,274.543 209.5,272.5 Z"/></g>
<g><path style="opacity:1" fill="#303e43" d="M 168.5,281.5 C 168.5,281.167 168.5,280.833 168.5,280.5C 171.5,280.5 174.5,280.5 177.5,280.5C 184.508,280.334 191.508,280.5 198.5,281C 202.027,281.951 205.36,283.284 208.5,285C 205.854,285.497 203.187,285.664 200.5,285.5C 189.729,284.804 179.063,283.471 168.5,281.5 Z"/></g>
<g><path style="opacity:1" fill="#545b5f" d="M 168.5,282.5 C 172.112,284.367 175.779,286.034 179.5,287.5C 179.047,288.458 178.381,289.292 177.5,290C 173.179,290.499 168.846,290.666 164.5,290.5C 164.5,287.5 164.5,284.5 164.5,281.5C 165.959,281.433 167.292,281.766 168.5,282.5 Z"/></g>
<g><path style="opacity:1" fill="#d8e1ed" d="M 168.5,282.5 C 168.5,282.167 168.5,281.833 168.5,281.5C 179.063,283.471 189.729,284.804 200.5,285.5C 203.625,286.479 206.958,286.813 210.5,286.5C 211.552,286.351 212.552,286.517 213.5,287C 211.942,287.21 210.609,287.71 209.5,288.5C 199.424,290.025 189.424,289.691 179.5,287.5C 175.779,286.034 172.112,284.367 168.5,282.5 Z"/></g>
<g><path style="opacity:1" fill="#889095" d="M 244.5,272.5 C 243.306,273.272 242.306,274.272 241.5,275.5C 233.475,280.179 225.142,284.346 216.5,288C 214.19,288.497 211.857,288.663 209.5,288.5C 210.609,287.71 211.942,287.21 213.5,287C 212.552,286.517 211.552,286.351 210.5,286.5C 210.389,285.883 210.056,285.383 209.5,285C 217.057,281.39 224.391,277.557 231.5,273.5C 235.824,273.073 240.158,272.739 244.5,272.5 Z"/></g>
<g><path style="opacity:1" fill="#596975" d="M 146.5,280.5 C 151.5,280.5 156.5,280.5 161.5,280.5C 161.5,280.833 161.5,281.167 161.5,281.5C 147.603,283.987 133.603,285.654 119.5,286.5C 121.336,284.412 123.669,283.079 126.5,282.5C 132.999,280.732 139.666,280.065 146.5,280.5 Z"/></g>
<g><path style="opacity:1" fill="#aabed5" d="M 161.5,281.5 C 162.738,281.81 162.738,282.31 161.5,283C 148.457,288.877 134.791,290.71 120.5,288.5C 119.833,288.5 119.167,288.5 118.5,288.5C 115.742,287.033 116.075,286.367 119.5,286.5C 133.603,285.654 147.603,283.987 161.5,281.5 Z"/></g>
<g><path style="opacity:1" fill="#878f94" d="M 179.5,287.5 C 189.424,289.691 199.424,290.025 209.5,288.5C 195.233,294.599 180.233,296.932 164.5,295.5C 164.5,293.833 164.5,292.167 164.5,290.5C 168.846,290.666 173.179,290.499 177.5,290C 178.381,289.292 179.047,288.458 179.5,287.5 Z"/></g>
<g><path style="opacity:1" fill="#adb2b5" d="M 161.5,281.5 C 161.5,281.167 161.5,280.833 161.5,280.5C 162.833,280.5 164.167,280.5 165.5,280.5C 166.5,280.5 167.5,280.5 168.5,280.5C 168.5,280.833 168.5,281.167 168.5,281.5C 168.5,281.833 168.5,282.167 168.5,282.5C 167.292,281.766 165.959,281.433 164.5,281.5C 164.5,284.5 164.5,287.5 164.5,290.5C 164.5,292.167 164.5,293.833 164.5,295.5C 149.108,296.823 134.441,294.489 120.5,288.5C 134.791,290.71 148.457,288.877 161.5,283C 162.738,282.31 162.738,281.81 161.5,281.5 Z"/></g>
</svg>
