<?xml version="1.0" standalone="no"?>
<!DOCTYPE svg PUBLIC "-//W3C//DTD SVG 20010904//EN"
 "http://www.w3.org/TR/2001/REC-SVG-20010904/DTD/svg10.dtd">
<svg version="1.0" xmlns="http://www.w3.org/2000/svg"
 width="218.000000pt" height="153.000000pt" viewBox="0 0 218.000000 153.000000"
 preserveAspectRatio="xMidYMid meet">
<metadata>
Created by potrace 1.16, written by Peter Selinger 2001-2019
</metadata>
<g transform="translate(0.000000,153.000000) scale(0.100000,-0.100000)"
fill="#000000" stroke="none">
<path d="M1312 1103 c-7 -71 -21 -213 -32 -318 -26 -254 -27 -235 15 -235 l35
0 0 340 c0 187 -1 340 -3 340 -2 0 -8 -57 -15 -127z"/>
<path d="M254 1029 c-17 -19 -19 -39 -19 -235 0 -253 -2 -249 99 -249 88 0 96
9 96 106 l0 79 -35 0 -34 0 -3 -62 c-3 -57 -5 -63 -25 -66 l-23 -3 0 195 0
196 25 0 c24 0 25 -3 25 -55 l0 -55 35 0 35 0 0 69 c0 86 -15 101 -101 101
-44 0 -60 -4 -75 -21z"/>
<path d="M490 1030 c-19 -19 -20 -33 -20 -233 0 -257 -2 -252 95 -252 59 0 69
3 86 24 19 23 20 38 17 239 -3 248 -1 242 -100 242 -45 0 -63 -5 -78 -20z
m100 -236 l0 -195 -22 3 c-23 3 -23 4 -26 196 l-2 192 25 0 25 0 0 -196z"/>
<path d="M727 1032 c-13 -14 -17 -38 -17 -93 0 -81 1 -83 77 -177 39 -48 43
-58 43 -107 0 -52 -1 -55 -25 -55 -24 0 -25 2 -25 65 l0 65 -35 0 -35 0 0 -79
c0 -97 8 -106 97 -106 84 0 93 12 93 116 l0 77 -60 78 c-54 70 -60 83 -60 126
0 45 2 48 25 48 24 0 25 -3 25 -60 l0 -60 35 0 35 0 0 74 c0 66 -3 77 -22 90
-33 23 -130 21 -151 -2z"/>
<path d="M930 1013 c0 -21 9 -123 20 -228 11 -104 20 -200 20 -212 0 -20 5
-23 43 -23 l44 0 17 177 c9 97 18 178 20 180 2 2 6 -56 10 -129 4 -73 9 -154
13 -180 6 -48 6 -48 44 -48 22 0 39 4 39 8 0 4 11 115 25 246 14 131 25 240
25 242 0 2 -13 4 -29 4 -27 0 -28 -2 -34 -62 -4 -35 -9 -110 -13 -167 -9 -131
-19 -107 -28 64 -9 167 -9 165 -55 165 l-38 0 -14 -177 -14 -178 -8 125 c-4
69 -10 149 -13 178 -5 52 -6 52 -40 52 -33 0 -34 -1 -34 -37z"/>
<path d="M1397 1032 c-15 -16 -17 -48 -17 -239 0 -256 -3 -248 95 -248 87 0
95 9 95 106 l0 79 -35 0 -35 0 0 -65 c0 -63 -1 -65 -25 -65 l-25 0 0 195 0
195 25 0 c24 0 25 -3 25 -55 l0 -55 35 0 35 0 0 69 c0 61 -3 72 -22 85 -33 23
-130 21 -151 -2z"/>
<path d="M1617 1043 c-4 -3 -7 -116 -7 -250 l0 -243 40 0 39 0 3 113 3 112 24
-112 23 -113 40 0 c37 0 40 2 34 23 -3 12 -17 71 -32 130 l-27 108 28 107 c15
59 30 113 32 120 4 8 -6 12 -31 12 l-35 0 -21 -72 c-38 -130 -38 -130 -39 -25
l-1 97 -33 0 c-19 0 -37 -3 -40 -7z"/>
<path d="M1837 892 c-9 -37 -17 -74 -17 -83 0 -9 17 -82 38 -163 l39 -146
-832 2 -831 3 4 -23 c10 -54 -21 -52 869 -52 521 0 823 4 823 10 0 5 -21 89
-46 187 -46 176 -46 179 -34 251 6 41 10 75 8 77 -2 2 -12 -26 -21 -63z"/>
</g>
</svg>
