<?xml version="1.0" standalone="no"?>
<!DOCTYPE svg PUBLIC "-//W3C//DTD SVG 20010904//EN"
 "http://www.w3.org/TR/2001/REC-SVG-20010904/DTD/svg10.dtd">
<svg version="1.0" xmlns="http://www.w3.org/2000/svg"
 width="259.000000pt" height="94.000000pt" viewBox="0 0 259.000000 94.000000"
 preserveAspectRatio="xMidYMid meet">
<metadata>
Created by potrace 1.16, written by Peter Selinger 2001-2019
</metadata>
<g transform="translate(0.000000,94.000000) scale(0.100000,-0.100000)"
fill="#000000" stroke="none">
<path d="M485 868 c-51 -40 -55 -66 -55 -329 0 -270 5 -295 65 -323 41 -20
144 -21 190 -2 43 18 64 60 72 141 l6 65 -47 0 c-46 0 -46 0 -46 -34 0 -80
-41 -117 -105 -96 -40 13 -45 29 -45 138 l0 82 121 0 121 0 -4 143 c-6 206
-28 237 -171 237 -61 0 -79 -4 -102 -22z m153 -74 c20 -14 22 -23 22 -105 l0
-89 -70 0 -70 0 0 74 c0 110 12 131 75 135 11 0 31 -6 43 -15z"/>
<path d="M827 883 c-4 -3 -7 -197 -7 -430 l0 -423 50 0 50 0 0 105 0 105 37
-20 c43 -23 106 -26 143 -7 54 27 60 59 60 330 0 266 -5 298 -51 331 -32 22
-106 20 -152 -4 l-37 -20 0 20 c0 17 -7 20 -43 20 -24 0 -47 -3 -50 -7z m231
-101 c15 -20 17 -443 2 -473 -13 -24 -85 -26 -118 -3 -22 15 -22 19 -22 238 0
242 -1 239 57 256 34 10 64 3 81 -18z"/>
<path d="M1280 868 c-40 -28 -58 -75 -59 -160 l-1 -58 44 0 44 0 4 66 c5 75
20 94 74 94 53 0 65 -21 62 -108 l-3 -77 -90 -32 c-121 -43 -135 -64 -135
-202 1 -137 33 -191 113 -191 24 0 60 9 82 20 47 24 45 24 45 5 0 -11 12 -15
45 -15 l45 0 0 285 c0 304 -3 329 -50 370 -17 16 -39 21 -104 23 -72 3 -85 1
-116 -20z m170 -442 l0 -114 -30 -12 c-37 -15 -78 -16 -92 -2 -17 17 -22 111
-9 158 10 36 17 44 59 62 75 32 72 35 72 -92z"/>
<path d="M1610 550 l0 -340 50 0 50 0 0 284 0 284 28 10 c59 23 71 23 91 3 20
-20 21 -32 21 -301 l0 -280 45 0 45 0 0 284 0 284 28 10 c59 23 71 23 91 3 20
-20 21 -32 21 -306 l0 -285 45 0 45 0 0 308 c0 288 -1 309 -20 339 -11 18 -31
35 -45 39 -42 10 -115 -2 -146 -25 l-28 -21 -25 25 c-33 33 -112 35 -161 5
l-33 -20 -5 20 c-4 16 -13 20 -51 20 l-46 0 0 -340z"/>
</g>
</svg>
