<?xml version="1.0" standalone="no"?>
<!DOCTYPE svg PUBLIC "-//W3C//DTD SVG 20010904//EN"
 "http://www.w3.org/TR/2001/REC-SVG-20010904/DTD/svg10.dtd">
<svg version="1.0" xmlns="http://www.w3.org/2000/svg"
 width="236.000000pt" height="52.000000pt" viewBox="0 0 472.000000 105.000000"
 preserveAspectRatio="xMidYMid meet">
<metadata>
Created by potrace 1.16, written by Peter Selinger 2001-2019
</metadata>
<g transform="translate(0.000000,105.000000) scale(0.100000,-0.100000)"
fill="#000000" stroke="none">
<path d="M1375 779 c-11 -4 -31 -8 -45 -8 -23 -1 -25 -4 -22 -39 6 -58 -57
-471 -78 -514 l-17 -38 63 0 c61 0 64 1 52 19 -13 21 -15 4 42 380 17 112 29
205 28 206 -2 1 -12 -1 -23 -6z"/>
<path d="M117 737 c2 -17 -11 -138 -31 -267 -28 -179 -41 -242 -57 -263 l-20
-27 76 0 c72 0 75 1 63 19 -9 16 -9 42 1 123 20 166 -2 148 177 148 117 0 154
-3 154 -12 0 -53 -41 -243 -56 -259 -17 -19 -16 -19 53 -19 l70 0 -5 53 c-2
30 9 139 27 257 36 230 37 238 59 263 14 16 11 17 -57 17 -69 0 -71 -1 -61
-20 8 -15 8 -42 0 -98 -19 -137 2 -122 -170 -122 -82 0 -151 4 -154 8 -9 15
23 184 39 208 l15 24 -64 0 -65 0 6 -33z"/>
<path d="M3166 738 c3 -18 -1 -80 -10 -138 -59 -388 -54 -365 -78 -395 l-20
-25 174 2 173 3 27 50 c15 27 26 51 24 52 -1 1 -21 -7 -44 -18 -33 -17 -59
-21 -128 -20 -48 1 -89 3 -91 5 -4 4 16 148 53 376 8 52 22 105 30 118 l14 22
-64 0 -65 0 5 -32z"/>
<path d="M899 603 c-56 -9 -133 -66 -166 -122 -72 -120 -46 -243 61 -292 149
-67 337 63 338 234 1 67 -32 132 -79 159 -32 19 -108 30 -154 21z m90 -68 c60
-31 79 -135 39 -215 -58 -115 -202 -123 -238 -14 -47 142 82 290 199 229z"/>
<path d="M3592 603 c-49 -4 -51 -5 -41 -24 11 -22 9 -49 -21 -243 -12 -76 -25
-125 -36 -137 -17 -18 -15 -19 50 -19 62 0 65 1 55 18 -9 14 -6 60 15 203 15
101 29 190 31 197 2 6 3 11 2 10 -1 -1 -26 -3 -55 -5z"/>
<path d="M3840 601 c-33 -4 -50 -9 -42 -14 17 -11 15 -51 -9 -212 -14 -95 -27
-149 -40 -167 l-20 -28 66 0 c63 0 65 1 55 21 -9 15 -8 46 5 122 23 147 35
185 63 207 60 48 152 9 152 -64 0 -61 -31 -240 -46 -263 -14 -23 -14 -23 45
-23 l59 0 -5 43 c-3 23 2 86 11 139 28 169 19 203 -56 233 -55 22 -109 12
-156 -29 l-35 -31 6 38 c3 20 5 36 4 35 -1 -1 -27 -4 -57 -7z"/>
<path d="M4440 595 c-99 -32 -170 -129 -170 -233 0 -73 28 -124 87 -159 42
-24 58 -28 128 -28 90 0 118 12 148 63 l18 31 -43 -19 c-58 -26 -143 -26 -186
0 -38 23 -65 78 -60 124 l3 31 159 3 159 3 -6 52 c-4 28 -15 63 -25 77 -44 58
-132 81 -212 55z m122 -65 c14 -11 28 -31 30 -45 l5 -25 -108 0 c-60 0 -109 3
-109 6 0 17 25 47 53 64 41 26 97 26 129 0z"/>
<path d="M1551 578 c-8 -13 -20 -33 -28 -44 -14 -22 -14 -22 24 -8 40 14 99
16 145 5 26 -6 23 -10 -113 -171 -76 -91 -139 -168 -139 -172 0 -5 79 -8 175
-8 l174 0 26 37 c33 49 32 55 -10 37 -36 -15 -114 -18 -179 -6 l-38 7 136 169
c75 92 136 170 136 172 0 2 -66 4 -148 4 -142 0 -148 -1 -161 -22z"/>
</g>
</svg>
