<?xml version="1.0" standalone="no"?>
<!DOCTYPE svg PUBLIC "-//W3C//DTD SVG 20010904//EN"
 "http://www.w3.org/TR/2001/REC-SVG-20010904/DTD/svg10.dtd">
<svg version="1.0" xmlns="http://www.w3.org/2000/svg"
 width="136.000000pt" height="191.000000pt" viewBox="0 0 136.000000 191.000000"
 preserveAspectRatio="xMidYMid meet">
<metadata>
Created by potrace 1.16, written by Peter Selinger 2001-2019
</metadata>
<g transform="translate(0.000000,191.000000) scale(0.100000,-0.100000)"
fill="#000000" stroke="none">
<path d="M120 1140 c0 -516 2 -615 15 -639 23 -46 80 -63 235 -68 179 -5 211
-14 261 -72 l39 -46 36 43 c20 23 46 48 57 54 12 6 93 15 182 19 181 8 236 23
260 70 13 24 15 123 15 639 l0 610 -550 0 -550 0 0 -610z m560 459 c0 -11 4
-19 10 -19 5 0 7 7 4 15 -6 14 7 20 31 15 6 -1 24 -3 41 -5 17 -1 40 -8 51
-14 11 -5 24 -7 27 -3 4 4 4 -7 0 -23 -7 -29 -7 -30 13 -12 27 23 33 22 33
-10 l1 -28 15 27 c10 19 19 25 31 21 15 -6 14 -7 -3 -14 -17 -6 -16 -7 6 -10
14 -3 24 -10 23 -16 -2 -7 4 -10 12 -7 17 7 20 -6 5 -24 -7 -9 -7 -9 2 -2 13
11 35 14 25 3 -11 -11 13 -32 30 -26 13 5 13 2 -2 -21 -15 -22 -20 -24 -34
-14 -34 26 -47 44 -43 58 5 13 3 13 -11 1 -15 -11 -17 -11 -17 1 0 8 6 20 13
28 7 9 2 7 -15 -3 -26 -16 -58 -14 -58 3 0 5 -20 12 -45 16 -47 7 -53 12 -33
32 20 20 3 23 -18 4 -19 -18 -54 -26 -54 -12 0 7 -74 -4 -114 -16 -16 -5 -17
-2 -11 28 9 39 13 43 54 44 24 1 31 -3 31 -17z m-75 -118 c3 -5 1 -12 -4 -15
-5 -4 -11 -2 -13 4 -2 6 -8 6 -18 0 -13 -8 -12 -10 4 -10 19 0 19 0 0 -22 -10
-12 2 -5 27 15 25 20 56 37 68 37 23 0 111 -65 111 -81 0 -5 -34 -9 -77 -9
-42 0 -73 -3 -69 -7 3 -4 41 -6 84 -4 l78 2 22 -38 c12 -21 22 -33 22 -27 0 5
-7 19 -15 30 -21 28 -18 34 17 34 22 0 42 -10 65 -32 18 -18 33 -27 33 -21 0
6 -7 16 -15 23 -8 7 -15 16 -15 21 0 17 47 9 65 -11 24 -26 28 -25 68 10 19
17 39 30 44 30 5 0 19 -13 31 -30 21 -28 22 -39 22 -228 l0 -198 -32 -32 c-48
-45 -96 -61 -211 -71 -73 -5 -114 -14 -144 -30 -36 -18 -46 -19 -63 -9 -16 10
-24 10 -40 0 -17 -10 -27 -9 -63 10 -30 15 -70 23 -143 29 -112 8 -164 25
-212 71 l-32 32 0 200 1 201 27 33 28 33 38 -35 c20 -20 40 -36 44 -36 4 0 29
20 55 44 66 60 195 113 212 87z m-359 -658 c-3 -8 -2 -12 3 -9 11 7 23 -22 15
-36 -4 -6 -1 -9 5 -7 14 5 116 -91 113 -104 -1 -5 2 -6 7 -3 13 9 73 -24 98
-53 12 -14 22 -20 23 -13 0 14 40 17 40 3 0 -5 9 -7 21 -4 12 4 25 0 30 -8 6
-10 9 -10 9 -2 0 14 30 6 43 -11 6 -8 10 -7 14 2 9 22 23 12 23 -17 0 -27 -2
-28 -41 -26 -23 1 -45 9 -50 16 -6 9 -9 10 -9 2 0 -6 -9 -11 -20 -10 -11 1
-20 5 -20 10 0 5 -7 15 -15 23 -13 14 -15 14 -15 -1 0 -12 -5 -15 -16 -11 -9
3 -24 6 -35 6 -16 0 -18 5 -14 28 6 25 5 25 -8 10 -20 -25 -28 -22 -21 6 4 16
1 25 -12 30 -9 4 -20 3 -23 0 -3 -4 0 -9 7 -11 17 -6 15 -23 -3 -23 -7 0 -19
8 -24 18 -6 9 -11 13 -11 9 0 -5 -5 -5 -10 -2 -8 5 -7 12 2 23 12 15 11 16 -5
3 -16 -13 -21 -12 -39 6 -16 17 -18 24 -9 41 13 25 -2 38 -19 17 -17 -20 -43
0 -35 26 5 15 3 17 -12 12 -16 -6 -16 -5 -4 10 12 16 12 17 -5 10 -16 -6 -17
-5 -6 9 11 14 10 16 -9 11 -15 -4 -20 -3 -15 5 4 7 2 12 -3 12 -19 0 -12 15
12 26 26 12 51 -2 43 -23z m885 6 c23 -23 18 -39 -6 -19 -9 7 -19 10 -22 6 -4
-4 -1 -11 6 -15 15 -10 11 -43 -6 -49 -7 -2 -13 4 -13 14 0 14 -3 15 -12 6 -9
-9 -9 -15 0 -24 19 -19 14 -30 -9 -18 -25 14 -35 8 -15 -9 13 -11 13 -15 -2
-32 -9 -10 -27 -19 -39 -19 -17 0 -23 -6 -23 -21 0 -15 -4 -19 -19 -14 -11 3
-22 1 -26 -4 -4 -7 1 -8 12 -4 17 6 17 5 1 -13 -17 -18 -18 -18 -32 1 -15 19
-15 19 -9 -2 4 -18 -1 -25 -23 -33 -21 -8 -29 -8 -36 2 -5 9 -8 7 -9 -7 0 -11
-3 -14 -6 -7 -2 6 -9 12 -14 12 -4 0 -6 -7 -3 -15 4 -8 1 -15 -5 -15 -6 0 -11
8 -11 18 0 14 -3 13 -18 -6 l-17 -22 -12 31 c-10 26 -10 30 3 25 7 -3 14 0 14
5 0 7 11 9 25 7 14 -3 25 -1 25 5 0 6 3 8 6 4 4 -3 13 0 21 8 8 8 23 15 34 15
10 0 19 3 19 8 0 4 17 16 38 27 20 11 41 25 45 32 4 7 15 13 23 13 8 0 13 4
10 8 -2 4 11 25 30 47 19 22 37 48 40 58 7 22 10 21 35 -4z m-656 -89 c3 -5
16 -15 28 -21 19 -9 19 -8 -3 10 l-25 20 153 0 c87 1 152 -3 152 -8 0 -5 -15
-22 -32 -37 -18 -15 -25 -25 -15 -21 9 3 17 2 17 -3 0 -13 48 9 91 42 24 18
49 28 70 28 l34 0 -25 -20 c-14 -11 -38 -24 -55 -31 -16 -6 -45 -18 -64 -26
-19 -9 -46 -13 -62 -9 -16 3 -40 1 -54 -4 -21 -8 -32 -3 -77 32 -29 23 -44 32
-34 20 19 -22 19 -22 0 -22 -18 -1 -18 -1 -1 -11 9 -5 22 -7 27 -4 6 3 10 1
10 -4 0 -15 -36 -14 -73 3 -18 7 -45 19 -62 25 -16 7 -41 20 -55 31 l-25 20
37 0 c20 0 40 -4 43 -10z"/>
</g>
</svg>
