<?xml version="1.0" standalone="no"?>
<!DOCTYPE svg PUBLIC "-//W3C//DTD SVG 20010904//EN"
 "http://www.w3.org/TR/2001/REC-SVG-20010904/DTD/svg10.dtd">
<svg version="1.0" xmlns="http://www.w3.org/2000/svg"
 width="419.000000pt" height="171.000000pt" viewBox="0 0 419.000000 171.000000"
 preserveAspectRatio="xMidYMid meet">
<metadata>
Created by potrace 1.16, written by Peter Selinger 2001-2019
</metadata>
<g transform="translate(0.000000,171.000000) scale(0.100000,-0.100000)"
fill="#000000" stroke="none">
<path d="M3213 1635 c-18 -8 -56 -36 -84 -62 -91 -85 -160 -204 -239 -411
l-43 -113 -97 -92 c-94 -90 -144 -127 -156 -114 -4 3 3 49 16 102 12 53 19
103 16 111 -17 45 -144 -16 -315 -153 -29 -24 -56 -41 -59 -38 -3 2 16 39 41
81 53 86 60 119 25 108 -44 -13 -83 -37 -131 -80 -79 -71 -196 -113 -232 -84
-13 11 -11 17 16 47 45 52 36 68 -36 66 -214 -8 -426 -281 -335 -431 39 -63
136 -79 225 -36 84 40 175 164 175 240 0 28 4 32 43 41 23 6 52 15 65 19 l23
7 -17 -39 c-21 -49 -45 -145 -38 -156 3 -4 16 -8 29 -8 17 0 54 30 127 103 95
94 252 216 264 204 3 -3 0 -32 -7 -66 -14 -74 -2 -113 41 -131 25 -10 36 -9
83 13 30 14 88 54 130 90 l75 66 7 -37 c14 -77 50 -112 116 -112 65 0 145 72
176 160 14 40 22 50 38 48 16 -2 21 -13 25 -57 5 -43 11 -58 35 -78 40 -35 95
-27 207 30 79 40 88 43 88 25 0 -35 33 -77 68 -89 77 -25 184 17 361 143 52
38 101 68 108 68 7 0 13 9 13 20 0 11 -5 20 -10 20 -17 0 -91 -39 -155 -83
-67 -46 -199 -107 -230 -107 -12 0 -26 5 -33 12 -15 15 -16 69 -1 100 6 13 96
88 201 168 104 80 212 169 239 198 44 46 50 56 47 90 -3 34 -6 37 -36 40 -82
8 -212 -69 -343 -205 -82 -85 -157 -179 -183 -230 -28 -56 -192 -134 -251
-119 -21 5 -26 12 -23 33 3 22 12 28 65 44 102 32 193 116 193 179 0 92 -151
60 -258 -54 -26 -28 -54 -62 -62 -74 -13 -21 -19 -23 -50 -15 -25 7 -36 16
-41 37 -16 59 -69 85 -103 50 -23 -22 -20 -46 10 -90 24 -35 25 -41 14 -78
-13 -43 -59 -96 -84 -96 -27 0 -39 39 -34 116 l5 73 95 103 c244 265 345 430
293 481 -20 20 -68 21 -112 2z m21 -127 c-35 -70 -222 -298 -224 -273 0 18
120 228 157 273 60 73 104 73 67 0z m806 -100 c0 -6 -24 -35 -53 -64 -67 -64
-254 -214 -268 -214 -18 0 47 74 146 168 105 100 175 143 175 110z m-2173
-516 c-10 -10 -17 -25 -17 -34 0 -19 29 -45 55 -50 39 -7 27 -91 -23 -150 -74
-87 -212 -72 -212 24 0 64 75 168 150 208 47 26 69 26 47 2z"/>
<path d="M1681 1610 c-97 -35 -289 -164 -355 -238 -24 -27 -36 -28 -36 -2 0
40 -28 89 -61 105 -70 37 -210 -7 -355 -111 -39 -28 -76 -54 -82 -58 -6 -4
-18 11 -30 37 -32 72 -103 117 -187 117 -47 0 -143 -28 -199 -58 -72 -38 -184
-154 -238 -244 -42 -71 -47 -88 -27 -88 4 0 27 31 52 68 90 137 270 262 378
262 26 0 60 -5 74 -12 34 -15 64 -65 71 -122 l7 -46 -109 -112 c-194 -201
-352 -433 -370 -546 -12 -78 36 -113 106 -77 112 58 308 295 399 484 35 72 47
112 67 217 2 11 38 46 81 79 185 138 313 154 313 38 0 -58 -31 -110 -165 -278
-133 -166 -290 -386 -324 -453 -30 -59 -25 -96 13 -100 55 -7 121 77 326 412
123 201 185 280 313 403 155 147 290 232 373 233 96 1 69 -92 -86 -296 -172
-225 -292 -479 -315 -667 -9 -74 14 -154 59 -201 40 -43 59 -44 108 -11 58 40
64 58 28 95 -50 52 -65 88 -64 165 1 152 74 313 275 600 138 197 181 295 159
361 -21 64 -97 80 -199 44z m-1021 -575 c-57 -166 -237 -405 -305 -405 -14 0
-25 2 -25 5 0 19 78 154 122 213 60 79 218 255 224 249 2 -2 -5 -30 -16 -62z"/>
<path d="M2840 316 l0 -163 79 -1 c72 -1 81 1 104 24 50 49 44 176 -9 210 -28
19 -67 23 -101 11 -22 -8 -23 -6 -23 37 0 42 -2 46 -25 46 l-25 0 0 -164z
m140 34 c44 -44 36 -133 -13 -160 -27 -14 -29 -14 -53 13 -34 39 -34 108 1
142 29 30 39 31 65 5z"/>
<path d="M3380 315 l0 -165 25 0 25 0 0 165 0 165 -25 0 -25 0 0 -165z"/>
<path d="M3640 316 l0 -163 78 -1 c65 -1 82 2 99 18 45 42 54 139 17 195 -21
32 -73 49 -108 35 -15 -5 -29 -10 -32 -10 -2 0 -4 20 -4 45 0 41 -2 45 -25 45
l-25 0 0 -164z m155 13 c19 -35 19 -60 1 -103 -32 -77 -106 -41 -106 50 0 84
71 119 105 53z"/>
<path d="M2017 404 c-3 -4 -28 -7 -54 -8 l-48 -1 -3 -123 -3 -122 26 0 c25 0
25 1 25 88 0 93 3 103 37 120 40 22 53 -6 53 -114 0 -94 0 -94 25 -94 25 0 25
1 25 85 0 78 2 88 25 111 20 20 28 23 45 14 18 -10 20 -21 20 -110 0 -100 0
-100 25 -100 l25 0 0 104 c0 87 -3 108 -19 127 -22 27 -82 30 -110 5 -14 -13
-19 -14 -32 -2 -17 17 -53 28 -62 20z"/>
<path d="M2385 403 c-65 -14 -95 -54 -95 -128 0 -52 21 -99 49 -115 25 -13
107 -13 132 0 45 25 63 117 35 184 -8 20 -27 39 -49 49 -36 17 -38 18 -72 10z
m70 -66 c24 -35 19 -104 -10 -132 -13 -14 -31 -25 -40 -25 -31 0 -65 46 -64
87 1 51 10 73 39 88 29 15 56 9 75 -18z"/>
<path d="M2665 403 c-11 -3 -24 -9 -29 -14 -6 -5 -15 -4 -23 2 -7 6 -20 9 -28
5 -12 -4 -15 -28 -15 -126 0 -120 0 -120 24 -120 23 0 24 3 28 91 4 81 7 94
27 110 28 23 32 23 56 5 16 -11 20 -30 23 -110 4 -94 5 -96 29 -96 l25 0 -4
105 c-2 89 -6 107 -23 124 -22 21 -59 31 -90 24z"/>
<path d="M3175 401 c-78 -34 -101 -166 -40 -227 20 -20 34 -24 83 -24 48 0 62
4 80 23 27 29 28 44 2 52 -15 5 -26 0 -41 -19 -26 -33 -53 -33 -84 -1 -46 46
-35 55 65 55 84 0 90 1 90 20 0 30 -24 82 -47 103 -24 21 -80 30 -108 18z"/>
<path d="M3890 396 c0 -2 21 -61 46 -130 43 -121 45 -128 30 -152 -9 -13 -25
-24 -36 -24 -13 0 -20 -7 -20 -20 0 -16 7 -20 35 -20 45 0 56 17 117 186 55
155 57 167 26 162 -19 -2 -28 -18 -52 -85 -15 -46 -31 -83 -35 -83 -4 0 -17
33 -30 73 -13 39 -28 78 -33 85 -9 11 -48 18 -48 8z"/>
</g>
</svg>
