<svg width="130.000000pt" height="69.000000pt" viewBox="0 0 260.000000 138.000000" xmlns="http://www.w3.org/2000/svg">
  <g transform="translate(0.000000,138.000000) scale(0.100000,-0.100000)" fill="#fefefe" stroke="none">
    <path d="M0 690 l0 -690 1300 0 1300 0 0 690 0 690 -1300 0 -1300 0 0 -690z
m1338 483 c15 -10 59 -51 99 -90 40 -40 79 -73 87 -73 9 0 16 -5 16 -11 0 -6
10 -25 22 -42 l22 -31 -12 -4 c-7 -2 -12 -8 -12 -13 0 -13 -55 -69 -68 -69 -6
0 -13 -8 -17 -17 -3 -10 -19 -29 -36 -43 -17 -14 -50 -44 -73 -67 -24 -24 -48
-43 -55 -43 -7 0 -53 40 -102 90 -49 50 -93 90 -98 90 -5 0 -13 9 -16 20 -3
11 -12 20 -20 20 -7 0 -16 7 -19 16 -12 31 -6 54 21 77 14 12 43 39 64 60 20
20 42 37 48 37 6 0 11 4 11 9 0 8 13 22 84 89 15 15 23 14 54 -5z m168 1 c13
-9 62 -53 108 -98 46 -44 93 -89 105 -98 l21 -18 0 -24 0 -24 -29 -31 c-16
-17 -34 -31 -40 -31 -6 0 -11 -7 -11 -15 0 -8 -4 -15 -10 -15 -13 0 -60 -41
-60 -53 0 -10 -25 -37 -35 -37 -3 0 -19 -14 -35 -30 -16 -16 -33 -30 -37 -30
-4 0 -16 7 -26 14 l-17 13 6 17 c3 9 10 16 15 16 5 0 49 41 99 91 l90 92 0 19
c0 19 -73 98 -90 98 -6 0 -10 9 -10 20 0 11 -5 20 -11 20 -7 0 -26 16 -45 35
-18 19 -37 35 -43 35 -17 0 -13 21 7 36 9 7 18 14 20 14 1 0 14 -7 28 -16z
m-1010 -647 l24 -28 0 -170 0 -169 -32 -20 -33 -20 -83 0 -84 0 -28 17 -28 16
-6 30 c-10 49 -7 294 4 322 l10 26 32 15 33 14 83 -2 84 -3 24 -28z m164 -182
l0 -215 -40 0 -40 0 0 215 0 215 40 0 40 0 0 -215z m308 207 l12 -8 -2 -205
-3 -204 -55 0 c-30 0 -76 -4 -102 -9 l-47 -8 -25 18 -25 19 -1 121 0 121 19
17 c22 20 44 22 114 11 l47 -8 0 72 0 71 28 0 c15 0 33 -4 40 -8z m206 -114
l19 -118 19 0 18 0 0 28 c0 26 43 182 55 202 3 6 19 10 34 10 l28 0 13 -42 c7
-24 17 -59 23 -78 5 -19 13 -45 18 -58 5 -13 9 -32 9 -42 l0 -20 14 0 c8 0 16
6 19 13 2 7 10 55 17 107 7 52 17 101 23 108 5 6 23 12 39 12 l30 0 -7 -52
c-6 -52 -17 -110 -36 -196 -5 -23 -9 -56 -9 -73 0 -18 -5 -49 -12 -70 l-11
-39 -38 0 -38 0 -10 38 c-21 76 -43 168 -50 202 l-6 35 -18 3 -17 3 0 -30 c0
-16 -4 -32 -9 -35 -5 -3 -11 -20 -14 -38 -16 -91 -19 -104 -27 -123 -4 -11
-11 -28 -14 -38 l-5 -17 -40 0 -40 0 -6 48 c-7 53 -22 137 -36 199 -5 23 -9
58 -9 78 0 19 -5 44 -12 54 -6 10 -8 26 -5 35 l7 17 32 -3 33 -3 19 -117z
m1286 -94 l0 -217 -47 6 c-26 3 -71 0 -100 -6 l-52 -11 -26 24 -25 23 0 118 0
118 31 21 30 22 44 -11 c24 -6 51 -11 59 -11 l16 0 0 63 c0 35 3 67 7 70 3 4
19 7 35 7 l28 0 0 -216z m-645 61 l25 -24 0 -103 c0 -57 -4 -108 -8 -114 -4
-6 -17 -16 -29 -23 l-22 -11 -85 0 -85 0 -21 27 -22 28 4 103 3 103 25 19 25
20 83 0 83 0 24 -25z m320 0 l25 -24 0 -101 0 -101 -25 -24 -24 -25 -89 0 -88
0 -22 20 -22 21 0 109 0 109 26 20 27 21 84 0 84 0 24 -25z" />
    <path d="M300 340 l0 -150 70 0 70 0 0 150 0 150 -70 0 -70 0 0 -150z" />
    <path d="M797 373 c-4 -3 -7 -46 -7 -95 l0 -88 35 0 c19 0 35 4 35 9 0 5 9 11
20 14 l20 5 0 61 0 61 -40 20 c-42 21 -53 24 -63 13z" />
    <path d="M2280 281 l0 -91 35 0 c19 0 35 4 35 9 0 5 9 11 20 14 l20 5 0 60 0
60 -15 12 c-8 6 -32 14 -55 17 l-40 6 0 -92z" />
    <path d="M1657 363 c-4 -3 -7 -44 -7 -90 l0 -83 55 0 55 0 0 90 0 90 -48 0
c-27 0 -52 -3 -55 -7z" />
    <path d="M1968 293 c-3 -43 -3 -84 0 -90 l4 -13 54 0 55 0 -3 88 -3 87 -51 3
-52 3 -4 -78z" />
  </g>
  <g transform="translate(0.000000,138.000000) scale(0.100000,-0.100000)" fill="#050709" stroke="none">
    <path d="M1271 533 c-6 -21 -19 -69 -30 -108 -11 -38 -22 -85 -26 -103 -4 -18
-9 -32 -11 -29 -4 4 -19 102 -33 212 l-6 50 -44 3 -43 3 7 -58 c3 -32 10 -76
15 -98 11 -51 26 -132 42 -217 l12 -68 42 0 43 0 4 18 c3 9 20 78 38 152 l32
134 7 -19 c15 -42 30 -94 52 -187 l23 -98 45 0 46 0 13 87 c7 49 24 144 37
213 13 68 24 128 24 132 0 4 -17 8 -38 8 l-37 0 -12 -37 c-6 -21 -17 -75 -23
-121 -7 -45 -16 -84 -20 -87 -4 -2 -14 24 -23 58 -14 54 -49 180 -51 183 -1 1
-18 4 -38 8 l-37 7 -10 -38z" />
    <path d="M260 553 c-8 -4 -20 -13 -27 -22 l-12 -16 -1 -186 0 -186 25 -11 26
-12 102 0 103 0 22 16 22 15 0 182 c0 100 -4 187 -8 193 -4 6 -17 16 -29 23
l-22 11 -93 -1 c-51 0 -100 -3 -108 -6z m174 -89 c3 -9 6 -69 6 -134 l0 -118
-14 -11 -14 -12 -54 3 -53 3 -3 129 c-1 72 0 136 2 143 l5 13 60 0 59 0 6 -16z" />
    <path d="M580 340 l0 -220 40 0 40 0 0 220 0 220 -40 0 -40 0 0 -220z" />
    <path d="M900 489 l0 -71 -22 7 c-13 4 -46 9 -74 12 l-52 5 -21 -21 -21 -21 0
-119 0 -119 18 -22 18 -23 30 1 c16 1 69 2 118 2 l88 1 -6 22 c-3 12 -6 111
-6 220 l0 197 -35 0 -35 0 0 -71z m-22 -145 l22 -14 0 -38 c0 -20 -3 -47 -6
-59 l-6 -23 -37 -10 c-20 -5 -39 -10 -43 -10 -5 0 -8 41 -8 91 l0 91 28 -7
c15 -3 37 -13 50 -21z" />
    <path d="M2390 489 l0 -71 -22 7 c-13 4 -46 9 -73 12 l-50 5 -17 -18 -17 -19
-2 -128 -3 -127 16 -16 15 -15 34 0 c19 0 71 1 117 1 l82 1 0 219 0 220 -40 0
-40 0 0 -71z m-32 -139 l32 -20 0 -46 0 -45 -13 -13 c-18 -18 -53 -36 -71 -36
l-16 0 0 83 c0 46 3 87 7 90 11 11 26 8 61 -13z" />
    <path d="M1587 412 l-17 -19 0 -116 0 -117 20 -20 20 -20 93 0 93 0 22 16 22
15 0 129 0 129 -19 11 c-11 5 -64 10 -119 10 l-99 0 -16 -18z m161 -54 l12
-12 0 -66 0 -66 -12 -12 c-16 -16 -70 -16 -86 0 l-12 12 0 59 c0 32 5 67 10
78 l11 19 32 0 c18 0 38 -5 45 -12z" />
    <path d="M1906 414 l-16 -15 0 -124 0 -124 22 -15 22 -16 84 0 83 0 22 11 c12
7 25 17 29 23 4 6 8 63 8 127 l0 116 -18 16 -19 17 -101 0 -101 0 -15 -16z
m162 -56 l12 -12 0 -67 0 -67 -14 -11 -15 -12 -38 3 -38 3 -3 82 -3 82 28 4
c52 8 59 7 71 -5z" />
  </g>
  <g transform="translate(0.000000,138.000000) scale(0.100000,-0.100000)" fill="#abc922" stroke="none">
    <path d="M1290 1170 c0 -5 -6 -10 -14 -10 -8 0 -18 -9 -21 -20 -3 -11 -12 -20
-20 -20 -7 0 -15 -7 -19 -15 -3 -8 -12 -15 -21 -15 l-15 0 -7 -31 -6 -30 -28
-6 -28 -5 -6 -19 c-4 -11 -12 -19 -20 -19 -18 0 -26 -25 -18 -60 l6 -30 13 0
c8 0 14 -4 14 -8 0 -13 36 -52 48 -52 16 0 72 -57 72 -74 0 -9 7 -16 15 -16 8
0 25 -11 39 -25 25 -25 66 -34 66 -15 0 6 6 10 14 10 14 0 76 67 76 82 0 4 9
8 20 8 l20 0 0 15 c0 8 7 15 15 15 8 0 15 5 15 10 0 6 7 10 15 10 8 0 15 7 15
16 0 18 23 44 39 44 6 0 11 7 11 15 0 8 -7 15 -16 15 l-15 0 -10 28 c-5 15
-23 36 -39 47 -17 11 -30 28 -30 38 l0 17 -15 0 c-8 0 -15 4 -15 10 0 5 -11
12 -25 16 -13 3 -27 15 -30 25 -4 10 -10 19 -15 19 -5 0 -12 9 -15 20 l-6 20
-30 0 c-16 0 -29 -4 -29 -10z m47 -76 c-3 -3 -12 -4 -19 -1 l-13 5 19 1 c11 1
17 -2 13 -5z m-47 -19 c0 -3 -2 -5 -5 -5 -3 0 -5 2 -5 5 0 3 2 5 5 5 3 0 5 -2
5 -5z m-80 -105 c0 -5 -7 -10 -15 -10 -8 0 -15 5 -15 10 0 6 7 10 15 10 8 0
15 -4 15 -10z m300 -55 c0 -3 -2 -5 -5 -5 -3 0 -5 2 -5 5 0 3 2 5 5 5 3 0 5
-2 5 -5z m-60 -35 c0 -5 -4 -10 -10 -10 -5 0 -10 5 -10 10 0 6 5 10 10 10 6 0
10 -4 10 -10z m-213 -27 c-4 -3 -7 0 -7 7 0 7 3 10 7 7 3 -4 3 -10 0 -14z
m183 7 c0 -5 -4 -10 -10 -10 -5 0 -10 5 -10 10 0 6 5 10 10 10 6 0 10 -4 10
-10z" />
    <path d="M1450 1165 c0 -15 43 -65 55 -65 4 0 31 -24 60 -52 29 -29 63 -61 74
-70 l21 -18 0 -25 0 -25 -15 0 -15 0 0 -20 0 -20 -20 0 -20 0 0 -15 c0 -8 -6
-15 -14 -15 -8 0 -18 -9 -21 -20 -3 -11 -12 -20 -19 -20 -7 0 -19 -11 -26 -25
-7 -14 -17 -25 -22 -25 -15 0 -38 -27 -38 -44 l0 -16 28 0 27 0 19 25 c10 14
23 25 29 25 13 0 67 57 67 70 0 5 7 10 15 10 8 0 15 6 15 14 0 8 7 16 15 20 8
3 15 12 15 21 l0 15 19 0 20 0 6 21 c9 28 -2 69 -19 69 -8 0 -16 7 -20 15 -3
8 -11 15 -18 15 -7 0 -24 18 -38 40 -14 22 -30 40 -37 40 -7 0 -13 7 -13 15
l0 15 -20 0 c-11 0 -20 4 -20 8 0 5 -8 19 -19 30 l-18 22 -27 0 -26 0 0 -15z" />
  </g>
  <g transform="translate(0.000000,138.000000) scale(0.100000,-0.100000)" fill="#f3f2eb" stroke="none">
    <path d="M1220 1190 c0 -5 7 -10 15 -10 8 0 15 5 15 10 0 6 -7 10 -15 10 -8 0
-15 -4 -15 -10z" />
    <path d="M1275 1190 c3 -5 2 -10 -3 -10 -13 0 -82 -69 -82 -81 0 -5 -5 -9 -11
-9 -6 0 -28 -17 -48 -37 -21 -21 -50 -48 -64 -60 -15 -13 -27 -30 -27 -38 0
-21 17 -19 24 3 3 10 19 26 36 35 16 10 30 25 30 33 0 8 4 14 8 14 17 0 122
95 122 110 0 5 9 12 20 15 24 7 27 35 4 35 l-15 0 6 -10z" />
    <path d="M1312 1188 c3 -7 13 -15 24 -17 l18 -3 -13 16 c-16 19 -34 21 -29 4z" />
    <path d="M1380 1190 c0 -5 7 -10 15 -10 8 0 15 5 15 10 0 6 -7 10 -15 10 -8 0
-15 -4 -15 -10z" />
    <path d="M1444 1183 l-22 -14 5 -20 c7 -25 23 -25 23 0 0 11 5 21 12 23 6 2 9
9 7 15 l-4 11 -21 -15z" />
    <path d="M1480 1190 c0 -5 6 -13 14 -17 8 -4 44 -36 81 -70 36 -35 71 -63 76
-63 5 0 9 -6 9 -14 0 -7 12 -22 28 -32 15 -9 32 -25 39 -33 6 -9 14 -13 17
-10 12 11 -4 35 -35 53 l-30 18 6 21 6 22 -9 -14 -10 -13 -66 65 c-61 60 -107
97 -121 97 -3 0 -5 -4 -5 -10z" />
    <path d="M1553 1193 c4 -3 10 -3 14 0 3 4 0 7 -7 7 -7 0 -10 -3 -7 -7z" />
    <path d="M1380 1140 c0 -13 46 -60 58 -60 6 0 12 -7 16 -15 3 -8 12 -15 21
-15 l15 0 -50 50 c-28 28 -52 50 -55 50 -3 0 -5 -5 -5 -10z" />
    <path d="M1480 1102 c0 -8 37 -42 45 -42 12 0 3 24 -12 36 -20 15 -33 18 -33
6z" />
    <path d="M1460 1095 c0 -3 2 -5 5 -5 3 0 5 2 5 5 0 3 -2 5 -5 5 -3 0 -5 -2 -5
-5z" />
    <path d="M1750 1050 c0 -7 3 -10 7 -7 3 4 3 10 0 14 -4 3 -7 0 -7 -7z" />
    <path d="M1503 1043 c-21 -8 -15 -27 17 -48 16 -11 35 -32 41 -48 l12 -27 -22
-19 c-11 -10 -21 -22 -21 -26 0 -4 -8 -14 -17 -21 l-18 -12 8 -9 9 -8 13 19
c8 10 18 15 24 11 l11 -6 -6 15 -6 16 11 0 c6 0 11 7 11 15 0 8 7 15 15 15 8
0 15 3 15 8 0 4 -11 24 -25 44 -24 35 -31 58 -20 58 3 0 21 -16 39 -35 19 -19
37 -35 40 -35 15 0 3 27 -20 45 -14 11 -33 28 -42 38 -20 21 -32 22 -32 2 0
-8 -7 -15 -15 -15 l-14 0 5 15 c6 16 6 16 -13 8z" />
    <path d="M1640 931 c0 -5 -25 -34 -56 -65 l-56 -56 -11 7 -10 6 7 -11 c13 -22
35 -12 74 32 9 10 29 30 45 44 27 25 36 52 17 52 -5 0 -10 -4 -10 -9z" />
    <path d="M1740 933 c0 -10 -96 -113 -105 -113 -3 0 -37 -32 -76 -70 l-70 -70
-27 7 -27 6 13 -15 c15 -19 52 -30 52 -16 0 5 5 6 10 3 6 -3 10 -2 10 3 0 11
35 52 44 52 9 0 27 20 42 45 7 11 19 19 27 19 l15 -2 -5 15 -6 15 21 -6 20 -7
-5 21 -5 20 23 0 c12 0 20 3 16 6 -3 3 8 20 24 36 31 33 35 43 19 53 -5 3 -10
3 -10 -2z" />
    <path d="M1030 921 c0 -6 5 -13 10 -16 6 -4 8 -11 5 -16 -4 -5 3 -9 14 -9 l20
0 6 -20 c3 -11 11 -20 16 -20 5 0 49 -40 98 -90 l90 -90 24 0 c14 0 31 7 38
16 l14 17 -32 -7 -31 -7 -26 26 c-14 14 -26 30 -26 35 0 6 -5 10 -11 10 -10 0
-31 19 -154 140 -41 40 -55 48 -55 31z" />
    <path d="M1432 785 c-17 -20 -32 -38 -32 -40 0 -3 4 -5 10 -5 9 0 80 66 80 75
0 3 -6 5 -13 5 -6 0 -27 -16 -45 -35z" />
    <path d="M1030 780 c0 -7 3 -10 7 -7 3 4 3 10 0 14 -4 3 -7 0 -7 -7z" />
    <path d="M1120 780 c0 -5 5 -10 10 -10 6 0 10 5 10 10 0 6 -4 10 -10 10 -5 0
-10 -4 -10 -10z" />
    <path d="M1491 774 c-7 -8 -11 -17 -8 -20 8 -9 37 8 37 22 0 18 -11 17 -29 -2z" />
    <path d="M1371 724 c-7 -8 -10 -18 -6 -22 4 -4 10 -1 12 6 3 6 11 12 19 12 9
0 12 5 9 10 -8 14 -18 12 -34 -6z" />
    <path d="M1436 725 l-5 -15 14 0 c8 0 15 7 15 15 0 8 -4 15 -9 15 -5 0 -11 -7
-15 -15z" />
    <path d="M1380 660 c0 -5 7 -10 16 -10 l15 0 -6 10 c-3 6 -10 10 -16 10 -5 0
-9 -4 -9 -10z" />
    <path d="M1140 640 c0 -7 3 -10 7 -7 3 4 3 10 0 14 -4 3 -7 0 -7 -7z" />
    <path d="M1450 640 c0 -5 5 -10 11 -10 5 0 7 5 4 10 -3 6 -8 10 -11 10 -2 0
-4 -4 -4 -10z" />
    <path d="M286 561 l-7 -11 88 0 c48 0 98 -3 110 -6 l21 -6 7 -25 c6 -26 26
-27 33 -2 3 8 1 11 -3 7 -4 -4 -17 5 -30 20 l-23 27 -95 3 -95 4 -6 -11z" />
    <path d="M570 560 c0 -5 7 -10 15 -10 8 0 15 5 15 10 0 6 -7 10 -15 10 -8 0
-15 -4 -15 -10z" />
    <path d="M644 554 c3 -9 6 -110 6 -225 l0 -209 10 0 10 0 0 225 0 225 -16 0
-16 0 6 -16z" />
    <path d="M890 560 c0 -5 7 -10 15 -10 8 0 15 5 15 10 0 6 -7 10 -15 10 -8 0
-15 -4 -15 -10z" />
    <path d="M1130 560 c0 -5 7 -10 15 -10 8 0 15 -5 15 -12 l0 -12 12 12 13 13
-15 9 c-20 13 -40 13 -40 0z" />
    <path d="M1270 551 c-12 -24 -13 -31 -2 -31 5 0 14 11 20 25 l12 25 -10 0 c-5
0 -14 -9 -20 -19z" />
    <path d="M1340 560 c0 -5 5 -10 10 -10 6 0 10 5 10 10 0 6 -4 10 -10 10 -5 0
-10 -4 -10 -10z" />
    <path d="M1472 558 c-14 -14 -16 -48 -3 -48 5 0 11 9 14 20 l5 20 21 0 c12 0
21 5 21 10 0 14 -43 13 -58 -2z" />
    <path d="M1540 563 c0 -5 4 -14 9 -22 l9 -13 6 11 c4 6 4 16 1 21 -7 12 -25
13 -25 3z" />
    <path d="M2450 560 c0 -5 4 -10 9 -10 6 0 13 5 16 10 l6 10 -15 0 c-9 0 -16
-4 -16 -10z" />
    <path d="M970 339 l0 -220 10 6 10 6 0 215 0 214 -10 0 -10 0 0 -221z" />
    <path d="M223 532 l-12 -7 2 -189 2 -189 10 -4 10 -3 0 200 c0 110 0 200 0
200 0 0 -5 -4 -12 -8z" />
    <path d="M1070 521 c0 -11 5 -23 10 -26 l10 -6 0 25 c0 14 -4 26 -10 26 -5 0
-10 -9 -10 -19z" />
    <path d="M1360 515 c0 -16 16 -20 24 -6 3 5 -1 11 -9 15 l-15 5 0 -14z" />
    <path d="M1160 498 c0 -10 4 -18 9 -18 5 0 11 8 13 18 l5 19 -13 0 c-8 0 -14
-9 -14 -19z" />
    <path d="M1540 504 l0 -15 10 6 c6 3 10 10 10 16 0 5 -4 9 -10 9 -5 0 -10 -7
-10 -16z" />
    <path d="M1250 486 c-5 -15 -10 -33 -10 -39 0 -7 -6 -24 -14 -38 -7 -15 -12
-39 -11 -54 l3 -27 -14 6 -14 5 0 -14 c0 -8 6 -15 14 -15 l14 0 15 48 c28 89
40 143 34 149 -4 3 -11 -6 -17 -21z" />
    <path d="M750 485 c0 -3 2 -5 5 -5 3 0 5 2 5 5 0 3 -2 5 -5 5 -3 0 -5 -2 -5
-5z" />
    <path d="M887 483 c-2 -5 -2 -18 -1 -30 0 -13 -3 -23 -7 -23 -5 0 -9 -4 -9
-10 0 -5 7 -10 15 -10 l15 0 0 40 c0 38 -4 49 -13 33z" />
    <path d="M1456 481 c-4 -7 -5 -15 -2 -18 9 -9 19 4 14 18 l-4 13 -8 -13z" />
    <path d="M730 475 c0 -3 2 -5 5 -5 3 0 5 2 5 5 0 3 -2 5 -5 5 -3 0 -5 -2 -5
-5z" />
    <path d="M800 475 c0 -3 2 -5 5 -5 3 0 5 2 5 5 0 3 -2 5 -5 5 -3 0 -5 -2 -5
-5z" />
    <path d="M1374 460 c3 -14 6 -28 6 -32 0 -5 5 -8 10 -8 15 0 12 24 -6 46 l-15
19 5 -25z" />
    <path d="M1400 475 c0 -3 2 -5 5 -5 3 0 5 2 5 5 0 3 -2 5 -5 5 -3 0 -5 -2 -5
-5z" />
    <path d="M1613 473 c4 -3 10 -3 14 0 3 4 0 7 -7 7 -7 0 -10 -3 -7 -7z" />
    <path d="M2130 475 c0 -3 2 -5 5 -5 3 0 5 2 5 5 0 3 -2 5 -5 5 -3 0 -5 -2 -5
-5z" />
    <path d="M2230 475 c0 -3 2 -5 5 -5 3 0 5 2 5 5 0 3 -2 5 -5 5 -3 0 -5 -2 -5
-5z" />
    <path d="M2330 475 c0 -3 2 -5 5 -5 3 0 5 2 5 5 0 3 -2 5 -5 5 -3 0 -5 -2 -5
-5z" />
    <path d="M2380 454 l0 -26 -25 6 -25 6 0 -9 c0 -8 33 -21 58 -21 l12 0 0 35
c0 19 -4 35 -10 35 -5 0 -10 -12 -10 -26z" />
    <path d="M290 341 l0 -131 10 0 10 0 1 100 c1 55 1 112 2 127 1 15 -4 28 -11
31 l-12 4 0 -131z" />
    <path d="M1583 463 c4 -3 10 -3 14 0 3 4 0 7 -7 7 -7 0 -10 -3 -7 -7z" />
    <path d="M1820 465 c0 -3 2 -5 5 -5 3 0 5 2 5 5 0 3 -2 5 -5 5 -3 0 -5 -2 -5
-5z" />
    <path d="M1170 446 c0 -9 5 -16 10 -16 6 0 10 4 10 9 0 6 -4 13 -10 16 l-10 6
0 -15z" />
    <path d="M1610 455 c0 -3 2 -5 5 -5 3 0 5 2 5 5 0 3 -2 5 -5 5 -3 0 -5 -2 -5
-5z" />
    <path d="M1920 455 c0 -3 2 -5 5 -5 3 0 5 2 5 5 0 3 -2 5 -5 5 -3 0 -5 -2 -5
-5z" />
    <path d="M2250 445 l-12 -15 43 0 43 0 -9 9 c-6 5 -19 12 -31 15 l-21 6 -13
-15z" />
    <path d="M2320 455 c0 -3 2 -5 5 -5 3 0 5 2 5 5 0 3 -2 5 -5 5 -3 0 -5 -2 -5
-5z" />
    <path d="M1530 438 c0 -7 -3 -24 -6 -38 l-7 -25 11 10 c6 6 14 22 17 38 l7 27
-11 0 c-6 0 -11 -6 -11 -12z" />
    <path d="M2220 445 c0 -3 2 -5 5 -5 3 0 5 2 5 5 0 3 -2 5 -5 5 -3 0 -5 -2 -5
-5z" />
    <path d="M1421 424 l1 -19 5 13 c3 7 2 16 -1 19 -3 4 -6 -2 -5 -13z" />
    <path d="M1579 438 c-9 -31 -12 -61 -16 -152 l-5 -108 11 -11 11 -11 0 114 1
115 13 18 c7 9 18 17 25 17 6 0 11 5 11 10 0 6 -4 10 -9 10 -6 0 -13 -4 -16
-10 -3 -5 -11 -10 -16 -10 -6 0 -7 5 -4 10 3 6 4 10 1 10 -3 0 -6 -1 -7 -2z" />
    <path d="M1780 432 c0 -5 11 -14 25 -20 14 -6 25 -18 25 -27 0 -8 5 -15 10
-15 17 0 11 20 -15 45 -24 25 -45 32 -45 17z" />
    <path d="M1903 434 c4 -4 -2 -18 -14 -30 -12 -12 -18 -27 -14 -33 11 -18 22
-12 29 14 4 14 11 25 16 25 16 0 11 17 -7 24 -10 4 -14 4 -10 0z" />
    <path d="M2100 436 c0 -6 60 -66 66 -66 12 0 1 24 -21 45 -21 22 -45 33 -45
21z" />
    <path d="M713 408 c-2 -22 13 -24 21 -2 8 21 8 21 -7 21 -7 0 -14 -9 -14 -19z" />
    <path d="M2211 416 c-8 -9 -11 -19 -7 -23 9 -9 29 13 24 27 l-4 12 -13 -16z" />
    <path d="M1094 389 c2 -18 9 -36 15 -42 l11 -11 0 20 c0 31 -12 64 -22 64 l-9
0 5 -31z" />
    <path d="M1210 415 c0 -3 2 -5 5 -5 3 0 5 2 5 5 0 3 -2 5 -5 5 -3 0 -5 -2 -5
-5z" />
    <path d="M1300 404 c0 -10 3 -14 7 -11 3 4 13 1 21 -5 l14 -12 -3 19 c-3 11
-12 21 -22 23 l-17 3 0 -17z" />
    <path d="M1446 411 c-4 -7 -5 -15 -2 -18 9 -9 19 4 14 18 l-4 13 -8 -13z" />
    <path d="M1394 390 c3 -14 6 -28 6 -32 0 -5 5 -8 10 -8 15 0 12 24 -6 46 l-15
19 5 -25z" />
    <path d="M1180 371 c0 -12 5 -21 10 -21 6 0 10 6 10 14 0 8 -4 18 -10 21 l-10
6 0 -20z" />
    <path d="M1286 358 c-9 -35 -7 -41 7 -29 8 6 16 8 19 6 3 -3 3 6 1 20 -6 31
-19 32 -27 3z" />
    <path d="M2290 372 c0 -5 14 -12 32 -16 17 -3 40 -14 50 -23 l18 -16 0 17 0
16 -25 10 c-14 5 -37 13 -50 16 l-25 6 0 -10z" />
    <path d="M830 366 c0 -2 16 -13 35 -25 l35 -20 0 15 c0 8 -12 19 -26 24 -27
10 -44 13 -44 6z" />
    <path d="M1327 363 c-3 -5 -2 -15 3 -23 4 -7 6 -18 4 -25 l-5 -12 16 0 16 0
-6 26 c-4 14 -10 30 -15 34 l-8 9 -5 -9z" />
    <path d="M1650 357 c0 -8 6 -14 13 -14 8 0 14 6 14 14 0 7 -6 13 -14 13 -7 0
-13 -6 -13 -13z" />
    <path d="M2050 366 c0 -2 7 -9 15 -16 l15 -12 0 16 c0 9 -7 16 -15 16 -8 0
-15 -2 -15 -4z" />
    <path d="M1435 348 c-4 -10 -11 -15 -16 -12 -5 3 -9 -2 -9 -10 0 -9 7 -16 15
-16 18 0 29 23 22 42 l-5 13 -7 -17z" />
    <path d="M1960 275 l0 -85 15 0 16 0 -9 18 c-5 9 -7 25 -3 34 9 24 1 118 -10
118 l-9 0 0 -85z" />
    <path d="M1860 345 c0 -3 2 -5 5 -5 3 0 5 2 5 5 0 3 -2 5 -5 5 -3 0 -5 -2 -5
-5z" />
    <path d="M2310 345 c0 -3 2 -5 5 -5 3 0 5 2 5 5 0 3 -2 5 -5 5 -3 0 -5 -2 -5
-5z" />
    <path d="M1090 335 c0 -3 2 -5 5 -5 3 0 5 2 5 5 0 3 -2 5 -5 5 -3 0 -5 -2 -5
-5z" />
    <path d="M1510 328 c0 -7 -3 -24 -6 -38 l-7 -25 11 10 c6 6 14 22 17 38 l7 27
-11 0 c-6 0 -11 -6 -11 -12z" />
    <path d="M1115 278 c4 -18 12 -37 17 -43 l11 -10 -7 34 c-3 18 -6 37 -6 42 0
5 -5 9 -11 9 l-11 0 7 -32z" />
    <path d="M1266 278 c-3 -13 -6 -27 -6 -33 1 -15 30 27 30 42 0 22 -17 15 -24
-9z" />
    <path d="M1310 280 c0 -5 5 -10 11 -10 5 0 7 5 4 10 -3 6 -8 10 -11 10 -2 0
-4 -4 -4 -10z" />
    <path d="M1530 280 c0 -7 3 -10 7 -7 3 4 3 10 0 14 -4 3 -7 0 -7 -7z" />
    <path d="M1350 276 c0 -14 21 -58 26 -54 8 8 -7 58 -17 58 -5 0 -9 -2 -9 -4z" />
    <path d="M2340 265 c0 -3 2 -5 5 -5 3 0 5 2 5 5 0 3 -2 5 -5 5 -3 0 -5 -2 -5
-5z" />
    <path d="M2000 245 c0 -3 2 -5 5 -5 3 0 5 2 5 5 0 3 -2 5 -5 5 -3 0 -5 -2 -5
-5z" />
    <path d="M2300 245 c0 -3 2 -5 5 -5 3 0 5 2 5 5 0 3 -2 5 -5 5 -3 0 -5 -2 -5
-5z" />
    <path d="M2340 245 c0 -3 2 -5 5 -5 3 0 5 2 5 5 0 3 -2 5 -5 5 -3 0 -5 -2 -5
-5z" />
    <path d="M2380 239 l0 -10 -12 7 -11 7 7 -11 c10 -17 36 -15 36 3 0 8 -4 15
-10 15 -5 0 -10 -5 -10 -11z" />
    <path d="M810 225 c0 -3 2 -5 5 -5 3 0 5 2 5 5 0 3 -2 5 -5 5 -3 0 -5 -2 -5
-5z" />
    <path d="M1250 218 c0 -7 -3 -24 -7 -38 l-6 -25 16 14 c18 15 23 61 7 61 -5 0
-10 -6 -10 -12z" />
    <path d="M1490 213 c0 -10 -3 -36 -7 -58 l-6 -40 9 8 c8 8 9 10 20 70 l7 37
-12 0 c-6 0 -11 -8 -11 -17z" />
    <path d="M2340 214 l0 -16 -30 4 -30 5 0 -14 c0 -14 21 -16 58 -7 23 7 30 28
12 39 l-10 6 0 -17z" />
    <path d="M846 205 l-5 -15 14 0 c8 0 15 7 15 15 0 8 -4 15 -9 15 -5 0 -11 -7
-15 -15z" />
    <path d="M1369 210 c0 -3 -2 -15 -5 -28 l-4 -23 10 6 c5 3 10 -1 10 -9 0 -8 5
-18 11 -22 l11 -7 -7 34 c-6 29 -24 62 -26 49z" />
    <path d="M800 190 c0 -5 7 -10 15 -10 8 0 15 5 15 10 0 6 -7 10 -15 10 -8 0
-15 -4 -15 -10z" />
    <path d="M1880 180 c0 -10 10 -28 22 -40 24 -22 38 -26 38 -10 0 6 -7 10 -15
10 l-15 0 -6 30 c-7 33 -24 41 -24 10z" />
    <path d="M2154 185 c-9 -22 1 -29 15 -11 l12 14 -11 7 c-5 3 -13 -1 -16 -10z" />
    <path d="M508 165 c-10 -13 -18 -26 -18 -29 0 -3 9 -4 20 -3 10 1 17 3 15 5
-2 3 0 13 5 23 15 27 -3 30 -22 4z" />
    <path d="M565 181 c-3 -5 -1 -12 5 -16 l10 -6 0 15 c0 18 -6 21 -15 7z" />
    <path d="M1130 176 c0 -8 5 -18 10 -21 l10 -6 0 20 c0 12 -4 21 -10 21 -5 0
-10 -6 -10 -14z" />
    <path d="M1826 164 c-9 -22 3 -32 14 -14 12 19 12 30 1 30 -5 0 -12 -7 -15
-16z" />
    <path d="M2460 149 c0 -18 3 -29 7 -25 11 11 13 45 3 51 l-10 6 0 -32z" />
    <path d="M706 162 l-7 -12 15 -6 c9 -3 13 -11 9 -17 l-6 -10 11 7 c6 3 13 2
17 -4 8 -13 25 -13 25 0 0 6 -6 10 -14 10 -7 0 -20 10 -28 22 l-15 22 -7 -12z" />
    <path d="M1510 165 c0 -3 2 -5 5 -5 3 0 5 2 5 5 0 3 -2 5 -5 5 -3 0 -5 -2 -5
-5z" />
    <path d="M2194 148 l-7 -11 11 7 c12 7 16 16 8 16 -3 0 -8 -5 -12 -12z" />
    <path d="M1574 139 c-3 -5 -4 -9 -2 -10 30 -7 48 -7 48 0 0 12 -39 21 -46 10z
m16 -4 c0 -3 -2 -5 -5 -5 -3 0 -5 2 -5 5 0 3 2 5 5 5 3 0 5 -2 5 -5z" />
    <path d="M2490 145 c0 -3 2 -5 5 -5 3 0 5 2 5 5 0 3 -2 5 -5 5 -3 0 -5 -2 -5
-5z" />
    <path d="M570 130 c0 -5 5 -10 10 -10 6 0 10 5 10 10 0 6 -4 10 -10 10 -5 0
-10 -4 -10 -10z" />
    <path d="M850 130 c0 -5 4 -10 9 -10 6 0 13 5 16 10 l6 10 -15 0 c-9 0 -16 -4
-16 -10z" />
    <path d="M1140 130 c0 -5 5 -10 10 -10 6 0 10 5 10 10 0 6 -4 10 -10 10 -5 0
-10 -4 -10 -10z" />
    <path d="M2340 132 c0 -5 14 -9 30 -9 17 0 30 4 30 9 0 4 -13 8 -30 8 -16 0
-30 -4 -30 -8z" />
    <path d="M1830 125 c0 -3 2 -5 5 -5 3 0 5 2 5 5 0 3 -2 5 -5 5 -3 0 -5 -2 -5
-5z" />
    <path d="M2200 125 c0 -3 2 -5 5 -5 3 0 5 2 5 5 0 3 -2 5 -5 5 -3 0 -5 -2 -5
-5z" />
    <path d="M2233 116 l0 -14 14 5 c7 3 13 9 13 14 0 5 -6 9 -13 9 -8 0 -14 -6
-14 -14z" />
    <path d="M275 110 c4 -6 11 -8 16 -5 14 9 11 15 -7 15 l-15 0 6 -10z" />
    <path d="M804 105 c1 -8 4 -16 7 -17 2 -2 3 -1 2 1 -2 2 2 10 8 18 l11 13 -15
0 -15 0 2 -15z" />
    <path d="M760 95 c0 -3 2 -5 5 -5 3 0 5 2 5 5 0 3 -2 5 -5 5 -3 0 -5 -2 -5 -5z" />
    <path d="M430 85 c0 -3 2 -5 5 -5 3 0 5 2 5 5 0 3 -2 5 -5 5 -3 0 -5 -2 -5 -5z" />
    <path d="M450 65 c0 -3 2 -5 5 -5 3 0 5 2 5 5 0 3 -2 5 -5 5 -3 0 -5 -2 -5 -5z" />
    <path d="M2268 63 c6 -2 18 -2 25 0 6 3 1 5 -13 5 -14 0 -19 -2 -12 -5z" />
  </g>
  <g transform="translate(0.000000,138.000000) scale(0.100000,-0.100000)" fill="#abc839" stroke="none">
    <path d="M1453 1184 c-7 -3 -13 -14 -13 -24 l0 -17 42 -34 c23 -19 51 -45 62
-58 12 -13 40 -42 63 -64 l42 -39 -2 -28 c-1 -16 -4 -27 -6 -24 -6 6 -41 -16
-41 -26 0 -6 9 -10 20 -10 l21 0 17 30 c9 16 24 31 32 34 l15 4 -17 1 -18 1 0
20 c0 11 -9 28 -21 38 -11 9 -45 41 -74 70 -29 28 -56 52 -60 52 -7 0 -55 47
-55 55 0 3 7 5 16 5 17 0 54 -36 54 -52 0 -4 9 -8 20 -8 11 0 20 3 20 8 0 4
-13 19 -28 34 -28 27 -67 41 -89 32z" />
    <path d="M1240 1140 c-19 -21 -36 -43 -38 -49 -6 -17 18 -13 24 4 4 8 12 15
19 15 8 0 17 9 20 20 3 11 12 20 20 20 7 0 15 7 19 15 l5 15 -17 -1 c-9 0 -33
-18 -52 -39z" />
    <path d="M1340 1161 c13 -26 3 -51 -21 -51 -10 0 -19 -4 -19 -10 0 -5 -7 -10
-15 -10 -8 0 -15 -7 -15 -15 0 -8 7 -15 15 -15 8 0 15 5 15 10 0 6 11 10 25
10 l25 0 0 25 c0 32 14 32 28 -1 7 -14 16 -23 21 -19 5 3 16 -2 24 -10 20 -19
27 -19 27 0 0 8 -5 15 -10 15 -12 0 -80 70 -80 82 0 4 -7 8 -15 8 l-16 0 11
-19z" />
    <path d="M1570 1090 c0 -5 7 -10 15 -10 8 0 15 5 15 10 0 6 -7 10 -15 10 -8 0
-15 -4 -15 -10z" />
    <path d="M1131 1030 c-28 -28 -56 -50 -61 -50 -6 0 -10 -18 -10 -40 l0 -40 11
0 c6 0 10 10 9 23 -3 38 -1 47 14 47 8 0 17 8 21 19 l6 19 29 6 30 6 0 19 c0
11 5 21 12 23 l12 4 -11 7 -11 7 -51 -50z" />
    <path d="M1360 1070 c0 -5 9 -10 21 -10 l20 0 -6 10 c-3 6 -13 10 -21 10 -8 0
-14 -4 -14 -10z" />
    <path d="M1595 1070 c-3 -5 -2 -10 4 -10 5 0 18 -13 28 -30 9 -16 23 -30 30
-30 8 0 16 -7 19 -15 4 -8 12 -15 19 -15 17 0 28 -31 19 -54 -3 -9 -15 -16
-25 -16 l-19 0 0 -15 c0 -9 -7 -18 -15 -21 -8 -4 -15 -12 -15 -20 0 -17 -22
-18 -38 -2 l-12 12 -27 -20 c-32 -24 -41 -44 -20 -44 9 0 19 9 22 20 l6 20 20
0 c10 0 19 -3 19 -8 0 -16 -32 -52 -46 -52 -8 0 -12 -4 -9 -10 l6 -10 -16 0
c-8 0 -18 -7 -21 -15 -4 -8 -13 -15 -21 -15 -8 0 -11 -4 -8 -10 l6 -10 -20 0
c-12 0 -21 3 -21 6 0 8 27 34 37 34 4 0 14 9 21 20 7 11 10 20 8 20 -3 0 -21
-9 -40 -21 -19 -11 -38 -29 -41 -40 l-7 -20 12 -14 c7 -8 19 -15 27 -15 7 0
35 20 61 45 26 24 75 71 110 103 34 32 62 63 62 69 0 6 7 13 15 17 l15 5 0 26
0 26 -62 59 c-35 33 -66 60 -70 60 -4 0 -10 -4 -13 -10z" />
    <path d="M1226 1061 c-4 -6 -3 -18 2 -27 l9 -16 7 18 c4 9 3 21 -3 27 l-9 9
-6 -11z" />
    <path d="M1460 1038 c0 -7 13 -22 30 -33 16 -11 34 -32 39 -47 l10 -28 18 -1
18 -1 -15 -5 c-31 -13 -55 -53 -31 -53 13 0 51 49 51 65 0 16 -94 115 -109
115 -6 0 -11 -6 -11 -12z" />
    <path d="M1165 970 c-7 -22 -35 -28 -36 -7 0 6 -4 3 -8 -8 l-8 -20 9 -6 10 -6
-22 -16 -22 -15 6 -19 c3 -10 16 -25 27 -33 33 -23 89 -79 89 -90 0 -6 5 -10
12 -10 7 0 22 -12 35 -26 l22 -26 17 4 18 3 -27 28 c-16 15 -34 27 -42 27 -8
0 -15 5 -15 10 0 6 5 10 10 10 6 0 10 5 10 10 0 6 -10 10 -22 10 l-23 0 15 10
15 10 -22 0 c-13 0 -23 4 -23 9 0 5 -10 13 -22 17 -24 7 -58 40 -58 56 0 4 6
8 13 8 8 0 20 11 27 25 l13 25 28 0 c15 0 31 -5 35 -11 l7 -11 8 13 c13 20 11
29 -6 29 -8 0 -15 5 -15 10 0 6 -11 10 -24 10 l-25 0 -6 -20z" />
    <path d="M1460 950 l0 -20 15 0 c17 0 18 2 9 24 -9 23 -24 20 -24 -4z" />
    <path d="M1487 923 c-13 -12 -7 -23 13 -23 l20 0 0 15 c0 15 -21 21 -33 8z" />
    <path d="M1355 910 l-6 -10 16 0 16 0 -6 10 c-3 6 -8 10 -10 10 -2 0 -7 -4
-10 -10z" />
    <path d="M1180 896 c0 -9 5 -16 10 -16 6 0 10 4 10 9 0 6 -4 13 -10 16 l-10 6
0 -15z" />
    <path d="M1420 890 c0 -5 -7 -10 -15 -10 l-15 0 0 -20 0 -20 20 0 c11 0 20 5
20 10 0 6 7 10 15 10 8 0 15 -7 15 -16 l0 -15 27 3 c14 2 28 9 31 16 l4 12
-16 0 c-9 0 -16 -5 -16 -11 l0 -10 -15 15 c-8 8 -15 22 -15 30 l0 16 -20 0
c-11 0 -20 -4 -20 -10z" />
    <path d="M1207 874 c-7 -8 17 -34 32 -34 6 0 11 9 11 20 l0 20 -18 0 c-10 0
-21 -3 -25 -6z" />
    <path d="M1355 821 c-3 -6 -3 -20 0 -31 l6 -20 -15 0 c-9 0 -16 -4 -16 -10 0
-5 11 -10 24 -10 l25 0 -6 38 c-7 43 -9 47 -18 33z" />
    <path d="M1420 802 c0 -15 -62 -82 -75 -82 -7 0 -15 -7 -19 -15 l-5 -15 15 0
c18 0 114 92 114 109 0 6 -7 11 -15 11 -8 0 -15 -4 -15 -8z" />
    <path d="M1570 799 c0 -5 5 -7 10 -4 6 3 10 8 10 11 0 2 -4 4 -10 4 -5 0 -10
-5 -10 -11z" />
  </g>
  <g transform="translate(0.000000,138.000000) scale(0.100000,-0.100000)" fill="#707070" stroke="none">
    <path d="M1340 561 c0 -5 5 -13 10 -16 6 -3 10 -2 10 4 0 5 -4 13 -10 16 -5 3
-10 2 -10 -4z" />
    <path d="M1544 545 c0 -14 4 -25 9 -25 10 0 9 38 -2 44 -5 3 -8 -5 -7 -19z" />
    <path d="M2458 348 l3 -220 -35 4 c-20 2 -36 0 -36 -4 0 -4 18 -8 40 -8 l40 0
0 219 c0 121 -3 222 -7 224 -5 3 -7 -94 -5 -215z" />
    <path d="M240 540 c-11 -11 -20 -28 -20 -37 l1 -18 17 27 17 28 31 6 c17 3 66
4 108 2 42 -1 76 0 76 5 0 4 -47 7 -105 7 l-105 0 -20 -20z" />
    <path d="M648 344 l3 -216 -36 4 c-19 2 -35 0 -35 -5 0 -4 18 -7 41 -5 l41 3
-1 210 c0 116 -1 213 -1 218 0 4 -3 7 -7 7 -5 0 -7 -97 -5 -216z" />
    <path d="M480 540 c0 -5 4 -10 9 -10 5 0 13 -9 16 -20 3 -11 11 -20 16 -20
l10 0 -16 30 c-15 29 -35 40 -35 20z" />
    <path d="M1267 534 c-4 -4 -7 -19 -6 -33 l0 -26 10 24 c10 26 8 47 -4 35z" />
    <path d="M1080 515 c0 -8 4 -15 10 -15 5 0 7 7 4 15 -4 8 -8 15 -10 15 -2 0
-4 -7 -4 -15z" />
    <path d="M1355 513 c3 -10 9 -30 12 -46 3 -15 10 -30 15 -33 l10 -7 -7 34
c-11 57 -16 69 -27 69 l-10 0 7 -17z" />
    <path d="M1465 519 c-4 -6 -5 -13 -2 -16 7 -7 27 6 27 18 0 12 -17 12 -25 -2z" />
    <path d="M1161 504 l1 -19 5 13 c3 7 2 16 -1 19 -3 4 -6 -2 -5 -13z" />
    <path d="M1537 490 c-3 -11 -1 -20 4 -20 5 0 9 9 9 20 0 11 -2 20 -4 20 -2 0
-6 -9 -9 -20z" />
    <path d="M1457 476 c-4 -10 -5 -21 -2 -24 9 -9 17 6 13 25 l-4 18 -7 -19z" />
    <path d="M1091 464 l1 -19 5 13 c3 7 2 16 -1 19 -3 4 -6 -2 -5 -13z" />
    <path d="M1246 455 c-3 -8 -1 -15 3 -15 5 0 11 7 15 15 3 8 1 15 -3 15 -5 0
-11 -7 -15 -15z" />
    <path d="M1167 440 c3 -11 9 -20 14 -20 11 0 11 3 3 24 -9 23 -23 20 -17 -4z" />
    <path d="M758 443 c-9 -2 -24 -15 -32 -29 -20 -29 -13 -31 13 -5 10 10 25 21
32 23 19 7 8 15 -13 11z" />
    <path d="M1527 430 c-3 -11 -2 -20 3 -20 4 0 10 9 13 20 3 11 2 20 -3 20 -4 0
-10 -9 -13 -20z" />
    <path d="M835 426 c34 -17 75 -21 75 -7 0 6 -8 10 -17 9 -10 0 -34 3 -53 6
l-35 6 30 -14z" />
    <path d="M1610 430 c-8 -5 -12 -11 -9 -14 2 -3 11 -1 19 4 8 5 12 11 9 14 -2
3 -11 1 -19 -4z" />
    <path d="M1780 431 c0 -6 5 -11 10 -11 6 0 19 -9 30 -20 l20 -20 0 13 c0 7
-13 21 -30 30 l-30 18 0 -10z" />
    <path d="M1912 417 c-12 -13 -22 -30 -21 -38 l0 -14 11 22 c6 13 19 25 29 28
11 4 19 11 19 16 0 16 -16 10 -38 -14z" />
    <path d="M2100 434 c0 -3 12 -15 26 -26 l25 -20 -3 -114 c-2 -63 0 -114 3
-114 14 0 19 35 19 124 l0 92 -16 22 c-15 22 -54 48 -54 36z" />
    <path d="M2230 430 c-8 -5 -11 -12 -8 -15 4 -4 17 0 30 9 l22 16 -14 0 c-8 0
-22 -4 -30 -10z" />
    <path d="M2325 426 c33 -16 75 -21 75 -8 0 4 -8 8 -17 9 -10 0 -34 3 -53 7
l-35 6 30 -14z" />
    <path d="M1235 421 c-3 -6 -4 -11 0 -11 3 0 1 -9 -5 -20 l-11 -20 10 0 c6 0
13 11 17 25 7 28 0 43 -11 26z" />
    <path d="M1310 426 c0 -2 7 -17 15 -32 l15 -29 0 17 c0 24 -11 48 -21 48 -5 0
-9 -2 -9 -4z" />
    <path d="M1096 405 c4 -8 10 -15 15 -15 4 0 6 7 3 15 -4 8 -10 15 -15 15 -4 0
-6 -7 -3 -15z" />
    <path d="M1391 404 l1 -19 5 13 c3 7 2 16 -1 19 -3 4 -6 -2 -5 -13z" />
    <path d="M1446 405 c-3 -8 -1 -15 4 -15 6 0 10 7 10 15 0 8 -2 15 -4 15 -2 0
-6 -7 -10 -15z" />
    <path d="M1182 380 c0 -14 2 -19 5 -12 2 6 2 18 0 25 -3 6 -5 1 -5 -13z" />
    <path d="M1517 380 c-3 -11 -1 -20 4 -20 5 0 9 9 9 20 0 11 -2 20 -4 20 -2 0
-6 -9 -9 -20z" />
    <path d="M1572 278 c-1 -65 1 -118 6 -118 4 0 6 37 4 82 -4 143 -9 157 -10 36z" />
    <path d="M790 364 l0 -15 10 6 c6 3 10 10 10 16 0 5 -4 9 -10 9 -5 0 -10 -7
-10 -16z" />
    <path d="M830 370 c0 -4 14 -13 30 -19 17 -5 30 -6 30 -1 0 4 -13 13 -30 19
-16 5 -30 6 -30 1z" />
    <path d="M1396 365 c4 -8 10 -15 15 -15 4 0 6 7 3 15 -4 8 -10 15 -15 15 -4 0
-6 -7 -3 -15z" />
    <path d="M1740 372 c0 -12 19 -26 26 -19 2 2 -2 10 -11 17 l-15 12 0 -10z" />
    <path d="M1973 373 l-13 -5 0 -89 c0 -49 3 -89 8 -89 4 0 6 34 4 75 l-4 76 13
15 c13 16 10 23 -8 17z" />
    <path d="M2320 371 c0 -5 14 -14 30 -20 36 -12 40 1 5 17 -31 14 -35 15 -35 3z" />
    <path d="M1112 350 c0 -14 2 -19 5 -12 2 6 2 18 0 25 -3 6 -5 1 -5 -13z" />
    <path d="M1285 356 c-3 -9 -7 -23 -10 -31 -2 -8 -1 -15 4 -15 10 0 25 50 17
58 -3 2 -8 -3 -11 -12z" />
    <path d="M2281 298 c2 -77 6 -69 11 20 2 28 0 52 -4 52 -5 0 -7 -33 -7 -72z" />
    <path d="M1218 342 l-6 -22 -15 6 -14 5 4 -26 c3 -14 9 -28 14 -31 12 -7 31
44 27 70 l-3 21 -7 -23z" />
    <path d="M1437 340 c-3 -11 -1 -20 4 -20 5 0 9 9 9 20 0 11 -2 20 -4 20 -2 0
-6 -9 -9 -20z" />
    <path d="M1410 329 c0 -26 12 -59 21 -59 14 0 10 33 -6 54 l-15 20 0 -15z" />
    <path d="M1506 321 c-4 -7 -5 -15 -2 -18 9 -9 19 4 14 18 l-4 13 -8 -13z" />
    <path d="M1351 304 l1 -19 5 13 c3 7 2 16 -1 19 -3 4 -6 -2 -5 -13z" />
    <path d="M1116 296 c3 -9 11 -16 16 -16 13 0 5 23 -10 28 l-12 4 6 -16z" />
    <path d="M1266 285 c-3 -8 -1 -15 3 -15 5 0 11 7 15 15 3 8 1 15 -3 15 -5 0
-11 -7 -15 -15z" />
    <path d="M1362 249 c6 -16 13 -28 15 -25 8 8 -6 56 -17 56 l-9 0 11 -31z" />
    <path d="M1497 260 c-3 -11 -1 -20 4 -20 5 0 9 9 9 20 0 11 -2 20 -4 20 -2 0
-6 -9 -9 -20z" />
    <path d="M1256 245 c-3 -8 -1 -15 4 -15 6 0 10 7 10 15 0 8 -2 15 -4 15 -2 0
-6 -7 -10 -15z" />
    <path d="M1131 234 l1 -19 5 13 c3 7 2 16 -1 19 -3 4 -6 -2 -5 -13z" />
    <path d="M887 233 c-10 -9 -9 -23 2 -23 5 0 11 7 15 15 5 15 -5 20 -17 8z" />
    <path d="M2374 226 c-10 -8 -16 -18 -12 -21 4 -4 15 0 24 9 21 22 13 30 -12
12z" />
    <path d="M1490 221 c0 -5 -3 -16 -6 -25 -3 -9 -2 -16 4 -16 5 0 12 11 14 25 3
14 1 25 -3 25 -5 0 -9 -4 -9 -9z" />
    <path d="M425 199 c-11 -17 1 -21 15 -4 l12 15 -10 0 c-6 0 -14 -5 -17 -11z" />
    <path d="M858 204 c-3 -3 -20 -6 -37 -6 -17 -1 -31 -5 -31 -11 l0 -10 36 6
c38 6 51 13 42 22 -2 3 -7 2 -10 -1z" />
    <path d="M1246 201 c-4 -7 -5 -15 -2 -18 9 -9 19 4 14 18 l-4 13 -8 -13z" />
    <path d="M1650 195 c7 -9 15 -13 17 -11 7 7 -7 26 -19 26 l-10 0 12 -15z" />
    <path d="M2065 199 c-11 -17 1 -21 15 -4 l12 15 -10 0 c-6 0 -14 -5 -17 -11z" />
    <path d="M2280 199 c0 -9 3 -18 6 -21 7 -8 44 3 44 13 0 5 -7 6 -16 2 l-16 -6
-9 14 -9 14 0 -16z" />
    <path d="M1376 185 c4 -8 10 -15 15 -15 4 0 6 7 3 15 -4 8 -10 15 -15 15 -4 0
-6 -7 -3 -15z" />
    <path d="M1136 176 c3 -9 11 -16 16 -16 13 0 5 23 -10 28 l-12 4 6 -16z" />
    <path d="M221 169 c-1 -15 18 -37 47 -53 l12 -7 0 11 c0 6 -11 15 -25 22 -13
6 -26 18 -28 27 l-5 16 -1 -16z" />
    <path d="M1826 165 c-3 -8 -1 -15 3 -15 5 0 11 7 15 15 3 8 1 15 -3 15 -5 0
-11 -7 -15 -15z" />
    <path d="M1890 168 c0 -6 10 -19 22 -29 l21 -19 89 0 c48 0 88 3 88 8 0 4 -38
6 -85 4 l-84 -3 -26 25 c-14 14 -25 20 -25 14z" />
    <path d="M500 155 c-20 -24 -6 -28 15 -5 10 11 13 20 8 20 -6 0 -16 -7 -23
-15z" />
    <path d="M1235 151 l-6 -21 -34 0 -33 0 -5 13 c-2 6 -8 9 -12 5 -15 -15 8 -28
50 -28 l44 0 6 21 c4 11 5 23 2 26 -3 2 -8 -5 -12 -16z" />
    <path d="M2200 163 c0 -10 52 -54 57 -49 4 4 -44 56 -52 56 -3 0 -5 -3 -5 -7z" />
    <path d="M1387 140 l5 -20 49 0 49 0 -1 23 -1 22 -5 -17 -4 -18 -40 0 -39 0 0
15 c0 8 -4 15 -9 15 -5 0 -7 -9 -4 -20z" />
    <path d="M1590 141 c0 -5 7 -12 16 -15 23 -9 194 -7 194 2 0 4 -38 6 -84 4
l-85 -3 -20 11 -21 11 0 -10z" />
    <path d="M740 131 c0 -10 24 -21 46 -21 8 0 14 5 14 12 0 6 -3 9 -6 5 -3 -3
-17 -2 -30 3 l-24 10 0 -9z" />
    <path d="M830 130 c-24 -15 -7 -19 25 -5 l30 13 -20 1 c-11 0 -27 -3 -35 -9z" />
    <path d="M890 128 c0 -5 20 -8 45 -8 25 0 45 3 45 8 0 4 -20 7 -45 7 -25 0
-45 -3 -45 -7z" />
    <path d="M2328 133 c-10 -2 -18 -8 -18 -13 l0 -9 30 10 c45 16 36 25 -12 12z" />
  </g>
  <g transform="translate(0.000000,138.000000) scale(0.100000,-0.100000)" fill="#dbdadb" stroke="none">
    <path d="M1480 1185 c0 -8 7 -15 16 -15 l16 0 -12 15 c-7 8 -14 15 -16 15 -2
0 -4 -7 -4 -15z" />
    <path d="M1675 859 c-11 -17 1 -21 15 -4 l12 15 -10 0 c-6 0 -14 -5 -17 -11z" />
    <path d="M583 563 l-13 -5 0 -214 0 -214 10 0 10 0 0 210 0 210 36 0 35 0 -6
10 c-6 10 -50 12 -72 3z" />
    <path d="M905 560 l-6 -10 41 0 41 0 -6 10 c-3 6 -19 10 -35 10 -16 0 -32 -4
-35 -10z" />
    <path d="M1073 554 c-3 -8 -1 -20 6 -27 l11 -11 0 18 0 19 40 -6 c22 -3 40 -2
40 3 0 9 -36 20 -68 20 l-23 0 -6 -16z" />
    <path d="M1285 560 c-4 -6 -3 -10 2 -9 4 1 20 1 36 0 l27 -1 0 -15 c0 -8 5
-15 10 -15 13 0 12 11 -4 33 -14 19 -61 23 -71 7z" />
    <path d="M1481 556 c-5 -6 -12 -21 -15 -33 l-7 -23 10 0 c6 0 10 3 9 8 0 4 2
15 6 25 l8 17 29 0 c16 0 29 4 29 9 0 13 -58 10 -69 -3z" />
    <path d="M2385 560 c-8 -13 -2 -131 7 -137 5 -2 8 25 8 61 l0 66 30 0 c17 0
30 5 30 10 0 13 -67 13 -75 0z" />
    <path d="M460 550 c0 -5 3 -10 8 -11 4 0 16 -2 27 -4 l20 -4 -19 15 c-23 16
-36 18 -36 4z" />
    <path d="M235 541 c-3 -5 -2 -12 3 -15 5 -3 9 1 9 9 0 17 -3 19 -12 6z" />
    <path d="M660 535 c0 -3 2 -5 5 -5 3 0 5 2 5 5 0 3 -2 5 -5 5 -3 0 -5 -2 -5
-5z" />
    <path d="M1267 533 c-4 -3 -7 -13 -7 -21 0 -18 13 -7 16 13 2 17 1 18 -9 8z" />
    <path d="M1540 514 l0 -15 10 6 c6 3 10 10 10 16 0 5 -4 9 -10 9 -5 0 -10 -7
-10 -16z" />
    <path d="M1080 501 c0 -6 5 -13 10 -16 l10 -6 0 15 c0 9 -4 16 -10 16 -5 0
-10 -4 -10 -9z" />
    <path d="M1360 500 c0 -5 5 -10 10 -10 6 0 10 5 10 10 0 6 -4 10 -10 10 -5 0
-10 -4 -10 -10z" />
    <path d="M510 490 c0 -5 5 -10 10 -10 6 0 10 5 10 10 0 6 -4 10 -10 10 -5 0
-10 -4 -10 -10z" />
    <path d="M1160 486 c0 -9 5 -16 10 -16 6 0 10 4 10 9 0 6 -4 13 -10 16 l-10 6
0 -15z" />
    <path d="M1256 481 c-4 -7 -5 -15 -2 -18 9 -9 19 4 14 18 l-4 13 -8 -13z" />
    <path d="M290 448 c0 -36 12 -31 16 7 1 14 -2 25 -7 25 -5 0 -9 -14 -9 -32z" />
    <path d="M1450 456 c0 -9 5 -16 10 -16 6 0 10 4 10 9 0 6 -4 13 -10 16 l-10 6
0 -15z" />
    <path d="M1530 455 c0 -8 5 -15 10 -15 6 0 10 7 10 15 0 8 -4 15 -10 15 -5 0
-10 -7 -10 -15z" />
    <path d="M770 440 c0 -5 12 -10 26 -10 l25 0 -6 10 c-3 6 -15 10 -26 10 -10 0
-19 -4 -19 -10z" />
    <path d="M1237 430 c-3 -11 0 -23 5 -27 l11 -6 -7 11 c-3 6 -2 13 4 17 12 8
13 25 1 25 -5 0 -11 -9 -14 -20z" />
    <path d="M2265 440 l-6 -10 21 0 21 0 -6 10 c-3 6 -10 10 -15 10 -5 0 -12 -4
-15 -10z" />
    <path d="M736 432 c-3 -5 1 -9 9 -9 8 0 15 4 15 9 0 4 -4 8 -9 8 -6 0 -12 -4
-15 -8z" />
    <path d="M830 430 c0 -5 5 -10 10 -10 6 0 10 5 10 10 0 6 -4 10 -10 10 -5 0
-10 -4 -10 -10z" />
    <path d="M1090 425 c0 -8 5 -15 10 -15 6 0 10 7 10 15 0 8 -4 15 -10 15 -5 0
-10 -7 -10 -15z" />
    <path d="M1174 429 c-3 -6 -1 -16 5 -22 l11 -11 0 22 c0 24 -5 28 -16 11z" />
    <path d="M1380 431 c0 -5 5 -13 10 -16 6 -3 10 -2 10 4 0 5 -4 13 -10 16 -5 3
-10 2 -10 -4z" />
    <path d="M1926 432 c-3 -5 1 -9 9 -9 8 0 15 4 15 9 0 4 -4 8 -9 8 -6 0 -12 -4
-15 -8z" />
    <path d="M2090 430 c0 -5 5 -10 10 -10 6 0 10 5 10 10 0 6 -4 10 -10 10 -5 0
-10 -4 -10 -10z" />
    <path d="M2212 409 c-15 -23 -16 -69 -2 -69 6 0 10 15 10 34 l0 34 12 4 12 4
-10 7 c-5 3 -15 -3 -22 -14z" />
    <path d="M1520 404 l0 -15 10 6 c6 3 10 10 10 16 0 5 -4 9 -10 9 -5 0 -10 -7
-10 -16z" />
    <path d="M1830 405 c0 -3 2 -5 5 -5 3 0 5 2 5 5 0 3 -2 5 -5 5 -3 0 -5 -2 -5
-5z" />
    <path d="M1100 391 c0 -6 5 -13 10 -16 l10 -6 0 15 c0 9 -4 16 -10 16 -5 0
-10 -4 -10 -9z" />
    <path d="M1390 386 c0 -9 5 -16 10 -16 6 0 10 4 10 9 0 6 -4 13 -10 16 l-10 6
0 -15z" />
    <path d="M1440 385 c0 -8 5 -15 10 -15 6 0 10 7 10 15 0 8 -4 15 -10 15 -5 0
-10 -7 -10 -15z" />
    <path d="M1290 374 l0 -15 10 6 c6 3 10 10 10 16 0 5 -4 9 -10 9 -5 0 -10 -7
-10 -16z" />
    <path d="M1830 376 c0 -9 5 -16 10 -16 6 0 10 4 10 9 0 6 -4 13 -10 16 l-10 6
0 -15z" />
    <path d="M815 370 c3 -5 10 -10 16 -10 5 0 9 5 9 10 0 6 -7 10 -16 10 l-15 0
6 -10z" />
    <path d="M1220 364 l0 -15 10 6 c6 3 10 10 10 16 0 5 -4 9 -10 9 -5 0 -10 -7
-10 -16z" />
    <path d="M1887 373 c-4 -3 -7 -46 -7 -94 l0 -88 10 -6 10 -6 0 100 c0 56 -1
101 -3 101 -2 0 -7 -3 -10 -7z" />
    <path d="M2158 280 c-2 -55 0 -100 5 -100 4 0 7 45 7 100 0 55 -2 100 -4 100
-3 0 -6 -45 -8 -100z" />
    <path d="M2305 370 c3 -5 10 -10 16 -10 5 0 9 5 9 10 0 6 -7 10 -16 10 l-15 0
6 -10z" />
    <path d="M850 360 c0 -5 5 -10 10 -10 6 0 10 5 10 10 0 6 -4 10 -10 10 -5 0
-10 -4 -10 -10z" />
    <path d="M1180 351 c0 -11 4 -22 10 -26 5 -3 7 -12 3 -20 l-5 -15 15 0 c8 0
18 7 21 16 9 24 7 36 -4 29 -6 -4 -7 -11 -4 -17 l7 -11 -11 7 c-7 4 -12 16
-12 26 0 10 -4 22 -10 25 l-10 6 0 -20z" />
    <path d="M1336 350 c3 -14 10 -29 15 -34 l9 -10 0 15 c0 8 -7 24 -16 35 l-15
19 7 -25z" />
    <path d="M1960 358 c0 -4 4 -8 9 -8 6 0 12 4 15 8 3 5 -1 9 -9 9 -8 0 -15 -4
-15 -9z" />
    <path d="M2340 360 c0 -5 5 -10 10 -10 6 0 10 5 10 10 0 6 -4 10 -10 10 -5 0
-10 -4 -10 -10z" />
    <path d="M1400 350 c0 -5 5 -10 10 -10 6 0 10 5 10 10 0 6 -4 10 -10 10 -5 0
-10 -4 -10 -10z" />
    <path d="M1750 280 l0 -80 -45 0 -45 0 0 -10 0 -10 43 0 c24 0 48 5 55 12 l12
12 0 78 0 78 -10 0 -10 0 0 -80z" />
    <path d="M1510 334 l0 -15 10 6 c6 3 10 10 10 16 0 5 -4 9 -10 9 -5 0 -10 -7
-10 -16z" />
    <path d="M2378 298 c2 -29 8 -57 13 -63 l10 -10 -3 59 c-2 33 -7 61 -13 63
l-10 3 3 -52z" />
    <path d="M1110 315 c0 -8 5 -15 10 -15 6 0 10 7 10 15 0 8 -4 15 -10 15 -5 0
-10 -7 -10 -15z" />
    <path d="M1420 320 c-8 -5 -11 -12 -8 -16 10 -9 38 3 38 16 0 12 -10 13 -30 0z" />
    <path d="M1270 300 c0 -5 5 -10 10 -10 6 0 10 5 10 10 0 6 -4 10 -10 10 -5 0
-10 -4 -10 -10z" />
    <path d="M1350 280 c0 -5 5 -10 10 -10 6 0 10 5 10 10 0 6 -4 10 -10 10 -5 0
-10 -4 -10 -10z" />
    <path d="M1120 271 c0 -6 5 -13 10 -16 l10 -6 0 15 c0 9 -4 16 -10 16 -5 0
-10 -4 -10 -9z" />
    <path d="M1260 264 l0 -15 10 6 c6 3 10 10 10 16 0 5 -4 9 -10 9 -5 0 -10 -7
-10 -16z" />
    <path d="M1250 224 l0 -15 10 6 c6 3 10 10 10 16 0 5 -4 9 -10 9 -5 0 -10 -7
-10 -16z" />
    <path d="M1490 230 c0 -5 5 -10 10 -10 6 0 10 5 10 10 0 6 -4 10 -10 10 -5 0
-10 -4 -10 -10z" />
    <path d="M2070 220 l0 -20 -45 0 -45 0 0 -10 0 -10 41 0 42 0 13 18 c16 20 18
42 4 42 -5 0 -10 -9 -10 -20z" />
    <path d="M292 210 l3 -25 66 -3 67 -3 5 13 5 13 -60 -3 -59 -4 -15 19 -15 18
3 -25z" />
    <path d="M2356 215 c-8 -8 -19 -15 -25 -15 -6 0 -11 -4 -11 -10 0 -5 3 -10 6
-10 13 0 42 21 48 35 7 19 2 19 -18 0z" />
    <path d="M790 197 l0 -14 25 1 c13 1 28 5 32 10 l8 8 -20 -3 c-11 -2 -26 0
-32 4 l-13 8 0 -14z" />
    <path d="M1130 195 c0 -8 5 -15 10 -15 6 0 10 7 10 15 0 8 -4 15 -10 15 -5 0
-10 -7 -10 -15z" />
    <path d="M1370 200 c0 -5 5 -10 10 -10 6 0 10 5 10 10 0 6 -4 10 -10 10 -5 0
-10 -4 -10 -10z" />
    <path d="M1240 184 l0 -15 10 6 c6 4 8 11 5 16 -9 14 -15 11 -15 -7z" />
    <path d="M510 175 c0 -8 5 -15 10 -15 6 0 10 7 10 15 0 8 -4 15 -10 15 -5 0
-10 -7 -10 -15z" />
    <path d="M1830 180 c0 -5 5 -10 10 -10 6 0 10 5 10 10 0 6 -4 10 -10 10 -5 0
-10 -4 -10 -10z" />
    <path d="M1480 164 l0 -15 10 6 c6 3 10 10 10 16 0 5 -4 9 -10 9 -5 0 -10 -7
-10 -16z" />
    <path d="M2200 166 c0 -23 16 -27 17 -5 1 10 -2 19 -8 19 -5 0 -9 -6 -9 -14z" />
    <path d="M660 165 c0 -3 2 -5 5 -5 3 0 5 2 5 5 0 3 -2 5 -5 5 -3 0 -5 -2 -5
-5z" />
    <path d="M710 161 c0 -6 5 -13 10 -16 l10 -6 0 15 c0 9 -4 16 -10 16 -5 0 -10
-4 -10 -9z" />
    <path d="M1380 160 c0 -5 5 -10 10 -10 6 0 10 5 10 10 0 6 -4 10 -10 10 -5 0
-10 -4 -10 -10z" />
    <path d="M1570 161 c0 -5 7 -14 15 -21 16 -14 18 -10 9 14 -6 17 -24 22 -24 7z" />
    <path d="M1140 146 c0 -23 16 -27 17 -5 1 10 -2 19 -8 19 -5 0 -9 -6 -9 -14z" />
    <path d="M1230 134 l0 -15 10 6 c6 3 10 10 10 16 0 5 -4 9 -10 9 -5 0 -10 -7
-10 -16z" />
    <path d="M1905 140 c3 -5 8 -10 11 -10 2 0 4 5 4 10 0 6 -5 10 -11 10 -5 0 -7
-4 -4 -10z" />
    <path d="M2113 143 c-14 -5 -18 -23 -5 -23 5 0 17 7 28 15 l19 14 -15 0 c-8 0
-21 -3 -27 -6z" />
    <path d="M2370 142 c0 -5 7 -13 16 -16 l16 -6 -4 12 c-5 15 -28 23 -28 10z" />
    <path d="M463 133 c-14 -5 -18 -23 -5 -23 5 0 17 7 28 15 l19 14 -15 0 c-8 0
-21 -3 -27 -6z" />
    <path d="M654 128 l-7 -11 11 7 c7 4 12 9 12 12 0 8 -9 4 -16 -8z" />
    <path d="M885 130 c4 -6 11 -8 16 -5 14 9 11 15 -7 15 l-15 0 6 -10z" />
    <path d="M1390 130 c0 -7 3 -10 7 -7 3 4 3 10 0 14 -4 3 -7 0 -7 -7z" />
    <path d="M270 120 c0 -5 5 -10 10 -10 6 0 10 5 10 10 0 6 -4 10 -10 10 -5 0
-10 -4 -10 -10z" />
    <path d="M810 120 c0 -5 5 -10 10 -10 6 0 10 5 10 10 0 6 -4 10 -10 10 -5 0
-10 -4 -10 -10z" />
    <path d="M1480 125 c0 -3 2 -5 5 -5 3 0 5 2 5 5 0 3 -2 5 -5 5 -3 0 -5 -2 -5
-5z" />
    <path d="M2300 120 c0 -5 5 -10 10 -10 6 0 10 5 10 10 0 6 -4 10 -10 10 -5 0
-10 -4 -10 -10z" />
  </g>
  <g transform="translate(0.000000,138.000000) scale(0.100000,-0.100000)" fill="#161616" stroke="none">
    <path d="M260 550 c0 -5 5 -10 10 -10 6 0 10 5 10 10 0 6 -4 10 -10 10 -5 0
-10 -4 -10 -10z" />
    <path d="M460 550 c0 -5 5 -10 11 -10 5 0 7 5 4 10 -3 6 -8 10 -11 10 -2 0 -4
-4 -4 -10z" />
    <path d="M580 552 c0 -4 18 -6 40 -4 22 2 40 6 40 8 0 2 -18 4 -40 4 -22 0
-40 -3 -40 -8z" />
    <path d="M900 552 c0 -5 14 -7 30 -4 l30 4 0 -205 0 -206 10 -6 10 -6 0 215 0
216 -40 0 c-22 0 -40 -4 -40 -8z" />
    <path d="M1077 544 l7 -18 4 12 c5 16 54 15 71 0 l14 -13 -5 15 -5 15 -46 3
-47 3 7 -17z" />
    <path d="M1277 553 c-4 -3 -7 -11 -7 -17 l0 -10 12 12 c6 6 9 14 7 17 -3 3 -9
2 -12 -2z" />
    <path d="M1313 553 c9 -2 23 -2 30 0 6 3 -1 5 -18 5 l-30 0 18 -5z" />
    <path d="M1479 553 c-6 -34 -5 -52 2 -47 5 3 9 14 9 24 l0 19 33 4 32 4 -37 1
c-21 1 -39 -1 -39 -5z" />
    <path d="M2390 552 c0 -4 16 -6 35 -4 19 2 35 6 35 8 0 2 -16 4 -35 4 -19 0
-35 -4 -35 -8z" />
    <path d="M1351 528 c0 -7 4 -22 8 -32 l8 -20 6 11 c4 7 3 14 -3 18 -6 4 -8 10
-5 15 3 5 1 11 -5 15 -5 3 -10 0 -9 -7z" />
    <path d="M230 520 l-15 -10 12 0 c6 0 15 5 18 10 8 12 4 12 -15 0z" />
    <path d="M1085 500 c3 -5 8 -10 11 -10 2 0 4 5 4 10 0 6 -5 10 -11 10 -5 0 -7
-4 -4 -10z" />
    <path d="M430 466 c0 -9 5 -16 10 -16 6 0 10 4 10 9 0 6 -4 13 -10 16 l-10 6
0 -15z" />
    <path d="M1160 465 c0 -8 5 -15 10 -15 6 0 10 7 10 15 0 8 -4 15 -10 15 -5 0
-10 -7 -10 -15z" />
    <path d="M1255 470 c-3 -5 -1 -10 4 -10 6 0 11 5 11 10 0 6 -2 10 -4 10 -3 0
-8 -4 -11 -10z" />
    <path d="M1530 470 c0 -5 5 -10 10 -10 6 0 10 5 10 10 0 6 -4 10 -10 10 -5 0
-10 -4 -10 -10z" />
    <path d="M1370 451 c0 -6 4 -12 8 -15 5 -3 9 1 9 9 0 8 -4 15 -9 15 -4 0 -8
-4 -8 -9z" />
    <path d="M1090 441 c0 -5 5 -13 10 -16 6 -3 10 -2 10 4 0 5 -4 13 -10 16 -5 3
-10 2 -10 -4z" />
    <path d="M1247 443 c-4 -3 -7 -11 -7 -17 l0 -10 12 12 c6 6 9 14 7 17 -3 3 -9
2 -12 -2z" />
    <path d="M1450 434 l0 -15 10 6 c6 3 10 10 10 16 0 5 -4 9 -10 9 -5 0 -10 -7
-10 -16z" />
    <path d="M750 430 c0 -7 3 -10 7 -7 3 4 3 10 0 14 -4 3 -7 0 -7 -7z" />
    <path d="M1301 418 c-4 -13 -11 -35 -15 -50 l-6 -28 10 0 c6 0 9 3 7 8 -3 4 3
24 13 45 l18 37 -9 6 c-5 3 -13 -5 -18 -18z" />
    <path d="M1630 430 l0 -10 75 0 75 0 0 10 0 10 -75 0 -75 0 0 -10z" />
    <path d="M1940 430 l0 -10 80 0 80 0 0 10 0 10 -80 0 -80 0 0 -10z" />
    <path d="M2320 430 c0 -5 5 -10 10 -10 6 0 10 5 10 10 0 6 -4 10 -10 10 -5 0
-10 -4 -10 -10z" />
    <path d="M860 420 c0 -5 5 -10 10 -10 6 0 10 5 10 10 0 6 -4 10 -10 10 -5 0
-10 -4 -10 -10z" />
    <path d="M895 420 c3 -5 8 -10 11 -10 2 0 4 5 4 10 0 6 -5 10 -11 10 -5 0 -7
-4 -4 -10z" />
    <path d="M2225 416 l-20 -14 -3 -112 -4 -112 10 -10 10 -10 1 118 2 118 16 18
c19 22 14 23 -12 4z" />
    <path d="M2350 420 c0 -5 5 -10 10 -10 6 0 10 5 10 10 0 6 -4 10 -10 10 -5 0
-10 -4 -10 -10z" />
    <path d="M1140 415 c0 -3 2 -5 5 -5 3 0 5 2 5 5 0 3 -2 5 -5 5 -3 0 -5 -2 -5
-5z" />
    <path d="M1520 409 c0 -5 5 -7 10 -4 6 3 10 8 10 11 0 2 -4 4 -10 4 -5 0 -10
-5 -10 -11z" />
    <path d="M1585 409 c-11 -17 1 -21 15 -4 l12 15 -10 0 c-6 0 -14 -5 -17 -11z" />
    <path d="M2130 405 c7 -8 17 -15 22 -15 5 0 3 7 -6 15 -8 8 -18 15 -22 15 -3
0 -1 -7 6 -15z" />
    <path d="M1235 400 c-3 -5 -1 -10 4 -10 6 0 11 5 11 10 0 6 -2 10 -4 10 -3 0
-8 -4 -11 -10z" />
    <path d="M1105 390 c3 -5 8 -10 11 -10 2 0 4 5 4 10 0 6 -5 10 -11 10 -5 0 -7
-4 -4 -10z" />
    <path d="M1893 393 c4 -3 10 -3 14 0 3 4 0 7 -7 7 -7 0 -10 -3 -7 -7z" />
    <path d="M1390 380 c0 -5 5 -10 11 -10 5 0 7 5 4 10 -3 6 -8 10 -11 10 -2 0
-4 -4 -4 -10z" />
    <path d="M1950 385 c0 -3 2 -5 5 -5 3 0 5 2 5 5 0 3 -2 5 -5 5 -3 0 -5 -2 -5
-5z" />
    <path d="M794 373 c10 -10 46 -11 46 -1 0 4 -12 8 -27 8 -14 0 -23 -3 -19 -7z" />
    <path d="M1226 363 l-7 -18 12 12 c7 7 10 15 7 18 -3 3 -9 -2 -12 -12z" />
    <path d="M1440 364 l0 -15 10 6 c6 3 10 10 10 16 0 5 -4 9 -10 9 -5 0 -10 -7
-10 -16z" />
    <path d="M1590 375 c0 -3 2 -5 5 -5 3 0 5 2 5 5 0 3 -2 5 -5 5 -3 0 -5 -2 -5
-5z" />
    <path d="M1650 361 c-5 -11 -10 -50 -10 -86 l0 -66 14 -15 c8 -8 18 -14 22
-14 5 0 3 5 -4 12 l-12 12 0 78 0 78 45 0 45 0 0 10 0 10 -45 0 -44 0 -11 -19z" />
    <path d="M1980 368 c0 -4 20 -8 45 -8 l45 0 1 -67 c1 -38 1 -74 0 -80 -1 -7 3
-13 9 -13 l10 0 0 79 0 79 -14 11 c-15 12 -96 12 -96 -1z" />
    <path d="M2315 369 c4 -6 10 -8 13 -5 3 3 11 1 19 -5 l13 -11 0 10 c0 5 -7 13
-16 16 -24 9 -36 7 -29 -5z" />
    <path d="M855 360 c3 -5 8 -10 11 -10 2 0 4 5 4 10 0 6 -5 10 -11 10 -5 0 -7
-4 -4 -10z" />
    <path d="M1337 352 c3 -12 9 -25 14 -28 14 -8 11 10 -6 32 l-14 19 6 -23z" />
    <path d="M1510 351 c0 -11 -3 -26 -6 -35 -3 -9 -2 -16 3 -16 5 0 10 6 11 13 0
6 4 22 7 35 l7 22 -11 0 c-6 0 -11 -9 -11 -19z" />
    <path d="M710 344 l0 -15 10 6 c6 4 8 11 5 16 -9 14 -15 11 -15 -7z" />
    <path d="M880 355 c0 -18 19 -40 26 -32 4 4 0 15 -9 24 -9 10 -17 13 -17 8z" />
    <path d="M1180 336 c0 -9 5 -16 10 -16 6 0 10 4 10 9 0 6 -4 13 -10 16 l-10 6
0 -15z" />
    <path d="M1115 325 c4 -11 7 -28 7 -37 0 -10 4 -21 10 -24 l11 -7 -7 34 c-3
18 -11 38 -18 44 l-11 10 8 -20z" />
    <path d="M1207 307 l-19 -19 11 -11 10 -10 11 28 c6 15 9 29 8 30 -2 1 -11 -7
-21 -18z m3 -22 c0 -3 -2 -5 -5 -5 -3 0 -5 2 -5 5 0 3 2 5 5 5 3 0 5 -2 5 -5z" />
    <path d="M1435 321 c-3 -6 -11 -9 -16 -6 -5 4 -9 1 -9 -4 0 -6 6 -11 14 -11
16 0 31 18 23 26 -3 3 -8 0 -12 -5z" />
    <path d="M1270 310 c0 -5 5 -10 10 -10 6 0 10 5 10 10 0 6 -4 10 -10 10 -5 0
-10 -4 -10 -10z" />
    <path d="M1420 280 c0 -5 5 -10 11 -10 5 0 7 5 4 10 -3 6 -8 10 -11 10 -2 0
-4 -4 -4 -10z" />
    <path d="M1260 269 c0 -5 5 -7 10 -4 6 3 10 8 10 11 0 2 -4 4 -10 4 -5 0 -10
-5 -10 -11z" />
    <path d="M1360 250 c0 -5 5 -10 10 -10 6 0 10 5 10 10 0 6 -4 10 -10 10 -5 0
-10 -4 -10 -10z" />
    <path d="M1490 234 l0 -15 10 6 c6 3 10 10 10 16 0 5 -4 9 -10 9 -5 0 -10 -7
-10 -16z" />
    <path d="M1250 229 c0 -5 5 -7 10 -4 6 3 10 8 10 11 0 2 -4 4 -10 4 -5 0 -10
-5 -10 -11z" />
    <path d="M2390 230 c0 -7 3 -10 7 -7 3 4 3 10 0 14 -4 3 -7 0 -7 -7z" />
    <path d="M430 215 c0 -8 5 -15 10 -15 6 0 10 7 10 15 0 8 -4 15 -10 15 -5 0
-10 -7 -10 -15z" />
    <path d="M871 213 c-7 -8 -11 -16 -8 -19 6 -7 37 7 37 16 0 16 -15 18 -29 3z" />
    <path d="M1135 210 c3 -14 7 -33 6 -42 0 -10 5 -18 10 -18 l11 0 -7 33 c-4 17
-12 37 -17 42 l-11 10 8 -25z" />
    <path d="M1370 216 c0 -8 5 -18 10 -21 6 -3 10 1 10 9 0 8 -4 18 -10 21 -5 3
-10 -1 -10 -9z" />
    <path d="M290 202 c0 -12 19 -26 26 -19 2 2 -2 10 -11 17 l-15 12 0 -10z" />
    <path d="M1243 195 c-3 -9 -3 -18 -1 -21 3 -3 8 4 11 16 6 23 -1 27 -10 5z" />
    <path d="M510 181 c0 -11 -12 -29 -27 -40 -16 -11 -23 -20 -18 -21 15 0 29 12
48 40 19 28 21 40 7 40 -5 0 -10 -9 -10 -19z" />
    <path d="M1480 186 c0 -9 5 -16 10 -16 6 0 10 4 10 9 0 6 -4 13 -10 16 l-10 6
0 -15z" />
    <path d="M1965 190 c3 -5 10 -10 16 -10 5 0 9 5 9 10 0 6 -7 10 -16 10 l-15 0
6 -10z" />
    <path d="M2325 190 c-3 -5 -2 -10 4 -10 5 0 13 5 16 10 3 6 2 10 -4 10 -5 0
-13 -4 -16 -10z" />
    <path d="M2285 180 c3 -5 8 -10 11 -10 3 0 2 5 -1 10 -3 6 -8 10 -11 10 -3 0
-2 -4 1 -10z" />
    <path d="M1380 170 c0 -5 5 -10 10 -10 6 0 10 5 10 10 0 6 -4 10 -10 10 -5 0
-10 -4 -10 -10z" />
    <path d="M1575 160 c3 -5 8 -10 11 -10 2 0 4 5 4 10 0 6 -5 10 -11 10 -5 0 -7
-4 -4 -10z" />
    <path d="M1813 154 c0 -16 13 -19 21 -5 3 5 0 11 -7 14 l-14 5 0 -14z" />
    <path d="M2140 161 c0 -5 -9 -13 -20 -16 -11 -3 -20 -11 -20 -16 0 -6 14 -2
30 8 30 17 39 33 20 33 -5 0 -10 -4 -10 -9z" />
    <path d="M910 155 c0 -3 2 -5 5 -5 3 0 5 2 5 5 0 3 -2 5 -5 5 -3 0 -5 -2 -5
-5z" />
    <path d="M242 139 c2 -7 12 -13 21 -15 23 -3 21 3 -4 17 l-21 11 4 -13z" />
    <path d="M1230 139 c0 -5 5 -7 10 -4 6 3 10 8 10 11 0 2 -4 4 -10 4 -5 0 -10
-5 -10 -11z" />
    <path d="M840 130 c0 -5 5 -10 10 -10 6 0 10 5 10 10 0 6 -4 10 -10 10 -5 0
-10 -4 -10 -10z" />
    <path d="M1930 130 c0 -7 3 -10 7 -7 3 4 3 10 0 14 -4 3 -7 0 -7 -7z" />
    <path d="M760 120 c0 -5 5 -10 10 -10 6 0 10 5 10 10 0 6 -4 10 -10 10 -5 0
-10 -4 -10 -10z" />
    <path d="M790 120 c0 -5 7 -10 15 -10 8 0 15 5 15 10 0 6 -7 10 -15 10 -8 0
-15 -4 -15 -10z" />
    <path d="M2250 119 c0 -5 14 -9 30 -9 17 0 30 4 30 8 0 5 -13 9 -30 10 -16 0
-30 -4 -30 -9z" />
  </g>
  <g transform="translate(0.000000,138.000000) scale(0.100000,-0.100000)" fill="#2b2b2b" stroke="none">
    <path d="M260 549 c0 -5 5 -7 10 -4 6 3 10 8 10 11 0 2 -4 4 -10 4 -5 0 -10
-5 -10 -11z" />
    <path d="M890 490 l0 -70 10 0 10 0 0 70 0 70 -10 0 -10 0 0 -70z" />
    <path d="M965 550 c3 -5 8 -10 11 -10 2 0 4 5 4 10 0 6 -5 10 -11 10 -5 0 -7
-4 -4 -10z" />
    <path d="M1073 553 c4 -3 10 -3 14 0 3 4 0 7 -7 7 -7 0 -10 -3 -7 -7z" />
    <path d="M1143 553 c4 -3 10 -3 14 0 3 4 0 7 -7 7 -7 0 -10 -3 -7 -7z" />
    <path d="M1350 540 c6 -11 13 -20 16 -20 2 0 0 9 -6 20 -6 11 -13 20 -16 20
-2 0 0 -9 6 -20z" />
    <path d="M1476 543 l-7 -18 12 12 c7 7 10 15 7 18 -3 3 -9 -2 -12 -12z" />
    <path d="M2393 485 c0 -44 2 -61 4 -37 2 23 2 59 0 80 -2 20 -4 1 -4 -43z" />
    <path d="M475 540 c3 -5 8 -10 11 -10 2 0 4 5 4 10 0 6 -5 10 -11 10 -5 0 -7
-4 -4 -10z" />
    <path d="M1080 530 c0 -7 3 -10 7 -7 3 4 3 10 0 14 -4 3 -7 0 -7 -7z" />
    <path d="M1540 515 c0 -8 2 -15 4 -15 2 0 6 7 10 15 3 8 1 15 -4 15 -6 0 -10
-7 -10 -15z" />
    <path d="M503 513 c4 -3 10 -3 14 0 3 4 0 7 -7 7 -7 0 -10 -3 -7 -7z" />
    <path d="M1264 508 l-7 -11 11 7 c7 4 12 9 12 12 0 8 -9 4 -16 -8z" />
    <path d="M1086 497 c3 -10 9 -15 12 -12 3 3 0 11 -7 18 l-12 12 7 -18z" />
    <path d="M1460 494 l0 -15 10 6 c6 3 10 10 10 16 0 5 -4 9 -10 9 -5 0 -10 -7
-10 -16z" />
    <path d="M224 335 c0 -93 2 -133 3 -88 2 45 2 122 0 170 -1 48 -3 12 -3 -82z" />
    <path d="M510 329 l2 -172 9 14 c5 8 9 82 9 166 l0 152 -10 6 -11 7 1 -173z" />
    <path d="M1160 488 c0 -9 5 -20 10 -23 13 -8 13 5 0 25 l-10 15 0 -17z" />
    <path d="M297 483 c-4 -3 -7 -13 -7 -22 l1 -16 10 18 c11 19 8 33 -4 20z" />
    <path d="M1256 473 l-7 -18 12 12 c7 7 10 15 7 18 -3 3 -9 -2 -12 -12z" />
    <path d="M1537 473 c-4 -3 -7 -13 -7 -22 l1 -16 10 18 c11 19 8 33 -4 20z" />
    <path d="M430 340 l0 -131 10 6 10 6 0 119 0 119 -10 6 -10 6 0 -131z" />
    <path d="M1370 460 c0 -5 5 -10 11 -10 5 0 7 5 4 10 -3 6 -8 10 -11 10 -2 0
-4 -4 -4 -10z" />
    <path d="M1457 453 c-4 -3 -7 -11 -7 -17 l0 -10 12 12 c6 6 9 14 7 17 -3 3 -9
2 -12 -2z" />
    <path d="M1244 438 l-7 -11 11 7 c7 4 12 9 12 12 0 8 -9 4 -16 -8z" />
    <path d="M778 433 c7 -3 16 -2 19 1 4 3 -2 6 -13 5 l-19 -1 13 -5z" />
    <path d="M830 430 c0 -5 5 -10 11 -10 5 0 7 5 4 10 -3 6 -8 10 -11 10 -2 0 -4
-4 -4 -10z" />
    <path d="M1096 427 c3 -10 9 -15 12 -12 3 3 0 11 -7 18 l-12 12 7 -18z" />
    <path d="M1380 431 c0 -6 4 -13 10 -16 l10 -6 -6 15 c-7 18 -14 21 -14 7z" />
    <path d="M1620 430 c0 -5 4 -10 9 -10 6 0 13 5 16 10 l6 10 -15 0 c-9 0 -16
-4 -16 -10z" />
    <path d="M1765 430 c3 -5 10 -10 16 -10 5 0 9 5 9 10 0 6 -7 10 -16 10 l-15 0
6 -10z" />
    <path d="M1940 429 c0 -5 5 -7 10 -4 6 3 10 8 10 11 0 2 -4 4 -10 4 -5 0 -10
-5 -10 -11z" />
    <path d="M2085 430 c3 -5 11 -10 16 -10 6 0 7 5 4 10 -3 6 -11 10 -16 10 -6 0
-7 -4 -4 -10z" />
    <path d="M2240 430 c0 -7 3 -10 7 -7 3 4 3 10 0 14 -4 3 -7 0 -7 -7z" />
    <path d="M2268 433 c6 -2 18 -2 25 0 6 3 1 5 -13 5 -14 0 -19 -2 -12 -5z" />
    <path d="M1170 421 c0 -6 4 -13 10 -16 l10 -6 -6 15 c-7 18 -14 21 -14 7z" />
    <path d="M1307 423 c-4 -3 -7 -11 -7 -16 0 -6 3 -7 7 -4 3 4 12 2 20 -4 l13
-11 0 11 c0 6 -5 11 -11 11 -5 0 -7 5 -4 10 7 11 -8 14 -18 3z" />
    <path d="M1587 412 c-10 -10 -17 -22 -17 -27 0 -5 9 1 21 14 12 12 19 24 17
27 -3 2 -12 -4 -21 -14z" />
    <path d="M1800 420 c0 -7 3 -10 7 -7 3 4 3 10 0 14 -4 3 -7 0 -7 -7z" />
    <path d="M1915 420 c-3 -5 -1 -10 4 -10 6 0 11 5 11 10 0 6 -2 10 -4 10 -3 0
-8 -4 -11 -10z" />
    <path d="M1525 409 c-4 -6 -5 -12 -2 -15 2 -3 7 2 10 11 7 17 1 20 -8 4z" />
    <path d="M1234 398 l-7 -11 11 7 c7 4 12 9 12 12 0 8 -9 4 -16 -8z" />
    <path d="M2210 400 c0 -7 3 -10 7 -7 3 4 3 10 0 14 -4 3 -7 0 -7 -7z" />
    <path d="M710 389 c0 -5 5 -7 10 -4 6 3 10 8 10 11 0 2 -4 4 -10 4 -5 0 -10
-5 -10 -11z" />
    <path d="M1107 379 l7 -23 4 13 c2 7 -1 18 -6 23 l-11 11 6 -24z" />
    <path d="M1390 391 c0 -6 4 -13 10 -16 l10 -6 -6 15 c-7 18 -14 21 -14 7z" />
    <path d="M1295 379 c-4 -6 -5 -12 -2 -15 2 -3 7 2 10 11 7 17 1 20 -8 4z" />
    <path d="M1447 383 c-4 -3 -7 -11 -7 -17 l0 -10 12 12 c6 6 9 14 7 17 -3 3 -9
2 -12 -2z" />
    <path d="M800 369 c0 -5 5 -7 10 -4 6 3 10 8 10 11 0 2 -4 4 -10 4 -5 0 -10
-5 -10 -11z" />
    <path d="M2286 371 c-3 -5 5 -8 18 -7 13 0 22 4 19 9 -6 10 -31 9 -37 -2z" />
    <path d="M855 360 c3 -5 8 -10 11 -10 3 0 2 5 -1 10 -3 6 -8 10 -11 10 -3 0
-2 -4 1 -10z" />
    <path d="M1180 356 c0 -8 4 -17 9 -20 l9 -6 -5 20 c-6 23 -13 26 -13 6z" />
    <path d="M1650 359 c0 -5 5 -7 10 -4 6 3 10 8 10 11 0 2 -4 4 -10 4 -5 0 -10
-5 -10 -11z" />
    <path d="M1960 360 c0 -7 3 -10 7 -7 3 4 3 10 0 14 -4 3 -7 0 -7 -7z" />
    <path d="M1400 351 c0 -5 5 -13 10 -16 6 -3 10 -2 10 4 0 5 -4 13 -10 16 -5 3
-10 2 -10 -4z" />
    <path d="M1755 350 c3 -5 8 -10 11 -10 2 0 4 5 4 10 0 6 -5 10 -11 10 -5 0 -7
-4 -4 -10z" />
    <path d="M1830 345 c0 -8 5 -15 10 -15 6 0 10 7 10 15 0 8 -4 15 -10 15 -5 0
-10 -7 -10 -15z" />
    <path d="M2370 351 c0 -6 4 -11 10 -11 5 0 11 -26 13 -57 l3 -58 2 56 2 57
-15 12 -15 12 0 -11z" />
    <path d="M1280 339 c0 -5 5 -7 10 -4 6 3 10 8 10 11 0 2 -4 4 -10 4 -5 0 -10
-5 -10 -11z" />
    <path d="M1515 339 c-4 -6 -5 -12 -2 -15 2 -3 7 2 10 11 7 17 1 20 -8 4z" />
    <path d="M890 286 l0 -56 10 0 10 0 0 49 c0 28 -4 53 -10 56 l-10 6 0 -55z" />
    <path d="M1220 330 c0 -7 3 -10 7 -7 3 4 3 10 0 14 -4 3 -7 0 -7 -7z" />
    <path d="M1346 327 c3 -10 9 -15 12 -12 3 3 0 11 -7 18 l-12 12 7 -18z" />
    <path d="M1116 317 c3 -10 9 -15 12 -12 3 3 0 11 -7 18 l-12 12 7 -18z" />
    <path d="M1277 313 c-4 -3 -7 -11 -7 -17 l0 -10 12 12 c6 6 9 14 7 17 -3 3 -9
2 -12 -2z" />
    <path d="M1415 310 c3 -5 8 -10 11 -10 3 0 2 5 -1 10 -3 6 -8 10 -11 10 -3 0
-2 -4 1 -10z" />
    <path d="M1190 298 c0 -4 7 -8 15 -8 8 0 15 4 15 8 0 5 -7 9 -15 9 -8 0 -15
-4 -15 -9z" />
    <path d="M1500 294 l0 -15 10 6 c6 3 10 10 10 16 0 5 -4 9 -10 9 -5 0 -10 -7
-10 -16z" />
    <path d="M1350 291 c0 -5 5 -13 10 -16 6 -3 10 -2 10 4 0 5 -4 13 -10 16 -5 3
-10 2 -10 -4z" />
    <path d="M1126 267 c3 -10 9 -15 12 -12 3 3 0 11 -7 18 l-12 12 7 -18z" />
    <path d="M1265 269 c-4 -6 -5 -12 -2 -15 2 -3 7 2 10 11 7 17 1 20 -8 4z" />
    <path d="M290 236 c0 -19 3 -37 8 -40 4 -2 6 13 4 35 -2 21 -6 39 -8 39 -2 0
-4 -15 -4 -34z" />
    <path d="M1645 261 c-3 -5 -1 -12 5 -16 l10 -6 0 15 c0 18 -6 21 -15 7z" />
    <path d="M1360 250 c0 -5 5 -10 11 -10 5 0 7 5 4 10 -3 6 -8 10 -11 10 -2 0
-4 -4 -4 -10z" />
    <path d="M1255 229 c-4 -6 -5 -12 -2 -15 2 -3 7 2 10 11 7 17 1 20 -8 4z" />
    <path d="M1375 200 c3 -5 8 -10 11 -10 3 0 2 5 -1 10 -3 6 -8 10 -11 10 -3 0
-2 -4 1 -10z" />
    <path d="M790 190 c0 -7 3 -10 7 -7 3 4 3 10 0 14 -4 3 -7 0 -7 -7z" />
    <path d="M834 188 l-7 -11 11 7 c7 4 12 9 12 12 0 8 -9 4 -16 -8z" />
    <path d="M1667 188 c6 -10 80 -10 86 0 3 4 -16 7 -43 7 -26 0 -46 -3 -43 -7z" />
    <path d="M1970 190 c14 -9 109 -15 99 -6 -2 2 -29 6 -59 9 l-55 6 15 -9z" />
    <path d="M1487 183 c-4 -3 -7 -13 -7 -22 l1 -16 10 18 c11 19 8 33 -4 20z" />
    <path d="M710 174 c0 -14 27 -50 33 -44 3 3 -3 16 -13 30 -11 14 -20 20 -20
14z" />
    <path d="M1240 170 c0 -7 3 -10 7 -7 3 4 3 10 0 14 -4 3 -7 0 -7 -7z" />
    <path d="M1380 171 c0 -5 5 -13 10 -16 6 -3 10 -2 10 4 0 5 -4 13 -10 16 -5 3
-10 2 -10 -4z" />
    <path d="M2205 170 c3 -5 8 -10 11 -10 3 0 2 5 -1 10 -3 6 -8 10 -11 10 -3 0
-2 -4 1 -10z" />
    <path d="M579 168 c-6 -21 -5 -39 2 -44 l9 -5 0 25 c0 14 -2 26 -5 26 -3 0 -5
-1 -6 -2z" />
    <path d="M1140 161 c0 -5 5 -13 10 -16 6 -3 10 -2 10 4 0 5 -4 13 -10 16 -5 3
-10 2 -10 -4z" />
    <path d="M2134 149 l-19 -22 23 12 c12 6 22 16 22 21 0 15 -5 12 -26 -11z" />
    <path d="M1895 150 c3 -5 11 -10 16 -10 6 0 7 5 4 10 -3 6 -11 10 -16 10 -6 0
-7 -4 -4 -10z" />
    <path d="M875 140 l-6 -10 21 0 21 0 -6 10 c-3 6 -10 10 -15 10 -5 0 -12 -4
-15 -10z" />
    <path d="M1805 140 c-3 -5 -2 -10 4 -10 5 0 13 5 16 10 3 6 2 10 -4 10 -5 0
-13 -4 -16 -10z" />
    <path d="M2364 139 l-7 -12 16 6 c9 3 18 2 21 -4 2 -5 3 -4 2 3 -3 17 -23 21
-32 7z" />
    <path d="M2335 130 c-3 -5 -1 -10 4 -10 6 0 11 5 11 10 0 6 -2 10 -4 10 -3 0
-8 -4 -11 -10z" />
    <path d="M275 120 l6 -10 90 0 89 0 0 10 0 10 -96 0 -95 0 6 -10z" />
    <path d="M805 120 c-3 -5 -2 -10 4 -10 5 0 13 5 16 10 3 6 2 10 -4 10 -5 0
-13 -4 -16 -10z" />
    <path d="M2295 120 c-3 -5 -2 -10 4 -10 5 0 13 5 16 10 3 6 2 10 -4 10 -5 0
-13 -4 -16 -10z" />
  </g>
  <g transform="translate(0.000000,138.000000) scale(0.100000,-0.100000)" fill="#a2a2a1" stroke="none">
    <path d="M1570 760 c0 -5 5 -10 10 -10 6 0 10 5 10 10 0 6 -4 10 -10 10 -5 0
-10 -4 -10 -10z" />
    <path d="M263 553 c4 -3 10 -3 14 0 3 4 0 7 -7 7 -7 0 -10 -3 -7 -7z" />
    <path d="M467 549 c7 -7 15 -10 18 -7 3 3 -2 9 -12 12 l-18 7 12 -12z" />
    <path d="M650 555 c0 -3 2 -5 5 -5 3 0 5 2 5 5 0 3 -2 5 -5 5 -3 0 -5 -2 -5
-5z" />
    <path d="M974 340 c0 -124 2 -174 3 -112 2 61 2 163 0 225 -1 61 -3 11 -3
-113z" />
    <path d="M1270 540 c0 -7 3 -10 7 -7 3 4 3 10 0 14 -4 3 -7 0 -7 -7z" />
    <path d="M1161 524 l1 -19 5 13 c3 7 2 16 -1 19 -3 4 -6 -2 -5 -13z" />
    <path d="M1470 530 c0 -7 3 -10 7 -7 3 4 3 10 0 14 -4 3 -7 0 -7 -7z" />
    <path d="M1550 525 c0 -3 2 -5 5 -5 3 0 5 2 5 5 0 3 -2 5 -5 5 -3 0 -5 -2 -5
-5z" />
    <path d="M1080 505 c0 -3 2 -5 5 -5 3 0 5 2 5 5 0 3 -2 5 -5 5 -3 0 -5 -2 -5
-5z" />
    <path d="M1460 495 c0 -8 2 -15 4 -15 2 0 6 7 10 15 3 8 1 15 -4 15 -6 0 -10
-7 -10 -15z" />
    <path d="M300 483 c0 -5 28 -6 61 -5 l62 4 8 -14 9 -13 0 18 0 17 -70 0 c-38
0 -70 -3 -70 -7z" />
    <path d="M1540 470 c0 -7 3 -10 7 -7 3 4 3 10 0 14 -4 3 -7 0 -7 -7z" />
    <path d="M1170 460 c0 -7 3 -10 7 -7 3 4 3 10 0 14 -4 3 -7 0 -7 -7z" />
    <path d="M1250 465 c0 -3 2 -5 5 -5 3 0 5 2 5 5 0 3 -2 5 -5 5 -3 0 -5 -2 -5
-5z" />
    <path d="M891 444 l1 -19 5 13 c3 7 2 16 -1 19 -3 4 -6 -2 -5 -13z" />
    <path d="M1090 450 c0 -7 3 -10 7 -7 3 4 3 10 0 14 -4 3 -7 0 -7 -7z" />
    <path d="M750 435 c0 -3 2 -5 5 -5 3 0 5 2 5 5 0 3 -2 5 -5 5 -3 0 -5 -2 -5
-5z" />
    <path d="M835 430 c3 -5 8 -10 11 -10 3 0 2 5 -1 10 -3 6 -8 10 -11 10 -3 0
-2 -4 1 -10z" />
    <path d="M1240 430 c0 -7 3 -10 7 -7 3 4 3 10 0 14 -4 3 -7 0 -7 -7z" />
    <path d="M1451 424 l1 -19 5 13 c3 7 2 16 -1 19 -3 4 -6 -2 -5 -13z" />
    <path d="M1663 433 c26 -2 67 -2 90 0 23 2 2 3 -48 3 -49 0 -68 -1 -42 -3z" />
    <path d="M1960 434 c58 -8 148 -8 143 -1 -2 4 -41 6 -86 6 -45 -1 -71 -3 -57
-5z" />
    <path d="M2240 435 c0 -3 2 -5 5 -5 3 0 5 2 5 5 0 3 -2 5 -5 5 -3 0 -5 -2 -5
-5z" />
    <path d="M2325 430 c3 -5 8 -10 11 -10 2 0 4 5 4 10 0 6 -5 10 -11 10 -5 0 -7
-4 -4 -10z" />
    <path d="M865 420 c3 -5 8 -10 11 -10 2 0 4 5 4 10 0 6 -5 10 -11 10 -5 0 -7
-4 -4 -10z" />
    <path d="M1305 409 c-4 -11 -4 -23 -1 -26 3 -4 6 1 6 11 l0 17 10 -6 10 -6 -6
15 c-3 9 -8 16 -9 16 -2 0 -7 -9 -10 -21z" />
    <path d="M1585 410 c-10 -11 -16 -22 -14 -24 2 -2 12 7 22 20 22 29 17 32 -8
4z" />
    <path d="M1914 418 l-7 -11 11 7 c12 7 16 16 8 16 -3 0 -8 -5 -12 -12z" />
    <path d="M2120 420 c0 -5 5 -10 11 -10 5 0 7 5 4 10 -3 6 -8 10 -11 10 -2 0
-4 -4 -4 -10z" />
    <path d="M2355 420 c3 -5 8 -10 11 -10 2 0 4 5 4 10 0 6 -5 10 -11 10 -5 0 -7
-4 -4 -10z" />
    <path d="M1530 415 c0 -3 2 -5 5 -5 3 0 5 2 5 5 0 3 -2 5 -5 5 -3 0 -5 -2 -5
-5z" />
    <path d="M2214 408 l-7 -11 11 7 c12 7 16 16 8 16 -3 0 -8 -5 -12 -12z" />
    <path d="M1180 400 c0 -7 3 -10 7 -7 3 4 3 10 0 14 -4 3 -7 0 -7 -7z" />
    <path d="M712 284 l-2 -122 20 -23 c10 -13 19 -19 20 -12 0 6 -6 13 -12 15
l-13 5 -6 129 -5 129 -2 -121z" />
    <path d="M1100 395 c0 -3 2 -5 5 -5 3 0 5 2 5 5 0 3 -2 5 -5 5 -3 0 -5 -2 -5
-5z" />
    <path d="M1230 395 c0 -3 2 -5 5 -5 3 0 5 2 5 5 0 3 -2 5 -5 5 -3 0 -5 -2 -5
-5z" />
    <path d="M1890 395 c0 -3 2 -5 5 -5 3 0 5 2 5 5 0 3 -2 5 -5 5 -3 0 -5 -2 -5
-5z" />
    <path d="M2150 395 c0 -3 2 -5 5 -5 3 0 5 2 5 5 0 3 -2 5 -5 5 -3 0 -5 -2 -5
-5z" />
    <path d="M1330 370 c0 -7 3 -10 7 -7 3 4 3 10 0 14 -4 3 -7 0 -7 -7z" />
    <path d="M1400 375 c0 -3 2 -5 5 -5 3 0 5 2 5 5 0 3 -2 5 -5 5 -3 0 -5 -2 -5
-5z" />
    <path d="M1441 364 l1 -19 5 13 c3 7 2 16 -1 19 -3 4 -6 -2 -5 -13z" />
    <path d="M794 357 c-3 -8 -4 -49 -2 -93 l3 -79 5 93 c3 50 4 92 2 92 -1 0 -5
-6 -8 -13z" />
    <path d="M1520 360 c0 -7 3 -10 7 -7 3 4 3 10 0 14 -4 3 -7 0 -7 -7z" />
    <path d="M1657 363 c-10 -9 -9 -161 1 -166 4 -3 6 33 4 80 l-4 85 50 -3 c28
-2 48 -1 45 4 -5 9 -87 9 -96 0z" />
    <path d="M2020 363 c24 -3 48 -10 52 -16 l8 -12 0 18 0 17 -52 -2 -53 -1 45
-4z" />
    <path d="M2320 365 c0 -3 2 -5 5 -5 3 0 5 2 5 5 0 3 -2 5 -5 5 -3 0 -5 -2 -5
-5z" />
    <path d="M2345 360 c3 -5 8 -10 11 -10 3 0 2 5 -1 10 -3 6 -8 10 -11 10 -3 0
-2 -4 1 -10z" />
    <path d="M860 355 c0 -3 2 -5 5 -5 3 0 5 2 5 5 0 3 -2 5 -5 5 -3 0 -5 -2 -5
-5z" />
    <path d="M1220 355 c0 -3 2 -5 5 -5 3 0 5 2 5 5 0 3 -2 5 -5 5 -3 0 -5 -2 -5
-5z" />
    <path d="M886 335 c4 -8 8 -15 10 -15 2 0 4 7 4 15 0 8 -4 15 -10 15 -5 0 -7
-7 -4 -15z" />
    <path d="M1340 340 c0 -7 3 -10 7 -7 3 4 3 10 0 14 -4 3 -7 0 -7 -7z" />
    <path d="M1410 340 c0 -7 3 -10 7 -7 3 4 3 10 0 14 -4 3 -7 0 -7 -7z" />
    <path d="M2373 343 c4 -3 10 -3 14 0 3 4 0 7 -7 7 -7 0 -10 -3 -7 -7z" />
    <path d="M1110 330 c0 -7 3 -10 7 -7 3 4 3 10 0 14 -4 3 -7 0 -7 -7z" />
    <path d="M1190 330 c0 -7 3 -10 7 -7 3 4 3 10 0 14 -4 3 -7 0 -7 -7z" />
    <path d="M1280 310 c0 -7 3 -10 7 -7 3 4 3 10 0 14 -4 3 -7 0 -7 -7z" />
    <path d="M1430 320 c-1 -3 -3 -13 -5 -24 l-4 -19 11 11 c6 6 8 16 5 24 -3 7
-6 11 -7 8z" />
    <path d="M1510 300 c0 -7 3 -10 7 -7 3 4 3 10 0 14 -4 3 -7 0 -7 -7z" />
    <path d="M1350 290 c0 -7 3 -10 7 -7 3 4 3 10 0 14 -4 3 -7 0 -7 -7z" />
    <path d="M1120 280 c0 -7 3 -10 7 -7 3 4 3 10 0 14 -4 3 -7 0 -7 -7z" />
    <path d="M891 264 l1 -19 5 13 c3 7 2 16 -1 19 -3 4 -6 -2 -5 -13z" />
    <path d="M1270 275 c0 -3 2 -5 5 -5 3 0 5 2 5 5 0 3 -2 5 -5 5 -3 0 -5 -2 -5
-5z" />
    <path d="M1360 250 c0 -7 3 -10 7 -7 3 4 3 10 0 14 -4 3 -7 0 -7 -7z" />
    <path d="M2280 255 c0 -3 2 -5 5 -5 3 0 5 2 5 5 0 3 -2 5 -5 5 -3 0 -5 -2 -5
-5z" />
    <path d="M1500 240 c0 -7 3 -10 7 -7 3 4 3 10 0 14 -4 3 -7 0 -7 -7z" />
    <path d="M1260 235 c0 -3 2 -5 5 -5 3 0 5 2 5 5 0 3 -2 5 -5 5 -3 0 -5 -2 -5
-5z" />
    <path d="M2282 220 c0 -14 2 -19 5 -12 2 6 2 18 0 25 -3 6 -5 1 -5 -13z" />
    <path d="M871 221 c-7 -5 -12 -14 -10 -20 l4 -10 14 8 c7 5 12 14 10 20 l-4
10 -14 -8z" />
    <path d="M1130 220 c0 -7 3 -10 7 -7 3 4 3 10 0 14 -4 3 -7 0 -7 -7z" />
    <path d="M1370 220 c0 -7 3 -10 7 -7 3 4 3 10 0 14 -4 3 -7 0 -7 -7z" />
    <path d="M2360 212 c0 -6 -8 -13 -17 -15 l-18 -5 17 -1 c18 -1 34 16 24 26 -3
4 -6 1 -6 -5z" />
    <path d="M1750 200 l-15 -10 12 0 c6 0 15 5 18 10 8 12 4 12 -15 0z" />
    <path d="M305 190 c3 -5 8 -10 11 -10 3 0 2 5 -1 10 -3 6 -8 10 -11 10 -3 0
-2 -4 1 -10z" />
    <path d="M1973 193 c4 -3 10 -3 14 0 3 4 0 7 -7 7 -7 0 -10 -3 -7 -7z" />
    <path d="M810 185 c0 -3 2 -5 5 -5 3 0 5 2 5 5 0 3 -2 5 -5 5 -3 0 -5 -2 -5
-5z" />
    <path d="M1490 180 c0 -7 3 -10 7 -7 3 4 3 10 0 14 -4 3 -7 0 -7 -7z" />
    <path d="M1380 170 c0 -7 3 -10 7 -7 3 4 3 10 0 14 -4 3 -7 0 -7 -7z" />
    <path d="M1140 160 c0 -7 3 -10 7 -7 3 4 3 10 0 14 -4 3 -7 0 -7 -7z" />
    <path d="M1575 160 c3 -5 8 -10 11 -10 3 0 2 5 -1 10 -3 6 -8 10 -11 10 -3 0
-2 -4 1 -10z" />
    <path d="M2150 160 c0 -7 3 -10 7 -7 3 4 3 10 0 14 -4 3 -7 0 -7 -7z" />
    <path d="M220 155 c0 -3 2 -5 5 -5 3 0 5 2 5 5 0 3 -2 5 -5 5 -3 0 -5 -2 -5
-5z" />
    <path d="M1813 146 c-13 -6 -23 -14 -23 -19 0 -9 36 9 45 23 3 6 5 9 3 9 -2
-1 -13 -6 -25 -13z" />
    <path d="M1895 150 c3 -5 8 -10 11 -10 3 0 2 5 -1 10 -3 6 -8 10 -11 10 -3 0
-2 -4 1 -10z" />
    <path d="M245 130 c3 -5 8 -10 11 -10 2 0 4 5 4 10 0 6 -5 10 -11 10 -5 0 -7
-4 -4 -10z" />
    <path d="M470 130 c-8 -5 -10 -10 -5 -10 6 0 17 5 25 10 8 5 11 10 5 10 -5 0
-17 -5 -25 -10z" />
    <path d="M575 130 c3 -5 8 -10 11 -10 3 0 2 5 -1 10 -3 6 -8 10 -11 10 -3 0
-2 -4 1 -10z" />
    <path d="M845 130 c-3 -5 -1 -10 4 -10 6 0 11 5 11 10 0 6 -2 10 -4 10 -3 0
-8 -4 -11 -10z" />
    <path d="M878 133 c7 -3 16 -2 19 1 4 3 -2 6 -13 5 l-19 -1 13 -5z" />
    <path d="M1230 130 c0 -7 3 -10 7 -7 3 4 3 10 0 14 -4 3 -7 0 -7 -7z" />
    <path d="M2105 130 l-6 -10 15 6 c18 7 21 14 7 14 -6 0 -13 -4 -16 -10z" />
    <path d="M2363 133 c4 -3 10 -3 14 0 3 4 0 7 -7 7 -7 0 -10 -3 -7 -7z" />
    <path d="M760 120 c0 -5 5 -10 11 -10 5 0 7 5 4 10 -3 6 -8 10 -11 10 -2 0 -4
-4 -4 -10z" />
    <path d="M2250 118 c0 -4 14 -8 30 -8 17 0 30 2 30 4 0 2 -13 6 -30 8 -16 3
-30 1 -30 -4z" />
    <path d="M2333 123 c4 -3 10 -3 14 0 3 4 0 7 -7 7 -7 0 -10 -3 -7 -7z" />
    <path d="M2390 125 c0 -3 2 -5 5 -5 3 0 5 2 5 5 0 3 -2 5 -5 5 -3 0 -5 -2 -5
-5z" />
    <path d="M2460 125 c0 -3 2 -5 5 -5 3 0 5 2 5 5 0 3 -2 5 -5 5 -3 0 -5 -2 -5
-5z" />
    <path d="M798 113 c7 -3 16 -2 19 1 4 3 -2 6 -13 5 l-19 -1 13 -5z" />
  </g>
  <g transform="translate(0.000000,138.000000) scale(0.100000,-0.100000)" fill="#c2c3c4" stroke="none">
    <path d="M260 555 c0 -3 2 -5 5 -5 3 0 5 2 5 5 0 3 -2 5 -5 5 -3 0 -5 -2 -5
-5z" />
    <path d="M574 549 c-3 -6 -1 -16 5 -22 l11 -11 0 22 c0 24 -5 28 -16 11z" />
    <path d="M891 503 c1 -62 6 -56 11 15 2 23 0 42 -4 42 -5 0 -7 -26 -7 -57z" />
    <path d="M1070 555 c0 -3 2 -5 5 -5 3 0 5 2 5 5 0 3 -2 5 -5 5 -3 0 -5 -2 -5
-5z" />
    <path d="M1156 547 c3 -10 9 -15 12 -12 3 3 0 11 -7 18 l-12 12 7 -18z" />
    <path d="M1274 548 l-7 -11 11 7 c12 7 16 16 8 16 -3 0 -8 -5 -12 -12z" />
    <path d="M500 535 c0 -3 2 -5 5 -5 3 0 5 2 5 5 0 3 -2 5 -5 5 -3 0 -5 -2 -5
-5z" />
    <path d="M1470 535 c0 -3 2 -5 5 -5 3 0 5 2 5 5 0 3 -2 5 -5 5 -3 0 -5 -2 -5
-5z" />
    <path d="M1360 525 c0 -3 2 -5 5 -5 3 0 5 2 5 5 0 3 -2 5 -5 5 -3 0 -5 -2 -5
-5z" />
    <path d="M220 515 c0 -3 2 -5 5 -5 3 0 5 2 5 5 0 3 -2 5 -5 5 -3 0 -5 -2 -5
-5z" />
    <path d="M510 515 c0 -3 2 -5 5 -5 3 0 5 2 5 5 0 3 -2 5 -5 5 -3 0 -5 -2 -5
-5z" />
    <path d="M1260 505 c0 -3 2 -5 5 -5 3 0 5 2 5 5 0 3 -2 5 -5 5 -3 0 -5 -2 -5
-5z" />
    <path d="M1365 500 c3 -5 8 -10 11 -10 3 0 2 5 -1 10 -3 6 -8 10 -11 10 -3 0
-2 -4 1 -10z" />
    <path d="M1463 503 c4 -3 10 -3 14 0 3 4 0 7 -7 7 -7 0 -10 -3 -7 -7z" />
    <path d="M300 480 c0 -7 3 -10 7 -7 3 4 3 10 0 14 -4 3 -7 0 -7 -7z" />
    <path d="M524 335 c0 -88 2 -123 3 -77 2 46 2 118 0 160 -1 42 -3 5 -3 -83z" />
    <path d="M1170 470 c0 -7 3 -10 7 -7 3 4 3 10 0 14 -4 3 -7 0 -7 -7z" />
    <path d="M434 335 c0 -77 2 -107 3 -67 2 40 2 103 0 140 -2 37 -3 4 -3 -73z" />
    <path d="M1540 465 c0 -3 2 -5 5 -5 3 0 5 2 5 5 0 3 -2 5 -5 5 -3 0 -5 -2 -5
-5z" />
    <path d="M1380 455 c0 -3 2 -5 5 -5 3 0 5 2 5 5 0 3 -2 5 -5 5 -3 0 -5 -2 -5
-5z" />
    <path d="M1455 449 c-4 -6 -5 -12 -2 -15 2 -3 7 2 10 11 7 17 1 20 -8 4z" />
    <path d="M1090 440 c0 -7 3 -10 7 -7 3 4 3 10 0 14 -4 3 -7 0 -7 -7z" />
    <path d="M890 430 c0 -7 3 -10 7 -7 3 4 3 10 0 14 -4 3 -7 0 -7 -7z" />
    <path d="M1240 435 c0 -3 2 -5 5 -5 3 0 5 2 5 5 0 3 -2 5 -5 5 -3 0 -5 -2 -5
-5z" />
    <path d="M1620 435 c0 -3 2 -5 5 -5 3 0 5 2 5 5 0 3 -2 5 -5 5 -3 0 -5 -2 -5
-5z" />
    <path d="M1780 435 c0 -3 2 -5 5 -5 3 0 5 2 5 5 0 3 -2 5 -5 5 -3 0 -5 -2 -5
-5z" />
    <path d="M1940 435 c0 -3 2 -5 5 -5 3 0 5 2 5 5 0 3 -2 5 -5 5 -3 0 -5 -2 -5
-5z" />
    <path d="M2330 430 c0 -7 3 -10 7 -7 3 4 3 10 0 14 -4 3 -7 0 -7 -7z" />
    <path d="M870 420 c0 -7 3 -10 7 -7 3 4 3 10 0 14 -4 3 -7 0 -7 -7z" />
    <path d="M1600 425 c0 -3 2 -5 5 -5 3 0 5 2 5 5 0 3 -2 5 -5 5 -3 0 -5 -2 -5
-5z" />
    <path d="M1800 425 c0 -3 2 -5 5 -5 3 0 5 2 5 5 0 3 -2 5 -5 5 -3 0 -5 -2 -5
-5z" />
    <path d="M2120 420 c0 -7 3 -10 7 -7 3 4 3 10 0 14 -4 3 -7 0 -7 -7z" />
    <path d="M2360 420 c0 -7 3 -10 7 -7 3 4 3 10 0 14 -4 3 -7 0 -7 -7z" />
    <path d="M1390 415 c0 -3 2 -5 5 -5 3 0 5 2 5 5 0 3 -2 5 -5 5 -3 0 -5 -2 -5
-5z" />
    <path d="M1180 405 c0 -3 2 -5 5 -5 3 0 5 2 5 5 0 3 -2 5 -5 5 -3 0 -5 -2 -5
-5z" />
    <path d="M1325 400 c3 -5 8 -10 11 -10 3 0 2 5 -1 10 -3 6 -8 10 -11 10 -3 0
-2 -4 1 -10z" />
    <path d="M710 395 c0 -3 2 -5 5 -5 3 0 5 2 5 5 0 3 -2 5 -5 5 -3 0 -5 -2 -5
-5z" />
    <path d="M1570 395 c0 -3 2 -5 5 -5 3 0 5 2 5 5 0 3 -2 5 -5 5 -3 0 -5 -2 -5
-5z" />
    <path d="M1300 385 c0 -3 2 -5 5 -5 3 0 5 2 5 5 0 3 -2 5 -5 5 -3 0 -5 -2 -5
-5z" />
    <path d="M1444 378 l-7 -11 11 7 c12 7 16 16 8 16 -3 0 -8 -5 -12 -12z" />
    <path d="M800 370 c0 -7 3 -10 7 -7 3 4 3 10 0 14 -4 3 -7 0 -7 -7z" />
    <path d="M1831 274 l-2 -106 11 7 10 6 0 94 c0 52 -4 96 -9 99 l-9 6 -1 -106z" />
    <path d="M2200 370 c0 -7 3 -10 7 -7 3 4 3 10 0 14 -4 3 -7 0 -7 -7z" />
    <path d="M830 365 c0 -3 2 -5 5 -5 3 0 5 2 5 5 0 3 -2 5 -5 5 -3 0 -5 -2 -5
-5z" />
    <path d="M1330 365 c0 -3 2 -5 5 -5 3 0 5 2 5 5 0 3 -2 5 -5 5 -3 0 -5 -2 -5
-5z" />
    <path d="M2283 363 c4 -3 10 -3 14 0 3 4 0 7 -7 7 -7 0 -10 -3 -7 -7z" />
    <path d="M1520 350 c0 -7 3 -10 7 -7 3 4 3 10 0 14 -4 3 -7 0 -7 -7z" />
    <path d="M1755 350 c3 -5 8 -10 11 -10 3 0 2 5 -1 10 -3 6 -8 10 -11 10 -3 0
-2 -4 1 -10z" />
    <path d="M883 343 c4 -3 10 -3 14 0 3 4 0 7 -7 7 -7 0 -10 -3 -7 -7z" />
    <path d="M1284 338 l-7 -11 11 7 c12 7 16 16 8 16 -3 0 -8 -5 -12 -12z" />
    <path d="M1410 345 c0 -3 2 -5 5 -5 3 0 5 2 5 5 0 3 -2 5 -5 5 -3 0 -5 -2 -5
-5z" />
    <path d="M1650 345 c0 -3 2 -5 5 -5 3 0 5 2 5 5 0 3 -2 5 -5 5 -3 0 -5 -2 -5
-5z" />
    <path d="M2073 290 c0 -36 2 -50 4 -32 2 17 2 47 0 65 -2 17 -4 3 -4 -33z" />
    <path d="M2204 260 c0 -52 1 -74 3 -47 2 26 2 68 0 95 -2 26 -3 4 -3 -48z" />
    <path d="M1190 335 c0 -3 2 -5 5 -5 3 0 5 2 5 5 0 3 -2 5 -5 5 -3 0 -5 -2 -5
-5z" />
    <path d="M892 300 c0 -19 2 -27 5 -17 2 9 2 25 0 35 -3 9 -5 1 -5 -18z" />
    <path d="M1110 325 c0 -3 2 -5 5 -5 3 0 5 2 5 5 0 3 -2 5 -5 5 -3 0 -5 -2 -5
-5z" />
    <path d="M1435 319 c-4 -6 -5 -12 -2 -15 2 -3 7 2 10 11 7 17 1 20 -8 4z" />
    <path d="M1196 298 c3 -5 10 -6 15 -3 13 9 11 12 -6 12 -8 0 -12 -4 -9 -9z" />
    <path d="M1274 298 l-7 -11 11 7 c12 7 16 16 8 16 -3 0 -8 -5 -12 -12z" />
    <path d="M1504 288 l-7 -11 11 7 c12 7 16 16 8 16 -3 0 -8 -5 -12 -12z" />
    <path d="M1350 285 c0 -3 2 -5 5 -5 3 0 5 2 5 5 0 3 -2 5 -5 5 -3 0 -5 -2 -5
-5z" />
    <path d="M1120 275 c0 -3 2 -5 5 -5 3 0 5 2 5 5 0 3 -2 5 -5 5 -3 0 -5 -2 -5
-5z" />
    <path d="M891 253 c-1 -6 -4 -20 -7 -30 l-6 -18 12 18 c6 10 9 23 6 30 l-4 12
-1 -12z" />
    <path d="M1360 245 c0 -3 2 -5 5 -5 3 0 5 2 5 5 0 3 -2 5 -5 5 -3 0 -5 -2 -5
-5z" />
    <path d="M1494 228 l-7 -11 11 7 c7 4 12 9 12 12 0 8 -9 4 -16 -8z" />
    <path d="M861 204 l1 -19 5 13 c3 7 2 16 -1 19 -3 4 -6 -2 -5 -13z" />
    <path d="M1130 210 c0 -7 3 -10 7 -7 3 4 3 10 0 14 -4 3 -7 0 -7 -7z" />
    <path d="M1370 210 c0 -7 3 -10 7 -7 3 4 3 10 0 14 -4 3 -7 0 -7 -7z" />
    <path d="M2070 210 c0 -7 3 -10 7 -7 3 4 3 10 0 14 -4 3 -7 0 -7 -7z" />
    <path d="M840 195 c0 -3 2 -5 5 -5 3 0 5 2 5 5 0 3 -2 5 -5 5 -3 0 -5 -2 -5
-5z" />
    <path d="M1660 195 c0 -3 2 -5 5 -5 3 0 5 2 5 5 0 3 -2 5 -5 5 -3 0 -5 -2 -5
-5z" />
    <path d="M1734 188 l-7 -11 11 7 c7 4 12 9 12 12 0 8 -9 4 -16 -8z" />
    <path d="M1985 190 c3 -5 8 -10 11 -10 3 0 2 5 -1 10 -3 6 -8 10 -11 10 -3 0
-2 -4 1 -10z" />
    <path d="M2324 188 l-7 -11 11 7 c12 7 16 16 8 16 -3 0 -8 -5 -12 -12z" />
    <path d="M579 188 c-4 -11 -5 -57 0 -53 7 8 13 55 6 55 -3 0 -5 -1 -6 -2z" />
    <path d="M1490 175 c0 -3 2 -5 5 -5 3 0 5 2 5 5 0 3 -2 5 -5 5 -3 0 -5 -2 -5
-5z" />
    <path d="M715 160 c3 -5 8 -10 11 -10 3 0 2 5 -1 10 -3 6 -8 10 -11 10 -3 0
-2 -4 1 -10z" />
    <path d="M1380 165 c0 -3 2 -5 5 -5 3 0 5 2 5 5 0 3 -2 5 -5 5 -3 0 -5 -2 -5
-5z" />
    <path d="M1145 150 c3 -5 8 -10 11 -10 3 0 2 5 -1 10 -3 6 -8 10 -11 10 -3 0
-2 -4 1 -10z" />
    <path d="M1580 150 c0 -5 5 -10 11 -10 5 0 7 5 4 10 -3 6 -8 10 -11 10 -2 0
-4 -4 -4 -10z" />
    <path d="M1890 155 c0 -3 2 -5 5 -5 3 0 5 2 5 5 0 3 -2 5 -5 5 -3 0 -5 -2 -5
-5z" />
    <path d="M2144 148 l-7 -11 11 7 c7 4 12 9 12 12 0 8 -9 4 -16 -8z" />
    <path d="M1234 138 l-7 -11 11 7 c7 4 12 9 12 12 0 8 -9 4 -16 -8z" />
    <path d="M2220 135 c7 -9 15 -13 17 -11 7 7 -7 26 -19 26 l-10 0 12 -15z" />
    <path d="M250 130 c0 -7 3 -10 7 -7 3 4 3 10 0 14 -4 3 -7 0 -7 -7z" />
    <path d="M740 130 c0 -7 3 -10 7 -7 3 4 3 10 0 14 -4 3 -7 0 -7 -7z" />
    <path d="M850 130 c0 -7 3 -10 7 -7 3 4 3 10 0 14 -4 3 -7 0 -7 -7z" />
    <path d="M880 135 c0 -3 2 -5 5 -5 3 0 5 2 5 5 0 3 -2 5 -5 5 -3 0 -5 -2 -5
-5z" />
    <path d="M1390 135 c0 -3 2 -5 5 -5 3 0 5 2 5 5 0 3 -2 5 -5 5 -3 0 -5 -2 -5
-5z" />
    <path d="M1610 130 c0 -7 3 -10 7 -7 3 4 3 10 0 14 -4 3 -7 0 -7 -7z" />
    <path d="M1790 130 c0 -7 3 -10 7 -7 3 4 3 10 0 14 -4 3 -7 0 -7 -7z" />
    <path d="M1810 135 c0 -3 2 -5 5 -5 3 0 5 2 5 5 0 3 -2 5 -5 5 -3 0 -5 -2 -5
-5z" />
    <path d="M2370 135 c0 -3 2 -5 5 -5 3 0 5 2 5 5 0 3 -2 5 -5 5 -3 0 -5 -2 -5
-5z" />
    <path d="M277 118 c2 -5 44 -8 93 -8 49 0 91 3 93 8 3 4 -39 7 -93 7 -54 0
-96 -3 -93 -7z" />
    <path d="M650 125 c0 -3 2 -5 5 -5 3 0 5 2 5 5 0 3 -2 5 -5 5 -3 0 -5 -2 -5
-5z" />
    <path d="M760 120 c0 -7 3 -10 7 -7 3 4 3 10 0 14 -4 3 -7 0 -7 -7z" />
    <path d="M814 118 l-7 -11 11 7 c7 4 12 9 12 12 0 8 -9 4 -16 -8z" />
    <path d="M970 125 c0 -3 2 -5 5 -5 3 0 5 2 5 5 0 3 -2 5 -5 5 -3 0 -5 -2 -5
-5z" />
    <path d="M1150 125 c0 -3 2 -5 5 -5 3 0 5 2 5 5 0 3 -2 5 -5 5 -3 0 -5 -2 -5
-5z" />
    <path d="M1930 125 c0 -3 2 -5 5 -5 3 0 5 2 5 5 0 3 -2 5 -5 5 -3 0 -5 -2 -5
-5z" />
    <path d="M2250 120 c0 -7 3 -10 7 -7 3 4 3 10 0 14 -4 3 -7 0 -7 -7z" />
    <path d="M2304 118 l-7 -11 11 7 c7 4 12 9 12 12 0 8 -9 4 -16 -8z" />
    <path d="M2340 125 c0 -3 2 -5 5 -5 3 0 5 2 5 5 0 3 -2 5 -5 5 -3 0 -5 -2 -5
-5z" />
  </g>
  <g transform="translate(0.000000,138.000000) scale(0.100000,-0.100000)" fill="#424343" stroke="none">
    <path d="M584 360 c0 -113 2 -159 3 -102 2 56 2 148 0 205 -1 56 -3 10 -3
-103z" />
    <path d="M900 555 c0 -3 2 -5 5 -5 3 0 5 2 5 5 0 3 -2 5 -5 5 -3 0 -5 -2 -5
-5z" />
    <path d="M1150 555 c0 -3 2 -5 5 -5 3 0 5 2 5 5 0 3 -2 5 -5 5 -3 0 -5 -2 -5
-5z" />
    <path d="M1280 555 c0 -3 2 -5 5 -5 3 0 5 2 5 5 0 3 -2 5 -5 5 -3 0 -5 -2 -5
-5z" />
    <path d="M1480 555 c0 -3 2 -5 5 -5 3 0 5 2 5 5 0 3 -2 5 -5 5 -3 0 -5 -2 -5
-5z" />
    <path d="M2390 555 c0 -3 2 -5 5 -5 3 0 5 2 5 5 0 3 -2 5 -5 5 -3 0 -5 -2 -5
-5z" />
    <path d="M470 545 c0 -3 2 -5 5 -5 3 0 5 2 5 5 0 3 -2 5 -5 5 -3 0 -5 -2 -5
-5z" />
    <path d="M1350 545 c0 -3 2 -5 5 -5 3 0 5 2 5 5 0 3 -2 5 -5 5 -3 0 -5 -2 -5
-5z" />
    <path d="M1080 525 c0 -3 2 -5 5 -5 3 0 5 2 5 5 0 3 -2 5 -5 5 -3 0 -5 -2 -5
-5z" />
    <path d="M1360 505 c0 -3 2 -5 5 -5 3 0 5 2 5 5 0 3 -2 5 -5 5 -3 0 -5 -2 -5
-5z" />
    <path d="M1470 505 c0 -3 2 -5 5 -5 3 0 5 2 5 5 0 3 -2 5 -5 5 -3 0 -5 -2 -5
-5z" />
    <path d="M1540 505 c0 -3 2 -5 5 -5 3 0 5 2 5 5 0 3 -2 5 -5 5 -3 0 -5 -2 -5
-5z" />
    <path d="M220 495 c0 -3 2 -5 5 -5 3 0 5 2 5 5 0 3 -2 5 -5 5 -3 0 -5 -2 -5
-5z" />
    <path d="M1160 495 c0 -3 2 -5 5 -5 3 0 5 2 5 5 0 3 -2 5 -5 5 -3 0 -5 -2 -5
-5z" />
    <path d="M300 485 c0 -3 2 -5 5 -5 3 0 5 2 5 5 0 3 -2 5 -5 5 -3 0 -5 -2 -5
-5z" />
    <path d="M430 485 c0 -3 2 -5 5 -5 3 0 5 2 5 5 0 3 -2 5 -5 5 -3 0 -5 -2 -5
-5z" />
    <path d="M1090 480 c0 -7 3 -10 7 -7 3 4 3 10 0 14 -4 3 -7 0 -7 -7z" />
    <path d="M294 360 c0 -58 1 -81 3 -52 2 28 2 76 0 105 -2 28 -3 5 -3 -53z" />
    <path d="M1460 455 c0 -3 2 -5 5 -5 3 0 5 2 5 5 0 3 -2 5 -5 5 -3 0 -5 -2 -5
-5z" />
    <path d="M1530 445 c0 -3 2 -5 5 -5 3 0 5 2 5 5 0 3 -2 5 -5 5 -3 0 -5 -2 -5
-5z" />
    <path d="M770 435 c0 -3 2 -5 5 -5 3 0 5 2 5 5 0 3 -2 5 -5 5 -3 0 -5 -2 -5
-5z" />
    <path d="M798 433 c7 -3 16 -2 19 1 4 3 -2 6 -13 5 l-19 -1 13 -5z" />
    <path d="M1380 435 c0 -3 2 -5 5 -5 3 0 5 2 5 5 0 3 -2 5 -5 5 -3 0 -5 -2 -5
-5z" />
    <path d="M2260 435 c0 -3 2 -5 5 -5 3 0 5 2 5 5 0 3 -2 5 -5 5 -3 0 -5 -2 -5
-5z" />
    <path d="M2293 433 c4 -3 10 -3 14 0 3 4 0 7 -7 7 -7 0 -10 -3 -7 -7z" />
    <path d="M840 425 c0 -3 2 -5 5 -5 3 0 5 2 5 5 0 3 -2 5 -5 5 -3 0 -5 -2 -5
-5z" />
    <path d="M1170 425 c0 -3 2 -5 5 -5 3 0 5 2 5 5 0 3 -2 5 -5 5 -3 0 -5 -2 -5
-5z" />
    <path d="M1310 425 c0 -3 2 -5 5 -5 3 0 5 2 5 5 0 3 -2 5 -5 5 -3 0 -5 -2 -5
-5z" />
    <path d="M2100 425 c0 -3 2 -5 5 -5 3 0 5 2 5 5 0 3 -2 5 -5 5 -3 0 -5 -2 -5
-5z" />
    <path d="M2330 425 c0 -3 2 -5 5 -5 3 0 5 2 5 5 0 3 -2 5 -5 5 -3 0 -5 -2 -5
-5z" />
    <path d="M870 415 c0 -3 2 -5 5 -5 3 0 5 2 5 5 0 3 -2 5 -5 5 -3 0 -5 -2 -5
-5z" />
    <path d="M1100 415 c0 -3 2 -5 5 -5 3 0 5 2 5 5 0 3 -2 5 -5 5 -3 0 -5 -2 -5
-5z" />
    <path d="M2120 415 c0 -3 2 -5 5 -5 3 0 5 2 5 5 0 3 -2 5 -5 5 -3 0 -5 -2 -5
-5z" />
    <path d="M2360 415 c0 -3 2 -5 5 -5 3 0 5 2 5 5 0 3 -2 5 -5 5 -3 0 -5 -2 -5
-5z" />
    <path d="M1300 405 c0 -3 2 -5 5 -5 3 0 5 2 5 5 0 3 -2 5 -5 5 -3 0 -5 -2 -5
-5z" />
    <path d="M1330 395 c0 -3 2 -5 5 -5 3 0 5 2 5 5 0 3 -2 5 -5 5 -3 0 -5 -2 -5
-5z" />
    <path d="M1390 395 c0 -3 2 -5 5 -5 3 0 5 2 5 5 0 3 -2 5 -5 5 -3 0 -5 -2 -5
-5z" />
    <path d="M1450 390 c0 -7 3 -10 7 -7 3 4 3 10 0 14 -4 3 -7 0 -7 -7z" />
    <path d="M1520 395 c0 -3 2 -5 5 -5 3 0 5 2 5 5 0 3 -2 5 -5 5 -3 0 -5 -2 -5
-5z" />
    <path d="M1832 370 c0 -14 2 -19 5 -12 2 6 2 18 0 25 -3 6 -5 1 -5 -13z" />
    <path d="M800 375 c0 -3 2 -5 5 -5 3 0 5 2 5 5 0 3 -2 5 -5 5 -3 0 -5 -2 -5
-5z" />
    <path d="M1230 375 c0 -3 2 -5 5 -5 3 0 5 2 5 5 0 3 -2 5 -5 5 -3 0 -5 -2 -5
-5z" />
    <path d="M1894 275 c0 -60 1 -84 3 -52 2 32 2 81 0 110 -2 29 -3 3 -3 -58z" />
    <path d="M1110 365 c0 -3 2 -5 5 -5 3 0 5 2 5 5 0 3 -2 5 -5 5 -3 0 -5 -2 -5
-5z" />
    <path d="M1180 365 c0 -3 2 -5 5 -5 3 0 5 2 5 5 0 3 -2 5 -5 5 -3 0 -5 -2 -5
-5z" />
    <path d="M1290 365 c0 -3 2 -5 5 -5 3 0 5 2 5 5 0 3 -2 5 -5 5 -3 0 -5 -2 -5
-5z" />
    <path d="M2070 365 c0 -3 2 -5 5 -5 3 0 5 2 5 5 0 3 -2 5 -5 5 -3 0 -5 -2 -5
-5z" />
    <path d="M2280 365 c0 -3 2 -5 5 -5 3 0 5 2 5 5 0 3 -2 5 -5 5 -3 0 -5 -2 -5
-5z" />
    <path d="M2340 365 c0 -3 2 -5 5 -5 3 0 5 2 5 5 0 3 -2 5 -5 5 -3 0 -5 -2 -5
-5z" />
    <path d="M1960 355 c0 -3 2 -5 5 -5 3 0 5 2 5 5 0 3 -2 5 -5 5 -3 0 -5 -2 -5
-5z" />
    <path d="M890 345 c0 -3 2 -5 5 -5 3 0 5 2 5 5 0 3 -2 5 -5 5 -3 0 -5 -2 -5
-5z" />
    <path d="M1340 345 c0 -3 2 -5 5 -5 3 0 5 2 5 5 0 3 -2 5 -5 5 -3 0 -5 -2 -5
-5z" />
    <path d="M1763 275 c0 -44 2 -61 4 -37 2 23 2 59 0 80 -2 20 -4 1 -4 -43z" />
    <path d="M2380 345 c0 -3 2 -5 5 -5 3 0 5 2 5 5 0 3 -2 5 -5 5 -3 0 -5 -2 -5
-5z" />
    <path d="M1220 335 c0 -3 2 -5 5 -5 3 0 5 2 5 5 0 3 -2 5 -5 5 -3 0 -5 -2 -5
-5z" />
    <path d="M1280 335 c0 -3 2 -5 5 -5 3 0 5 2 5 5 0 3 -2 5 -5 5 -3 0 -5 -2 -5
-5z" />
    <path d="M1834 255 c0 -50 1 -71 3 -48 2 23 2 64 0 90 -2 26 -3 8 -3 -42z" />
    <path d="M1440 325 c0 -3 2 -5 5 -5 3 0 5 2 5 5 0 3 -2 5 -5 5 -3 0 -5 -2 -5
-5z" />
    <path d="M1510 325 c0 -3 2 -5 5 -5 3 0 5 2 5 5 0 3 -2 5 -5 5 -3 0 -5 -2 -5
-5z" />
    <path d="M1350 315 c0 -3 2 -5 5 -5 3 0 5 2 5 5 0 3 -2 5 -5 5 -3 0 -5 -2 -5
-5z" />
    <path d="M1120 305 c0 -3 2 -5 5 -5 3 0 5 2 5 5 0 3 -2 5 -5 5 -3 0 -5 -2 -5
-5z" />
    <path d="M1190 305 c0 -3 2 -5 5 -5 3 0 5 2 5 5 0 3 -2 5 -5 5 -3 0 -5 -2 -5
-5z" />
    <path d="M1210 305 c0 -3 2 -5 5 -5 3 0 5 2 5 5 0 3 -2 5 -5 5 -3 0 -5 -2 -5
-5z" />
    <path d="M1270 295 c0 -3 2 -5 5 -5 3 0 5 2 5 5 0 3 -2 5 -5 5 -3 0 -5 -2 -5
-5z" />
    <path d="M1425 280 c3 -5 8 -10 11 -10 3 0 2 5 -1 10 -3 6 -8 10 -11 10 -3 0
-2 -4 1 -10z" />
    <path d="M1500 280 c0 -7 3 -10 7 -7 3 4 3 10 0 14 -4 3 -7 0 -7 -7z" />
    <path d="M1200 275 c0 -3 2 -5 5 -5 3 0 5 2 5 5 0 3 -2 5 -5 5 -3 0 -5 -2 -5
-5z" />
    <path d="M1130 250 c0 -7 3 -10 7 -7 3 4 3 10 0 14 -4 3 -7 0 -7 -7z" />
    <path d="M1260 255 c0 -3 2 -5 5 -5 3 0 5 2 5 5 0 3 -2 5 -5 5 -3 0 -5 -2 -5
-5z" />
    <path d="M290 225 c0 -3 2 -5 5 -5 3 0 5 2 5 5 0 3 -2 5 -5 5 -3 0 -5 -2 -5
-5z" />
    <path d="M1490 225 c0 -3 2 -5 5 -5 3 0 5 2 5 5 0 3 -2 5 -5 5 -3 0 -5 -2 -5
-5z" />
    <path d="M880 210 c0 -7 3 -10 7 -7 3 4 3 10 0 14 -4 3 -7 0 -7 -7z" />
    <path d="M1250 210 c0 -7 3 -10 7 -7 3 4 3 10 0 14 -4 3 -7 0 -7 -7z" />
    <path d="M860 195 c0 -3 2 -5 5 -5 3 0 5 2 5 5 0 3 -2 5 -5 5 -3 0 -5 -2 -5
-5z" />
    <path d="M2350 195 c0 -3 2 -5 5 -5 3 0 5 2 5 5 0 3 -2 5 -5 5 -3 0 -5 -2 -5
-5z" />
    <path d="M338 183 c17 -2 47 -2 65 0 17 2 3 4 -33 4 -36 0 -50 -2 -32 -4z" />
    <path d="M1140 185 c0 -3 2 -5 5 -5 3 0 5 2 5 5 0 3 -2 5 -5 5 -3 0 -5 -2 -5
-5z" />
    <path d="M1730 185 c0 -3 2 -5 5 -5 3 0 5 2 5 5 0 3 -2 5 -5 5 -3 0 -5 -2 -5
-5z" />
    <path d="M1993 183 c4 -3 10 -3 14 0 3 4 0 7 -7 7 -7 0 -10 -3 -7 -7z" />
    <path d="M2150 185 c0 -3 2 -5 5 -5 3 0 5 2 5 5 0 3 -2 5 -5 5 -3 0 -5 -2 -5
-5z" />
    <path d="M2320 185 c0 -3 2 -5 5 -5 3 0 5 2 5 5 0 3 -2 5 -5 5 -3 0 -5 -2 -5
-5z" />
    <path d="M220 175 c0 -3 2 -5 5 -5 3 0 5 2 5 5 0 3 -2 5 -5 5 -3 0 -5 -2 -5
-5z" />
    <path d="M510 165 c0 -3 2 -5 5 -5 3 0 5 2 5 5 0 3 -2 5 -5 5 -3 0 -5 -2 -5
-5z" />
    <path d="M1240 165 c0 -3 2 -5 5 -5 3 0 5 2 5 5 0 3 -2 5 -5 5 -3 0 -5 -2 -5
-5z" />
    <path d="M720 155 c0 -3 2 -5 5 -5 3 0 5 2 5 5 0 3 -2 5 -5 5 -3 0 -5 -2 -5
-5z" />
    <path d="M1480 155 c0 -3 2 -5 5 -5 3 0 5 2 5 5 0 3 -2 5 -5 5 -3 0 -5 -2 -5
-5z" />
    <path d="M1585 150 c3 -5 8 -10 11 -10 3 0 2 5 -1 10 -3 6 -8 10 -11 10 -3 0
-2 -4 1 -10z" />
    <path d="M580 145 c0 -3 2 -5 5 -5 3 0 5 2 5 5 0 3 -2 5 -5 5 -3 0 -5 -2 -5
-5z" />
    <path d="M1150 145 c0 -3 2 -5 5 -5 3 0 5 2 5 5 0 3 -2 5 -5 5 -3 0 -5 -2 -5
-5z" />
    <path d="M2225 140 c3 -5 8 -10 11 -10 3 0 2 5 -1 10 -3 6 -8 10 -11 10 -3 0
-2 -4 1 -10z" />
    <path d="M250 135 c0 -3 2 -5 5 -5 3 0 5 2 5 5 0 3 -2 5 -5 5 -3 0 -5 -2 -5
-5z" />
    <path d="M480 135 c0 -3 2 -5 5 -5 3 0 5 2 5 5 0 3 -2 5 -5 5 -3 0 -5 -2 -5
-5z" />
    <path d="M740 135 c0 -3 2 -5 5 -5 3 0 5 2 5 5 0 3 -2 5 -5 5 -3 0 -5 -2 -5
-5z" />
    <path d="M850 135 c0 -3 2 -5 5 -5 3 0 5 2 5 5 0 3 -2 5 -5 5 -3 0 -5 -2 -5
-5z" />
    <path d="M1230 135 c0 -3 2 -5 5 -5 3 0 5 2 5 5 0 3 -2 5 -5 5 -3 0 -5 -2 -5
-5z" />
    <path d="M1610 135 c0 -3 2 -5 5 -5 3 0 5 2 5 5 0 3 -2 5 -5 5 -3 0 -5 -2 -5
-5z" />
    <path d="M1790 135 c0 -3 2 -5 5 -5 3 0 5 2 5 5 0 3 -2 5 -5 5 -3 0 -5 -2 -5
-5z" />
    <path d="M2110 135 c0 -3 2 -5 5 -5 3 0 5 2 5 5 0 3 -2 5 -5 5 -3 0 -5 -2 -5
-5z" />
    <path d="M270 125 c0 -3 2 -5 5 -5 3 0 5 2 5 5 0 3 -2 5 -5 5 -3 0 -5 -2 -5
-5z" />
    <path d="M453 123 c4 -3 10 -3 14 0 3 4 0 7 -7 7 -7 0 -10 -3 -7 -7z" />
    <path d="M760 125 c0 -3 2 -5 5 -5 3 0 5 2 5 5 0 3 -2 5 -5 5 -3 0 -5 -2 -5
-5z" />
    <path d="M820 125 c0 -3 2 -5 5 -5 3 0 5 2 5 5 0 3 -2 5 -5 5 -3 0 -5 -2 -5
-5z" />
    <path d="M2250 125 c0 -3 2 -5 5 -5 3 0 5 2 5 5 0 3 -2 5 -5 5 -3 0 -5 -2 -5
-5z" />
    <path d="M2310 125 c0 -3 2 -5 5 -5 3 0 5 2 5 5 0 3 -2 5 -5 5 -3 0 -5 -2 -5
-5z" />
  </g>
  <g transform="translate(0.000000,138.000000) scale(0.100000,-0.100000)" fill="#b8cd63" stroke="none">
    <path d="M1220 1124 c-39 -38 -96 -92 -126 -121 l-54 -52 0 -19 0 -19 91 -84
c49 -46 106 -101 126 -121 l36 -38 21 0 21 0 60 61 c33 33 69 68 80 77 43 37
105 105 105 116 -1 6 -20 -10 -43 -36 -24 -27 -51 -48 -60 -48 -9 0 -17 -5
-17 -10 0 -13 -33 -50 -93 -106 l-26 -24 -26 0 -26 0 -26 24 c-63 59 -93 93
-86 100 4 3 -1 6 -10 6 -9 0 -28 12 -42 28 -14 15 -32 34 -40 43 -17 18 -20
69 -5 69 5 0 55 45 110 100 l100 100 30 0 c17 0 30 -4 30 -8 0 -4 15 -22 33
-40 70 -70 189 -182 193 -182 13 0 -8 24 -111 126 l-114 114 -30 6 -29 6 -72
-68z" />
    <path d="M1446 1177 l-17 -13 7 -17 c3 -9 10 -17 16 -17 l9 0 -6 20 -6 20 13
1 c7 1 22 1 33 0 l20 -2 -15 10 c-20 14 -33 14 -54 -2z" />
    <path d="M1520 1162 c0 -6 20 -30 45 -54 139 -132 165 -159 165 -171 0 -7 -15
-29 -34 -49 -19 -20 -32 -39 -29 -41 2 -3 -4 -8 -15 -11 -18 -6 -81 -76 -68
-76 3 0 29 23 57 50 28 28 53 50 56 50 12 0 52 58 53 75 l0 21 -62 58 c-35 32
-87 81 -115 109 -29 28 -53 45 -53 39z" />
    <path d="M1470 1123 c0 -4 41 -46 90 -95 50 -48 90 -92 90 -97 0 -5 -20 -29
-45 -53 -50 -48 -85 -82 -118 -115 l-22 -23 12 0 c11 0 29 16 80 71 12 13 42
43 66 67 l45 43 -5 19 c-3 10 -24 36 -46 58 -23 22 -51 50 -63 63 -24 27 -72
69 -79 69 -3 0 -5 -3 -5 -7z" />
    <path d="M1516 714 c-20 -20 -36 -38 -36 -40 0 -2 4 -4 10 -4 9 0 80 66 80 75
0 14 -22 1 -54 -31z" />
    <path d="M1430 706 c0 -15 18 -31 26 -23 7 7 -7 37 -17 37 -5 0 -9 -6 -9 -14z" />
  </g>
  <g transform="translate(0.000000,138.000000) scale(0.100000,-0.100000)" fill="#d6e09b" stroke="none">
    <path d="M1283 1187 c-7 -7 -19 -18 -28 -25 -8 -7 -15 -17 -15 -23 0 -5 12 2
26 17 l27 26 30 -6 c17 -3 37 -16 45 -28 8 -11 26 -30 39 -42 14 -12 54 -49
90 -83 36 -35 67 -63 69 -63 2 0 1 6 -1 13 -3 6 -19 21 -35 32 -17 11 -33 28
-36 38 -3 9 -10 17 -15 17 -11 0 -99 88 -99 99 0 6 -70 42 -81 41 -2 -1 -9 -6
-16 -13z" />
    <path d="M1460 1190 c0 -5 7 -10 15 -10 8 0 15 5 15 10 0 6 -7 10 -15 10 -8 0
-15 -4 -15 -10z" />
    <path d="M1532 1150 c17 -16 33 -30 36 -30 3 0 -7 14 -23 30 -16 17 -32 30
-37 30 -4 0 6 -13 24 -30z" />
    <path d="M1430 1160 c0 -6 16 -25 36 -43 79 -72 163 -156 172 -174 l11 -19
-35 -36 c-19 -20 -34 -40 -34 -44 0 -3 18 12 40 35 22 22 40 47 40 55 0 7 -16
28 -35 47 -20 19 -71 69 -115 112 -44 42 -80 73 -80 67z" />
    <path d="M1210 1115 c-7 -9 -11 -18 -8 -20 3 -3 11 1 18 10 7 9 11 18 8 20 -3
3 -11 -1 -18 -10z" />
    <path d="M1595 1084 c15 -14 29 -23 32 -20 7 6 -35 46 -48 46 -7 0 0 -11 16
-26z" />
    <path d="M1129 1040 c-28 -27 -55 -50 -58 -50 -4 0 -14 -15 -23 -33 l-16 -34
41 -41 c88 -87 117 -112 117 -102 0 5 -12 20 -26 33 -37 31 -76 69 -97 94
l-19 22 18 30 c10 17 21 31 24 31 8 0 100 88 100 95 0 11 -12 3 -61 -45z" />
    <path d="M1640 1054 c0 -6 23 -31 50 -57 28 -26 50 -52 50 -58 0 -5 -12 -26
-26 -45 -31 -41 -23 -46 11 -6 13 15 25 37 25 48 l0 22 -26 23 c-15 13 -39 37
-55 54 -16 16 -29 25 -29 19z" />
    <path d="M1570 935 c0 -11 -17 -37 -38 -58 -118 -119 -204 -197 -218 -197 -9
0 -29 14 -45 31 -16 17 -29 26 -29 21 0 -20 50 -62 73 -62 l23 0 109 108 c61
59 118 116 127 127 l17 20 -9 15 -10 15 0 -20z" />
    <path d="M1637 819 c-20 -17 -37 -35 -37 -41 0 -6 8 -1 19 10 10 12 22 22 27
22 5 0 15 9 22 20 7 11 11 20 9 20 -1 0 -19 -14 -40 -31z" />
    <path d="M1535 815 c-14 -14 -25 -31 -25 -37 0 -6 1 -9 3 -7 1 2 15 19 31 37
35 38 28 43 -9 7z" />
    <path d="M1200 762 c0 -12 19 -26 26 -19 2 2 -2 10 -11 17 l-15 12 0 -10z" />
    <path d="M1485 760 c-3 -5 -1 -10 4 -10 6 0 11 5 11 10 0 6 -2 10 -4 10 -3 0
-8 -4 -11 -10z" />
    <path d="M1540 725 c-46 -47 -69 -55 -89 -31 l-12 14 11 7 c5 3 10 11 10 16 0
6 -7 4 -15 -5 -8 -8 -15 -21 -15 -29 0 -13 28 -27 57 -27 13 0 107 89 101 96
-2 2 -24 -17 -48 -41z" />
  </g>
  <g transform="translate(0.000000,138.000000) scale(0.100000,-0.100000)" fill="#edf0c6" stroke="none">
    <path d="M1290 1192 c0 -4 9 -8 20 -9 l20 -2 -5 10 c-7 11 -35 12 -35 1z" />
    <path d="M1460 1190 c0 -5 7 -7 15 -4 8 4 15 8 15 10 0 2 -7 4 -15 4 -8 0 -15
-4 -15 -10z" />
    <path d="M1270 1175 c0 -3 2 -5 5 -5 3 0 5 2 5 5 0 3 -2 5 -5 5 -3 0 -5 -2 -5
-5z" />
    <path d="M1367 1156 c20 -26 27 -28 17 -3 -3 8 -12 18 -20 21 l-15 6 18 -24z" />
    <path d="M1435 1170 c-3 -5 -2 -18 4 -27 l9 -17 -1 27 c-1 15 -3 27 -4 27 -1
0 -5 -4 -8 -10z" />
    <path d="M1510 1175 c0 -3 2 -5 5 -5 3 0 5 2 5 5 0 3 -2 5 -5 5 -3 0 -5 -2 -5
-5z" />
    <path d="M1246 1153 l-7 -18 12 12 c7 7 10 15 7 18 -3 3 -9 -2 -12 -12z" />
    <path d="M1530 1155 c0 -3 2 -5 5 -5 3 0 5 2 5 5 0 3 -2 5 -5 5 -3 0 -5 -2 -5
-5z" />
    <path d="M1550 1135 c0 -3 2 -5 5 -5 3 0 5 2 5 5 0 3 -2 5 -5 5 -3 0 -5 -2 -5
-5z" />
    <path d="M1400 1125 c0 -3 2 -5 5 -5 3 0 5 2 5 5 0 3 -2 5 -5 5 -3 0 -5 -2 -5
-5z" />
    <path d="M1460 1121 c0 -5 7 -12 16 -15 l17 -6 -13 15 c-14 17 -20 19 -20 6z" />
    <path d="M1204 1108 l-7 -11 11 7 c12 7 16 16 8 16 -3 0 -8 -5 -12 -12z" />
    <path d="M1420 1100 c0 -7 3 -10 7 -7 3 4 3 10 0 14 -4 3 -7 0 -7 -7z" />
    <path d="M1580 1106 c0 -2 7 -9 15 -16 l15 -13 -6 17 c-3 9 -10 16 -15 16 -5
0 -9 -2 -9 -4z" />
    <path d="M1180 1085 c0 -3 2 -5 5 -5 3 0 5 2 5 5 0 3 -2 5 -5 5 -3 0 -5 -2 -5
-5z" />
    <path d="M1440 1085 c0 -3 2 -5 5 -5 3 0 5 2 5 5 0 3 -2 5 -5 5 -3 0 -5 -2 -5
-5z" />
    <path d="M1500 1085 c0 -3 2 -5 5 -5 3 0 5 2 5 5 0 3 -2 5 -5 5 -3 0 -5 -2 -5
-5z" />
    <path d="M1160 1070 c0 -7 3 -10 7 -7 3 4 3 10 0 14 -4 3 -7 0 -7 -7z" />
    <path d="M1520 1070 c0 -7 3 -10 7 -7 3 4 3 10 0 14 -4 3 -7 0 -7 -7z" />
    <path d="M1620 1070 c0 -7 3 -10 7 -7 3 4 3 10 0 14 -4 3 -7 0 -7 -7z" />
    <path d="M1130 1045 c-7 -9 -11 -17 -9 -20 3 -2 10 5 17 15 14 24 10 26 -8 5z" />
    <path d="M1480 1051 c0 -6 4 -13 10 -16 l10 -6 -6 15 c-7 18 -14 21 -14 7z" />
    <path d="M1540 1053 c0 -5 12 -20 28 -34 l27 -24 -25 30 c-14 17 -26 32 -27
34 -2 2 -3 0 -3 -6z" />
    <path d="M1640 1056 c0 -2 8 -10 18 -17 l17 -14 -14 18 c-13 16 -21 21 -21 13z" />
    <path d="M1510 1015 c0 -3 2 -5 5 -5 3 0 5 2 5 5 0 3 -2 5 -5 5 -3 0 -5 -2 -5
-5z" />
    <path d="M1085 1000 l-6 -10 15 6 c18 7 21 14 7 14 -6 0 -13 -4 -16 -10z" />
    <path d="M1695 1000 c3 -5 8 -10 11 -10 3 0 2 5 -1 10 -3 6 -8 10 -11 10 -3 0
-2 -4 1 -10z" />
    <path d="M1530 995 c0 -3 2 -5 5 -5 3 0 5 2 5 5 0 3 -2 5 -5 5 -3 0 -5 -2 -5
-5z" />
    <path d="M1048 956 l-17 -34 32 -28 32 -29 -27 30 -26 30 15 28 c8 16 13 31
11 33 -3 2 -12 -11 -20 -30z" />
    <path d="M1550 980 c0 -7 3 -10 7 -7 3 4 3 10 0 14 -4 3 -7 0 -7 -7z" />
    <path d="M1610 980 c0 -7 3 -10 7 -7 3 4 3 10 0 14 -4 3 -7 0 -7 -7z" />
    <path d="M1720 983 c0 -6 8 -17 18 -24 l17 -14 -15 20 c-8 11 -16 22 -17 24
-2 2 -3 0 -3 -6z" />
    <path d="M1630 965 c0 -5 5 -17 10 -25 5 -8 10 -10 10 -5 0 6 -5 17 -10 25 -5
8 -10 11 -10 5z" />
    <path d="M1570 945 c0 -3 2 -5 5 -5 3 0 5 2 5 5 0 3 -2 5 -5 5 -3 0 -5 -2 -5
-5z" />
    <path d="M1575 920 l-6 -10 15 6 c18 7 21 14 7 14 -6 0 -13 -4 -16 -10z" />
    <path d="M1634 908 l-7 -11 11 7 c12 7 16 16 8 16 -3 0 -8 -5 -12 -12z" />
    <path d="M1729 903 l-14 -18 18 14 c16 13 21 21 13 21 -2 0 -10 -8 -17 -17z" />
    <path d="M1550 885 c0 -3 2 -5 5 -5 3 0 5 2 5 5 0 3 -2 5 -5 5 -3 0 -5 -2 -5
-5z" />
    <path d="M1610 885 c0 -3 2 -5 5 -5 3 0 5 2 5 5 0 3 -2 5 -5 5 -3 0 -5 -2 -5
-5z" />
    <path d="M1700 870 c0 -7 3 -10 7 -7 3 4 3 10 0 14 -4 3 -7 0 -7 -7z" />
    <path d="M1524 858 l-7 -11 11 7 c12 7 16 16 8 16 -3 0 -8 -5 -12 -12z" />
    <path d="M1100 850 c0 -7 3 -10 7 -7 3 4 3 10 0 14 -4 3 -7 0 -7 -7z" />
    <path d="M1580 855 c0 -3 2 -5 5 -5 3 0 5 2 5 5 0 3 -2 5 -5 5 -3 0 -5 -2 -5
-5z" />
    <path d="M1120 835 c0 -3 2 -5 5 -5 3 0 5 2 5 5 0 3 -2 5 -5 5 -3 0 -5 -2 -5
-5z" />
    <path d="M1500 835 c0 -3 2 -5 5 -5 3 0 5 2 5 5 0 3 -2 5 -5 5 -3 0 -5 -2 -5
-5z" />
    <path d="M1560 835 c0 -3 2 -5 5 -5 3 0 5 2 5 5 0 3 -2 5 -5 5 -3 0 -5 -2 -5
-5z" />
    <path d="M1480 820 c0 -7 3 -10 7 -7 3 4 3 10 0 14 -4 3 -7 0 -7 -7z" />
    <path d="M1540 820 c0 -7 3 -10 7 -7 3 4 3 10 0 14 -4 3 -7 0 -7 -7z" />
    <path d="M1645 820 c-3 -5 -1 -10 4 -10 6 0 11 5 11 10 0 6 -2 10 -4 10 -3 0
-8 -4 -11 -10z" />
    <path d="M1140 815 c0 -3 2 -5 5 -5 3 0 5 2 5 5 0 3 -2 5 -5 5 -3 0 -5 -2 -5
-5z" />
    <path d="M1160 800 c0 -7 3 -10 7 -7 3 4 3 10 0 14 -4 3 -7 0 -7 -7z" />
    <path d="M1460 805 c0 -3 2 -5 5 -5 3 0 5 2 5 5 0 3 -2 5 -5 5 -3 0 -5 -2 -5
-5z" />
    <path d="M1516 793 l-7 -18 12 12 c7 7 10 15 7 18 -3 3 -9 -2 -12 -12z" />
    <path d="M1620 795 c0 -3 2 -5 5 -5 3 0 5 2 5 5 0 3 -2 5 -5 5 -3 0 -5 -2 -5
-5z" />
    <path d="M1440 780 c0 -7 3 -10 7 -7 3 4 3 10 0 14 -4 3 -7 0 -7 -7z" />
    <path d="M1180 775 c0 -3 2 -5 5 -5 3 0 5 2 5 5 0 3 -2 5 -5 5 -3 0 -5 -2 -5
-5z" />
    <path d="M1600 775 c0 -3 2 -5 5 -5 3 0 5 2 5 5 0 3 -2 5 -5 5 -3 0 -5 -2 -5
-5z" />
    <path d="M1420 760 c0 -7 3 -10 7 -7 3 4 3 10 0 14 -4 3 -7 0 -7 -7z" />
    <path d="M1205 750 c3 -5 8 -10 11 -10 3 0 2 5 -1 10 -3 6 -8 10 -11 10 -3 0
-2 -4 1 -10z" />
    <path d="M1464 744 l-19 -15 23 11 c12 6 22 13 22 15 0 8 -5 6 -26 -11z" />
    <path d="M1580 755 c0 -3 2 -5 5 -5 3 0 5 2 5 5 0 3 -2 5 -5 5 -3 0 -5 -2 -5
-5z" />
    <path d="M1370 715 c-13 -14 -22 -27 -19 -29 2 -2 14 10 27 25 29 36 24 38 -8
4z" />
    <path d="M1550 730 c0 -7 3 -10 7 -7 3 4 3 10 0 14 -4 3 -7 0 -7 -7z" />
    <path d="M1246 717 c3 -10 9 -15 12 -12 3 3 0 11 -7 18 l-12 12 7 -18z" />
    <path d="M1430 700 c0 -11 4 -20 9 -20 5 0 7 9 4 20 -3 11 -7 20 -9 20 -2 0
-4 -9 -4 -20z" />
    <path d="M1530 710 c0 -7 3 -10 7 -7 3 4 3 10 0 14 -4 3 -7 0 -7 -7z" />
    <path d="M1270 685 c0 -3 2 -5 5 -5 3 0 5 2 5 5 0 3 -2 5 -5 5 -3 0 -5 -2 -5
-5z" />
    <path d="M1510 685 c0 -3 2 -5 5 -5 3 0 5 2 5 5 0 3 -2 5 -5 5 -3 0 -5 -2 -5
-5z" />
    <path d="M1290 675 c0 -3 2 -5 5 -5 3 0 5 2 5 5 0 3 -2 5 -5 5 -3 0 -5 -2 -5
-5z" />
    <path d="M1330 675 c0 -3 2 -5 5 -5 3 0 5 2 5 5 0 3 -2 5 -5 5 -3 0 -5 -2 -5
-5z" />
    <path d="M1490 675 c0 -3 2 -5 5 -5 3 0 5 2 5 5 0 3 -2 5 -5 5 -3 0 -5 -2 -5
-5z" />
  </g>
</svg>