<?xml version="1.0" standalone="no"?>
<!DOCTYPE svg PUBLIC "-//W3C//DTD SVG 20010904//EN"
 "http://www.w3.org/TR/2001/REC-SVG-20010904/DTD/svg10.dtd">
<svg version="1.0" xmlns="http://www.w3.org/2000/svg"
 width="260.000000pt" height="138.000000pt" viewBox="0 0 260.000000 138.000000"
 preserveAspectRatio="xMidYMid meet">
<metadata>
Created by potrace 1.16, written by Peter Selinger 2001-2019
</metadata>
<g transform="translate(0.000000,138.000000) scale(0.100000,-0.100000)"
fill="#000000" stroke="none">
<path d="M263 550 c-38 -15 -43 -41 -43 -219 0 -215 -3 -211 142 -211 69 0
108 5 128 15 l30 16 0 173 c0 96 -3 182 -6 191 -12 30 -59 45 -146 44 -46 0
-93 -4 -105 -9z m172 -210 l0 -145 -67 -3 -68 -3 0 144 c0 79 3 147 7 151 4 4
34 6 68 4 l60 -3 0 -145z"/>
<path d="M582 343 l3 -218 33 -3 c21 -2 32 1 33 10 0 12 0 403 -1 421 0 4 -16
7 -35 7 l-35 0 2 -217z"/>
<path d="M900 489 l0 -71 -27 6 c-77 18 -103 18 -128 2 -25 -16 -25 -19 -25
-145 0 -111 2 -130 18 -144 22 -20 75 -22 122 -5 26 9 35 9 38 0 2 -7 19 -12
38 -12 l34 0 0 220 0 220 -35 0 -35 0 0 -71z m-35 -133 c34 -14 35 -17 35 -68
-1 -60 -12 -80 -55 -95 -50 -17 -55 -9 -55 81 0 46 3 86 7 89 10 11 30 8 68
-7z"/>
<path d="M1080 550 c0 -29 73 -416 80 -423 4 -5 23 -7 41 -5 l34 3 31 120 c17
66 34 133 38 149 4 17 11 25 16 20 7 -7 44 -141 74 -266 6 -25 11 -28 46 -28
28 0 40 5 44 18 3 9 19 100 36 202 17 102 33 193 36 203 4 14 -1 17 -34 17
l-40 0 -15 -87 c-9 -49 -19 -110 -23 -136 -3 -27 -10 -45 -14 -40 -9 9 -70
226 -70 248 0 11 -11 15 -39 15 l-38 0 -38 -137 c-26 -93 -40 -130 -45 -117
-4 10 -15 72 -25 137 l-17 117 -39 0 c-21 0 -39 -4 -39 -10z"/>
<path d="M2390 485 l0 -74 -41 14 c-59 21 -92 19 -117 -8 -20 -21 -22 -34 -22
-144 0 -103 3 -122 18 -136 21 -19 77 -22 118 -6 20 7 34 7 50 -1 11 -7 32
-10 45 -8 l24 3 3 218 2 217 -40 0 -40 0 0 -75z m-35 -129 c34 -14 35 -17 35
-68 -1 -61 -15 -85 -58 -97 -43 -13 -52 2 -52 80 0 104 8 113 75 85z"/>
<path d="M1591 404 c-18 -23 -21 -41 -21 -118 0 -114 6 -133 41 -151 43 -23
156 -20 197 5 l32 20 0 119 c0 115 -1 119 -25 135 -18 12 -48 16 -114 16 -85
0 -91 -1 -110 -26z m167 -127 l3 -88 -53 3 -53 3 -3 74 c-4 99 -2 103 55 99
l48 -3 3 -88z"/>
<path d="M1912 410 c-20 -19 -22 -30 -22 -131 0 -103 1 -111 25 -134 21 -22
33 -25 100 -25 79 0 127 16 139 45 3 9 6 63 6 119 0 94 -2 104 -23 124 -20 19
-35 22 -113 22 -77 0 -93 -3 -112 -20z m163 -130 l0 -85 -52 -3 -53 -3 0 84
c0 46 3 87 7 91 4 4 28 6 53 4 l45 -3 0 -85z"/>
</g>
</svg>
