<?xml version="1.0" standalone="no"?>
<!DOCTYPE svg PUBLIC "-//W3C//DTD SVG 20010904//EN"
 "http://www.w3.org/TR/2001/REC-SVG-20010904/DTD/svg10.dtd">
<svg version="1.0" xmlns="http://www.w3.org/2000/svg"
 width="259.000000pt" height="56.000000pt" viewBox="0 0 259.000000 56.000000"
 preserveAspectRatio="xMidYMid meet">
<metadata>
Created by potrace 1.16, written by Peter Selinger 2001-2019
</metadata>
<g transform="translate(0.000000,56.000000) scale(0.100000,-0.100000)"
fill="#000000" stroke="none">
<path d="M32 468 c-18 -18 -17 -351 2 -367 9 -8 68 -11 187 -9 l174 3 0 190 0
190 -175 3 c-128 2 -179 -1 -188 -10z m328 -47 c15 -28 13 -264 -2 -279 -17
-17 -269 -17 -286 0 -17 17 -17 269 0 286 8 8 55 12 145 12 121 0 133 -2 143
-19z"/>
<path d="M80 280 l0 -141 133 3 132 3 3 138 3 137 -136 0 -135 0 0 -140z"/>
<path d="M1569 379 c-14 -14 -19 -30 -17 -52 3 -32 11 -38 83 -69 42 -18 41
-52 -1 -56 -19 -2 -38 3 -48 13 -16 17 -46 14 -46 -3 0 -19 40 -44 77 -49 42
-6 76 15 87 53 8 28 -26 71 -64 79 -37 8 -61 31 -54 50 7 18 55 20 71 4 7 -7
20 -8 30 -5 16 7 15 10 -10 32 -35 30 -80 31 -108 3z"/>
<path d="M550 280 c0 -91 3 -110 15 -110 11 0 15 11 15 40 0 36 3 40 25 40 18
0 30 -10 47 -40 13 -22 31 -40 41 -40 22 0 21 1 -4 45 l-22 36 22 23 c25 26
27 63 5 94 -13 19 -24 22 -80 22 l-64 0 0 -110z"/>
<path d="M1920 280 c0 -91 3 -110 15 -110 11 0 15 11 15 39 0 64 15 93 48 89
26 -3 27 -6 30 -65 3 -55 6 -63 22 -63 18 0 20 7 20 58 0 81 -19 106 -76 99
l-44 -5 0 34 c0 24 -5 34 -15 34 -12 0 -15 -19 -15 -110z"/>
<path d="M755 305 c-27 -27 -33 -79 -12 -106 30 -40 87 -50 126 -23 20 15 21
18 7 26 -10 5 -24 5 -37 -3 -16 -8 -28 -8 -45 0 -41 18 -27 31 35 31 33 0 62
4 65 9 9 14 -15 71 -34 81 -33 18 -79 11 -105 -15z"/>
<path d="M2125 305 c-35 -34 -33 -78 4 -116 38 -38 74 -38 112 0 56 57 23 141
-56 141 -25 0 -44 -8 -60 -25z"/>
<path d="M2322 307 c-26 -28 -29 -82 -7 -114 35 -50 123 -35 146 24 12 32 -5
89 -31 103 -34 18 -85 12 -108 -13z"/>
</g>
</svg>
