<?xml version="1.0" standalone="no"?>
<!DOCTYPE svg PUBLIC "-//W3C//DTD SVG 20010904//EN"
 "http://www.w3.org/TR/2001/REC-SVG-20010904/DTD/svg10.dtd">
<svg version="1.0" xmlns="http://www.w3.org/2000/svg"
 width="202.000000pt" height="160.000000pt" viewBox="0 0 202.000000 160.000000"
 preserveAspectRatio="xMidYMid meet">
<metadata>
Created by potrace 1.16, written by Peter Selinger 2001-2019
</metadata>
<g transform="translate(0.000000,160.000000) scale(0.100000,-0.100000)"
fill="#000000" stroke="none">
<path d="M170 971 l0 -141 40 0 40 0 0 56 c0 47 3 55 18 52 9 -2 30 -27 45
-56 28 -51 29 -52 73 -52 24 0 44 5 44 10 0 15 -29 71 -48 93 -14 16 -14 18 1
30 24 18 38 63 28 90 -16 41 -36 49 -141 54 l-100 6 0 -142z"/>
<path d="M1054 1100 c-26 -10 -54 -48 -54 -71 0 -33 41 -69 95 -85 62 -17 74
-29 52 -51 -20 -21 -64 -10 -72 18 -6 18 -12 20 -43 14 -21 -4 -38 -8 -40 -10
-7 -7 30 -65 47 -75 11 -5 47 -10 81 -10 55 0 65 3 91 29 57 58 32 121 -59
147 -67 19 -83 31 -62 44 22 14 28 12 51 -11 16 -16 28 -20 55 -14 36 6 42 19
21 46 -28 37 -109 51 -163 29z"/>
<path d="M185 755 c-50 -49 -24 -104 65 -133 41 -14 55 -24 55 -38 0 -28 -50
-32 -67 -5 -9 15 -23 21 -50 21 -41 0 -44 -5 -26 -45 32 -72 187 -74 223 -4
33 63 2 110 -85 132 -37 9 -56 19 -58 30 -4 22 40 23 58 2 7 -9 29 -15 51 -15
47 0 51 18 14 55 -21 22 -33 25 -90 25 -57 0 -69 -3 -90 -25z"/>
<path d="M498 751 c-28 -25 -32 -36 -36 -91 -8 -111 46 -168 151 -157 41 3 56
11 79 36 37 41 35 55 -7 68 -31 10 -36 9 -50 -13 -22 -34 -72 -33 -85 2 -32
84 31 164 84 105 16 -17 31 -18 73 -5 20 6 -6 53 -38 70 -16 8 -53 14 -83 14
-47 0 -61 -4 -88 -29z"/>
<path d="M790 640 l0 -140 40 0 39 0 3 58 3 57 42 3 42 3 3 -58 3 -58 40 0 40
0 3 138 3 137 -46 0 -45 0 0 -51 0 -50 -42 3 -43 3 -3 48 -3 47 -40 0 -39 0 0
-140z"/>
<path d="M1153 756 c-55 -46 -67 -142 -27 -204 19 -29 72 -52 119 -52 44 0
103 24 111 45 5 12 11 11 35 -10 56 -46 151 -46 200 1 l27 26 4 -28 3 -29 108
-3 107 -3 0 35 0 35 -62 3 -63 3 -3 103 -3 102 -44 0 c-44 0 -45 -1 -45 -32
-1 -27 -2 -30 -11 -15 -36 61 -190 63 -231 3 -4 -7 -17 -1 -33 14 -21 20 -39
25 -94 28 -61 4 -70 2 -98 -22z"/>
</g>
</svg>
