<svg width="142" height="70" viewBox="0 0 159 76" fill="none" xmlns="http://www.w3.org/2000/svg">
<path d="M1.6875 29V2.81818H12.9886C14.9318 2.81818 16.6321 3.17187 18.0895 3.87926C19.5469 4.58665 20.6804 5.60511 21.4901 6.93466C22.2997 8.2642 22.7045 9.85795 22.7045 11.7159C22.7045 13.5909 22.2869 15.1719 21.4517 16.4588C20.625 17.7457 19.4616 18.7173 17.9616 19.3736C16.4702 20.0298 14.7273 20.358 12.733 20.358H5.98295V14.8352H11.3011C12.1364 14.8352 12.848 14.733 13.4361 14.5284C14.0327 14.3153 14.4886 13.9787 14.804 13.5185C15.1278 13.0582 15.2898 12.4574 15.2898 11.7159C15.2898 10.9659 15.1278 10.3565 14.804 9.88778C14.4886 9.41051 14.0327 9.06108 13.4361 8.83949C12.848 8.60937 12.1364 8.49432 11.3011 8.49432H8.79545V29H1.6875ZM17.0284 16.983L23.5739 29H15.8523L9.46023 16.983H17.0284Z" fill="#161616"/>
<path d="M97.8011 11C97.733 10.1477 97.4134 9.48295 96.8423 9.00568C96.2798 8.52841 95.4233 8.28977 94.2727 8.28977C93.5398 8.28977 92.9389 8.37926 92.4702 8.55824C92.0099 8.72869 91.669 8.96307 91.4474 9.26136C91.2259 9.55966 91.1108 9.90057 91.1023 10.2841C91.0852 10.5994 91.1406 10.8849 91.2685 11.1406C91.4048 11.3878 91.6179 11.6136 91.9077 11.8182C92.1974 12.0142 92.5682 12.1932 93.0199 12.3551C93.4716 12.517 94.0085 12.6619 94.6307 12.7898L96.7784 13.25C98.2273 13.5568 99.4673 13.9616 100.499 14.4645C101.53 14.9673 102.374 15.5597 103.03 16.2415C103.686 16.9148 104.168 17.6733 104.474 18.517C104.79 19.3608 104.952 20.2812 104.96 21.2784C104.952 23 104.521 24.4574 103.669 25.6506C102.817 26.8438 101.598 27.7514 100.013 28.3736C98.4361 28.9957 96.5398 29.3068 94.3239 29.3068C92.0483 29.3068 90.0625 28.9702 88.3665 28.2969C86.679 27.6236 85.3665 26.5881 84.429 25.1903C83.5 23.7841 83.0313 21.9858 83.0227 19.7955H89.7727C89.8153 20.5966 90.0156 21.2699 90.3736 21.8153C90.7315 22.3608 91.2344 22.7741 91.8821 23.0554C92.5384 23.3366 93.3182 23.4773 94.2216 23.4773C94.9801 23.4773 95.6151 23.3835 96.1264 23.196C96.6378 23.0085 97.0256 22.7486 97.2898 22.4162C97.554 22.0838 97.6903 21.7045 97.6989 21.2784C97.6903 20.8778 97.5582 20.5284 97.3026 20.2301C97.0554 19.9233 96.6463 19.6506 96.0753 19.4119C95.5043 19.1648 94.733 18.9347 93.7614 18.7216L91.1534 18.1591C88.8352 17.6562 87.0071 16.8168 85.669 15.6406C84.3395 14.456 83.679 12.8409 83.6875 10.7955C83.679 9.13352 84.1222 7.6804 85.017 6.43608C85.9205 5.18324 87.169 4.20739 88.7628 3.50852C90.3651 2.80966 92.2017 2.46023 94.2727 2.46023C96.3864 2.46023 98.2145 2.81392 99.7571 3.52131C101.3 4.22869 102.489 5.22585 103.324 6.51278C104.168 7.79119 104.594 9.28693 104.602 11H97.8011Z" fill="#161616"/>
<path d="M15.8011 49C15.733 48.1477 15.4134 47.483 14.8423 47.0057C14.2798 46.5284 13.4233 46.2898 12.2727 46.2898C11.5398 46.2898 10.9389 46.3793 10.4702 46.5582C10.0099 46.7287 9.66903 46.9631 9.44744 47.2614C9.22585 47.5597 9.1108 47.9006 9.10227 48.2841C9.08523 48.5994 9.14063 48.8849 9.26847 49.1406C9.40483 49.3878 9.6179 49.6136 9.90767 49.8182C10.1974 50.0142 10.5682 50.1932 11.0199 50.3551C11.4716 50.517 12.0085 50.6619 12.6307 50.7898L14.7784 51.25C16.2273 51.5568 17.4673 51.9616 18.4986 52.4645C19.5298 52.9673 20.3736 53.5597 21.0298 54.2415C21.6861 54.9148 22.1676 55.6733 22.4744 56.517C22.7898 57.3608 22.9517 58.2812 22.9602 59.2784C22.9517 61 22.5213 62.4574 21.669 63.6506C20.8168 64.8438 19.598 65.7514 18.0128 66.3736C16.4361 66.9957 14.5398 67.3068 12.3239 67.3068C10.0483 67.3068 8.0625 66.9702 6.36648 66.2969C4.67898 65.6236 3.36648 64.5881 2.42898 63.1903C1.5 61.7841 1.03125 59.9858 1.02273 57.7955H7.77273C7.81534 58.5966 8.01563 59.2699 8.37358 59.8153C8.73153 60.3608 9.23438 60.7741 9.8821 61.0554C10.5384 61.3366 11.3182 61.4773 12.2216 61.4773C12.9801 61.4773 13.6151 61.3835 14.1264 61.196C14.6378 61.0085 15.0256 60.7486 15.2898 60.4162C15.554 60.0838 15.6903 59.7045 15.6989 59.2784C15.6903 58.8778 15.5582 58.5284 15.3026 58.2301C15.0554 57.9233 14.6463 57.6506 14.0753 57.4119C13.5043 57.1648 12.733 56.9347 11.7614 56.7216L9.15341 56.1591C6.83523 55.6562 5.0071 54.8168 3.66903 53.6406C2.33949 52.456 1.67898 50.8409 1.6875 48.7955C1.67898 47.1335 2.12216 45.6804 3.01705 44.4361C3.92045 43.1832 5.16903 42.2074 6.76278 41.5085C8.36506 40.8097 10.2017 40.4602 12.2727 40.4602C14.3864 40.4602 16.2145 40.8139 17.7571 41.5213C19.2997 42.2287 20.4886 43.2259 21.3239 44.5128C22.1676 45.7912 22.5938 47.2869 22.6023 49H15.8011ZM50.4672 50.6364H43.257C43.2059 50.0398 43.0695 49.4986 42.8479 49.0128C42.6349 48.527 42.3366 48.1094 41.953 47.7599C41.578 47.402 41.1221 47.1293 40.5851 46.9418C40.0482 46.7457 39.4388 46.6477 38.757 46.6477C37.5638 46.6477 36.5539 46.9375 35.7272 47.517C34.909 48.0966 34.2868 48.9276 33.8607 50.0099C33.4431 51.0923 33.2343 52.392 33.2343 53.9091C33.2343 55.5114 33.4474 56.8537 33.8735 57.9361C34.3082 59.0099 34.9346 59.8196 35.7528 60.3651C36.5709 60.902 37.5553 61.1705 38.7059 61.1705C39.3621 61.1705 39.9502 61.0895 40.4701 60.9276C40.99 60.7571 41.4417 60.5142 41.8252 60.1989C42.2087 59.8835 42.5198 59.5043 42.7584 59.0611C43.0056 58.6094 43.1718 58.1023 43.257 57.5398L50.4672 57.5909C50.382 58.6989 50.0709 59.8281 49.534 60.9787C48.9971 62.1207 48.2343 63.1776 47.2457 64.1491C46.2655 65.1122 45.0511 65.8878 43.6022 66.4759C42.1533 67.0639 40.4701 67.358 38.5525 67.358C36.1491 67.358 33.9928 66.8423 32.0837 65.8111C30.1832 64.7798 28.6789 63.2628 27.5709 61.2599C26.4715 59.2571 25.9218 56.8068 25.9218 53.9091C25.9218 50.9943 26.4843 48.5398 27.6093 46.5455C28.7343 44.5426 30.2513 43.0298 32.1604 42.0071C34.0695 40.9759 36.2002 40.4602 38.5525 40.4602C40.2059 40.4602 41.7272 40.6861 43.1164 41.1378C44.5056 41.5895 45.7243 42.25 46.7726 43.1193C47.8209 43.9801 48.6647 45.0412 49.3039 46.3026C49.9431 47.5639 50.3309 49.0085 50.4672 50.6364ZM54.052 67V40.8182H61.16V51.0455H70.5691V40.8182H77.677V67H70.5691V56.7727H61.16V67H54.052ZM106.776 53.9091C106.776 56.8239 106.209 59.2827 105.075 61.2855C103.942 63.2798 102.412 64.7926 100.486 65.8239C98.5598 66.8466 96.412 67.358 94.0427 67.358C91.6564 67.358 89.5001 66.8423 87.574 65.8111C85.6564 64.7713 84.1308 63.2543 82.9973 61.2599C81.8723 59.2571 81.3098 56.8068 81.3098 53.9091C81.3098 50.9943 81.8723 48.5398 82.9973 46.5455C84.1308 44.5426 85.6564 43.0298 87.574 42.0071C89.5001 40.9759 91.6564 40.4602 94.0427 40.4602C96.412 40.4602 98.5598 40.9759 100.486 42.0071C102.412 43.0298 103.942 44.5426 105.075 46.5455C106.209 48.5398 106.776 50.9943 106.776 53.9091ZM99.4632 53.9091C99.4632 52.3409 99.2544 51.0199 98.8367 49.946C98.4277 48.8636 97.8183 48.0455 97.0086 47.4915C96.2075 46.929 95.2189 46.6477 94.0427 46.6477C92.8666 46.6477 91.8737 46.929 91.064 47.4915C90.2629 48.0455 89.6535 48.8636 89.2359 49.946C88.8268 51.0199 88.6223 52.3409 88.6223 53.9091C88.6223 55.4773 88.8268 56.8026 89.2359 57.8849C89.6535 58.9588 90.2629 59.777 91.064 60.3395C91.8737 60.8935 92.8666 61.1705 94.0427 61.1705C95.2189 61.1705 96.2075 60.8935 97.0086 60.3395C97.8183 59.777 98.4277 58.9588 98.8367 57.8849C99.2544 56.8026 99.4632 55.4773 99.4632 53.9091ZM135.788 53.9091C135.788 56.8239 135.221 59.2827 134.088 61.2855C132.954 63.2798 131.424 64.7926 129.498 65.8239C127.572 66.8466 125.424 67.358 123.055 67.358C120.669 67.358 118.512 66.8423 116.586 65.8111C114.669 64.7713 113.143 63.2543 112.01 61.2599C110.885 59.2571 110.322 56.8068 110.322 53.9091C110.322 50.9943 110.885 48.5398 112.01 46.5455C113.143 44.5426 114.669 43.0298 116.586 42.0071C118.512 40.9759 120.669 40.4602 123.055 40.4602C125.424 40.4602 127.572 40.9759 129.498 42.0071C131.424 43.0298 132.954 44.5426 134.088 46.5455C135.221 48.5398 135.788 50.9943 135.788 53.9091ZM128.476 53.9091C128.476 52.3409 128.267 51.0199 127.849 49.946C127.44 48.8636 126.831 48.0455 126.021 47.4915C125.22 46.929 124.231 46.6477 123.055 46.6477C121.879 46.6477 120.886 46.929 120.076 47.4915C119.275 48.0455 118.666 48.8636 118.248 49.946C117.839 51.0199 117.635 52.3409 117.635 53.9091C117.635 55.4773 117.839 56.8026 118.248 57.8849C118.666 58.9588 119.275 59.777 120.076 60.3395C120.886 60.8935 121.879 61.1705 123.055 61.1705C124.231 61.1705 125.22 60.8935 126.021 60.3395C126.831 59.777 127.44 58.9588 127.849 57.8849C128.267 56.8026 128.476 55.4773 128.476 53.9091ZM139.437 67V40.8182H146.545V61.2727H157.13V67H139.437Z" fill="#161616"/>
</svg>
