<?xml version="1.0" standalone="no"?>
<!DOCTYPE svg PUBLIC "-//W3C//DTD SVG 20010904//EN"
 "http://www.w3.org/TR/2001/REC-SVG-20010904/DTD/svg10.dtd">
<svg version="1.0" xmlns="http://www.w3.org/2000/svg"
 width="175.000000pt" height="67.000000pt" viewBox="0 0 347.000000 135.000000"
 preserveAspectRatio="xMidYMid meet">
<metadata>
Created by potrace 1.16, written by Peter Selinger 2001-2019
</metadata>
<g transform="translate(0.000000,135.000000) scale(0.100000,-0.100000)"
fill="#000000" stroke="none">
<path d="M1883 1270 c-87 -20 -150 -98 -137 -170 14 -75 67 -115 199 -150 87
-23 100 -31 108 -60 9 -35 -25 -65 -72 -64 -47 2 -69 16 -87 59 l-12 30 -76
-3 c-73 -3 -76 -4 -76 -28 0 -30 31 -93 57 -116 51 -47 215 -64 304 -33 84 30
137 110 124 190 -11 80 -64 120 -201 155 -86 22 -114 36 -114 55 0 23 30 45
61 45 30 0 79 -38 79 -61 0 -9 20 -10 77 -5 42 3 78 8 81 10 10 10 -21 75 -47
100 -50 48 -173 69 -268 46z"/>
<path d="M80 1001 l0 -271 85 0 85 0 0 110 c0 62 4 110 9 110 37 0 61 -25 111
-119 l55 -101 93 0 c50 0 92 2 92 5 0 13 -75 153 -97 182 -14 18 -34 35 -45
39 -18 5 -16 9 18 28 104 58 114 200 17 263 -23 15 -55 18 -225 21 l-198 4 0
-271z m301 149 c27 -15 25 -64 -3 -84 -14 -10 -44 -16 -75 -16 l-53 0 0 55 0
55 56 0 c30 0 64 -5 75 -10z"/>
<path d="M175 615 c-22 -8 -55 -30 -72 -49 -29 -31 -33 -43 -33 -90 0 -44 5
-60 26 -86 33 -39 86 -66 164 -84 77 -18 110 -39 110 -71 0 -80 -144 -71 -164
11 -7 25 -9 26 -53 20 -25 -3 -61 -6 -79 -6 l-33 0 13 -44 c32 -105 93 -141
236 -141 139 0 213 42 241 134 29 97 -27 175 -151 211 -41 12 -93 27 -115 33
-68 20 -53 77 20 77 30 0 51 -14 78 -52 10 -14 24 -15 85 -11 40 3 72 10 72
16 0 6 -10 31 -21 55 -31 63 -95 92 -204 91 -44 0 -98 -6 -120 -14z"/>
<path d="M817 616 c-59 -22 -103 -62 -133 -122 -23 -47 -27 -68 -27 -137 0
-99 27 -170 83 -221 51 -46 99 -60 200 -60 117 0 180 34 224 121 26 52 21 61
-41 79 -32 9 -63 19 -70 21 -7 3 -18 -11 -26 -30 -19 -45 -52 -67 -100 -67
-55 0 -92 39 -102 108 -14 103 21 183 85 196 41 8 97 -16 112 -49 7 -16 17
-24 27 -21 9 3 36 10 61 16 75 18 73 16 51 57 -26 52 -68 89 -120 108 -53 18
-172 19 -224 1z"/>
<path d="M2117 616 c-117 -42 -171 -124 -171 -260 0 -98 27 -168 84 -220 52
-47 100 -61 205 -60 77 0 98 4 142 27 28 15 61 40 73 58 l22 31 29 -35 c45
-55 117 -81 224 -82 113 0 172 25 225 98 l35 47 3 -70 3 -70 214 0 215 0 0 65
0 64 -132 3 -133 3 -3 203 -2 202 -80 0 -80 0 -1 -72 c0 -61 -2 -70 -12 -53
-7 11 -30 39 -52 61 -96 100 -312 99 -415 -1 l-36 -35 -42 39 c-27 26 -61 46
-94 56 -63 18 -170 19 -221 1z m180 -138 c61 -50 56 -217 -8 -262 -30 -21 -98
-21 -128 0 -66 46 -69 210 -5 265 11 10 28 19 39 21 27 5 82 -7 102 -24z m484
12 c33 -18 49 -64 49 -140 0 -108 -29 -150 -104 -150 -84 0 -116 42 -116 150
0 67 18 122 47 139 23 13 99 14 124 1z"/>
<path d="M1320 350 l0 -270 80 0 80 0 0 110 0 110 95 0 95 0 0 -110 0 -110 85
0 85 0 0 270 0 270 -85 0 -85 0 0 -95 0 -96 -92 3 -93 3 -3 93 -3 92 -79 0
-80 0 0 -270z"/>
</g>
</svg>
