<?xml version="1.0" standalone="no"?>
<!DOCTYPE svg PUBLIC "-//W3C//DTD SVG 20010904//EN"
 "http://www.w3.org/TR/2001/REC-SVG-20010904/DTD/svg10.dtd">
<svg version="1.0" xmlns="http://www.w3.org/2000/svg"
 width="386.000000pt" height="309.000000pt" viewBox="0 0 386.000000 309.000000"
 preserveAspectRatio="xMidYMid meet">
<metadata>
Created by potrace 1.16, written by Peter Selinger 2001-2019
</metadata>
<g transform="translate(0.000000,309.000000) scale(0.100000,-0.100000)"
fill="#000000" stroke="none">
<path d="M1675 2815 c-16 -8 -42 -30 -57 -47 l-28 -32 0 42 0 42 -85 0 -85 0
0 -975 0 -975 85 0 85 0 0 888 c0 677 3 891 12 900 17 17 64 15 82 -4 14 -14
16 -109 16 -900 l0 -884 85 0 85 0 0 881 c0 588 3 887 10 900 7 13 21 19 45
19 24 0 38 -6 45 -19 7 -13 10 -312 10 -900 l0 -881 85 0 85 0 0 918 0 919
-23 43 c-39 74 -127 102 -194 60 -17 -10 -37 -29 -44 -41 -11 -22 -12 -22 -43
16 -29 34 -38 38 -87 42 -36 3 -64 -1 -84 -12z"/>
<path d="M3037 2818 c-21 -6 -54 -25 -72 -43 -67 -68 -65 -32 -65 -1017 l0
-888 85 0 85 0 0 190 0 190 55 0 55 0 0 -190 0 -190 85 0 85 0 0 980 0 980
-137 -1 c-76 -1 -155 -6 -176 -11z m143 -778 l0 -630 -55 0 -55 0 0 611 c0
401 4 617 10 630 8 14 21 19 55 19 l45 0 0 -630z"/>
<path d="M300 2745 l0 -75 60 0 60 0 0 -900 0 -900 85 0 85 0 0 900 0 900 65
0 65 0 0 75 0 75 -210 0 -210 0 0 -75z"/>
<path d="M820 1900 c0 -994 -2 -958 53 -1008 27 -26 90 -38 133 -28 15 4 42
24 61 44 l33 36 0 -37 0 -37 85 0 85 0 0 975 0 975 -85 0 -85 0 0 -872 c0
-480 -3 -883 -7 -896 -8 -33 -49 -47 -79 -27 l-24 15 0 890 0 890 -85 0 -85 0
0 -920z"/>
<path d="M2290 2258 c0 -310 3 -749 7 -975 l6 -413 137 0 c165 0 224 14 269
65 16 19 33 49 36 67 3 18 5 251 3 518 -3 480 -3 485 -25 527 -40 73 -114 112
-215 113 l-38 0 0 250 0 250 140 0 140 0 0 80 0 80 -230 0 -230 0 0 -562z
m244 -270 c17 -7 30 -24 36 -47 6 -21 10 -208 10 -458 0 -472 3 -453 -71 -453
l-39 0 0 485 c0 474 0 485 20 485 10 0 31 -5 44 -12z"/>
<path d="M1834 716 c-40 -18 -61 -66 -29 -66 8 0 15 4 15 9 0 19 32 41 59 41
58 0 69 -58 13 -74 -43 -12 -41 -30 6 -42 32 -8 37 -13 37 -38 0 -24 -5 -31
-28 -37 -35 -9 -72 3 -89 31 -18 28 -41 27 -33 -2 11 -39 43 -58 96 -58 36 0
54 5 69 20 24 24 26 67 3 92 -13 14 -14 21 -5 30 18 18 14 63 -6 81 -26 24
-72 29 -108 13z"/>
<path d="M1352 603 l3 -118 72 0 c96 0 115 17 121 109 4 62 3 67 -26 96 -28
28 -36 30 -102 30 l-71 0 3 -117z m154 62 c12 -19 15 -39 12 -77 -6 -61 -24
-78 -85 -78 l-43 0 0 90 0 90 50 0 c42 0 52 -4 66 -25z"/>
<path d="M1570 648 c0 -88 14 -144 40 -158 11 -6 49 -10 85 -9 l65 2 0 118 c0
99 -3 119 -15 119 -12 0 -15 -17 -15 -94 0 -103 -7 -117 -59 -118 -53 -2 -61
14 -61 118 0 87 -1 94 -20 94 -18 0 -20 -7 -20 -72z"/>
<path d="M2056 712 c-6 -10 -86 -221 -86 -227 0 -3 6 -5 14 -5 8 0 20 16 28
35 12 36 13 36 67 33 53 -3 56 -4 65 -35 6 -23 15 -33 29 -33 11 0 17 5 14 13
-3 6 -24 60 -48 120 -32 80 -47 107 -60 107 -10 0 -20 -3 -23 -8z"/>
<path d="M2190 648 c0 -88 14 -144 40 -158 11 -6 49 -10 85 -9 l65 2 0 118 c0
99 -3 119 -15 119 -12 0 -15 -16 -15 -88 0 -101 -10 -123 -58 -124 -53 -2 -65
19 -70 122 -3 68 -8 90 -18 90 -11 0 -14 -18 -14 -72z"/>
<path d="M2410 600 c0 -100 3 -120 15 -120 12 0 15 13 15 55 l0 55 65 0 65 0
0 -55 c0 -42 3 -55 15 -55 13 0 15 20 15 120 0 100 -2 120 -15 120 -11 0 -15
-12 -15 -50 l0 -51 -62 3 -63 3 -3 48 c-2 33 -7 47 -18 47 -11 0 -14 -22 -14
-120z"/>
<path d="M1540 290 c0 -100 3 -120 15 -120 11 0 15 12 15 45 l0 45 38 1 c90 1
140 47 113 105 -14 32 -48 44 -122 44 l-59 0 0 -120z"/>
<path d="M2120 290 c0 -100 3 -120 15 -120 12 0 15 18 15 105 l0 105 60 0 60
0 0 -105 c0 -98 1 -105 20 -105 19 0 20 7 20 120 l0 120 -95 0 -95 0 0 -120z"/>
<path d="M2410 290 c0 -100 3 -120 15 -120 12 0 15 18 15 105 l0 105 65 0 65
0 0 -105 c0 -87 3 -105 15 -105 13 0 15 20 15 120 l0 120 -95 0 -95 0 0 -120z"/>
</g>
</svg>
