<svg width="142" height="122" viewBox="0 0 324 277" fill="none" xmlns="http://www.w3.org/2000/svg">
<path d="M35.1304 1.74498C39.325 1.74498 42.471 1.45415 44.5684 0.872489C45.5005 4.12978 45.9666 7.32891 45.9666 10.4699C45.9666 12.3312 45.151 13.2618 43.5197 13.2618H29.887V98.7658L30.5861 206.053C26.6245 206.635 22.4734 206.053 18.6283 206.053C16.764 206.053 16.8077 206.213 16.8077 204.235L16.0796 13.2618H10.8362C6.64156 13.2618 3.49556 13.5527 1.39822 14.1343C0.466074 10.877 0 7.67791 0 4.53695C0 2.67564 0.81563 1.74498 2.44689 1.74498H35.1304Z" fill="#141615"/>
<path d="M66.9918 113.075V18.1478L66.2927 1.74498C70.2543 1.16332 74.1577 0.872489 78.0028 0.872489C79.8671 0.872489 80.7993 1.86131 80.7993 3.83896V98.7658V206.053C76.8376 206.635 70.8369 206.053 66.9918 206.053C65.1275 206.053 66.9918 115.052 66.9918 113.075Z" fill="#141615"/>
<path d="M131.017 13.2618C127.871 13.2618 124.725 14.8323 121.579 17.9733V98.7658V206.053C117.617 206.635 110.218 206.053 106.373 206.053C110.393 206.053 107.771 115.052 107.771 113.075V18.6713C107.771 16.112 107.305 14.3088 106.373 13.2618C105.441 12.0985 103.751 11.5169 101.304 11.5169C101.188 8.49223 102.003 6.10743 103.751 4.36244C105.499 2.61747 108.295 1.74498 112.141 1.74498C115.986 1.74498 118.724 3.66445 120.355 7.50341C124.899 3.66445 129.56 1.74498 134.337 1.74498C141.445 1.74498 146.339 3.95528 149.019 8.3759C153.796 3.95528 158.806 1.74498 164.05 1.74498C175.585 1.74498 181.353 7.44524 181.353 18.8458V100.336C181.353 102.779 181.55 105.033 182.483 106.08C183.531 107.011 180.036 206.053 182.483 206.053C182.483 212.684 184.266 206.053 176.808 206.053C170.633 206.053 167.545 212.262 167.545 204.235V19.8928C167.545 15.4721 165.273 13.2618 160.729 13.2618C157.117 13.2618 154.087 14.716 151.64 17.6243V98.7658L152.339 206.053C148.378 206.635 144.474 206.053 140.629 206.053C138.765 206.053 137.833 206.213 137.833 204.235V19.8928C137.833 15.4721 135.561 13.2618 131.017 13.2618Z" fill="#141615"/>
<path d="M209.126 206.053V18.6713C209.126 16.112 208.66 14.3088 207.728 13.2618C206.795 12.0985 205.106 11.5169 202.659 11.5169C202.543 8.49223 203.358 6.10743 205.106 4.36244C206.854 2.61747 209.65 1.74498 213.495 1.74498C217.457 1.74498 220.195 3.66445 221.71 7.50341C226.254 3.66445 230.915 1.74498 235.692 1.74498C247.227 1.74498 252.995 7.44524 252.995 18.8458V49.3829C252.995 54.7342 251.306 58.8058 247.927 61.5978C251.888 64.2734 253.869 68.694 253.869 74.8596V96.6719C253.869 102.488 253.923 188.254 249.845 191.511C245.883 194.769 246.204 198.782 236.275 204.235L209.126 206.053ZM232.371 13.2618C229.225 13.2618 226.079 14.8323 222.933 17.9733V56.3628H231.497C233.828 56.3628 235.692 55.723 237.09 54.4434C238.489 53.1637 239.188 51.4769 239.188 49.3829V19.8928C239.188 15.4721 236.916 13.2618 232.371 13.2618ZM222.933 67.8797V193.329H231.847C234.294 193.329 237.119 192.675 238.634 191.511C240.149 190.232 240.062 98.8822 240.062 96.6719V74.8596C240.062 72.6493 239.304 70.9625 237.789 69.7992C236.275 68.5195 234.294 67.8797 231.847 67.8797H222.933Z" fill="#141615"/>
<path d="M278.53 113.075V18.4968C278.53 12.6802 280.511 8.14324 284.473 4.88594C288.434 1.62865 293.853 0 300.727 0C307.602 0 312.903 1.51232 316.632 4.53695C320.477 7.56158 322.4 11.9822 322.4 17.7988V100.336C322.4 102.779 322.866 104.524 323.798 105.571C324.847 106.502 321.351 202.418 323.798 202.418C323.798 209.048 321.023 206.053 313.566 206.053C307.391 206.053 308.592 112.9 308.592 104.873V71.5442H292.338V98.7658V206.053C288.376 206.635 282.376 206.053 278.53 206.053C276.666 206.053 278.53 115.052 278.53 113.075ZM292.338 18.4968V60.0273H308.592V18.4968C308.592 16.2865 307.835 14.5997 306.32 13.4363C304.805 12.1567 302.825 11.5169 300.378 11.5169C297.931 11.5169 295.95 12.1567 294.435 13.4363C293.037 14.5997 292.338 16.2865 292.338 18.4968Z" fill="#141615"/>
<path d="M90.6048 240.922V233.395H91.9471C92.4045 233.01 92.832 232.464 93.2298 231.754C93.6275 231.045 93.9656 230.087 94.244 228.881C94.5224 227.674 94.7146 226.126 94.8207 224.237L95.298 215.636H107.856V233.395H110.163V240.892H107.22V236H93.548V240.922H90.6048ZM95.5664 233.395H104.913V218.281H98.082L97.7639 224.237C97.6777 225.676 97.5352 226.968 97.3363 228.115C97.1441 229.262 96.8955 230.276 96.5906 231.158C96.2923 232.033 95.9509 232.778 95.5664 233.395ZM116.049 215.636H119.091V230.591H119.28L129.641 215.636H132.485V236H129.412V221.065H129.223L118.883 236H116.049V215.636ZM146.298 236.278C144.932 236.278 143.713 236.043 142.639 235.572C141.572 235.102 140.726 234.449 140.103 233.614C139.487 232.772 139.155 231.797 139.109 230.69H142.231C142.271 231.294 142.473 231.817 142.838 232.261C143.209 232.699 143.693 233.037 144.289 233.276C144.886 233.514 145.549 233.634 146.278 233.634C147.08 233.634 147.789 233.494 148.406 233.216C149.029 232.937 149.516 232.55 149.867 232.053C150.219 231.549 150.394 230.969 150.394 230.312C150.394 229.63 150.219 229.03 149.867 228.513C149.523 227.989 149.016 227.578 148.346 227.28C147.683 226.982 146.881 226.832 145.94 226.832H144.22V224.327H145.94C146.696 224.327 147.358 224.191 147.929 223.919C148.505 223.647 148.956 223.269 149.281 222.786C149.606 222.295 149.768 221.722 149.768 221.065C149.768 220.436 149.625 219.889 149.34 219.425C149.062 218.954 148.664 218.586 148.147 218.321C147.637 218.056 147.034 217.923 146.338 217.923C145.675 217.923 145.055 218.046 144.478 218.291C143.908 218.53 143.444 218.875 143.086 219.325C142.728 219.769 142.536 220.303 142.509 220.926H139.536C139.57 219.826 139.894 218.858 140.511 218.023C141.134 217.187 141.956 216.535 142.977 216.064C143.998 215.593 145.131 215.358 146.377 215.358C147.683 215.358 148.81 215.613 149.758 216.124C150.713 216.627 151.448 217.3 151.965 218.142C152.489 218.984 152.748 219.905 152.741 220.906C152.748 222.046 152.429 223.014 151.786 223.81C151.15 224.605 150.302 225.139 149.241 225.411V225.57C150.593 225.775 151.641 226.312 152.383 227.18C153.132 228.049 153.503 229.126 153.497 230.412C153.503 231.532 153.192 232.536 152.562 233.425C151.939 234.313 151.087 235.012 150.007 235.523C148.926 236.027 147.69 236.278 146.298 236.278ZM161.774 236H158.512L165.841 215.636H169.39L176.718 236H173.457L167.7 219.335H167.541L161.774 236ZM162.321 228.026H172.9V230.611H162.321V228.026ZM182.179 215.636H185.222V230.591H185.411L195.771 215.636H198.615V236H195.543V221.065H195.354L185.013 236H182.179V215.636ZM192.351 210.466H194.797C194.797 211.586 194.399 212.498 193.604 213.2C192.815 213.896 191.748 214.244 190.402 214.244C189.063 214.244 187.999 213.896 187.21 213.2C186.422 212.498 186.027 211.586 186.027 210.466H188.463C188.463 210.963 188.609 211.404 188.901 211.788C189.192 212.166 189.693 212.355 190.402 212.355C191.098 212.355 191.595 212.166 191.894 211.788C192.199 211.411 192.351 210.97 192.351 210.466ZM205.617 236V215.636H208.69V224.486H218.841V215.636H221.924V236H218.841V227.121H208.69V236H205.617ZM125.287 249.636V252.281H115.662V270H112.59V249.636H125.287ZM131.27 270V249.636H138.528C140.113 249.636 141.425 249.925 142.466 250.501C143.507 251.078 144.286 251.867 144.803 252.868C145.32 253.862 145.578 254.982 145.578 256.229C145.578 257.482 145.316 258.608 144.793 259.609C144.276 260.604 143.493 261.393 142.446 261.976C141.405 262.553 140.096 262.841 138.519 262.841H133.527V260.236H138.24C139.241 260.236 140.053 260.063 140.676 259.719C141.299 259.367 141.757 258.89 142.048 258.287C142.34 257.684 142.486 256.998 142.486 256.229C142.486 255.46 142.34 254.777 142.048 254.18C141.757 253.584 141.296 253.116 140.666 252.778C140.043 252.44 139.221 252.271 138.2 252.271H134.342V270H131.27ZM153.142 270.278V267.574H154.365C154.875 267.574 155.296 267.488 155.628 267.315C155.966 267.143 156.241 266.911 156.453 266.619C156.672 266.321 156.854 265.996 157 265.645L157.288 264.919L150.129 249.636H153.39L158.73 261.409L163.483 249.636H166.704L159.665 266.47C159.366 267.146 159.022 267.773 158.631 268.349C158.246 268.926 157.732 269.393 157.089 269.751C156.446 270.103 155.595 270.278 154.534 270.278H153.142ZM188.049 249.636V270H184.987V252.261H175.402V270H172.339V249.636H188.049ZM211.186 249.636V270H208.124V252.261H198.539V270H195.476V249.636H211.186Z" fill="black"/>
</svg>
