<?xml version="1.0" standalone="no"?>
<!DOCTYPE svg PUBLIC "-//W3C//DTD SVG 20010904//EN"
 "http://www.w3.org/TR/2001/REC-SVG-20010904/DTD/svg10.dtd">
<svg version="1.0" xmlns="http://www.w3.org/2000/svg"
 width="151.000000pt" height="151.000000pt" viewBox="0 0 151.000000 151.000000"
 preserveAspectRatio="xMidYMid meet">
<metadata>
Created by potrace 1.16, written by Peter Selinger 2001-2019
</metadata>
<g transform="translate(0.000000,151.000000) scale(0.100000,-0.100000)"
fill="#000000" stroke="none">
<path d="M50 755 l0 -705 705 0 705 0 0 705 0 705 -705 0 -705 0 0 -705z
m1330 -4 l0 -629 -583 -2 c-321 0 -602 2 -625 6 l-42 7 0 623 0 624 625 0 625
0 0 -629z"/>
<path d="M840 684 l0 -105 -26 20 c-35 28 -107 28 -152 1 -19 -12 -41 -38 -52
-63 -40 -86 -14 -206 52 -247 45 -27 117 -27 152 1 l26 20 0 -20 c0 -18 6 -21
40 -21 l40 0 0 260 0 260 -40 0 -40 0 0 -106z m-31 -153 c41 -41 35 -157 -9
-181 -34 -18 -75 -12 -101 16 -19 20 -24 36 -24 79 0 43 5 59 24 79 30 32 82
35 110 7z"/>
<path d="M1034 616 c-50 -22 -74 -54 -74 -101 0 -61 30 -84 126 -101 81 -14
99 -26 83 -55 -21 -40 -112 -36 -131 7 -9 18 -19 24 -44 24 -40 0 -49 -12 -33
-42 23 -45 52 -67 103 -79 100 -22 186 28 186 110 0 56 -31 79 -125 96 -86 15
-105 26 -89 53 27 42 109 37 121 -8 4 -16 14 -20 44 -20 38 0 39 1 33 28 -11
44 -33 69 -75 86 -48 19 -84 20 -125 2z"/>
<path d="M260 613 c0 -4 28 -84 62 -176 l63 -168 45 3 45 3 62 165 c34 91 62
168 63 173 0 4 -19 7 -43 7 l-42 0 -30 -87 c-16 -49 -36 -104 -43 -123 l-14
-35 -43 120 -42 120 -42 3 c-22 2 -41 0 -41 -5z"/>
</g>
</svg>
