<svg width="140" height="140" viewBox="0 0 202 202" fill="none" xmlns="http://www.w3.org/2000/svg">
<path d="M6.6665 100.667V194.667H100.667H194.667V100.667V6.66667H100.667H6.6665V100.667ZM184 101.2V185.067L106.267 185.333C63.4665 185.333 25.9998 185.067 22.9332 184.533L17.3332 183.6V100.533V17.3333H100.667H184V101.2Z" fill="black"/>
<path d="M112 110.133V124.133L108.533 121.467C103.867 117.733 94.2666 117.733 88.2666 121.333C85.7333 122.933 82.7999 126.4 81.3333 129.733C75.9999 141.2 79.4666 157.2 88.2666 162.667C94.2666 166.267 103.867 166.267 108.533 162.533L112 159.867V162.533C112 164.933 112.8 165.333 117.333 165.333H122.667V130.667V96H117.333H112V110.133ZM107.867 130.533C113.333 136 112.533 151.467 106.667 154.667C102.133 157.067 96.6666 156.267 93.1999 152.533C90.6666 149.867 89.9999 147.733 89.9999 142C89.9999 136.267 90.6666 134.133 93.1999 131.467C97.1999 127.2 104.133 126.8 107.867 130.533Z" fill="black"/>
<path d="M137.866 119.2C131.2 122.133 128 126.4 128 132.667C128 140.8 132 143.867 144.8 146.133C155.6 148 158 149.6 155.866 153.467C153.066 158.8 140.933 158.267 138.4 152.533C137.2 150.133 135.866 149.333 132.533 149.333C127.2 149.333 126 150.933 128.133 154.933C131.2 160.933 135.066 163.867 141.866 165.467C155.2 168.4 166.666 161.733 166.666 150.8C166.666 143.333 162.533 140.267 150 138C138.533 136 136 134.533 138.133 130.933C141.733 125.333 152.666 126 154.266 132C154.8 134.133 156.133 134.667 160.133 134.667C165.2 134.667 165.333 134.533 164.533 130.933C163.066 125.067 160.133 121.733 154.533 119.467C148.133 116.933 143.333 116.8 137.866 119.2Z" fill="black"/>
<path d="M34.6665 119.6C34.6665 120.133 38.3998 130.8 42.9332 143.067L51.3332 165.467L57.3332 165.067L63.3332 164.667L71.5998 142.667C76.1332 130.533 79.8665 120.267 79.9998 119.6C79.9998 119.067 77.4665 118.667 74.2665 118.667H68.6665L64.6665 130.267C62.5332 136.8 59.8665 144.133 58.9332 146.667L57.0665 151.333L51.3332 135.333L45.7332 119.333L40.1332 118.933C37.1998 118.667 34.6665 118.933 34.6665 119.6Z" fill="black"/>
</svg>
