<svg width="72" height="72" viewBox="0 0 101 101" fill="none" xmlns="http://www.w3.org/2000/svg">
<path d="M50.4559 100.912C78.3219 100.912 100.912 78.3219 100.912 50.4559C100.912 22.5899 78.3219 0 50.4559 0C22.5899 0 0 22.5899 0 50.4559C0 78.3219 22.5899 100.912 50.4559 100.912Z" fill="#FCD917"/>
<path d="M91.4438 20.9485C85.6853 28.6251 85.1813 38.6383 85.3386 43.5045C81.4763 38.3737 75.9767 28.759 74.6643 14.4309C63.5286 24.8146 66.9741 40.4213 68.9794 46.673C63.8568 42.8178 55.9302 35.111 50.7418 21.7166C42.8701 34.7737 50.4622 48.8041 54.1045 54.2506C48.1184 51.9698 38.3785 46.7682 29.7154 35.3451C25.7186 50.0634 36.8638 61.4286 41.8624 65.6503C35.4765 65.1196 24.68 62.8253 13.2157 54.2606C13.4018 69.5017 27.2409 77.3238 33.2077 79.9912C27.9192 81.0525 19.282 81.7679 8.7146 78.9753C14.5621 87.5119 22.9751 94.1183 32.8257 97.787C33.1935 95.774 33.6415 93.7609 34.2363 91.754C42.7963 62.8717 72.1405 45.8795 100.899 52.4495C100.925 51.7803 101 51.124 101 50.4483C101 39.4249 97.4324 29.2564 91.4438 20.9485Z" fill="white"/>
</svg>
