<svg width="148" height="88" viewBox="0 0 148 88" fill="none" xmlns="http://www.w3.org/2000/svg">
<rect x="69.5" width="28" height="28" rx="4" transform="rotate(45 69.5 0)" fill="#ABC922"/>
<path fill-rule="evenodd" clip-rule="evenodd" d="M79.8951 2.4015C80.6899 1.59814 81.9785 1.59814 82.7733 2.4015L97.1068 16.8897C98.6964 18.4965 98.6964 21.1015 97.1068 22.7082L82.7733 37.1965C81.9785 37.9998 80.6899 37.9998 79.8951 37.1965C79.1003 36.3931 79.1003 35.0906 79.8951 34.2872L91.4455 22.6122C92.9874 21.0536 92.9874 18.5443 91.4455 16.9858L79.8951 5.31074C79.1003 4.50738 79.1003 3.20487 79.8951 2.4015Z" fill="#ABC922"/>
<path d="M14.64 47.598C16.2667 47.598 17.44 48.0513 18.16 48.958C18.9067 49.838 19.28 51.158 19.28 52.918V72.158C19.28 74.078 18.96 75.4647 18.32 76.318C17.68 77.1713 16.52 77.598 14.84 77.598H7.16C4.6 77.598 3.09333 76.638 2.64 74.718C2.48 74.1313 2.4 73.478 2.4 72.758V52.918C2.4 51.1313 2.69333 49.838 3.28 49.038C3.94667 48.078 5.13333 47.598 6.84 47.598H14.64ZM5.6 74.878H16.08V50.318H5.6V74.878ZM28.0797 74.878H30.6797V77.598H22.2797V74.878H24.7997V50.318H22.2797V47.598H28.0797V74.878ZM50.7425 74.838V77.598H44.9425V72.998L38.0225 77.358C37.1958 77.7847 36.4092 77.998 35.6625 77.998C34.9425 77.998 34.3558 77.7313 33.9025 77.198C33.4758 76.6647 33.2625 76.0513 33.2625 75.358V61.358C33.2625 60.1313 33.4492 59.2913 33.8225 58.838C34.4625 58.0113 35.4758 57.598 36.8625 57.598H44.9425V50.318H42.3025V47.598H48.2225V74.838H50.7425ZM44.9425 60.318H36.4625V75.078L44.9425 69.798V60.318ZM95.9806 47.598V50.318H94.0606L89.7806 77.598H84.5806L80.2606 50.358L75.9406 77.598H70.7406L66.4606 50.318H64.5406V47.598H71.1406V50.318H69.5406L73.3406 74.878L77.5406 47.598H82.9806L87.1806 74.878L90.9806 50.318H89.3806V47.598H95.9806ZM98.2028 77.598C96.8428 77.598 95.8828 77.2913 95.3228 76.678C94.7628 76.038 94.4828 75.158 94.4828 74.038V61.158C94.4828 60.0913 94.7228 59.238 95.2028 58.598C95.7095 57.9313 96.7095 57.598 98.2028 57.598H105.603C107.069 57.598 108.056 57.9313 108.563 58.598C109.069 59.238 109.323 60.0913 109.323 61.158V74.038C109.323 75.158 109.043 76.038 108.483 76.678C107.923 77.2913 106.963 77.598 105.603 77.598H98.2028ZM97.7228 74.878H106.083V60.318H97.7228V74.878ZM114.85 77.598C113.49 77.598 112.53 77.2913 111.97 76.678C111.41 76.038 111.13 75.158 111.13 74.038V61.158C111.13 60.0913 111.37 59.238 111.85 58.598C112.356 57.9313 113.356 57.598 114.85 57.598H122.25C123.716 57.598 124.703 57.9313 125.21 58.598C125.716 59.238 125.97 60.0913 125.97 61.158V74.038C125.97 75.158 125.69 76.038 125.13 76.678C124.57 77.2913 123.61 77.598 122.25 77.598H114.85ZM114.37 74.878H122.73V60.318H114.37V74.878ZM145.657 74.838V77.598H139.857V72.998L132.937 77.358C132.11 77.7847 131.323 77.998 130.577 77.998C129.857 77.998 129.27 77.7313 128.817 77.198C128.39 76.6647 128.177 76.0513 128.177 75.358V61.358C128.177 60.1313 128.363 59.2913 128.737 58.838C129.377 58.0113 130.39 57.598 131.777 57.598H139.857V50.318H137.217V47.598H143.137V74.838H145.657ZM139.857 60.318H131.377V75.078L139.857 69.798V60.318Z" fill="#161616"/>
</svg>
