<svg width="170" height="70" viewBox="0 0 230 94" fill="none" xmlns="http://www.w3.org/2000/svg">
<path d="M109.791 2.3623C110.485 1.18286 111.733 0.439916 113.101 0.392759L123.559 0.0321282C124.353 0.00475457 124.86 0.869239 124.449 1.54895L99.4048 42.9685H85.9048L109.791 2.3623Z" fill="#A2D42D"/>
<path d="M128.481 2.39382C129.175 1.21438 130.424 0.471437 131.791 0.42428L142.249 0.0636494C143.043 0.0362757 143.551 0.90076 143.14 1.58047L118.095 43H104.595L128.481 2.39382Z" fill="#A2D42D"/>
<path d="M5.94141 56.4072H8.45508C9.21094 56.4072 9.90527 56.5332 10.5381 56.7852C11.1768 57.0371 11.7334 57.3945 12.208 57.8574C12.6826 58.3145 13.0518 58.8652 13.3154 59.5098C13.5791 60.1484 13.7109 60.8604 13.7109 61.6455C13.7109 62.4189 13.5791 63.125 13.3154 63.7637C13.0518 64.4023 12.6826 64.9531 12.208 65.416C11.7334 65.873 11.1768 66.2246 10.5381 66.4707C9.90527 66.7168 9.21094 66.8398 8.45508 66.8398H5.94141C5.19141 66.8398 4.49707 66.7168 3.8584 66.4707C3.21973 66.2246 2.66016 65.873 2.17969 65.416C1.70508 64.959 1.33594 64.4141 1.07227 63.7812C0.814453 63.1426 0.685547 62.4365 0.685547 61.6631C0.685547 60.8779 0.814453 60.166 1.07227 59.5273C1.33594 58.8828 1.70508 58.3291 2.17969 57.8662C2.66016 57.3975 3.21973 57.0371 3.8584 56.7852C4.49707 56.5332 5.19141 56.4072 5.94141 56.4072ZM5.94141 58.165C5.28516 58.165 4.71973 58.3057 4.24512 58.5869C3.77051 58.8623 3.4043 59.2607 3.14648 59.7822C2.89453 60.3037 2.76855 60.9307 2.76855 61.6631C2.76855 62.2021 2.8418 62.6826 2.98828 63.1045C3.13477 63.5264 3.3457 63.8838 3.62109 64.1768C3.89648 64.4697 4.23047 64.6953 4.62305 64.8535C5.01562 65.0117 5.45508 65.0908 5.94141 65.0908H8.47266C9.12305 65.0908 9.68262 64.9531 10.1514 64.6777C10.6201 64.3965 10.9805 63.998 11.2324 63.4824C11.4902 62.9668 11.6191 62.3545 11.6191 61.6455C11.6191 61.1006 11.5459 60.6143 11.3994 60.1865C11.2588 59.7529 11.0508 59.3867 10.7754 59.0879C10.5059 58.7891 10.1777 58.5605 9.79102 58.4023C9.4043 58.2441 8.96484 58.165 8.47266 58.165H5.94141ZM8.26172 54.6758V68.5273H6.14355V54.6758H8.26172ZM19.2642 64.4053L24.942 55.2031H27.148V68H24.942V58.7891L19.2642 68H17.067V55.2031H19.2642V64.4053ZM36.2345 55.2031V68H34.046V55.2031H36.2345ZM40.2511 55.2031V56.9609H30.0646V55.2031H40.2511ZM51.8337 60.5469V62.2959H45.0397V60.5469H51.8337ZM45.5846 55.2031V68H43.3786V55.2031H45.5846ZM53.53 55.2031V68H51.3327V55.2031H53.53ZM65.9739 66.251V68H59.1799V66.251H65.9739ZM59.8039 55.2031V68H57.5979V55.2031H59.8039ZM65.0862 60.5469V62.2695H59.1799V60.5469H65.0862ZM65.9299 55.2031V56.9609H59.1799V55.2031H65.9299ZM76.7742 63.834H78.9715C78.9012 64.6719 78.6668 65.4189 78.2684 66.0752C77.8699 66.7256 77.3103 67.2383 76.5896 67.6133C75.8689 67.9883 74.993 68.1758 73.9617 68.1758C73.1707 68.1758 72.4588 68.0352 71.826 67.7539C71.1932 67.4668 70.6512 67.0625 70.2 66.541C69.7488 66.0137 69.4031 65.3779 69.1629 64.6338C68.9285 63.8896 68.8113 63.0576 68.8113 62.1377V61.0742C68.8113 60.1543 68.9314 59.3223 69.1717 58.5781C69.4178 57.834 69.7693 57.1982 70.2264 56.6709C70.6834 56.1377 71.2312 55.7305 71.8699 55.4492C72.5145 55.168 73.2381 55.0273 74.0408 55.0273C75.0603 55.0273 75.9217 55.2148 76.6248 55.5898C77.3279 55.9648 77.8728 56.4834 78.2596 57.1455C78.6521 57.8076 78.8924 58.5664 78.9803 59.4219H76.783C76.7244 58.8711 76.5955 58.3994 76.3963 58.0068C76.2029 57.6143 75.9158 57.3154 75.535 57.1104C75.1541 56.8994 74.6561 56.7939 74.0408 56.7939C73.5369 56.7939 73.0975 56.8877 72.7225 57.0752C72.3475 57.2627 72.034 57.5381 71.782 57.9014C71.5301 58.2646 71.3396 58.7129 71.2107 59.2461C71.0877 59.7734 71.0262 60.377 71.0262 61.0566V62.1377C71.0262 62.7822 71.0818 63.3682 71.1932 63.8955C71.3103 64.417 71.4861 64.8652 71.7205 65.2402C71.9607 65.6152 72.2654 65.9053 72.6346 66.1104C73.0037 66.3154 73.4461 66.418 73.9617 66.418C74.5887 66.418 75.0955 66.3184 75.4822 66.1191C75.8748 65.9199 76.1707 65.6299 76.3699 65.249C76.575 64.8623 76.7098 64.3906 76.7742 63.834ZM98.5419 61.25V61.9531C98.5419 62.9199 98.4159 63.7871 98.164 64.5547C97.912 65.3223 97.5517 65.9756 97.0829 66.5146C96.62 67.0537 96.0634 67.4668 95.413 67.7539C94.7626 68.0352 94.0419 68.1758 93.2509 68.1758C92.4657 68.1758 91.748 68.0352 91.0976 67.7539C90.453 67.4668 89.8935 67.0537 89.4189 66.5146C88.9443 65.9756 88.5751 65.3223 88.3114 64.5547C88.0536 63.7871 87.9247 62.9199 87.9247 61.9531V61.25C87.9247 60.2832 88.0536 59.4189 88.3114 58.6572C88.5693 57.8896 88.9325 57.2363 89.4013 56.6973C89.8759 56.1523 90.4355 55.7393 91.08 55.458C91.7304 55.1709 92.4482 55.0273 93.2333 55.0273C94.0243 55.0273 94.745 55.1709 95.3954 55.458C96.0458 55.7393 96.6054 56.1523 97.0741 56.6973C97.5429 57.2363 97.9032 57.8896 98.1552 58.6572C98.413 59.4189 98.5419 60.2832 98.5419 61.25ZM96.3359 61.9531V61.2324C96.3359 60.5176 96.2655 59.8877 96.1249 59.3428C95.9902 58.792 95.788 58.332 95.5185 57.9629C95.2548 57.5879 94.9296 57.3066 94.5429 57.1191C94.1562 56.9258 93.7197 56.8291 93.2333 56.8291C92.747 56.8291 92.3134 56.9258 91.9325 57.1191C91.5517 57.3066 91.2265 57.5879 90.957 57.9629C90.6933 58.332 90.4911 58.792 90.3505 59.3428C90.2099 59.8877 90.1396 60.5176 90.1396 61.2324V61.9531C90.1396 62.668 90.2099 63.3008 90.3505 63.8516C90.4911 64.4023 90.6962 64.8682 90.9657 65.249C91.2411 65.624 91.5693 65.9082 91.9501 66.1016C92.331 66.2891 92.7646 66.3828 93.2509 66.3828C93.7431 66.3828 94.1796 66.2891 94.5605 66.1016C94.9413 65.9082 95.2636 65.624 95.5273 65.249C95.7909 64.8682 95.9902 64.4023 96.1249 63.8516C96.2655 63.3008 96.3359 62.668 96.3359 61.9531ZM110.3 55.2031V56.9609H104.35V68H102.153V55.2031H110.3ZM103.682 60.1162H106.899C107.872 60.1162 108.704 60.2803 109.395 60.6084C110.086 60.9307 110.614 61.3848 110.977 61.9707C111.34 62.5566 111.522 63.2393 111.522 64.0186C111.522 64.6045 111.419 65.1406 111.214 65.627C111.009 66.1133 110.708 66.5352 110.309 66.8926C109.911 67.2441 109.424 67.5166 108.85 67.71C108.282 67.9033 107.631 68 106.899 68H102.153V55.2031H104.368V66.251H106.899C107.456 66.251 107.913 66.1484 108.27 65.9434C108.627 65.7324 108.891 65.457 109.061 65.1172C109.237 64.7773 109.325 64.4053 109.325 64.001C109.325 63.6084 109.237 63.251 109.061 62.9287C108.891 62.6064 108.627 62.3486 108.27 62.1553C107.913 61.9619 107.456 61.8652 106.899 61.8652H103.682V60.1162ZM119.809 63.2275H116.478V61.4785H119.809C120.389 61.4785 120.857 61.3848 121.215 61.1973C121.572 61.0098 121.833 60.752 121.997 60.4238C122.167 60.0898 122.252 59.709 122.252 59.2812C122.252 58.877 122.167 58.499 121.997 58.1475C121.833 57.79 121.572 57.5029 121.215 57.2861C120.857 57.0693 120.389 56.9609 119.809 56.9609H117.154V68H114.948V55.2031H119.809C120.799 55.2031 121.64 55.3789 122.331 55.7305C123.028 56.0762 123.559 56.5566 123.922 57.1719C124.285 57.7812 124.467 58.4785 124.467 59.2637C124.467 60.0898 124.285 60.7988 123.922 61.3906C123.559 61.9824 123.028 62.4365 122.331 62.7529C121.64 63.0693 120.799 63.2275 119.809 63.2275ZM131.532 56.9082L127.709 68H125.397L130.213 55.2031H131.69L131.532 56.9082ZM134.731 68L130.899 56.9082L130.732 55.2031H132.217L137.051 68H134.731ZM134.546 63.2539V65.0029H127.586V63.2539H134.546ZM144.31 61.8652H142.534V60.6084H144.064C144.609 60.6084 145.051 60.5293 145.391 60.3711C145.731 60.207 145.977 59.9814 146.129 59.6943C146.287 59.4014 146.366 59.0615 146.366 58.6748C146.366 58.3291 146.278 58.0127 146.103 57.7256C145.933 57.4385 145.669 57.21 145.312 57.04C144.954 56.8643 144.494 56.7764 143.932 56.7764C143.51 56.7764 143.126 56.8525 142.78 57.0049C142.435 57.1572 142.159 57.3711 141.954 57.6465C141.755 57.9219 141.655 58.2471 141.655 58.6221H139.449C139.449 58.0654 139.567 57.5674 139.801 57.1279C140.041 56.6826 140.366 56.3047 140.777 55.9941C141.193 55.6836 141.67 55.4463 142.209 55.2822C142.754 55.1123 143.328 55.0273 143.932 55.0273C144.635 55.0273 145.271 55.1064 145.839 55.2646C146.407 55.417 146.897 55.6455 147.307 55.9502C147.717 56.2549 148.03 56.6357 148.247 57.0928C148.464 57.5439 148.572 58.0684 148.572 58.666C148.572 59.1055 148.47 59.5186 148.265 59.9053C148.066 60.292 147.778 60.6318 147.403 60.9248C147.028 61.2178 146.577 61.4492 146.05 61.6191C145.528 61.7832 144.948 61.8652 144.31 61.8652ZM142.534 61.1006H144.31C145.019 61.1006 145.649 61.1738 146.199 61.3203C146.75 61.4668 147.216 61.6807 147.597 61.9619C147.978 62.2432 148.268 62.5918 148.467 63.0078C148.666 63.418 148.766 63.8896 148.766 64.4229C148.766 65.0205 148.646 65.5537 148.405 66.0225C148.171 66.4854 147.837 66.8779 147.403 67.2002C146.97 67.5225 146.457 67.7656 145.865 67.9297C145.279 68.0938 144.635 68.1758 143.932 68.1758C143.363 68.1758 142.801 68.1055 142.244 67.9648C141.694 67.8184 141.193 67.5957 140.741 67.2969C140.296 66.9922 139.939 66.6055 139.669 66.1367C139.4 65.668 139.265 65.1055 139.265 64.4492H141.48C141.48 64.8125 141.582 65.1465 141.787 65.4512C141.998 65.75 142.285 65.9902 142.649 66.1719C143.018 66.3477 143.445 66.4355 143.932 66.4355C144.488 66.4355 144.96 66.3477 145.347 66.1719C145.739 65.9961 146.038 65.7559 146.243 65.4512C146.454 65.1465 146.56 64.8037 146.56 64.4229C146.56 64.0596 146.504 63.7461 146.393 63.4824C146.287 63.2129 146.129 62.9961 145.918 62.832C145.707 62.6621 145.446 62.5361 145.136 62.4541C144.825 62.3721 144.468 62.3311 144.064 62.3311H142.534V61.1006ZM162.502 61.25V61.9531C162.502 62.9199 162.376 63.7871 162.124 64.5547C161.872 65.3223 161.511 65.9756 161.043 66.5146C160.58 67.0537 160.023 67.4668 159.373 67.7539C158.722 68.0352 158.002 68.1758 157.211 68.1758C156.426 68.1758 155.708 68.0352 155.057 67.7539C154.413 67.4668 153.853 67.0537 153.379 66.5146C152.904 65.9756 152.535 65.3223 152.271 64.5547C152.013 63.7871 151.884 62.9199 151.884 61.9531V61.25C151.884 60.2832 152.013 59.4189 152.271 58.6572C152.529 57.8896 152.892 57.2363 153.361 56.6973C153.836 56.1523 154.395 55.7393 155.04 55.458C155.69 55.1709 156.408 55.0273 157.193 55.0273C157.984 55.0273 158.705 55.1709 159.355 55.458C160.006 55.7393 160.565 56.1523 161.034 56.6973C161.503 57.2363 161.863 57.8896 162.115 58.6572C162.373 59.4189 162.502 60.2832 162.502 61.25ZM160.296 61.9531V61.2324C160.296 60.5176 160.225 59.8877 160.085 59.3428C159.95 58.792 159.748 58.332 159.478 57.9629C159.215 57.5879 158.889 57.3066 158.503 57.1191C158.116 56.9258 157.679 56.8291 157.193 56.8291C156.707 56.8291 156.273 56.9258 155.892 57.1191C155.511 57.3066 155.186 57.5879 154.917 57.9629C154.653 58.332 154.451 58.792 154.31 59.3428C154.17 59.8877 154.099 60.5176 154.099 61.2324V61.9531C154.099 62.668 154.17 63.3008 154.31 63.8516C154.451 64.4023 154.656 64.8682 154.926 65.249C155.201 65.624 155.529 65.9082 155.91 66.1016C156.291 66.2891 156.724 66.3828 157.211 66.3828C157.703 66.3828 158.139 66.2891 158.52 66.1016C158.901 65.9082 159.223 65.624 159.487 65.249C159.751 64.8682 159.95 64.4023 160.085 63.8516C160.225 63.3008 160.296 62.668 160.296 61.9531ZM170.947 62.2168H167.686L167.668 60.6084H170.516C170.996 60.6084 171.404 60.5381 171.738 60.3975C172.077 60.251 172.335 60.043 172.511 59.7734C172.687 59.498 172.775 59.167 172.775 58.7803C172.775 58.3525 172.693 58.0039 172.529 57.7344C172.365 57.4648 172.113 57.2686 171.773 57.1455C171.439 57.0225 171.011 56.9609 170.49 56.9609H168.354V68H166.148V55.2031H170.49C171.193 55.2031 171.82 55.2705 172.37 55.4053C172.927 55.54 173.399 55.751 173.785 56.0381C174.178 56.3193 174.474 56.6768 174.673 57.1104C174.878 57.5439 174.981 58.0596 174.981 58.6572C174.981 59.1846 174.855 59.668 174.603 60.1074C174.351 60.541 173.979 60.8955 173.487 61.1709C172.994 61.4463 172.382 61.6104 171.65 61.6631L170.947 62.2168ZM170.85 68H166.991L167.985 66.251H170.85C171.348 66.251 171.764 66.1689 172.098 66.0049C172.432 65.835 172.681 65.6035 172.845 65.3105C173.015 65.0117 173.1 64.6631 173.1 64.2646C173.1 63.8486 173.027 63.4883 172.88 63.1836C172.734 62.873 172.502 62.6357 172.186 62.4717C171.869 62.3018 171.456 62.2168 170.947 62.2168H168.468L168.486 60.6084H171.711L172.212 61.2148C172.915 61.2383 173.492 61.3936 173.944 61.6807C174.401 61.9678 174.741 62.3398 174.963 62.7969C175.186 63.2539 175.297 63.7461 175.297 64.2734C175.297 65.0879 175.118 65.7705 174.761 66.3213C174.409 66.8721 173.903 67.291 173.241 67.5781C172.578 67.8594 171.782 68 170.85 68ZM183.944 56.9082L180.121 68H177.809L182.626 55.2031H184.102L183.944 56.9082ZM187.143 68L183.311 56.9082L183.144 55.2031H184.63L189.464 68H187.143ZM186.959 63.2539V65.0029H179.998V63.2539H186.959ZM200.791 60.5469V62.2959H193.997V60.5469H200.791ZM194.542 55.2031V68H192.336V55.2031H194.542ZM202.488 55.2031V68H200.29V55.2031H202.488ZM208.735 64.4053L214.413 55.2031H216.619V68H214.413V58.7891L208.735 68H206.538V55.2031H208.735V64.4053ZM229.081 66.251V68H222.287V66.251H229.081ZM222.911 55.2031V68H220.705V55.2031H222.911ZM228.193 60.5469V62.2695H222.287V60.5469H228.193ZM229.037 55.2031V56.9609H222.287V55.2031H229.037Z" fill="#A2D42D"/>
<path d="M14.6718 90.3672L16.6464 84.6602H17.4023L14.7187 92.0195C14.664 92.1641 14.5937 92.3242 14.5077 92.5C14.4257 92.6758 14.3163 92.8438 14.1796 93.0039C14.0468 93.168 13.8788 93.3008 13.6757 93.4023C13.4765 93.5078 13.2323 93.5605 12.9433 93.5605C12.8691 93.5605 12.7734 93.5508 12.6562 93.5312C12.5429 93.5156 12.4609 93.5 12.4101 93.4844L12.4042 92.8926C12.4472 92.9043 12.5097 92.9141 12.5917 92.9219C12.6738 92.9297 12.7304 92.9336 12.7616 92.9336C13.0155 92.9336 13.2284 92.8906 13.4003 92.8047C13.5761 92.7188 13.7226 92.5898 13.8398 92.418C13.957 92.25 14.0605 92.0391 14.1503 91.7852L14.6718 90.3672ZM12.8261 84.6602L14.8476 90.1035L15.0351 90.8359L14.5253 91.123L12.0644 84.6602H12.8261ZM31.8238 84.6602V91H31.1266V84.6602H31.8238ZM31.5836 87.5371V88.1406C31.4039 88.2266 31.1969 88.3086 30.9625 88.3867C30.732 88.4648 30.4879 88.5293 30.2301 88.5801C29.9762 88.627 29.7223 88.6504 29.4684 88.6504C28.9449 88.6504 28.5016 88.5742 28.1383 88.4219C27.7789 88.2695 27.5074 88.0195 27.3238 87.6719C27.1402 87.3203 27.0484 86.8516 27.0484 86.2656V84.6543H27.7457V86.2656C27.7457 86.7148 27.8082 87.0703 27.9332 87.332C28.0582 87.5898 28.2477 87.7734 28.5016 87.8828C28.7555 87.9922 29.0777 88.0469 29.4684 88.0469C29.7379 88.0391 30.0055 88.0117 30.2711 87.9648C30.5367 87.9141 30.7828 87.8516 31.0094 87.7773C31.2398 87.6992 31.4313 87.6191 31.5836 87.5371ZM44.9739 91.1172C44.5598 91.1172 44.179 91.041 43.8313 90.8887C43.4876 90.7363 43.1868 90.5215 42.929 90.2441C42.6751 89.9668 42.4778 89.6387 42.3372 89.2598C42.2005 88.877 42.1321 88.459 42.1321 88.0059V87.7539C42.1321 87.2656 42.2044 86.8242 42.3489 86.4297C42.4934 86.0352 42.6927 85.6973 42.9466 85.416C43.2005 85.1348 43.4895 84.9199 43.8138 84.7715C44.1419 84.6191 44.4856 84.543 44.845 84.543C45.2473 84.543 45.6048 84.6152 45.9173 84.7598C46.2298 84.9004 46.4915 85.1016 46.7024 85.3633C46.9173 85.6211 47.0794 85.9277 47.1888 86.2832C47.2981 86.6348 47.3528 87.0234 47.3528 87.4492V87.877H42.554V87.2793H46.6555V87.1973C46.6477 86.8418 46.5755 86.5098 46.4388 86.2012C46.3059 85.8887 46.1067 85.6348 45.8411 85.4395C45.5755 85.2441 45.2434 85.1465 44.845 85.1465C44.5481 85.1465 44.2747 85.209 44.0247 85.334C43.7786 85.459 43.5657 85.6387 43.386 85.873C43.2102 86.1035 43.0735 86.3789 42.9759 86.6992C42.8821 87.0156 42.8352 87.3672 42.8352 87.7539V88.0059C42.8352 88.3574 42.886 88.6855 42.9876 88.9902C43.093 89.291 43.2415 89.5566 43.4329 89.7871C43.6282 90.0176 43.8587 90.1973 44.1243 90.3262C44.3899 90.4551 44.6829 90.5195 45.0032 90.5195C45.3782 90.5195 45.7102 90.4512 45.9993 90.3145C46.2884 90.1738 46.5481 89.9531 46.7786 89.6523L47.218 89.9922C47.0813 90.1953 46.9095 90.3828 46.7024 90.5547C46.4993 90.7266 46.2552 90.8633 45.97 90.9648C45.6848 91.0664 45.3528 91.1172 44.9739 91.1172ZM61.6689 81.9004H62.2724C62.2724 82.1934 62.2197 82.4375 62.1142 82.6328C62.0127 82.8281 61.8681 82.9863 61.6806 83.1074C61.4931 83.2285 61.2724 83.3242 61.0185 83.3945C60.7685 83.4609 60.4951 83.5176 60.1982 83.5645C59.8349 83.6191 59.5009 83.7383 59.1963 83.9219C58.8955 84.1055 58.6377 84.3574 58.4228 84.6777C58.208 84.9941 58.0459 85.3867 57.9365 85.8555C57.831 86.3203 57.788 86.8652 57.8076 87.4902V88.0352H57.2041V87.4902C57.2041 86.8027 57.2705 86.1934 57.4033 85.6621C57.54 85.127 57.7334 84.6699 57.9834 84.291C58.2373 83.9121 58.538 83.6113 58.8857 83.3887C59.2373 83.1621 59.6259 83.0137 60.0517 82.9434C60.4502 82.8809 60.7666 82.8047 61.0009 82.7148C61.2392 82.625 61.4091 82.5137 61.5107 82.3809C61.6162 82.248 61.6689 82.0879 61.6689 81.9004ZM60.1103 85.0762C60.5244 85.0762 60.8974 85.1465 61.2295 85.2871C61.5615 85.4277 61.8447 85.627 62.0791 85.8848C62.3173 86.1387 62.499 86.4395 62.624 86.7871C62.7529 87.1309 62.8173 87.5078 62.8173 87.918V88.1055C62.8173 88.543 62.7509 88.9453 62.6181 89.3125C62.4892 89.6797 62.3017 89.998 62.0556 90.2676C61.8134 90.5371 61.5185 90.7461 61.1709 90.8945C60.8271 91.043 60.4423 91.1172 60.0166 91.1172C59.5869 91.1172 59.2002 91.043 58.8564 90.8945C58.5127 90.7461 58.2177 90.5371 57.9716 90.2676C57.7255 89.998 57.5361 89.6797 57.4033 89.3125C57.2705 88.9453 57.2041 88.543 57.2041 88.1055V87.918C57.2041 87.8047 57.2158 87.6934 57.2392 87.584C57.2666 87.4746 57.2998 87.3672 57.3388 87.2617C57.3779 87.1523 57.417 87.0449 57.456 86.9395C57.5927 86.584 57.7861 86.2676 58.0361 85.9902C58.2861 85.709 58.5849 85.4863 58.9326 85.3223C59.2841 85.1582 59.6767 85.0762 60.1103 85.0762ZM60.0048 85.6738C59.5478 85.6738 59.163 85.7793 58.8505 85.9902C58.542 86.1973 58.3076 86.4727 58.1474 86.8164C57.9873 87.1562 57.9072 87.5234 57.9072 87.918V88.1055C57.9072 88.4297 57.9521 88.7363 58.042 89.0254C58.1318 89.3145 58.2646 89.5723 58.4404 89.7988C58.6201 90.0215 58.8408 90.1973 59.1025 90.3262C59.3642 90.4551 59.6689 90.5195 60.0166 90.5195C60.3603 90.5195 60.663 90.4551 60.9248 90.3262C61.1865 90.1973 61.4052 90.0215 61.581 89.7988C61.7568 89.5723 61.8896 89.3145 61.9795 89.0254C62.0693 88.7363 62.1142 88.4297 62.1142 88.1055V87.918C62.1142 87.6211 62.0693 87.3379 61.9795 87.0684C61.8896 86.7988 61.7548 86.5605 61.5752 86.3535C61.3994 86.1426 61.1787 85.9766 60.913 85.8555C60.6513 85.7344 60.3486 85.6738 60.0048 85.6738ZM77.2038 87.4961V88.0938H73.442V87.4961H77.2038ZM73.6237 84.6602V91H72.9264V84.6602H73.6237ZM77.7428 84.6602V91H77.0397V84.6602H77.7428ZM88.971 86.957H91.0394C91.5394 86.957 91.9613 87.0449 92.305 87.2207C92.6488 87.3926 92.9085 87.6309 93.0843 87.9355C93.264 88.2402 93.3538 88.584 93.3538 88.9668C93.3538 89.2559 93.303 89.5254 93.2015 89.7754C93.1038 90.0215 92.9554 90.2363 92.7562 90.4199C92.5609 90.6035 92.3187 90.7461 92.0296 90.8477C91.7445 90.9492 91.4144 91 91.0394 91H88.5257V84.6602H89.223V90.3965H91.0394C91.4261 90.3965 91.7386 90.3301 91.9769 90.1973C92.2152 90.0605 92.387 89.8848 92.4925 89.6699C92.6019 89.4551 92.6566 89.2266 92.6566 88.9844C92.6566 88.7461 92.6019 88.5195 92.4925 88.3047C92.387 88.0859 92.2152 87.9082 91.9769 87.7715C91.7386 87.6309 91.4261 87.5605 91.0394 87.5605H88.971V86.957ZM95.5042 84.6602V91H94.807V84.6602H95.5042ZM107.02 89.8633L110.447 84.6602H111.15V91H110.447V85.7969L107.02 91H106.328V84.6602H107.02V89.8633ZM109.803 82.3867H110.4C110.4 82.6797 110.332 82.9395 110.195 83.166C110.062 83.3926 109.869 83.5703 109.615 83.6992C109.361 83.8281 109.061 83.8926 108.713 83.8926C108.189 83.8926 107.775 83.752 107.471 83.4707C107.17 83.1895 107.02 82.8281 107.02 82.3867H107.611C107.611 82.6562 107.693 82.8906 107.857 83.0898C108.025 83.2852 108.311 83.3828 108.713 83.3828C109.104 83.3828 109.383 83.2832 109.551 83.084C109.719 82.8848 109.803 82.6523 109.803 82.3867ZM133.648 91V84.6602H134.345V90.3965H137.767V84.6602H138.47V91H133.648ZM139.109 90.3965L139.056 92.8809H138.417V91H137.667V90.3965H139.109ZM151.714 91.1172C151.3 91.1172 150.919 91.041 150.571 90.8887C150.228 90.7363 149.927 90.5215 149.669 90.2441C149.415 89.9668 149.218 89.6387 149.077 89.2598C148.94 88.877 148.872 88.459 148.872 88.0059V87.7539C148.872 87.2656 148.944 86.8242 149.089 86.4297C149.233 86.0352 149.433 85.6973 149.687 85.416C149.94 85.1348 150.23 84.9199 150.554 84.7715C150.882 84.6191 151.226 84.543 151.585 84.543C151.987 84.543 152.345 84.6152 152.657 84.7598C152.97 84.9004 153.231 85.1016 153.442 85.3633C153.657 85.6211 153.819 85.9277 153.929 86.2832C154.038 86.6348 154.093 87.0234 154.093 87.4492V87.877H149.294V87.2793H153.396V87.1973C153.388 86.8418 153.315 86.5098 153.179 86.2012C153.046 85.8887 152.847 85.6348 152.581 85.4395C152.315 85.2441 151.983 85.1465 151.585 85.1465C151.288 85.1465 151.015 85.209 150.765 85.334C150.519 85.459 150.306 85.6387 150.126 85.873C149.95 86.1035 149.814 86.3789 149.716 86.6992C149.622 87.0156 149.575 87.3672 149.575 87.7539V88.0059C149.575 88.3574 149.626 88.6855 149.728 88.9902C149.833 89.291 149.981 89.5566 150.173 89.7871C150.368 90.0176 150.599 90.1973 150.864 90.3262C151.13 90.4551 151.423 90.5195 151.743 90.5195C152.118 90.5195 152.45 90.4512 152.739 90.3145C153.028 90.1738 153.288 89.9531 153.519 89.6523L153.958 89.9922C153.821 90.1953 153.649 90.3828 153.442 90.5547C153.239 90.7266 152.995 90.8633 152.71 90.9648C152.425 91.0664 152.093 91.1172 151.714 91.1172ZM168.62 87.4961V88.0938H164.858V87.4961H168.62ZM165.04 84.6602V91H164.342V84.6602H165.04ZM169.159 84.6602V91H168.456V84.6602H169.159ZM182.104 84.6602V91H181.407V84.6602H182.104ZM184.412 84.6602V85.2578H179.18V84.6602H184.412ZM195.084 85.8789V93.4375H194.381V84.6602H195.037L195.084 85.8789ZM199.49 87.7715V87.8945C199.49 88.3672 199.436 88.8008 199.326 89.1953C199.217 89.5898 199.059 89.9316 198.852 90.2207C198.649 90.5059 198.397 90.7266 198.096 90.8828C197.795 91.0391 197.453 91.1172 197.07 91.1172C196.691 91.1172 196.354 91.0586 196.057 90.9414C195.76 90.8242 195.504 90.6582 195.289 90.4434C195.078 90.2246 194.908 89.9707 194.779 89.6816C194.654 89.3887 194.566 89.0684 194.516 88.7207V87.0977C194.574 86.7148 194.67 86.3672 194.803 86.0547C194.936 85.7422 195.106 85.4727 195.313 85.2461C195.524 85.0195 195.774 84.8457 196.063 84.7246C196.352 84.6035 196.682 84.543 197.053 84.543C197.44 84.543 197.783 84.6191 198.084 84.7715C198.389 84.9199 198.645 85.1367 198.852 85.4219C199.063 85.7031 199.221 86.043 199.326 86.4414C199.436 86.8359 199.49 87.2793 199.49 87.7715ZM198.787 87.8945V87.7715C198.787 87.4004 198.748 87.0566 198.67 86.7402C198.596 86.4238 198.481 86.1484 198.324 85.9141C198.172 85.6758 197.977 85.4902 197.738 85.3574C197.504 85.2246 197.225 85.1582 196.9 85.1582C196.565 85.1582 196.277 85.2148 196.039 85.3281C195.805 85.4375 195.609 85.584 195.453 85.7676C195.297 85.9473 195.174 86.1445 195.084 86.3594C194.994 86.5742 194.928 86.7852 194.885 86.9922V88.8613C194.959 89.1582 195.078 89.4336 195.242 89.6875C195.406 89.9375 195.625 90.1387 195.899 90.291C196.176 90.4395 196.514 90.5137 196.912 90.5137C197.232 90.5137 197.51 90.4473 197.744 90.3145C197.979 90.1816 198.172 89.9961 198.324 89.7578C198.481 89.5195 198.596 89.2422 198.67 88.9258C198.748 88.6094 198.787 88.2656 198.787 87.8945Z" fill="black"/>
<path d="M225.619 81.2252C226.063 80.5311 226.821 80.1007 227.645 80.0746L228.796 80.0381C229.302 80.0221 229.616 80.5834 229.338 81.0065L223.418 90H220L225.619 81.2252Z" fill="#A2D42D"/>
</svg>
