<svg width="200" height="35" viewBox="0 0 249 39" fill="none" xmlns="http://www.w3.org/2000/svg">
<rect y="1.5" width="36" height="36" rx="4" fill="black"/>
<rect x="3.5" y="5" width="29" height="29" rx="4.5" fill="#0F1214"/>
<path d="M7.27841 22.5V10.8636H11.4261C12.3277 10.8636 13.0758 11.0189 13.6705 11.3295C14.2689 11.6402 14.7159 12.0701 15.0114 12.6193C15.3068 13.1648 15.4545 13.7955 15.4545 14.5114C15.4545 15.2235 15.3049 15.8504 15.0057 16.392C14.7102 16.9299 14.2633 17.3485 13.6648 17.6477C13.0701 17.947 12.322 18.0966 11.4205 18.0966H8.27841V16.5852H11.2614C11.8295 16.5852 12.2917 16.5038 12.6477 16.3409C13.0076 16.178 13.2708 15.9413 13.4375 15.6307C13.6042 15.3201 13.6875 14.947 13.6875 14.5114C13.6875 14.072 13.6023 13.6913 13.4318 13.3693C13.2652 13.0473 13.0019 12.8011 12.642 12.6307C12.286 12.4564 11.8182 12.3693 11.2386 12.3693H9.03409V22.5H7.27841ZM13.0227 17.25L15.8977 22.5H13.8977L11.0795 17.25H13.0227Z" fill="white"/>
<rect x="3.5" y="5" width="29" height="29" rx="4.5" stroke="white"/>
<path d="M54.5568 31V7.72727H62.8523C64.6553 7.72727 66.1515 8.03788 67.3409 8.65909C68.5379 9.2803 69.4318 10.1402 70.0227 11.2386C70.6136 12.3295 70.9091 13.5909 70.9091 15.0227C70.9091 16.447 70.6098 17.7008 70.0114 18.7841C69.4205 19.8598 68.5265 20.697 67.3295 21.2955C66.1402 21.8939 64.6439 22.1932 62.8409 22.1932H56.5568V19.1705H62.5227C63.6591 19.1705 64.5833 19.0076 65.2955 18.6818C66.0152 18.3561 66.5417 17.8826 66.875 17.2614C67.2083 16.6402 67.375 15.8939 67.375 15.0227C67.375 14.1439 67.2045 13.3826 66.8636 12.7386C66.5303 12.0947 66.0038 11.6023 65.2841 11.2614C64.572 10.9129 63.6364 10.7386 62.4773 10.7386H58.0682V31H54.5568ZM66.0455 20.5L71.7955 31H67.7955L62.1591 20.5H66.0455ZM81.2531 31.3523C79.5334 31.3523 78.0523 30.9848 76.8099 30.25C75.575 29.5076 74.6205 28.4659 73.9463 27.125C73.2796 25.7765 72.9463 24.197 72.9463 22.3864C72.9463 20.5985 73.2796 19.0227 73.9463 17.6591C74.6205 16.2955 75.5599 15.2311 76.7644 14.4659C77.9766 13.7008 79.3932 13.3182 81.0144 13.3182C81.9993 13.3182 82.9538 13.4811 83.8781 13.8068C84.8023 14.1326 85.6319 14.6439 86.3667 15.3409C87.1016 16.0379 87.6811 16.9432 88.1053 18.0568C88.5296 19.1629 88.7417 20.5076 88.7417 22.0909V23.2955H74.8667V20.75H85.4122C85.4122 19.8561 85.2303 19.0644 84.8667 18.375C84.5031 17.678 83.9917 17.1288 83.3326 16.7273C82.6811 16.3258 81.9159 16.125 81.0372 16.125C80.0826 16.125 79.2493 16.3598 78.5372 16.8295C77.8326 17.2917 77.2872 17.8977 76.9008 18.6477C76.522 19.3902 76.3326 20.197 76.3326 21.0682V23.0568C76.3326 24.2235 76.5372 25.2159 76.9463 26.0341C77.3629 26.8523 77.9425 27.4773 78.6849 27.9091C79.4273 28.3333 80.2947 28.5455 81.2872 28.5455C81.9311 28.5455 82.5182 28.4545 83.0485 28.2727C83.5788 28.0833 84.0372 27.803 84.4235 27.4318C84.8099 27.0606 85.1053 26.6023 85.3099 26.0568L88.5258 26.6364C88.2682 27.5833 87.8061 28.4129 87.1394 29.125C86.4803 29.8295 85.6508 30.3788 84.6508 30.7727C83.6584 31.1591 82.5258 31.3523 81.2531 31.3523ZM104.631 17.8068L101.552 18.3523C101.423 17.9583 101.218 17.5833 100.938 17.2273C100.665 16.8712 100.294 16.5795 99.8243 16.3523C99.3546 16.125 98.7675 16.0114 98.063 16.0114C97.1008 16.0114 96.2978 16.2273 95.6539 16.6591C95.0099 17.0833 94.688 17.6326 94.688 18.3068C94.688 18.8902 94.9039 19.3598 95.3357 19.7159C95.7675 20.072 96.4645 20.3636 97.4266 20.5909L100.199 21.2273C101.805 21.5985 103.002 22.1705 103.79 22.9432C104.578 23.7159 104.972 24.7197 104.972 25.9545C104.972 27 104.669 27.9318 104.063 28.75C103.464 29.5606 102.627 30.197 101.552 30.6591C100.483 31.1212 99.2448 31.3523 97.8357 31.3523C95.8811 31.3523 94.2864 30.9356 93.0516 30.1023C91.8167 29.2614 91.0592 28.0682 90.7789 26.5227L94.063 26.0227C94.2675 26.8788 94.688 27.5265 95.3243 27.9659C95.9607 28.3977 96.7902 28.6136 97.813 28.6136C98.9266 28.6136 99.8167 28.3826 100.483 27.9205C101.15 27.4508 101.483 26.8788 101.483 26.2045C101.483 25.6591 101.279 25.2008 100.87 24.8295C100.468 24.4583 99.8508 24.178 99.0175 23.9886L96.063 23.3409C94.4342 22.9697 93.2296 22.3788 92.4493 21.5682C91.6766 20.7576 91.2902 19.7311 91.2902 18.4886C91.2902 17.4583 91.5781 16.5568 92.1539 15.7841C92.7296 15.0114 93.5251 14.4091 94.5402 13.9773C95.5554 13.5379 96.7183 13.3182 98.0289 13.3182C99.9152 13.3182 101.4 13.7273 102.483 14.5455C103.567 15.3561 104.283 16.4432 104.631 17.8068ZM118.805 23.7614V13.5455H122.214V31H118.873V27.9773H118.691C118.29 28.9091 117.646 29.6856 116.759 30.3068C115.88 30.9205 114.786 31.2273 113.475 31.2273C112.354 31.2273 111.361 30.9811 110.498 30.4886C109.642 29.9886 108.968 29.25 108.475 28.2727C107.99 27.2955 107.748 26.0871 107.748 24.6477V13.5455H111.146V24.2386C111.146 25.428 111.475 26.375 112.134 27.0795C112.793 27.7841 113.649 28.1364 114.702 28.1364C115.339 28.1364 115.971 27.9773 116.6 27.6591C117.236 27.3409 117.763 26.8598 118.18 26.2159C118.604 25.572 118.812 24.7538 118.805 23.7614ZM129.217 7.72727V31H125.819V7.72727H129.217ZM140.976 13.5455V16.2727H131.441V13.5455H140.976ZM133.998 9.36364H137.396V25.875C137.396 26.5341 137.495 27.0303 137.691 27.3636C137.888 27.6894 138.142 27.9129 138.453 28.0341C138.771 28.1477 139.116 28.2045 139.487 28.2045C139.76 28.2045 139.998 28.1856 140.203 28.1477C140.407 28.1098 140.566 28.0795 140.68 28.0568L141.294 30.8636C141.097 30.9394 140.816 31.0152 140.453 31.0909C140.089 31.1742 139.635 31.2197 139.089 31.2273C138.195 31.2424 137.362 31.0833 136.589 30.75C135.816 30.4167 135.191 29.9015 134.714 29.2045C134.237 28.5076 133.998 27.6326 133.998 26.5795V9.36364ZM164.249 13.8409C164.128 12.7652 163.628 11.9318 162.749 11.3409C161.87 10.7424 160.764 10.4432 159.431 10.4432C158.476 10.4432 157.65 10.5947 156.953 10.8977C156.256 11.1932 155.715 11.6023 155.328 12.125C154.95 12.6402 154.76 13.2273 154.76 13.8864C154.76 14.4394 154.889 14.9167 155.146 15.3182C155.412 15.7197 155.756 16.0568 156.181 16.3295C156.612 16.5947 157.075 16.8182 157.567 17C158.059 17.1742 158.533 17.3182 158.987 17.4318L161.26 18.0227C162.003 18.2045 162.764 18.4508 163.544 18.7614C164.325 19.072 165.048 19.4811 165.715 19.9886C166.381 20.4962 166.919 21.125 167.328 21.875C167.745 22.625 167.953 23.5227 167.953 24.5682C167.953 25.8864 167.612 27.0568 166.931 28.0795C166.256 29.1023 165.275 29.9091 163.987 30.5C162.707 31.0909 161.158 31.3864 159.34 31.3864C157.597 31.3864 156.09 31.1098 154.817 30.5568C153.544 30.0038 152.548 29.2197 151.828 28.2045C151.109 27.1818 150.711 25.9697 150.635 24.5682H154.158C154.226 25.4091 154.499 26.1098 154.976 26.6705C155.461 27.2235 156.078 27.6364 156.828 27.9091C157.586 28.1742 158.415 28.3068 159.317 28.3068C160.309 28.3068 161.192 28.1515 161.965 27.8409C162.745 27.5227 163.359 27.0833 163.806 26.5227C164.253 25.9545 164.476 25.2917 164.476 24.5341C164.476 23.8447 164.279 23.2803 163.885 22.8409C163.499 22.4015 162.972 22.0379 162.306 21.75C161.646 21.4621 160.9 21.2083 160.067 20.9886L157.317 20.2386C155.453 19.7311 153.976 18.9848 152.885 18C151.802 17.0152 151.26 15.7121 151.26 14.0909C151.26 12.75 151.624 11.5795 152.351 10.5795C153.078 9.57954 154.063 8.80303 155.306 8.25C156.548 7.68939 157.95 7.40909 159.51 7.40909C161.086 7.40909 162.476 7.68561 163.681 8.23864C164.893 8.79167 165.847 9.55303 166.544 10.5227C167.241 11.4848 167.605 12.5909 167.635 13.8409H164.249ZM178.269 31.3523C176.579 31.3523 175.125 30.9697 173.905 30.2045C172.693 29.4318 171.761 28.3674 171.11 27.0114C170.458 25.6553 170.132 24.1023 170.132 22.3523C170.132 20.5795 170.466 19.0152 171.132 17.6591C171.799 16.2955 172.739 15.2311 173.951 14.4659C175.163 13.7008 176.591 13.3182 178.235 13.3182C179.561 13.3182 180.742 13.5644 181.78 14.0568C182.818 14.5417 183.655 15.2235 184.292 16.1023C184.936 16.9811 185.318 18.0076 185.439 19.1818H182.132C181.951 18.3636 181.534 17.6591 180.882 17.0682C180.239 16.4773 179.375 16.1818 178.292 16.1818C177.345 16.1818 176.515 16.4318 175.803 16.9318C175.098 17.4242 174.549 18.1288 174.155 19.0455C173.761 19.9545 173.564 21.0303 173.564 22.2727C173.564 23.5455 173.758 24.6439 174.144 25.5682C174.53 26.4924 175.076 27.2083 175.78 27.7159C176.492 28.2235 177.329 28.4773 178.292 28.4773C178.936 28.4773 179.519 28.3598 180.042 28.125C180.572 27.8826 181.015 27.5379 181.371 27.0909C181.735 26.6439 181.989 26.1061 182.132 25.4773H185.439C185.318 26.6061 184.951 27.6136 184.337 28.5C183.723 29.3864 182.901 30.0833 181.871 30.5909C180.848 31.0985 179.648 31.3523 178.269 31.3523ZM191.511 20.6364V31H188.113V7.72727H191.465V16.3864H191.681C192.09 15.447 192.715 14.7008 193.556 14.1477C194.397 13.5947 195.495 13.3182 196.851 13.3182C198.048 13.3182 199.094 13.5644 199.988 14.0568C200.889 14.5492 201.586 15.2841 202.079 16.2614C202.579 17.2311 202.829 18.4432 202.829 19.8977V31H199.431V20.3068C199.431 19.0265 199.101 18.0341 198.442 17.3295C197.783 16.6174 196.867 16.2614 195.692 16.2614C194.889 16.2614 194.17 16.4318 193.533 16.7727C192.905 17.1136 192.408 17.6136 192.045 18.2727C191.689 18.9242 191.511 19.7121 191.511 20.6364ZM213.755 31.3523C212.119 31.3523 210.691 30.9773 209.471 30.2273C208.251 29.4773 207.304 28.428 206.63 27.0795C205.956 25.7311 205.619 24.1553 205.619 22.3523C205.619 20.5417 205.956 18.9583 206.63 17.6023C207.304 16.2462 208.251 15.1932 209.471 14.4432C210.691 13.6932 212.119 13.3182 213.755 13.3182C215.391 13.3182 216.82 13.6932 218.039 14.4432C219.259 15.1932 220.206 16.2462 220.88 17.6023C221.554 18.9583 221.891 20.5417 221.891 22.3523C221.891 24.1553 221.554 25.7311 220.88 27.0795C220.206 28.428 219.259 29.4773 218.039 30.2273C216.82 30.9773 215.391 31.3523 213.755 31.3523ZM213.766 28.5C214.827 28.5 215.706 28.2197 216.403 27.6591C217.1 27.0985 217.615 26.3523 217.948 25.4205C218.289 24.4886 218.46 23.4621 218.46 22.3409C218.46 21.2273 218.289 20.2045 217.948 19.2727C217.615 18.3333 217.1 17.5795 216.403 17.0114C215.706 16.4432 214.827 16.1591 213.766 16.1591C212.698 16.1591 211.812 16.4432 211.107 17.0114C210.41 17.5795 209.891 18.3333 209.551 19.2727C209.217 20.2045 209.051 21.2273 209.051 22.3409C209.051 23.4621 209.217 24.4886 209.551 25.4205C209.891 26.3523 210.41 27.0985 211.107 27.6591C211.812 28.2197 212.698 28.5 213.766 28.5ZM232.076 31.3523C230.44 31.3523 229.012 30.9773 227.792 30.2273C226.573 29.4773 225.626 28.428 224.951 27.0795C224.277 25.7311 223.94 24.1553 223.94 22.3523C223.94 20.5417 224.277 18.9583 224.951 17.6023C225.626 16.2462 226.573 15.1932 227.792 14.4432C229.012 13.6932 230.44 13.3182 232.076 13.3182C233.713 13.3182 235.141 13.6932 236.36 14.4432C237.58 15.1932 238.527 16.2462 239.201 17.6023C239.876 18.9583 240.213 20.5417 240.213 22.3523C240.213 24.1553 239.876 25.7311 239.201 27.0795C238.527 28.428 237.58 29.4773 236.36 30.2273C235.141 30.9773 233.713 31.3523 232.076 31.3523ZM232.088 28.5C233.148 28.5 234.027 28.2197 234.724 27.6591C235.421 27.0985 235.936 26.3523 236.27 25.4205C236.61 24.4886 236.781 23.4621 236.781 22.3409C236.781 21.2273 236.61 20.2045 236.27 19.2727C235.936 18.3333 235.421 17.5795 234.724 17.0114C234.027 16.4432 233.148 16.1591 232.088 16.1591C231.02 16.1591 230.133 16.4432 229.429 17.0114C228.732 17.5795 228.213 18.3333 227.872 19.2727C227.538 20.2045 227.372 21.2273 227.372 22.3409C227.372 23.4621 227.538 24.4886 227.872 25.4205C228.213 26.3523 228.732 27.0985 229.429 27.6591C230.133 28.2197 231.02 28.5 232.088 28.5ZM246.443 7.72727V31H243.045V7.72727H246.443Z" fill="#161616"/>
</svg>
